M48
; DRILL file {KiCad (5.1.6)-1} date 08/31/20 14:33:42
; FORMAT={-:-/ absolute / inch / decimal}
; #@! TF.CreationDate,2020-08-31T14:33:42-05:00
; #@! TF.GenerationSoftware,Kicad,Pcbnew,(5.1.6)-1
; #@! TF.FileFunction,Plated,1,2,PTH
FMAT,2
INCH
T1C0.0157
T2C0.0236
T3C0.0579
%
G90
G05
T1
X6.76Y-2.02
X6.76Y-2.0596
X6.76Y-2.099
X6.799Y-1.983
X7.019Y-1.983
X7.3Y-1.638
X7.3Y-1.764
X7.3333Y-1.6853
X7.417Y-1.686
X7.67Y-1.4306
X7.769Y-1.477
X7.855Y-1.473
X7.5029Y-1.3174
X7.5029Y-1.3706
X7.5363Y-1.3174
X7.5363Y-1.3706
X7.5698Y-1.3174
X7.5698Y-1.3706
X7.6033Y-1.3174
X7.6033Y-1.3706
X7.6367Y-1.3174
X7.6367Y-1.3706
X7.6702Y-1.3174
X7.6702Y-1.3706
X7.7037Y-1.3174
X7.7037Y-1.3706
X7.7371Y-1.3174
X7.7371Y-1.3706
T3
X6.725Y-2.275
X6.975Y-2.175
X7.475Y-3.025
X7.725Y-2.925
X6.725Y-3.775
X6.975Y-3.675
X8.225Y-3.025
X8.475Y-2.925
X7.475Y-3.775
X7.725Y-3.675
X7.475Y-2.275
X7.725Y-2.175
X8.225Y-3.775
X8.475Y-3.675
X6.725Y-3.025
X6.975Y-2.925
X8.225Y-2.275
X8.475Y-2.175
T2
G00X7.4497Y-1.2147
M15
G01X7.4497Y-1.1832
M16
G05
G00X7.4497Y-1.3615
M15
G01X7.4497Y-1.3025
M16
G05
G00X7.7903Y-1.2147
M15
G01X7.7903Y-1.1832
M16
G05
G00X7.7903Y-1.3615
M15
G01X7.7903Y-1.3025
M16
G05
T0
M30
