%TF.GenerationSoftware,KiCad,Pcbnew,(5.1.6)-1*%
%TF.CreationDate,2020-08-31T14:33:41-05:00*%
%TF.ProjectId,totoro-pcb-macropad,746f746f-726f-42d7-9063-622d6d616372,rev?*%
%TF.SameCoordinates,Original*%
%TF.FileFunction,Copper,L2,Bot*%
%TF.FilePolarity,Positive*%
%FSLAX46Y46*%
G04 Gerber Fmt 4.6, Leading zero omitted, Abs format (unit mm)*
G04 Created by KiCad (PCBNEW (5.1.6)-1) date 2020-08-31 14:33:41*
%MOMM*%
%LPD*%
G01*
G04 APERTURE LIST*
%TA.AperFunction,ComponentPad*%
%ADD10C,2.250000*%
%TD*%
%TA.AperFunction,ComponentPad*%
%ADD11O,1.108000X2.216000*%
%TD*%
%TA.AperFunction,ComponentPad*%
%ADD12C,0.650000*%
%TD*%
%TA.AperFunction,SMDPad,CuDef*%
%ADD13R,0.900000X1.200000*%
%TD*%
%TA.AperFunction,ViaPad*%
%ADD14C,0.800000*%
%TD*%
%TA.AperFunction,Conductor*%
%ADD15C,0.400000*%
%TD*%
%TA.AperFunction,Conductor*%
%ADD16C,0.300000*%
%TD*%
%TA.AperFunction,Conductor*%
%ADD17C,0.254000*%
%TD*%
G04 APERTURE END LIST*
D10*
%TO.P,MX9,2*%
%TO.N,Net-(D9-Pad2)*%
X215265000Y-93345000D03*
%TO.P,MX9,1*%
%TO.N,COL2*%
X208915000Y-95885000D03*
%TD*%
%TO.P,MX8,2*%
%TO.N,Net-(D8-Pad2)*%
X196215000Y-93345000D03*
%TO.P,MX8,1*%
%TO.N,COL1*%
X189865000Y-95885000D03*
%TD*%
%TO.P,MX7,2*%
%TO.N,Net-(D7-Pad2)*%
X177165000Y-93345000D03*
%TO.P,MX7,1*%
%TO.N,COL0*%
X170815000Y-95885000D03*
%TD*%
%TO.P,MX6,2*%
%TO.N,Net-(D6-Pad2)*%
X215265000Y-74295000D03*
%TO.P,MX6,1*%
%TO.N,COL2*%
X208915000Y-76835000D03*
%TD*%
%TO.P,MX5,2*%
%TO.N,Net-(D5-Pad2)*%
X196215000Y-74295000D03*
%TO.P,MX5,1*%
%TO.N,COL1*%
X189865000Y-76835000D03*
%TD*%
%TO.P,MX4,2*%
%TO.N,Net-(D4-Pad2)*%
X177165000Y-74295000D03*
%TO.P,MX4,1*%
%TO.N,COL0*%
X170815000Y-76835000D03*
%TD*%
%TO.P,MX3,2*%
%TO.N,Net-(D3-Pad2)*%
X215265000Y-55245000D03*
%TO.P,MX3,1*%
%TO.N,COL2*%
X208915000Y-57785000D03*
%TD*%
%TO.P,MX2,2*%
%TO.N,Net-(D2-Pad2)*%
X196215000Y-55245000D03*
%TO.P,MX2,1*%
%TO.N,COL1*%
X189865000Y-57785000D03*
%TD*%
%TO.P,MX1,2*%
%TO.N,Net-(D1-Pad2)*%
X177165000Y-55245000D03*
%TO.P,MX1,1*%
%TO.N,COL0*%
X170815000Y-57785000D03*
%TD*%
D11*
%TO.P, ,P4*%
%TO.N,GND*%
X197873000Y-30452800D03*
%TO.P, ,P3*%
X189223000Y-30452800D03*
%TO.P, ,P2*%
X189223000Y-33832800D03*
%TO.P, ,P1*%
X197873000Y-33832800D03*
D12*
%TO.P, ,B12*%
X196523000Y-33462800D03*
%TO.P, ,B9*%
%TO.N,VCC*%
X195673000Y-33462800D03*
%TO.P, ,B8*%
%TO.N,Net-(J1-PadB8)*%
X194823000Y-33462800D03*
%TO.P, ,B7*%
%TO.N,Net-(J1-PadA7)*%
X193973000Y-33462800D03*
%TO.P, ,B6*%
%TO.N,Net-(J1-PadA6)*%
X193123000Y-33462800D03*
%TO.P, ,B5*%
%TO.N,Net-(J1-PadB5)*%
X192273000Y-33462800D03*
%TO.P, ,B4*%
%TO.N,VCC*%
X191423000Y-33462800D03*
%TO.P, ,B1*%
%TO.N,GND*%
X190573000Y-33462800D03*
%TO.P, ,A12*%
X190573000Y-34812800D03*
%TO.P, ,A9*%
%TO.N,VCC*%
X191423000Y-34812800D03*
%TO.P, ,A8*%
%TO.N,Net-(J1-PadA8)*%
X192273000Y-34812800D03*
%TO.P, ,A7*%
%TO.N,Net-(J1-PadA7)*%
X193123000Y-34812800D03*
%TO.P, ,A6*%
%TO.N,Net-(J1-PadA6)*%
X193973000Y-34812800D03*
%TO.P, ,A5*%
%TO.N,Net-(J1-PadA5)*%
X194823000Y-34812800D03*
%TO.P, ,A4*%
%TO.N,VCC*%
X195673000Y-34812800D03*
%TO.P, ,A1*%
%TO.N,GND*%
X196523000Y-34812800D03*
%TD*%
D13*
%TO.P, ,1*%
%TO.N,ROW2*%
X211075000Y-104267000D03*
%TO.P, ,2*%
%TO.N,Net-(D9-Pad2)*%
X214375000Y-104267000D03*
%TD*%
%TO.P, ,1*%
%TO.N,ROW2*%
X192025000Y-104267000D03*
%TO.P, ,2*%
%TO.N,Net-(D8-Pad2)*%
X195325000Y-104267000D03*
%TD*%
%TO.P, ,1*%
%TO.N,ROW2*%
X172975000Y-104267000D03*
%TO.P, ,2*%
%TO.N,Net-(D7-Pad2)*%
X176275000Y-104267000D03*
%TD*%
%TO.P, ,1*%
%TO.N,ROW1*%
X211075000Y-85217000D03*
%TO.P, ,2*%
%TO.N,Net-(D6-Pad2)*%
X214375000Y-85217000D03*
%TD*%
%TO.P, ,1*%
%TO.N,ROW1*%
X192025000Y-85217000D03*
%TO.P, ,2*%
%TO.N,Net-(D5-Pad2)*%
X195325000Y-85217000D03*
%TD*%
%TO.P, ,1*%
%TO.N,ROW1*%
X172975000Y-85217000D03*
%TO.P, ,2*%
%TO.N,Net-(D4-Pad2)*%
X176275000Y-85217000D03*
%TD*%
%TO.P, ,1*%
%TO.N,ROW0*%
X211075000Y-66167000D03*
%TO.P, ,2*%
%TO.N,Net-(D3-Pad2)*%
X214375000Y-66167000D03*
%TD*%
%TO.P, ,1*%
%TO.N,ROW0*%
X192025000Y-66167000D03*
%TO.P, ,2*%
%TO.N,Net-(D2-Pad2)*%
X195325000Y-66167000D03*
%TD*%
%TO.P, ,1*%
%TO.N,ROW0*%
X172975000Y-66167000D03*
%TO.P, ,2*%
%TO.N,Net-(D1-Pad2)*%
X176275000Y-66167000D03*
%TD*%
D14*
%TO.N,+5V*%
X178282600Y-50368200D03*
X172694600Y-50368200D03*
X185420000Y-41605200D03*
X185420000Y-44805600D03*
%TO.N,ROW0*%
X171704000Y-53314600D03*
%TO.N,ROW1*%
X171704000Y-52314597D03*
%TO.N,ROW2*%
X171704000Y-51308000D03*
%TO.N,Net-(J1-PadB5)*%
X199517000Y-37414200D03*
%TO.N,Net-(J1-PadA5)*%
X194818000Y-36337801D03*
X197332600Y-37515800D03*
%TO.N,Net-(R3-Pad1)*%
X186265669Y-42806469D03*
X188391800Y-42824400D03*
%TD*%
D15*
%TO.N,+5V*%
X178282600Y-50368200D02*
X172694600Y-50368200D01*
X185420000Y-41605200D02*
X185420000Y-44805600D01*
%TO.N,VCC*%
X191924999Y-35537801D02*
X191439800Y-35052602D01*
X195673000Y-34812800D02*
X195673000Y-35272419D01*
X195407618Y-35537801D02*
X191924999Y-35537801D01*
X195673000Y-35272419D02*
X195407618Y-35537801D01*
D16*
%TO.N,ROW0*%
X211075000Y-66167000D02*
X211075000Y-67029600D01*
X211075000Y-67029600D02*
X209550000Y-68554600D01*
X209550000Y-68554600D02*
X190500000Y-68554600D01*
X192025000Y-67055000D02*
X190500000Y-68554600D01*
X192025000Y-66167000D02*
X192025000Y-67055000D01*
X190500000Y-68554600D02*
X171450000Y-68554600D01*
X172975000Y-67055000D02*
X171450000Y-68554600D01*
X172975000Y-66167000D02*
X172975000Y-67055000D01*
X168122600Y-65227200D02*
X171450000Y-68554600D01*
X171704000Y-53314600D02*
X168122600Y-56616600D01*
X168122600Y-56616600D02*
X168122600Y-65227200D01*
%TO.N,Net-(D1-Pad2)*%
X176275000Y-66167000D02*
X176403000Y-66167000D01*
X176403000Y-66167000D02*
X177800000Y-64770000D01*
X177800000Y-64770000D02*
X177800000Y-55930800D01*
%TO.N,Net-(D2-Pad2)*%
X195325000Y-66167000D02*
X195453000Y-66167000D01*
X195453000Y-66167000D02*
X196850000Y-64770000D01*
X196850000Y-64770000D02*
X196850000Y-55880000D01*
%TO.N,Net-(D3-Pad2)*%
X214375000Y-66167000D02*
X214503000Y-66167000D01*
X214503000Y-66167000D02*
X215900000Y-64770000D01*
X215900000Y-64770000D02*
X215900000Y-55930800D01*
%TO.N,ROW1*%
X211075000Y-85217000D02*
X211075000Y-86079600D01*
X211075000Y-86079600D02*
X209524600Y-87630000D01*
X192025000Y-85217000D02*
X192025000Y-86105000D01*
X192025000Y-86105000D02*
X190500000Y-87630000D01*
X172975000Y-85217000D02*
X172975000Y-86105000D01*
X172975000Y-86105000D02*
X171450000Y-87630000D01*
X209524600Y-87630000D02*
X190500000Y-87630000D01*
X190500000Y-87630000D02*
X171450000Y-87630000D01*
X167622590Y-83802590D02*
X171450000Y-87630000D01*
X167622590Y-55955808D02*
X167622590Y-83802590D01*
X171704000Y-52314597D02*
X171644801Y-52255398D01*
X171348400Y-52552600D02*
X167622590Y-55955808D01*
X171644801Y-52255398D02*
X171348400Y-52552600D01*
%TO.N,Net-(D4-Pad2)*%
X176275000Y-85217000D02*
X176403000Y-85217000D01*
X176403000Y-85217000D02*
X177800000Y-83820000D01*
X177800000Y-83820000D02*
X177800000Y-74980800D01*
%TO.N,Net-(D5-Pad2)*%
X195325000Y-85217000D02*
X195453000Y-85217000D01*
X195453000Y-85217000D02*
X196850000Y-83820000D01*
X196850000Y-83820000D02*
X196850000Y-74980800D01*
%TO.N,Net-(D6-Pad2)*%
X214375000Y-85217000D02*
X214503000Y-85217000D01*
X214503000Y-85217000D02*
X215900000Y-83820000D01*
X215900000Y-83820000D02*
X215900000Y-74980800D01*
%TO.N,ROW2*%
X211075000Y-104267000D02*
X211075000Y-105155000D01*
X211075000Y-105155000D02*
X209550000Y-106680000D01*
X192025000Y-104267000D02*
X192025000Y-105155000D01*
X192025000Y-105155000D02*
X190500000Y-106680000D01*
X209550000Y-106680000D02*
X190500000Y-106680000D01*
X190500000Y-106680000D02*
X171424600Y-106680000D01*
X172975000Y-105129600D02*
X171424600Y-106680000D01*
X172975000Y-104267000D02*
X172975000Y-105129600D01*
X167122580Y-102377980D02*
X167436800Y-102692200D01*
X171678600Y-51257200D02*
X167106600Y-55346600D01*
X167436800Y-102692200D02*
X171424600Y-106680000D01*
X167106600Y-55346600D02*
X167122580Y-102377980D01*
%TO.N,Net-(D7-Pad2)*%
X176275000Y-104267000D02*
X177800000Y-102870000D01*
X177800000Y-102870000D02*
X177800000Y-93980000D01*
%TO.N,Net-(D8-Pad2)*%
X195325000Y-104267000D02*
X195453000Y-104267000D01*
X195453000Y-104267000D02*
X196850000Y-102870000D01*
X196850000Y-102870000D02*
X196850000Y-94005400D01*
%TO.N,Net-(D9-Pad2)*%
X214528400Y-104267000D02*
X215900000Y-102870000D01*
X214375000Y-104267000D02*
X214528400Y-104267000D01*
X215900000Y-102870000D02*
X215900000Y-94030800D01*
%TO.N,Net-(J1-PadA7)*%
X193123000Y-34461802D02*
X193979800Y-33605002D01*
X193123000Y-34812800D02*
X193123000Y-34461802D01*
X193979800Y-33605002D02*
X193979800Y-33451800D01*
%TO.N,Net-(J1-PadB5)*%
X192901391Y-32374790D02*
X198247453Y-32374790D01*
X192273000Y-33462800D02*
X192273000Y-33003181D01*
X198247453Y-32374790D02*
X199517000Y-33644337D01*
X192273000Y-33003181D02*
X192901391Y-32374790D01*
X199517000Y-33644337D02*
X199517000Y-37414200D01*
%TO.N,Net-(J1-PadA5)*%
X194818000Y-36337801D02*
X195818199Y-37338000D01*
X195818199Y-37338000D02*
X197154800Y-37338000D01*
X197154800Y-37338000D02*
X197332600Y-37515800D01*
%TO.N,Net-(R3-Pad1)*%
X186265669Y-42806469D02*
X188373869Y-42806469D01*
X188373869Y-42806469D02*
X188391800Y-42824400D01*
%TD*%
D17*
%TO.N,GND*%
G36*
X188081623Y-29542278D02*
G01*
X188034000Y-29771800D01*
X188034000Y-30325800D01*
X189096000Y-30325800D01*
X189096000Y-30305800D01*
X189350000Y-30305800D01*
X189350000Y-30325800D01*
X190412000Y-30325800D01*
X190412000Y-29771800D01*
X190364377Y-29542278D01*
X190287958Y-29362000D01*
X196808042Y-29362000D01*
X196731623Y-29542278D01*
X196684000Y-29771800D01*
X196684000Y-30325800D01*
X197746000Y-30325800D01*
X197746000Y-30305800D01*
X198000000Y-30305800D01*
X198000000Y-30325800D01*
X199062000Y-30325800D01*
X199062000Y-29771800D01*
X199014377Y-29542278D01*
X198937958Y-29362000D01*
X219677721Y-29362000D01*
X220074545Y-29400909D01*
X220425208Y-29506780D01*
X220748625Y-29678744D01*
X221032484Y-29910254D01*
X221265965Y-30192486D01*
X221440183Y-30514695D01*
X221548502Y-30864614D01*
X221590000Y-31259443D01*
X221590000Y-31782418D01*
X221590001Y-31782428D01*
X221590000Y-105377721D01*
X221551091Y-105774545D01*
X221445220Y-106125206D01*
X221273257Y-106448623D01*
X221041748Y-106732482D01*
X220759514Y-106965965D01*
X220437304Y-107140184D01*
X220087385Y-107248502D01*
X219692557Y-107290000D01*
X210044115Y-107290000D01*
X210107764Y-107237764D01*
X210132347Y-107207810D01*
X211602810Y-105737347D01*
X211632764Y-105712764D01*
X211730862Y-105593233D01*
X211803754Y-105456860D01*
X211810574Y-105434376D01*
X211879494Y-105397537D01*
X211976185Y-105318185D01*
X212055537Y-105221494D01*
X212114502Y-105111180D01*
X212150812Y-104991482D01*
X212163072Y-104867000D01*
X212163072Y-103667000D01*
X212150812Y-103542518D01*
X212114502Y-103422820D01*
X212055537Y-103312506D01*
X211976185Y-103215815D01*
X211879494Y-103136463D01*
X211769180Y-103077498D01*
X211649482Y-103041188D01*
X211525000Y-103028928D01*
X210625000Y-103028928D01*
X210500518Y-103041188D01*
X210380820Y-103077498D01*
X210270506Y-103136463D01*
X210173815Y-103215815D01*
X210094463Y-103312506D01*
X210035498Y-103422820D01*
X209999188Y-103542518D01*
X209986928Y-103667000D01*
X209986928Y-104867000D01*
X209999188Y-104991482D01*
X210029252Y-105090591D01*
X209224843Y-105895000D01*
X192395157Y-105895000D01*
X192552810Y-105737347D01*
X192582764Y-105712764D01*
X192680862Y-105593233D01*
X192753754Y-105456860D01*
X192760574Y-105434376D01*
X192829494Y-105397537D01*
X192926185Y-105318185D01*
X193005537Y-105221494D01*
X193064502Y-105111180D01*
X193100812Y-104991482D01*
X193113072Y-104867000D01*
X193113072Y-103667000D01*
X193100812Y-103542518D01*
X193064502Y-103422820D01*
X193005537Y-103312506D01*
X192926185Y-103215815D01*
X192829494Y-103136463D01*
X192719180Y-103077498D01*
X192599482Y-103041188D01*
X192475000Y-103028928D01*
X191575000Y-103028928D01*
X191450518Y-103041188D01*
X191330820Y-103077498D01*
X191220506Y-103136463D01*
X191123815Y-103215815D01*
X191044463Y-103312506D01*
X190985498Y-103422820D01*
X190949188Y-103542518D01*
X190936928Y-103667000D01*
X190936928Y-104867000D01*
X190949188Y-104991482D01*
X190979252Y-105090591D01*
X190174843Y-105895000D01*
X173319757Y-105895000D01*
X173502810Y-105711947D01*
X173532764Y-105687364D01*
X173630862Y-105567833D01*
X173698844Y-105440646D01*
X173779494Y-105397537D01*
X173876185Y-105318185D01*
X173955537Y-105221494D01*
X174014502Y-105111180D01*
X174050812Y-104991482D01*
X174063072Y-104867000D01*
X174063072Y-103667000D01*
X174050812Y-103542518D01*
X174014502Y-103422820D01*
X173955537Y-103312506D01*
X173876185Y-103215815D01*
X173779494Y-103136463D01*
X173669180Y-103077498D01*
X173549482Y-103041188D01*
X173425000Y-103028928D01*
X172525000Y-103028928D01*
X172400518Y-103041188D01*
X172280820Y-103077498D01*
X172170506Y-103136463D01*
X172073815Y-103215815D01*
X171994463Y-103312506D01*
X171935498Y-103422820D01*
X171899188Y-103542518D01*
X171886928Y-103667000D01*
X171886928Y-104867000D01*
X171899188Y-104991482D01*
X171923341Y-105071102D01*
X171424600Y-105569843D01*
X167907469Y-102052712D01*
X167906186Y-98276278D01*
X168035000Y-98276278D01*
X168035000Y-98573722D01*
X168093029Y-98865451D01*
X168206856Y-99140253D01*
X168372107Y-99387569D01*
X168582431Y-99597893D01*
X168829747Y-99763144D01*
X169104549Y-99876971D01*
X169396278Y-99935000D01*
X169693722Y-99935000D01*
X169985451Y-99876971D01*
X170260253Y-99763144D01*
X170507569Y-99597893D01*
X170717893Y-99387569D01*
X170883144Y-99140253D01*
X170996971Y-98865451D01*
X171055000Y-98573722D01*
X171055000Y-98276278D01*
X171033080Y-98166076D01*
X171996100Y-98166076D01*
X171996100Y-98683924D01*
X172097127Y-99191822D01*
X172295299Y-99670251D01*
X172583000Y-100100826D01*
X172949174Y-100467000D01*
X173379749Y-100754701D01*
X173858178Y-100952873D01*
X174366076Y-101053900D01*
X174883924Y-101053900D01*
X175391822Y-100952873D01*
X175870251Y-100754701D01*
X176300826Y-100467000D01*
X176667000Y-100100826D01*
X176954701Y-99670251D01*
X177015000Y-99524676D01*
X177015000Y-102524524D01*
X176464381Y-103028928D01*
X175825000Y-103028928D01*
X175700518Y-103041188D01*
X175580820Y-103077498D01*
X175470506Y-103136463D01*
X175373815Y-103215815D01*
X175294463Y-103312506D01*
X175235498Y-103422820D01*
X175199188Y-103542518D01*
X175186928Y-103667000D01*
X175186928Y-104867000D01*
X175199188Y-104991482D01*
X175235498Y-105111180D01*
X175294463Y-105221494D01*
X175373815Y-105318185D01*
X175470506Y-105397537D01*
X175580820Y-105456502D01*
X175700518Y-105492812D01*
X175825000Y-105505072D01*
X176725000Y-105505072D01*
X176849482Y-105492812D01*
X176969180Y-105456502D01*
X177079494Y-105397537D01*
X177176185Y-105318185D01*
X177255537Y-105221494D01*
X177314502Y-105111180D01*
X177350812Y-104991482D01*
X177363072Y-104867000D01*
X177363072Y-104334841D01*
X178314521Y-103463253D01*
X178357764Y-103427764D01*
X178395914Y-103381279D01*
X178436053Y-103336516D01*
X178444871Y-103321625D01*
X178455862Y-103308233D01*
X178484217Y-103255184D01*
X178514845Y-103203464D01*
X178520591Y-103187132D01*
X178528754Y-103171860D01*
X178546209Y-103114320D01*
X178566165Y-103057598D01*
X178568615Y-103040457D01*
X178573641Y-103023887D01*
X178579536Y-102964031D01*
X178588041Y-102904521D01*
X178585000Y-102848664D01*
X178585000Y-99440462D01*
X178742431Y-99597893D01*
X178989747Y-99763144D01*
X179264549Y-99876971D01*
X179556278Y-99935000D01*
X179853722Y-99935000D01*
X180145451Y-99876971D01*
X180420253Y-99763144D01*
X180667569Y-99597893D01*
X180877893Y-99387569D01*
X181043144Y-99140253D01*
X181156971Y-98865451D01*
X181215000Y-98573722D01*
X181215000Y-98276278D01*
X187085000Y-98276278D01*
X187085000Y-98573722D01*
X187143029Y-98865451D01*
X187256856Y-99140253D01*
X187422107Y-99387569D01*
X187632431Y-99597893D01*
X187879747Y-99763144D01*
X188154549Y-99876971D01*
X188446278Y-99935000D01*
X188743722Y-99935000D01*
X189035451Y-99876971D01*
X189310253Y-99763144D01*
X189557569Y-99597893D01*
X189767893Y-99387569D01*
X189933144Y-99140253D01*
X190046971Y-98865451D01*
X190105000Y-98573722D01*
X190105000Y-98276278D01*
X190083080Y-98166076D01*
X191046100Y-98166076D01*
X191046100Y-98683924D01*
X191147127Y-99191822D01*
X191345299Y-99670251D01*
X191633000Y-100100826D01*
X191999174Y-100467000D01*
X192429749Y-100754701D01*
X192908178Y-100952873D01*
X193416076Y-101053900D01*
X193933924Y-101053900D01*
X194441822Y-100952873D01*
X194920251Y-100754701D01*
X195350826Y-100467000D01*
X195717000Y-100100826D01*
X196004701Y-99670251D01*
X196065000Y-99524676D01*
X196065000Y-102544842D01*
X195580915Y-103028928D01*
X194875000Y-103028928D01*
X194750518Y-103041188D01*
X194630820Y-103077498D01*
X194520506Y-103136463D01*
X194423815Y-103215815D01*
X194344463Y-103312506D01*
X194285498Y-103422820D01*
X194249188Y-103542518D01*
X194236928Y-103667000D01*
X194236928Y-104867000D01*
X194249188Y-104991482D01*
X194285498Y-105111180D01*
X194344463Y-105221494D01*
X194423815Y-105318185D01*
X194520506Y-105397537D01*
X194630820Y-105456502D01*
X194750518Y-105492812D01*
X194875000Y-105505072D01*
X195775000Y-105505072D01*
X195899482Y-105492812D01*
X196019180Y-105456502D01*
X196129494Y-105397537D01*
X196226185Y-105318185D01*
X196305537Y-105221494D01*
X196364502Y-105111180D01*
X196400812Y-104991482D01*
X196413072Y-104867000D01*
X196413072Y-104417085D01*
X197377817Y-103452341D01*
X197407764Y-103427764D01*
X197505862Y-103308233D01*
X197578754Y-103171860D01*
X197620576Y-103033991D01*
X197623641Y-103023888D01*
X197626579Y-102994059D01*
X197635000Y-102908561D01*
X197635000Y-102908554D01*
X197638797Y-102870001D01*
X197635000Y-102831448D01*
X197635000Y-99440462D01*
X197792431Y-99597893D01*
X198039747Y-99763144D01*
X198314549Y-99876971D01*
X198606278Y-99935000D01*
X198903722Y-99935000D01*
X199195451Y-99876971D01*
X199470253Y-99763144D01*
X199717569Y-99597893D01*
X199927893Y-99387569D01*
X200093144Y-99140253D01*
X200206971Y-98865451D01*
X200265000Y-98573722D01*
X200265000Y-98276278D01*
X206135000Y-98276278D01*
X206135000Y-98573722D01*
X206193029Y-98865451D01*
X206306856Y-99140253D01*
X206472107Y-99387569D01*
X206682431Y-99597893D01*
X206929747Y-99763144D01*
X207204549Y-99876971D01*
X207496278Y-99935000D01*
X207793722Y-99935000D01*
X208085451Y-99876971D01*
X208360253Y-99763144D01*
X208607569Y-99597893D01*
X208817893Y-99387569D01*
X208983144Y-99140253D01*
X209096971Y-98865451D01*
X209155000Y-98573722D01*
X209155000Y-98276278D01*
X209133080Y-98166076D01*
X210096100Y-98166076D01*
X210096100Y-98683924D01*
X210197127Y-99191822D01*
X210395299Y-99670251D01*
X210683000Y-100100826D01*
X211049174Y-100467000D01*
X211479749Y-100754701D01*
X211958178Y-100952873D01*
X212466076Y-101053900D01*
X212983924Y-101053900D01*
X213491822Y-100952873D01*
X213970251Y-100754701D01*
X214400826Y-100467000D01*
X214767000Y-100100826D01*
X215054701Y-99670251D01*
X215115000Y-99524676D01*
X215115000Y-102549053D01*
X214643850Y-103028928D01*
X213925000Y-103028928D01*
X213800518Y-103041188D01*
X213680820Y-103077498D01*
X213570506Y-103136463D01*
X213473815Y-103215815D01*
X213394463Y-103312506D01*
X213335498Y-103422820D01*
X213299188Y-103542518D01*
X213286928Y-103667000D01*
X213286928Y-104867000D01*
X213299188Y-104991482D01*
X213335498Y-105111180D01*
X213394463Y-105221494D01*
X213473815Y-105318185D01*
X213570506Y-105397537D01*
X213680820Y-105456502D01*
X213800518Y-105492812D01*
X213925000Y-105505072D01*
X214825000Y-105505072D01*
X214949482Y-105492812D01*
X215069180Y-105456502D01*
X215179494Y-105397537D01*
X215276185Y-105318185D01*
X215355537Y-105221494D01*
X215414502Y-105111180D01*
X215450812Y-104991482D01*
X215463072Y-104867000D01*
X215463072Y-104435503D01*
X216430607Y-103450052D01*
X216457764Y-103427764D01*
X216484631Y-103395027D01*
X216487163Y-103392448D01*
X216509090Y-103365224D01*
X216555862Y-103308233D01*
X216557578Y-103305023D01*
X216559853Y-103302198D01*
X216593960Y-103236956D01*
X216628754Y-103171860D01*
X216629810Y-103168380D01*
X216631492Y-103165162D01*
X216652250Y-103094404D01*
X216673641Y-103023887D01*
X216673997Y-103020276D01*
X216675021Y-103016784D01*
X216681573Y-102943355D01*
X216685000Y-102908561D01*
X216685000Y-102904948D01*
X216688764Y-102862764D01*
X216685000Y-102827834D01*
X216685000Y-99440462D01*
X216842431Y-99597893D01*
X217089747Y-99763144D01*
X217364549Y-99876971D01*
X217656278Y-99935000D01*
X217953722Y-99935000D01*
X218245451Y-99876971D01*
X218520253Y-99763144D01*
X218767569Y-99597893D01*
X218977893Y-99387569D01*
X219143144Y-99140253D01*
X219256971Y-98865451D01*
X219315000Y-98573722D01*
X219315000Y-98276278D01*
X219256971Y-97984549D01*
X219143144Y-97709747D01*
X218977893Y-97462431D01*
X218767569Y-97252107D01*
X218520253Y-97086856D01*
X218245451Y-96973029D01*
X217953722Y-96915000D01*
X217656278Y-96915000D01*
X217364549Y-96973029D01*
X217089747Y-97086856D01*
X216842431Y-97252107D01*
X216685000Y-97409538D01*
X216685000Y-94387736D01*
X216824692Y-94178673D01*
X216957364Y-93858373D01*
X217025000Y-93518345D01*
X217025000Y-93171655D01*
X216957364Y-92831627D01*
X216824692Y-92511327D01*
X216632081Y-92223065D01*
X216386935Y-91977919D01*
X216098673Y-91785308D01*
X215778373Y-91652636D01*
X215438345Y-91585000D01*
X215091655Y-91585000D01*
X214751627Y-91652636D01*
X214431327Y-91785308D01*
X214143065Y-91977919D01*
X213897919Y-92223065D01*
X213705308Y-92511327D01*
X213572636Y-92831627D01*
X213505000Y-93171655D01*
X213505000Y-93518345D01*
X213572636Y-93858373D01*
X213705308Y-94178673D01*
X213897919Y-94466935D01*
X214143065Y-94712081D01*
X214431327Y-94904692D01*
X214751627Y-95037364D01*
X215091655Y-95105000D01*
X215115001Y-95105000D01*
X215115001Y-97325325D01*
X215054701Y-97179749D01*
X214767000Y-96749174D01*
X214400826Y-96383000D01*
X213970251Y-96095299D01*
X213491822Y-95897127D01*
X212983924Y-95796100D01*
X212466076Y-95796100D01*
X211958178Y-95897127D01*
X211479749Y-96095299D01*
X211049174Y-96383000D01*
X210683000Y-96749174D01*
X210395299Y-97179749D01*
X210197127Y-97658178D01*
X210096100Y-98166076D01*
X209133080Y-98166076D01*
X209096971Y-97984549D01*
X208983144Y-97709747D01*
X208939882Y-97645000D01*
X209088345Y-97645000D01*
X209428373Y-97577364D01*
X209748673Y-97444692D01*
X210036935Y-97252081D01*
X210282081Y-97006935D01*
X210474692Y-96718673D01*
X210607364Y-96398373D01*
X210675000Y-96058345D01*
X210675000Y-95711655D01*
X210607364Y-95371627D01*
X210474692Y-95051327D01*
X210282081Y-94763065D01*
X210036935Y-94517919D01*
X209748673Y-94325308D01*
X209428373Y-94192636D01*
X209088345Y-94125000D01*
X208741655Y-94125000D01*
X208401627Y-94192636D01*
X208081327Y-94325308D01*
X207793065Y-94517919D01*
X207547919Y-94763065D01*
X207355308Y-95051327D01*
X207222636Y-95371627D01*
X207155000Y-95711655D01*
X207155000Y-96058345D01*
X207222636Y-96398373D01*
X207355308Y-96718673D01*
X207487638Y-96916719D01*
X207204549Y-96973029D01*
X206929747Y-97086856D01*
X206682431Y-97252107D01*
X206472107Y-97462431D01*
X206306856Y-97709747D01*
X206193029Y-97984549D01*
X206135000Y-98276278D01*
X200265000Y-98276278D01*
X200206971Y-97984549D01*
X200093144Y-97709747D01*
X199927893Y-97462431D01*
X199717569Y-97252107D01*
X199470253Y-97086856D01*
X199195451Y-96973029D01*
X198903722Y-96915000D01*
X198606278Y-96915000D01*
X198314549Y-96973029D01*
X198039747Y-97086856D01*
X197792431Y-97252107D01*
X197635000Y-97409538D01*
X197635000Y-94387736D01*
X197774692Y-94178673D01*
X197907364Y-93858373D01*
X197975000Y-93518345D01*
X197975000Y-93171655D01*
X197907364Y-92831627D01*
X197774692Y-92511327D01*
X197582081Y-92223065D01*
X197336935Y-91977919D01*
X197048673Y-91785308D01*
X196728373Y-91652636D01*
X196388345Y-91585000D01*
X196041655Y-91585000D01*
X195701627Y-91652636D01*
X195381327Y-91785308D01*
X195093065Y-91977919D01*
X194847919Y-92223065D01*
X194655308Y-92511327D01*
X194522636Y-92831627D01*
X194455000Y-93171655D01*
X194455000Y-93518345D01*
X194522636Y-93858373D01*
X194655308Y-94178673D01*
X194847919Y-94466935D01*
X195093065Y-94712081D01*
X195381327Y-94904692D01*
X195701627Y-95037364D01*
X196041655Y-95105000D01*
X196065001Y-95105000D01*
X196065001Y-97325325D01*
X196004701Y-97179749D01*
X195717000Y-96749174D01*
X195350826Y-96383000D01*
X194920251Y-96095299D01*
X194441822Y-95897127D01*
X193933924Y-95796100D01*
X193416076Y-95796100D01*
X192908178Y-95897127D01*
X192429749Y-96095299D01*
X191999174Y-96383000D01*
X191633000Y-96749174D01*
X191345299Y-97179749D01*
X191147127Y-97658178D01*
X191046100Y-98166076D01*
X190083080Y-98166076D01*
X190046971Y-97984549D01*
X189933144Y-97709747D01*
X189889882Y-97645000D01*
X190038345Y-97645000D01*
X190378373Y-97577364D01*
X190698673Y-97444692D01*
X190986935Y-97252081D01*
X191232081Y-97006935D01*
X191424692Y-96718673D01*
X191557364Y-96398373D01*
X191625000Y-96058345D01*
X191625000Y-95711655D01*
X191557364Y-95371627D01*
X191424692Y-95051327D01*
X191232081Y-94763065D01*
X190986935Y-94517919D01*
X190698673Y-94325308D01*
X190378373Y-94192636D01*
X190038345Y-94125000D01*
X189691655Y-94125000D01*
X189351627Y-94192636D01*
X189031327Y-94325308D01*
X188743065Y-94517919D01*
X188497919Y-94763065D01*
X188305308Y-95051327D01*
X188172636Y-95371627D01*
X188105000Y-95711655D01*
X188105000Y-96058345D01*
X188172636Y-96398373D01*
X188305308Y-96718673D01*
X188437638Y-96916719D01*
X188154549Y-96973029D01*
X187879747Y-97086856D01*
X187632431Y-97252107D01*
X187422107Y-97462431D01*
X187256856Y-97709747D01*
X187143029Y-97984549D01*
X187085000Y-98276278D01*
X181215000Y-98276278D01*
X181156971Y-97984549D01*
X181043144Y-97709747D01*
X180877893Y-97462431D01*
X180667569Y-97252107D01*
X180420253Y-97086856D01*
X180145451Y-96973029D01*
X179853722Y-96915000D01*
X179556278Y-96915000D01*
X179264549Y-96973029D01*
X178989747Y-97086856D01*
X178742431Y-97252107D01*
X178585000Y-97409538D01*
X178585000Y-94387736D01*
X178724692Y-94178673D01*
X178857364Y-93858373D01*
X178925000Y-93518345D01*
X178925000Y-93171655D01*
X178857364Y-92831627D01*
X178724692Y-92511327D01*
X178532081Y-92223065D01*
X178286935Y-91977919D01*
X177998673Y-91785308D01*
X177678373Y-91652636D01*
X177338345Y-91585000D01*
X176991655Y-91585000D01*
X176651627Y-91652636D01*
X176331327Y-91785308D01*
X176043065Y-91977919D01*
X175797919Y-92223065D01*
X175605308Y-92511327D01*
X175472636Y-92831627D01*
X175405000Y-93171655D01*
X175405000Y-93518345D01*
X175472636Y-93858373D01*
X175605308Y-94178673D01*
X175797919Y-94466935D01*
X176043065Y-94712081D01*
X176331327Y-94904692D01*
X176651627Y-95037364D01*
X176991655Y-95105000D01*
X177015001Y-95105000D01*
X177015001Y-97325325D01*
X176954701Y-97179749D01*
X176667000Y-96749174D01*
X176300826Y-96383000D01*
X175870251Y-96095299D01*
X175391822Y-95897127D01*
X174883924Y-95796100D01*
X174366076Y-95796100D01*
X173858178Y-95897127D01*
X173379749Y-96095299D01*
X172949174Y-96383000D01*
X172583000Y-96749174D01*
X172295299Y-97179749D01*
X172097127Y-97658178D01*
X171996100Y-98166076D01*
X171033080Y-98166076D01*
X170996971Y-97984549D01*
X170883144Y-97709747D01*
X170839882Y-97645000D01*
X170988345Y-97645000D01*
X171328373Y-97577364D01*
X171648673Y-97444692D01*
X171936935Y-97252081D01*
X172182081Y-97006935D01*
X172374692Y-96718673D01*
X172507364Y-96398373D01*
X172575000Y-96058345D01*
X172575000Y-95711655D01*
X172507364Y-95371627D01*
X172374692Y-95051327D01*
X172182081Y-94763065D01*
X171936935Y-94517919D01*
X171648673Y-94325308D01*
X171328373Y-94192636D01*
X170988345Y-94125000D01*
X170641655Y-94125000D01*
X170301627Y-94192636D01*
X169981327Y-94325308D01*
X169693065Y-94517919D01*
X169447919Y-94763065D01*
X169255308Y-95051327D01*
X169122636Y-95371627D01*
X169055000Y-95711655D01*
X169055000Y-96058345D01*
X169122636Y-96398373D01*
X169255308Y-96718673D01*
X169387638Y-96916719D01*
X169104549Y-96973029D01*
X168829747Y-97086856D01*
X168582431Y-97252107D01*
X168372107Y-97462431D01*
X168206856Y-97709747D01*
X168093029Y-97984549D01*
X168035000Y-98276278D01*
X167906186Y-98276278D01*
X167901740Y-85191898D01*
X170867658Y-88157816D01*
X170892236Y-88187764D01*
X170922184Y-88212342D01*
X170922187Y-88212345D01*
X170951559Y-88236450D01*
X171011767Y-88285862D01*
X171148140Y-88358754D01*
X171296112Y-88403641D01*
X171310490Y-88405057D01*
X171411439Y-88415000D01*
X171411446Y-88415000D01*
X171449999Y-88418797D01*
X171450000Y-88418797D01*
X171488553Y-88415000D01*
X190461447Y-88415000D01*
X190500000Y-88418797D01*
X190538553Y-88415000D01*
X209486047Y-88415000D01*
X209524600Y-88418797D01*
X209563153Y-88415000D01*
X209563161Y-88415000D01*
X209678487Y-88403641D01*
X209826460Y-88358754D01*
X209962833Y-88285862D01*
X210082364Y-88187764D01*
X210106947Y-88157810D01*
X211602810Y-86661947D01*
X211632764Y-86637364D01*
X211730862Y-86517833D01*
X211798844Y-86390646D01*
X211879494Y-86347537D01*
X211976185Y-86268185D01*
X212055537Y-86171494D01*
X212114502Y-86061180D01*
X212150812Y-85941482D01*
X212163072Y-85817000D01*
X212163072Y-84617000D01*
X212150812Y-84492518D01*
X212114502Y-84372820D01*
X212055537Y-84262506D01*
X211976185Y-84165815D01*
X211879494Y-84086463D01*
X211769180Y-84027498D01*
X211649482Y-83991188D01*
X211525000Y-83978928D01*
X210625000Y-83978928D01*
X210500518Y-83991188D01*
X210380820Y-84027498D01*
X210270506Y-84086463D01*
X210173815Y-84165815D01*
X210094463Y-84262506D01*
X210035498Y-84372820D01*
X209999188Y-84492518D01*
X209986928Y-84617000D01*
X209986928Y-85817000D01*
X209999188Y-85941482D01*
X210023341Y-86021102D01*
X209199443Y-86845000D01*
X192395157Y-86845000D01*
X192552810Y-86687347D01*
X192582764Y-86662764D01*
X192680862Y-86543233D01*
X192753754Y-86406860D01*
X192760574Y-86384376D01*
X192829494Y-86347537D01*
X192926185Y-86268185D01*
X193005537Y-86171494D01*
X193064502Y-86061180D01*
X193100812Y-85941482D01*
X193113072Y-85817000D01*
X193113072Y-84617000D01*
X193100812Y-84492518D01*
X193064502Y-84372820D01*
X193005537Y-84262506D01*
X192926185Y-84165815D01*
X192829494Y-84086463D01*
X192719180Y-84027498D01*
X192599482Y-83991188D01*
X192475000Y-83978928D01*
X191575000Y-83978928D01*
X191450518Y-83991188D01*
X191330820Y-84027498D01*
X191220506Y-84086463D01*
X191123815Y-84165815D01*
X191044463Y-84262506D01*
X190985498Y-84372820D01*
X190949188Y-84492518D01*
X190936928Y-84617000D01*
X190936928Y-85817000D01*
X190949188Y-85941482D01*
X190979252Y-86040591D01*
X190174843Y-86845000D01*
X173345157Y-86845000D01*
X173502810Y-86687347D01*
X173532764Y-86662764D01*
X173630862Y-86543233D01*
X173703754Y-86406860D01*
X173710574Y-86384376D01*
X173779494Y-86347537D01*
X173876185Y-86268185D01*
X173955537Y-86171494D01*
X174014502Y-86061180D01*
X174050812Y-85941482D01*
X174063072Y-85817000D01*
X174063072Y-84617000D01*
X174050812Y-84492518D01*
X174014502Y-84372820D01*
X173955537Y-84262506D01*
X173876185Y-84165815D01*
X173779494Y-84086463D01*
X173669180Y-84027498D01*
X173549482Y-83991188D01*
X173425000Y-83978928D01*
X172525000Y-83978928D01*
X172400518Y-83991188D01*
X172280820Y-84027498D01*
X172170506Y-84086463D01*
X172073815Y-84165815D01*
X171994463Y-84262506D01*
X171935498Y-84372820D01*
X171899188Y-84492518D01*
X171886928Y-84617000D01*
X171886928Y-85817000D01*
X171899188Y-85941482D01*
X171929252Y-86040591D01*
X171450000Y-86519843D01*
X168407590Y-83477433D01*
X168407590Y-80373052D01*
X168582431Y-80547893D01*
X168829747Y-80713144D01*
X169104549Y-80826971D01*
X169396278Y-80885000D01*
X169693722Y-80885000D01*
X169985451Y-80826971D01*
X170260253Y-80713144D01*
X170507569Y-80547893D01*
X170717893Y-80337569D01*
X170883144Y-80090253D01*
X170996971Y-79815451D01*
X171055000Y-79523722D01*
X171055000Y-79226278D01*
X171033080Y-79116076D01*
X171996100Y-79116076D01*
X171996100Y-79633924D01*
X172097127Y-80141822D01*
X172295299Y-80620251D01*
X172583000Y-81050826D01*
X172949174Y-81417000D01*
X173379749Y-81704701D01*
X173858178Y-81902873D01*
X174366076Y-82003900D01*
X174883924Y-82003900D01*
X175391822Y-81902873D01*
X175870251Y-81704701D01*
X176300826Y-81417000D01*
X176667000Y-81050826D01*
X176954701Y-80620251D01*
X177015000Y-80474676D01*
X177015000Y-83494842D01*
X176530915Y-83978928D01*
X175825000Y-83978928D01*
X175700518Y-83991188D01*
X175580820Y-84027498D01*
X175470506Y-84086463D01*
X175373815Y-84165815D01*
X175294463Y-84262506D01*
X175235498Y-84372820D01*
X175199188Y-84492518D01*
X175186928Y-84617000D01*
X175186928Y-85817000D01*
X175199188Y-85941482D01*
X175235498Y-86061180D01*
X175294463Y-86171494D01*
X175373815Y-86268185D01*
X175470506Y-86347537D01*
X175580820Y-86406502D01*
X175700518Y-86442812D01*
X175825000Y-86455072D01*
X176725000Y-86455072D01*
X176849482Y-86442812D01*
X176969180Y-86406502D01*
X177079494Y-86347537D01*
X177176185Y-86268185D01*
X177255537Y-86171494D01*
X177314502Y-86061180D01*
X177350812Y-85941482D01*
X177363072Y-85817000D01*
X177363072Y-85367085D01*
X178327817Y-84402341D01*
X178357764Y-84377764D01*
X178455862Y-84258233D01*
X178528754Y-84121860D01*
X178573641Y-83973887D01*
X178585000Y-83858561D01*
X178585000Y-83858554D01*
X178588797Y-83820001D01*
X178585000Y-83781448D01*
X178585000Y-80390462D01*
X178742431Y-80547893D01*
X178989747Y-80713144D01*
X179264549Y-80826971D01*
X179556278Y-80885000D01*
X179853722Y-80885000D01*
X180145451Y-80826971D01*
X180420253Y-80713144D01*
X180667569Y-80547893D01*
X180877893Y-80337569D01*
X181043144Y-80090253D01*
X181156971Y-79815451D01*
X181215000Y-79523722D01*
X181215000Y-79226278D01*
X187085000Y-79226278D01*
X187085000Y-79523722D01*
X187143029Y-79815451D01*
X187256856Y-80090253D01*
X187422107Y-80337569D01*
X187632431Y-80547893D01*
X187879747Y-80713144D01*
X188154549Y-80826971D01*
X188446278Y-80885000D01*
X188743722Y-80885000D01*
X189035451Y-80826971D01*
X189310253Y-80713144D01*
X189557569Y-80547893D01*
X189767893Y-80337569D01*
X189933144Y-80090253D01*
X190046971Y-79815451D01*
X190105000Y-79523722D01*
X190105000Y-79226278D01*
X190083080Y-79116076D01*
X191046100Y-79116076D01*
X191046100Y-79633924D01*
X191147127Y-80141822D01*
X191345299Y-80620251D01*
X191633000Y-81050826D01*
X191999174Y-81417000D01*
X192429749Y-81704701D01*
X192908178Y-81902873D01*
X193416076Y-82003900D01*
X193933924Y-82003900D01*
X194441822Y-81902873D01*
X194920251Y-81704701D01*
X195350826Y-81417000D01*
X195717000Y-81050826D01*
X196004701Y-80620251D01*
X196065000Y-80474676D01*
X196065000Y-83494842D01*
X195580915Y-83978928D01*
X194875000Y-83978928D01*
X194750518Y-83991188D01*
X194630820Y-84027498D01*
X194520506Y-84086463D01*
X194423815Y-84165815D01*
X194344463Y-84262506D01*
X194285498Y-84372820D01*
X194249188Y-84492518D01*
X194236928Y-84617000D01*
X194236928Y-85817000D01*
X194249188Y-85941482D01*
X194285498Y-86061180D01*
X194344463Y-86171494D01*
X194423815Y-86268185D01*
X194520506Y-86347537D01*
X194630820Y-86406502D01*
X194750518Y-86442812D01*
X194875000Y-86455072D01*
X195775000Y-86455072D01*
X195899482Y-86442812D01*
X196019180Y-86406502D01*
X196129494Y-86347537D01*
X196226185Y-86268185D01*
X196305537Y-86171494D01*
X196364502Y-86061180D01*
X196400812Y-85941482D01*
X196413072Y-85817000D01*
X196413072Y-85367085D01*
X197377817Y-84402341D01*
X197407764Y-84377764D01*
X197505862Y-84258233D01*
X197578754Y-84121860D01*
X197623641Y-83973887D01*
X197635000Y-83858561D01*
X197635000Y-83858554D01*
X197638797Y-83820001D01*
X197635000Y-83781448D01*
X197635000Y-80390462D01*
X197792431Y-80547893D01*
X198039747Y-80713144D01*
X198314549Y-80826971D01*
X198606278Y-80885000D01*
X198903722Y-80885000D01*
X199195451Y-80826971D01*
X199470253Y-80713144D01*
X199717569Y-80547893D01*
X199927893Y-80337569D01*
X200093144Y-80090253D01*
X200206971Y-79815451D01*
X200265000Y-79523722D01*
X200265000Y-79226278D01*
X206135000Y-79226278D01*
X206135000Y-79523722D01*
X206193029Y-79815451D01*
X206306856Y-80090253D01*
X206472107Y-80337569D01*
X206682431Y-80547893D01*
X206929747Y-80713144D01*
X207204549Y-80826971D01*
X207496278Y-80885000D01*
X207793722Y-80885000D01*
X208085451Y-80826971D01*
X208360253Y-80713144D01*
X208607569Y-80547893D01*
X208817893Y-80337569D01*
X208983144Y-80090253D01*
X209096971Y-79815451D01*
X209155000Y-79523722D01*
X209155000Y-79226278D01*
X209133080Y-79116076D01*
X210096100Y-79116076D01*
X210096100Y-79633924D01*
X210197127Y-80141822D01*
X210395299Y-80620251D01*
X210683000Y-81050826D01*
X211049174Y-81417000D01*
X211479749Y-81704701D01*
X211958178Y-81902873D01*
X212466076Y-82003900D01*
X212983924Y-82003900D01*
X213491822Y-81902873D01*
X213970251Y-81704701D01*
X214400826Y-81417000D01*
X214767000Y-81050826D01*
X215054701Y-80620251D01*
X215115000Y-80474676D01*
X215115000Y-83494842D01*
X214630915Y-83978928D01*
X213925000Y-83978928D01*
X213800518Y-83991188D01*
X213680820Y-84027498D01*
X213570506Y-84086463D01*
X213473815Y-84165815D01*
X213394463Y-84262506D01*
X213335498Y-84372820D01*
X213299188Y-84492518D01*
X213286928Y-84617000D01*
X213286928Y-85817000D01*
X213299188Y-85941482D01*
X213335498Y-86061180D01*
X213394463Y-86171494D01*
X213473815Y-86268185D01*
X213570506Y-86347537D01*
X213680820Y-86406502D01*
X213800518Y-86442812D01*
X213925000Y-86455072D01*
X214825000Y-86455072D01*
X214949482Y-86442812D01*
X215069180Y-86406502D01*
X215179494Y-86347537D01*
X215276185Y-86268185D01*
X215355537Y-86171494D01*
X215414502Y-86061180D01*
X215450812Y-85941482D01*
X215463072Y-85817000D01*
X215463072Y-85367085D01*
X216427817Y-84402341D01*
X216457764Y-84377764D01*
X216555862Y-84258233D01*
X216628754Y-84121860D01*
X216673641Y-83973887D01*
X216685000Y-83858561D01*
X216685000Y-83858554D01*
X216688797Y-83820001D01*
X216685000Y-83781448D01*
X216685000Y-80390462D01*
X216842431Y-80547893D01*
X217089747Y-80713144D01*
X217364549Y-80826971D01*
X217656278Y-80885000D01*
X217953722Y-80885000D01*
X218245451Y-80826971D01*
X218520253Y-80713144D01*
X218767569Y-80547893D01*
X218977893Y-80337569D01*
X219143144Y-80090253D01*
X219256971Y-79815451D01*
X219315000Y-79523722D01*
X219315000Y-79226278D01*
X219256971Y-78934549D01*
X219143144Y-78659747D01*
X218977893Y-78412431D01*
X218767569Y-78202107D01*
X218520253Y-78036856D01*
X218245451Y-77923029D01*
X217953722Y-77865000D01*
X217656278Y-77865000D01*
X217364549Y-77923029D01*
X217089747Y-78036856D01*
X216842431Y-78202107D01*
X216685000Y-78359538D01*
X216685000Y-75337736D01*
X216824692Y-75128673D01*
X216957364Y-74808373D01*
X217025000Y-74468345D01*
X217025000Y-74121655D01*
X216957364Y-73781627D01*
X216824692Y-73461327D01*
X216632081Y-73173065D01*
X216386935Y-72927919D01*
X216098673Y-72735308D01*
X215778373Y-72602636D01*
X215438345Y-72535000D01*
X215091655Y-72535000D01*
X214751627Y-72602636D01*
X214431327Y-72735308D01*
X214143065Y-72927919D01*
X213897919Y-73173065D01*
X213705308Y-73461327D01*
X213572636Y-73781627D01*
X213505000Y-74121655D01*
X213505000Y-74468345D01*
X213572636Y-74808373D01*
X213705308Y-75128673D01*
X213897919Y-75416935D01*
X214143065Y-75662081D01*
X214431327Y-75854692D01*
X214751627Y-75987364D01*
X215091655Y-76055000D01*
X215115001Y-76055000D01*
X215115001Y-78275325D01*
X215054701Y-78129749D01*
X214767000Y-77699174D01*
X214400826Y-77333000D01*
X213970251Y-77045299D01*
X213491822Y-76847127D01*
X212983924Y-76746100D01*
X212466076Y-76746100D01*
X211958178Y-76847127D01*
X211479749Y-77045299D01*
X211049174Y-77333000D01*
X210683000Y-77699174D01*
X210395299Y-78129749D01*
X210197127Y-78608178D01*
X210096100Y-79116076D01*
X209133080Y-79116076D01*
X209096971Y-78934549D01*
X208983144Y-78659747D01*
X208939882Y-78595000D01*
X209088345Y-78595000D01*
X209428373Y-78527364D01*
X209748673Y-78394692D01*
X210036935Y-78202081D01*
X210282081Y-77956935D01*
X210474692Y-77668673D01*
X210607364Y-77348373D01*
X210675000Y-77008345D01*
X210675000Y-76661655D01*
X210607364Y-76321627D01*
X210474692Y-76001327D01*
X210282081Y-75713065D01*
X210036935Y-75467919D01*
X209748673Y-75275308D01*
X209428373Y-75142636D01*
X209088345Y-75075000D01*
X208741655Y-75075000D01*
X208401627Y-75142636D01*
X208081327Y-75275308D01*
X207793065Y-75467919D01*
X207547919Y-75713065D01*
X207355308Y-76001327D01*
X207222636Y-76321627D01*
X207155000Y-76661655D01*
X207155000Y-77008345D01*
X207222636Y-77348373D01*
X207355308Y-77668673D01*
X207487638Y-77866719D01*
X207204549Y-77923029D01*
X206929747Y-78036856D01*
X206682431Y-78202107D01*
X206472107Y-78412431D01*
X206306856Y-78659747D01*
X206193029Y-78934549D01*
X206135000Y-79226278D01*
X200265000Y-79226278D01*
X200206971Y-78934549D01*
X200093144Y-78659747D01*
X199927893Y-78412431D01*
X199717569Y-78202107D01*
X199470253Y-78036856D01*
X199195451Y-77923029D01*
X198903722Y-77865000D01*
X198606278Y-77865000D01*
X198314549Y-77923029D01*
X198039747Y-78036856D01*
X197792431Y-78202107D01*
X197635000Y-78359538D01*
X197635000Y-75337736D01*
X197774692Y-75128673D01*
X197907364Y-74808373D01*
X197975000Y-74468345D01*
X197975000Y-74121655D01*
X197907364Y-73781627D01*
X197774692Y-73461327D01*
X197582081Y-73173065D01*
X197336935Y-72927919D01*
X197048673Y-72735308D01*
X196728373Y-72602636D01*
X196388345Y-72535000D01*
X196041655Y-72535000D01*
X195701627Y-72602636D01*
X195381327Y-72735308D01*
X195093065Y-72927919D01*
X194847919Y-73173065D01*
X194655308Y-73461327D01*
X194522636Y-73781627D01*
X194455000Y-74121655D01*
X194455000Y-74468345D01*
X194522636Y-74808373D01*
X194655308Y-75128673D01*
X194847919Y-75416935D01*
X195093065Y-75662081D01*
X195381327Y-75854692D01*
X195701627Y-75987364D01*
X196041655Y-76055000D01*
X196065001Y-76055000D01*
X196065001Y-78275325D01*
X196004701Y-78129749D01*
X195717000Y-77699174D01*
X195350826Y-77333000D01*
X194920251Y-77045299D01*
X194441822Y-76847127D01*
X193933924Y-76746100D01*
X193416076Y-76746100D01*
X192908178Y-76847127D01*
X192429749Y-77045299D01*
X191999174Y-77333000D01*
X191633000Y-77699174D01*
X191345299Y-78129749D01*
X191147127Y-78608178D01*
X191046100Y-79116076D01*
X190083080Y-79116076D01*
X190046971Y-78934549D01*
X189933144Y-78659747D01*
X189889882Y-78595000D01*
X190038345Y-78595000D01*
X190378373Y-78527364D01*
X190698673Y-78394692D01*
X190986935Y-78202081D01*
X191232081Y-77956935D01*
X191424692Y-77668673D01*
X191557364Y-77348373D01*
X191625000Y-77008345D01*
X191625000Y-76661655D01*
X191557364Y-76321627D01*
X191424692Y-76001327D01*
X191232081Y-75713065D01*
X190986935Y-75467919D01*
X190698673Y-75275308D01*
X190378373Y-75142636D01*
X190038345Y-75075000D01*
X189691655Y-75075000D01*
X189351627Y-75142636D01*
X189031327Y-75275308D01*
X188743065Y-75467919D01*
X188497919Y-75713065D01*
X188305308Y-76001327D01*
X188172636Y-76321627D01*
X188105000Y-76661655D01*
X188105000Y-77008345D01*
X188172636Y-77348373D01*
X188305308Y-77668673D01*
X188437638Y-77866719D01*
X188154549Y-77923029D01*
X187879747Y-78036856D01*
X187632431Y-78202107D01*
X187422107Y-78412431D01*
X187256856Y-78659747D01*
X187143029Y-78934549D01*
X187085000Y-79226278D01*
X181215000Y-79226278D01*
X181156971Y-78934549D01*
X181043144Y-78659747D01*
X180877893Y-78412431D01*
X180667569Y-78202107D01*
X180420253Y-78036856D01*
X180145451Y-77923029D01*
X179853722Y-77865000D01*
X179556278Y-77865000D01*
X179264549Y-77923029D01*
X178989747Y-78036856D01*
X178742431Y-78202107D01*
X178585000Y-78359538D01*
X178585000Y-75337736D01*
X178724692Y-75128673D01*
X178857364Y-74808373D01*
X178925000Y-74468345D01*
X178925000Y-74121655D01*
X178857364Y-73781627D01*
X178724692Y-73461327D01*
X178532081Y-73173065D01*
X178286935Y-72927919D01*
X177998673Y-72735308D01*
X177678373Y-72602636D01*
X177338345Y-72535000D01*
X176991655Y-72535000D01*
X176651627Y-72602636D01*
X176331327Y-72735308D01*
X176043065Y-72927919D01*
X175797919Y-73173065D01*
X175605308Y-73461327D01*
X175472636Y-73781627D01*
X175405000Y-74121655D01*
X175405000Y-74468345D01*
X175472636Y-74808373D01*
X175605308Y-75128673D01*
X175797919Y-75416935D01*
X176043065Y-75662081D01*
X176331327Y-75854692D01*
X176651627Y-75987364D01*
X176991655Y-76055000D01*
X177015001Y-76055000D01*
X177015001Y-78275325D01*
X176954701Y-78129749D01*
X176667000Y-77699174D01*
X176300826Y-77333000D01*
X175870251Y-77045299D01*
X175391822Y-76847127D01*
X174883924Y-76746100D01*
X174366076Y-76746100D01*
X173858178Y-76847127D01*
X173379749Y-77045299D01*
X172949174Y-77333000D01*
X172583000Y-77699174D01*
X172295299Y-78129749D01*
X172097127Y-78608178D01*
X171996100Y-79116076D01*
X171033080Y-79116076D01*
X170996971Y-78934549D01*
X170883144Y-78659747D01*
X170839882Y-78595000D01*
X170988345Y-78595000D01*
X171328373Y-78527364D01*
X171648673Y-78394692D01*
X171936935Y-78202081D01*
X172182081Y-77956935D01*
X172374692Y-77668673D01*
X172507364Y-77348373D01*
X172575000Y-77008345D01*
X172575000Y-76661655D01*
X172507364Y-76321627D01*
X172374692Y-76001327D01*
X172182081Y-75713065D01*
X171936935Y-75467919D01*
X171648673Y-75275308D01*
X171328373Y-75142636D01*
X170988345Y-75075000D01*
X170641655Y-75075000D01*
X170301627Y-75142636D01*
X169981327Y-75275308D01*
X169693065Y-75467919D01*
X169447919Y-75713065D01*
X169255308Y-76001327D01*
X169122636Y-76321627D01*
X169055000Y-76661655D01*
X169055000Y-77008345D01*
X169122636Y-77348373D01*
X169255308Y-77668673D01*
X169387638Y-77866719D01*
X169104549Y-77923029D01*
X168829747Y-78036856D01*
X168582431Y-78202107D01*
X168407590Y-78376948D01*
X168407590Y-66622347D01*
X170865325Y-69080083D01*
X170887572Y-69107660D01*
X170890124Y-69109790D01*
X170892236Y-69112364D01*
X170922184Y-69136942D01*
X170922187Y-69136945D01*
X170949539Y-69159392D01*
X171006276Y-69206758D01*
X171009190Y-69208347D01*
X171011767Y-69210462D01*
X171077163Y-69245416D01*
X171142032Y-69280793D01*
X171145203Y-69281784D01*
X171148140Y-69283354D01*
X171219002Y-69304850D01*
X171289622Y-69326922D01*
X171292931Y-69327276D01*
X171296112Y-69328241D01*
X171308956Y-69329506D01*
X171369827Y-69335501D01*
X171443377Y-69343369D01*
X171446688Y-69343071D01*
X171449999Y-69343397D01*
X171488552Y-69339600D01*
X190458142Y-69339600D01*
X190493377Y-69343369D01*
X190535248Y-69339600D01*
X209511447Y-69339600D01*
X209550000Y-69343397D01*
X209588553Y-69339600D01*
X209588561Y-69339600D01*
X209703887Y-69328241D01*
X209851860Y-69283354D01*
X209988233Y-69210462D01*
X210107764Y-69112364D01*
X210132347Y-69082410D01*
X211602810Y-67611947D01*
X211632764Y-67587364D01*
X211730862Y-67467833D01*
X211798844Y-67340646D01*
X211879494Y-67297537D01*
X211976185Y-67218185D01*
X212055537Y-67121494D01*
X212114502Y-67011180D01*
X212150812Y-66891482D01*
X212163072Y-66767000D01*
X212163072Y-65567000D01*
X212150812Y-65442518D01*
X212114502Y-65322820D01*
X212055537Y-65212506D01*
X211976185Y-65115815D01*
X211879494Y-65036463D01*
X211769180Y-64977498D01*
X211649482Y-64941188D01*
X211525000Y-64928928D01*
X210625000Y-64928928D01*
X210500518Y-64941188D01*
X210380820Y-64977498D01*
X210270506Y-65036463D01*
X210173815Y-65115815D01*
X210094463Y-65212506D01*
X210035498Y-65322820D01*
X209999188Y-65442518D01*
X209986928Y-65567000D01*
X209986928Y-66767000D01*
X209999188Y-66891482D01*
X210023341Y-66971102D01*
X209224843Y-67769600D01*
X192417896Y-67769600D01*
X192550264Y-67639437D01*
X192582764Y-67612764D01*
X192629708Y-67555563D01*
X192677158Y-67498725D01*
X192678749Y-67495808D01*
X192680862Y-67493233D01*
X192715789Y-67427888D01*
X192751193Y-67362969D01*
X192752185Y-67359796D01*
X192753754Y-67356860D01*
X192760574Y-67334376D01*
X192829494Y-67297537D01*
X192926185Y-67218185D01*
X193005537Y-67121494D01*
X193064502Y-67011180D01*
X193100812Y-66891482D01*
X193113072Y-66767000D01*
X193113072Y-65567000D01*
X193100812Y-65442518D01*
X193064502Y-65322820D01*
X193005537Y-65212506D01*
X192926185Y-65115815D01*
X192829494Y-65036463D01*
X192719180Y-64977498D01*
X192599482Y-64941188D01*
X192475000Y-64928928D01*
X191575000Y-64928928D01*
X191450518Y-64941188D01*
X191330820Y-64977498D01*
X191220506Y-65036463D01*
X191123815Y-65115815D01*
X191044463Y-65212506D01*
X190985498Y-65322820D01*
X190949188Y-65442518D01*
X190936928Y-65567000D01*
X190936928Y-66767000D01*
X190949188Y-66891482D01*
X190977334Y-66984266D01*
X190178699Y-67769600D01*
X173367896Y-67769600D01*
X173500264Y-67639437D01*
X173532764Y-67612764D01*
X173579708Y-67555563D01*
X173627158Y-67498725D01*
X173628749Y-67495808D01*
X173630862Y-67493233D01*
X173665789Y-67427888D01*
X173701193Y-67362969D01*
X173702185Y-67359796D01*
X173703754Y-67356860D01*
X173710574Y-67334376D01*
X173779494Y-67297537D01*
X173876185Y-67218185D01*
X173955537Y-67121494D01*
X174014502Y-67011180D01*
X174050812Y-66891482D01*
X174063072Y-66767000D01*
X174063072Y-65567000D01*
X174050812Y-65442518D01*
X174014502Y-65322820D01*
X173955537Y-65212506D01*
X173876185Y-65115815D01*
X173779494Y-65036463D01*
X173669180Y-64977498D01*
X173549482Y-64941188D01*
X173425000Y-64928928D01*
X172525000Y-64928928D01*
X172400518Y-64941188D01*
X172280820Y-64977498D01*
X172170506Y-65036463D01*
X172073815Y-65115815D01*
X171994463Y-65212506D01*
X171935498Y-65322820D01*
X171899188Y-65442518D01*
X171886928Y-65567000D01*
X171886928Y-66767000D01*
X171899188Y-66891482D01*
X171927334Y-66984266D01*
X171454643Y-67449085D01*
X168907600Y-64902043D01*
X168907600Y-61695392D01*
X169104549Y-61776971D01*
X169396278Y-61835000D01*
X169693722Y-61835000D01*
X169985451Y-61776971D01*
X170260253Y-61663144D01*
X170507569Y-61497893D01*
X170717893Y-61287569D01*
X170883144Y-61040253D01*
X170996971Y-60765451D01*
X171055000Y-60473722D01*
X171055000Y-60176278D01*
X171033080Y-60066076D01*
X171996100Y-60066076D01*
X171996100Y-60583924D01*
X172097127Y-61091822D01*
X172295299Y-61570251D01*
X172583000Y-62000826D01*
X172949174Y-62367000D01*
X173379749Y-62654701D01*
X173858178Y-62852873D01*
X174366076Y-62953900D01*
X174883924Y-62953900D01*
X175391822Y-62852873D01*
X175870251Y-62654701D01*
X176300826Y-62367000D01*
X176667000Y-62000826D01*
X176954701Y-61570251D01*
X177015000Y-61424676D01*
X177015000Y-64444842D01*
X176530915Y-64928928D01*
X175825000Y-64928928D01*
X175700518Y-64941188D01*
X175580820Y-64977498D01*
X175470506Y-65036463D01*
X175373815Y-65115815D01*
X175294463Y-65212506D01*
X175235498Y-65322820D01*
X175199188Y-65442518D01*
X175186928Y-65567000D01*
X175186928Y-66767000D01*
X175199188Y-66891482D01*
X175235498Y-67011180D01*
X175294463Y-67121494D01*
X175373815Y-67218185D01*
X175470506Y-67297537D01*
X175580820Y-67356502D01*
X175700518Y-67392812D01*
X175825000Y-67405072D01*
X176725000Y-67405072D01*
X176849482Y-67392812D01*
X176969180Y-67356502D01*
X177079494Y-67297537D01*
X177176185Y-67218185D01*
X177255537Y-67121494D01*
X177314502Y-67011180D01*
X177350812Y-66891482D01*
X177363072Y-66767000D01*
X177363072Y-66317085D01*
X178327817Y-65352341D01*
X178357764Y-65327764D01*
X178455862Y-65208233D01*
X178528754Y-65071860D01*
X178573641Y-64923887D01*
X178585000Y-64808561D01*
X178585000Y-64808554D01*
X178588797Y-64770001D01*
X178585000Y-64731448D01*
X178585000Y-61340462D01*
X178742431Y-61497893D01*
X178989747Y-61663144D01*
X179264549Y-61776971D01*
X179556278Y-61835000D01*
X179853722Y-61835000D01*
X180145451Y-61776971D01*
X180420253Y-61663144D01*
X180667569Y-61497893D01*
X180877893Y-61287569D01*
X181043144Y-61040253D01*
X181156971Y-60765451D01*
X181215000Y-60473722D01*
X181215000Y-60176278D01*
X187085000Y-60176278D01*
X187085000Y-60473722D01*
X187143029Y-60765451D01*
X187256856Y-61040253D01*
X187422107Y-61287569D01*
X187632431Y-61497893D01*
X187879747Y-61663144D01*
X188154549Y-61776971D01*
X188446278Y-61835000D01*
X188743722Y-61835000D01*
X189035451Y-61776971D01*
X189310253Y-61663144D01*
X189557569Y-61497893D01*
X189767893Y-61287569D01*
X189933144Y-61040253D01*
X190046971Y-60765451D01*
X190105000Y-60473722D01*
X190105000Y-60176278D01*
X190083080Y-60066076D01*
X191046100Y-60066076D01*
X191046100Y-60583924D01*
X191147127Y-61091822D01*
X191345299Y-61570251D01*
X191633000Y-62000826D01*
X191999174Y-62367000D01*
X192429749Y-62654701D01*
X192908178Y-62852873D01*
X193416076Y-62953900D01*
X193933924Y-62953900D01*
X194441822Y-62852873D01*
X194920251Y-62654701D01*
X195350826Y-62367000D01*
X195717000Y-62000826D01*
X196004701Y-61570251D01*
X196065000Y-61424676D01*
X196065000Y-64444842D01*
X195580915Y-64928928D01*
X194875000Y-64928928D01*
X194750518Y-64941188D01*
X194630820Y-64977498D01*
X194520506Y-65036463D01*
X194423815Y-65115815D01*
X194344463Y-65212506D01*
X194285498Y-65322820D01*
X194249188Y-65442518D01*
X194236928Y-65567000D01*
X194236928Y-66767000D01*
X194249188Y-66891482D01*
X194285498Y-67011180D01*
X194344463Y-67121494D01*
X194423815Y-67218185D01*
X194520506Y-67297537D01*
X194630820Y-67356502D01*
X194750518Y-67392812D01*
X194875000Y-67405072D01*
X195775000Y-67405072D01*
X195899482Y-67392812D01*
X196019180Y-67356502D01*
X196129494Y-67297537D01*
X196226185Y-67218185D01*
X196305537Y-67121494D01*
X196364502Y-67011180D01*
X196400812Y-66891482D01*
X196413072Y-66767000D01*
X196413072Y-66317085D01*
X197377817Y-65352341D01*
X197407764Y-65327764D01*
X197505862Y-65208233D01*
X197578754Y-65071860D01*
X197623641Y-64923887D01*
X197635000Y-64808561D01*
X197635000Y-64808554D01*
X197638797Y-64770001D01*
X197635000Y-64731448D01*
X197635000Y-61340462D01*
X197792431Y-61497893D01*
X198039747Y-61663144D01*
X198314549Y-61776971D01*
X198606278Y-61835000D01*
X198903722Y-61835000D01*
X199195451Y-61776971D01*
X199470253Y-61663144D01*
X199717569Y-61497893D01*
X199927893Y-61287569D01*
X200093144Y-61040253D01*
X200206971Y-60765451D01*
X200265000Y-60473722D01*
X200265000Y-60176278D01*
X206135000Y-60176278D01*
X206135000Y-60473722D01*
X206193029Y-60765451D01*
X206306856Y-61040253D01*
X206472107Y-61287569D01*
X206682431Y-61497893D01*
X206929747Y-61663144D01*
X207204549Y-61776971D01*
X207496278Y-61835000D01*
X207793722Y-61835000D01*
X208085451Y-61776971D01*
X208360253Y-61663144D01*
X208607569Y-61497893D01*
X208817893Y-61287569D01*
X208983144Y-61040253D01*
X209096971Y-60765451D01*
X209155000Y-60473722D01*
X209155000Y-60176278D01*
X209133080Y-60066076D01*
X210096100Y-60066076D01*
X210096100Y-60583924D01*
X210197127Y-61091822D01*
X210395299Y-61570251D01*
X210683000Y-62000826D01*
X211049174Y-62367000D01*
X211479749Y-62654701D01*
X211958178Y-62852873D01*
X212466076Y-62953900D01*
X212983924Y-62953900D01*
X213491822Y-62852873D01*
X213970251Y-62654701D01*
X214400826Y-62367000D01*
X214767000Y-62000826D01*
X215054701Y-61570251D01*
X215115000Y-61424676D01*
X215115000Y-64444842D01*
X214630915Y-64928928D01*
X213925000Y-64928928D01*
X213800518Y-64941188D01*
X213680820Y-64977498D01*
X213570506Y-65036463D01*
X213473815Y-65115815D01*
X213394463Y-65212506D01*
X213335498Y-65322820D01*
X213299188Y-65442518D01*
X213286928Y-65567000D01*
X213286928Y-66767000D01*
X213299188Y-66891482D01*
X213335498Y-67011180D01*
X213394463Y-67121494D01*
X213473815Y-67218185D01*
X213570506Y-67297537D01*
X213680820Y-67356502D01*
X213800518Y-67392812D01*
X213925000Y-67405072D01*
X214825000Y-67405072D01*
X214949482Y-67392812D01*
X215069180Y-67356502D01*
X215179494Y-67297537D01*
X215276185Y-67218185D01*
X215355537Y-67121494D01*
X215414502Y-67011180D01*
X215450812Y-66891482D01*
X215463072Y-66767000D01*
X215463072Y-66317085D01*
X216427817Y-65352341D01*
X216457764Y-65327764D01*
X216555862Y-65208233D01*
X216628754Y-65071860D01*
X216673641Y-64923887D01*
X216685000Y-64808561D01*
X216685000Y-64808554D01*
X216688797Y-64770001D01*
X216685000Y-64731448D01*
X216685000Y-61340462D01*
X216842431Y-61497893D01*
X217089747Y-61663144D01*
X217364549Y-61776971D01*
X217656278Y-61835000D01*
X217953722Y-61835000D01*
X218245451Y-61776971D01*
X218520253Y-61663144D01*
X218767569Y-61497893D01*
X218977893Y-61287569D01*
X219143144Y-61040253D01*
X219256971Y-60765451D01*
X219315000Y-60473722D01*
X219315000Y-60176278D01*
X219256971Y-59884549D01*
X219143144Y-59609747D01*
X218977893Y-59362431D01*
X218767569Y-59152107D01*
X218520253Y-58986856D01*
X218245451Y-58873029D01*
X217953722Y-58815000D01*
X217656278Y-58815000D01*
X217364549Y-58873029D01*
X217089747Y-58986856D01*
X216842431Y-59152107D01*
X216685000Y-59309538D01*
X216685000Y-56287736D01*
X216824692Y-56078673D01*
X216957364Y-55758373D01*
X217025000Y-55418345D01*
X217025000Y-55071655D01*
X216957364Y-54731627D01*
X216824692Y-54411327D01*
X216632081Y-54123065D01*
X216386935Y-53877919D01*
X216098673Y-53685308D01*
X215778373Y-53552636D01*
X215438345Y-53485000D01*
X215091655Y-53485000D01*
X214751627Y-53552636D01*
X214431327Y-53685308D01*
X214143065Y-53877919D01*
X213897919Y-54123065D01*
X213705308Y-54411327D01*
X213572636Y-54731627D01*
X213505000Y-55071655D01*
X213505000Y-55418345D01*
X213572636Y-55758373D01*
X213705308Y-56078673D01*
X213897919Y-56366935D01*
X214143065Y-56612081D01*
X214431327Y-56804692D01*
X214751627Y-56937364D01*
X215091655Y-57005000D01*
X215115001Y-57005000D01*
X215115001Y-59225325D01*
X215054701Y-59079749D01*
X214767000Y-58649174D01*
X214400826Y-58283000D01*
X213970251Y-57995299D01*
X213491822Y-57797127D01*
X212983924Y-57696100D01*
X212466076Y-57696100D01*
X211958178Y-57797127D01*
X211479749Y-57995299D01*
X211049174Y-58283000D01*
X210683000Y-58649174D01*
X210395299Y-59079749D01*
X210197127Y-59558178D01*
X210096100Y-60066076D01*
X209133080Y-60066076D01*
X209096971Y-59884549D01*
X208983144Y-59609747D01*
X208939882Y-59545000D01*
X209088345Y-59545000D01*
X209428373Y-59477364D01*
X209748673Y-59344692D01*
X210036935Y-59152081D01*
X210282081Y-58906935D01*
X210474692Y-58618673D01*
X210607364Y-58298373D01*
X210675000Y-57958345D01*
X210675000Y-57611655D01*
X210607364Y-57271627D01*
X210474692Y-56951327D01*
X210282081Y-56663065D01*
X210036935Y-56417919D01*
X209748673Y-56225308D01*
X209428373Y-56092636D01*
X209088345Y-56025000D01*
X208741655Y-56025000D01*
X208401627Y-56092636D01*
X208081327Y-56225308D01*
X207793065Y-56417919D01*
X207547919Y-56663065D01*
X207355308Y-56951327D01*
X207222636Y-57271627D01*
X207155000Y-57611655D01*
X207155000Y-57958345D01*
X207222636Y-58298373D01*
X207355308Y-58618673D01*
X207487638Y-58816719D01*
X207204549Y-58873029D01*
X206929747Y-58986856D01*
X206682431Y-59152107D01*
X206472107Y-59362431D01*
X206306856Y-59609747D01*
X206193029Y-59884549D01*
X206135000Y-60176278D01*
X200265000Y-60176278D01*
X200206971Y-59884549D01*
X200093144Y-59609747D01*
X199927893Y-59362431D01*
X199717569Y-59152107D01*
X199470253Y-58986856D01*
X199195451Y-58873029D01*
X198903722Y-58815000D01*
X198606278Y-58815000D01*
X198314549Y-58873029D01*
X198039747Y-58986856D01*
X197792431Y-59152107D01*
X197635000Y-59309538D01*
X197635000Y-56287736D01*
X197774692Y-56078673D01*
X197907364Y-55758373D01*
X197975000Y-55418345D01*
X197975000Y-55071655D01*
X197907364Y-54731627D01*
X197774692Y-54411327D01*
X197582081Y-54123065D01*
X197336935Y-53877919D01*
X197048673Y-53685308D01*
X196728373Y-53552636D01*
X196388345Y-53485000D01*
X196041655Y-53485000D01*
X195701627Y-53552636D01*
X195381327Y-53685308D01*
X195093065Y-53877919D01*
X194847919Y-54123065D01*
X194655308Y-54411327D01*
X194522636Y-54731627D01*
X194455000Y-55071655D01*
X194455000Y-55418345D01*
X194522636Y-55758373D01*
X194655308Y-56078673D01*
X194847919Y-56366935D01*
X195093065Y-56612081D01*
X195381327Y-56804692D01*
X195701627Y-56937364D01*
X196041655Y-57005000D01*
X196065001Y-57005000D01*
X196065001Y-59225325D01*
X196004701Y-59079749D01*
X195717000Y-58649174D01*
X195350826Y-58283000D01*
X194920251Y-57995299D01*
X194441822Y-57797127D01*
X193933924Y-57696100D01*
X193416076Y-57696100D01*
X192908178Y-57797127D01*
X192429749Y-57995299D01*
X191999174Y-58283000D01*
X191633000Y-58649174D01*
X191345299Y-59079749D01*
X191147127Y-59558178D01*
X191046100Y-60066076D01*
X190083080Y-60066076D01*
X190046971Y-59884549D01*
X189933144Y-59609747D01*
X189889882Y-59545000D01*
X190038345Y-59545000D01*
X190378373Y-59477364D01*
X190698673Y-59344692D01*
X190986935Y-59152081D01*
X191232081Y-58906935D01*
X191424692Y-58618673D01*
X191557364Y-58298373D01*
X191625000Y-57958345D01*
X191625000Y-57611655D01*
X191557364Y-57271627D01*
X191424692Y-56951327D01*
X191232081Y-56663065D01*
X190986935Y-56417919D01*
X190698673Y-56225308D01*
X190378373Y-56092636D01*
X190038345Y-56025000D01*
X189691655Y-56025000D01*
X189351627Y-56092636D01*
X189031327Y-56225308D01*
X188743065Y-56417919D01*
X188497919Y-56663065D01*
X188305308Y-56951327D01*
X188172636Y-57271627D01*
X188105000Y-57611655D01*
X188105000Y-57958345D01*
X188172636Y-58298373D01*
X188305308Y-58618673D01*
X188437638Y-58816719D01*
X188154549Y-58873029D01*
X187879747Y-58986856D01*
X187632431Y-59152107D01*
X187422107Y-59362431D01*
X187256856Y-59609747D01*
X187143029Y-59884549D01*
X187085000Y-60176278D01*
X181215000Y-60176278D01*
X181156971Y-59884549D01*
X181043144Y-59609747D01*
X180877893Y-59362431D01*
X180667569Y-59152107D01*
X180420253Y-58986856D01*
X180145451Y-58873029D01*
X179853722Y-58815000D01*
X179556278Y-58815000D01*
X179264549Y-58873029D01*
X178989747Y-58986856D01*
X178742431Y-59152107D01*
X178585000Y-59309538D01*
X178585000Y-56287736D01*
X178724692Y-56078673D01*
X178857364Y-55758373D01*
X178925000Y-55418345D01*
X178925000Y-55071655D01*
X178857364Y-54731627D01*
X178724692Y-54411327D01*
X178532081Y-54123065D01*
X178286935Y-53877919D01*
X177998673Y-53685308D01*
X177678373Y-53552636D01*
X177338345Y-53485000D01*
X176991655Y-53485000D01*
X176651627Y-53552636D01*
X176331327Y-53685308D01*
X176043065Y-53877919D01*
X175797919Y-54123065D01*
X175605308Y-54411327D01*
X175472636Y-54731627D01*
X175405000Y-55071655D01*
X175405000Y-55418345D01*
X175472636Y-55758373D01*
X175605308Y-56078673D01*
X175797919Y-56366935D01*
X176043065Y-56612081D01*
X176331327Y-56804692D01*
X176651627Y-56937364D01*
X176991655Y-57005000D01*
X177015001Y-57005000D01*
X177015001Y-59225325D01*
X176954701Y-59079749D01*
X176667000Y-58649174D01*
X176300826Y-58283000D01*
X175870251Y-57995299D01*
X175391822Y-57797127D01*
X174883924Y-57696100D01*
X174366076Y-57696100D01*
X173858178Y-57797127D01*
X173379749Y-57995299D01*
X172949174Y-58283000D01*
X172583000Y-58649174D01*
X172295299Y-59079749D01*
X172097127Y-59558178D01*
X171996100Y-60066076D01*
X171033080Y-60066076D01*
X170996971Y-59884549D01*
X170883144Y-59609747D01*
X170839882Y-59545000D01*
X170988345Y-59545000D01*
X171328373Y-59477364D01*
X171648673Y-59344692D01*
X171936935Y-59152081D01*
X172182081Y-58906935D01*
X172374692Y-58618673D01*
X172507364Y-58298373D01*
X172575000Y-57958345D01*
X172575000Y-57611655D01*
X172507364Y-57271627D01*
X172374692Y-56951327D01*
X172182081Y-56663065D01*
X171936935Y-56417919D01*
X171648673Y-56225308D01*
X171328373Y-56092636D01*
X170988345Y-56025000D01*
X170641655Y-56025000D01*
X170301627Y-56092636D01*
X169981327Y-56225308D01*
X169693065Y-56417919D01*
X169447919Y-56663065D01*
X169255308Y-56951327D01*
X169122636Y-57271627D01*
X169055000Y-57611655D01*
X169055000Y-57958345D01*
X169122636Y-58298373D01*
X169255308Y-58618673D01*
X169387638Y-58816719D01*
X169104549Y-58873029D01*
X168907600Y-58954608D01*
X168907600Y-56960572D01*
X171739502Y-54349600D01*
X171805939Y-54349600D01*
X172005898Y-54309826D01*
X172194256Y-54231805D01*
X172363774Y-54118537D01*
X172507937Y-53974374D01*
X172621205Y-53804856D01*
X172699226Y-53616498D01*
X172739000Y-53416539D01*
X172739000Y-53212661D01*
X172699226Y-53012702D01*
X172621205Y-52824344D01*
X172614693Y-52814598D01*
X172621205Y-52804853D01*
X172699226Y-52616495D01*
X172739000Y-52416536D01*
X172739000Y-52212658D01*
X172699226Y-52012699D01*
X172621205Y-51824341D01*
X172612490Y-51811299D01*
X172621205Y-51798256D01*
X172699226Y-51609898D01*
X172739000Y-51409939D01*
X172739000Y-51403200D01*
X172796539Y-51403200D01*
X172996498Y-51363426D01*
X173184856Y-51285405D01*
X173307885Y-51203200D01*
X177669315Y-51203200D01*
X177792344Y-51285405D01*
X177980702Y-51363426D01*
X178180661Y-51403200D01*
X178384539Y-51403200D01*
X178584498Y-51363426D01*
X178772856Y-51285405D01*
X178942374Y-51172137D01*
X179086537Y-51027974D01*
X179199805Y-50858456D01*
X179277826Y-50670098D01*
X179317600Y-50470139D01*
X179317600Y-50266261D01*
X179277826Y-50066302D01*
X179199805Y-49877944D01*
X179086537Y-49708426D01*
X178942374Y-49564263D01*
X178772856Y-49450995D01*
X178584498Y-49372974D01*
X178384539Y-49333200D01*
X178180661Y-49333200D01*
X177980702Y-49372974D01*
X177792344Y-49450995D01*
X177669315Y-49533200D01*
X173307885Y-49533200D01*
X173184856Y-49450995D01*
X172996498Y-49372974D01*
X172796539Y-49333200D01*
X172592661Y-49333200D01*
X172392702Y-49372974D01*
X172204344Y-49450995D01*
X172034826Y-49564263D01*
X171890663Y-49708426D01*
X171777395Y-49877944D01*
X171699374Y-50066302D01*
X171659600Y-50266261D01*
X171659600Y-50273000D01*
X171602061Y-50273000D01*
X171402102Y-50312774D01*
X171213744Y-50390795D01*
X171044226Y-50504063D01*
X170900063Y-50648226D01*
X170786795Y-50817744D01*
X170708774Y-51006102D01*
X170692960Y-51085604D01*
X166595598Y-54750467D01*
X166548647Y-54789026D01*
X166513557Y-54831812D01*
X166476135Y-54872560D01*
X166464633Y-54891467D01*
X166450590Y-54908590D01*
X166424520Y-54957404D01*
X166395768Y-55004666D01*
X166388173Y-55025461D01*
X166377744Y-55044988D01*
X166361703Y-55097934D01*
X166342718Y-55149912D01*
X166339326Y-55171791D01*
X166332907Y-55192976D01*
X166327501Y-55248052D01*
X166319025Y-55302718D01*
X166321606Y-55363393D01*
X166337568Y-102339552D01*
X166333783Y-102377980D01*
X166337594Y-102416674D01*
X166337594Y-102416808D01*
X166341320Y-102454504D01*
X166348939Y-102531866D01*
X166348979Y-102531998D01*
X166348992Y-102532130D01*
X166371179Y-102605182D01*
X166393826Y-102679839D01*
X166393890Y-102679959D01*
X166393929Y-102680087D01*
X166431211Y-102749782D01*
X166466719Y-102816212D01*
X166466800Y-102816311D01*
X166466867Y-102816436D01*
X166516472Y-102876837D01*
X166540235Y-102905792D01*
X166540331Y-102905888D01*
X166565006Y-102935933D01*
X166594861Y-102960418D01*
X170842253Y-107207810D01*
X170866836Y-107237764D01*
X170930485Y-107290000D01*
X167672279Y-107290000D01*
X167275455Y-107251091D01*
X166924794Y-107145220D01*
X166601377Y-106973257D01*
X166317518Y-106741748D01*
X166084035Y-106459514D01*
X165909816Y-106137304D01*
X165801498Y-105787385D01*
X165760000Y-105392557D01*
X165760000Y-41503261D01*
X184385000Y-41503261D01*
X184385000Y-41707139D01*
X184424774Y-41907098D01*
X184502795Y-42095456D01*
X184585000Y-42218485D01*
X184585001Y-44192314D01*
X184502795Y-44315344D01*
X184424774Y-44503702D01*
X184385000Y-44703661D01*
X184385000Y-44907539D01*
X184424774Y-45107498D01*
X184502795Y-45295856D01*
X184616063Y-45465374D01*
X184760226Y-45609537D01*
X184929744Y-45722805D01*
X185118102Y-45800826D01*
X185318061Y-45840600D01*
X185521939Y-45840600D01*
X185721898Y-45800826D01*
X185910256Y-45722805D01*
X186079774Y-45609537D01*
X186223937Y-45465374D01*
X186337205Y-45295856D01*
X186415226Y-45107498D01*
X186455000Y-44907539D01*
X186455000Y-44703661D01*
X186415226Y-44503702D01*
X186337205Y-44315344D01*
X186255000Y-44192315D01*
X186255000Y-43841469D01*
X186367608Y-43841469D01*
X186567567Y-43801695D01*
X186755925Y-43723674D01*
X186925443Y-43610406D01*
X186944380Y-43591469D01*
X187695158Y-43591469D01*
X187732026Y-43628337D01*
X187901544Y-43741605D01*
X188089902Y-43819626D01*
X188289861Y-43859400D01*
X188493739Y-43859400D01*
X188693698Y-43819626D01*
X188882056Y-43741605D01*
X189051574Y-43628337D01*
X189195737Y-43484174D01*
X189309005Y-43314656D01*
X189387026Y-43126298D01*
X189426800Y-42926339D01*
X189426800Y-42722461D01*
X189387026Y-42522502D01*
X189309005Y-42334144D01*
X189195737Y-42164626D01*
X189051574Y-42020463D01*
X188882056Y-41907195D01*
X188693698Y-41829174D01*
X188493739Y-41789400D01*
X188289861Y-41789400D01*
X188089902Y-41829174D01*
X187901544Y-41907195D01*
X187732026Y-42020463D01*
X187731020Y-42021469D01*
X186944380Y-42021469D01*
X186925443Y-42002532D01*
X186755925Y-41889264D01*
X186567567Y-41811243D01*
X186439365Y-41785742D01*
X186455000Y-41707139D01*
X186455000Y-41503261D01*
X186415226Y-41303302D01*
X186337205Y-41114944D01*
X186223937Y-40945426D01*
X186079774Y-40801263D01*
X185910256Y-40687995D01*
X185721898Y-40609974D01*
X185521939Y-40570200D01*
X185318061Y-40570200D01*
X185118102Y-40609974D01*
X184929744Y-40687995D01*
X184760226Y-40801263D01*
X184616063Y-40945426D01*
X184502795Y-41114944D01*
X184424774Y-41303302D01*
X184385000Y-41503261D01*
X165760000Y-41503261D01*
X165760000Y-33959800D01*
X188034000Y-33959800D01*
X188034000Y-34513800D01*
X188081623Y-34743322D01*
X188173108Y-34959143D01*
X188304940Y-35152969D01*
X188472052Y-35317352D01*
X188668023Y-35445974D01*
X188885321Y-35533893D01*
X188912627Y-35534576D01*
X189096000Y-35409192D01*
X189096000Y-33959800D01*
X188034000Y-33959800D01*
X165760000Y-33959800D01*
X165760000Y-31274279D01*
X165798909Y-30877455D01*
X165888776Y-30579800D01*
X188034000Y-30579800D01*
X188034000Y-31133800D01*
X188081623Y-31363322D01*
X188173108Y-31579143D01*
X188304940Y-31772969D01*
X188472052Y-31937352D01*
X188668023Y-32065974D01*
X188857904Y-32142800D01*
X188668023Y-32219626D01*
X188472052Y-32348248D01*
X188304940Y-32512631D01*
X188173108Y-32706457D01*
X188081623Y-32922278D01*
X188034000Y-33151800D01*
X188034000Y-33705800D01*
X189096000Y-33705800D01*
X189096000Y-32256408D01*
X188929849Y-32142800D01*
X189096000Y-32029192D01*
X189096000Y-30579800D01*
X189350000Y-30579800D01*
X189350000Y-32029192D01*
X189516151Y-32142800D01*
X189350000Y-32256408D01*
X189350000Y-33705800D01*
X189370000Y-33705800D01*
X189370000Y-33959800D01*
X189350000Y-33959800D01*
X189350000Y-35409192D01*
X189533373Y-35534576D01*
X189560679Y-35533893D01*
X189777977Y-35445974D01*
X189973948Y-35317352D01*
X190141060Y-35152969D01*
X190272892Y-34959143D01*
X190291905Y-34914290D01*
X190393395Y-34812800D01*
X190379253Y-34798658D01*
X190463829Y-34714081D01*
X190463000Y-34718248D01*
X190463000Y-34907352D01*
X190495361Y-35070044D01*
X190100069Y-35465336D01*
X190113677Y-35661070D01*
X190287992Y-35734381D01*
X190473260Y-35772275D01*
X190662361Y-35773297D01*
X190848028Y-35737408D01*
X190916010Y-35709679D01*
X191305553Y-36099222D01*
X191331708Y-36131092D01*
X191458853Y-36235437D01*
X191603912Y-36312973D01*
X191761310Y-36360719D01*
X191924998Y-36376841D01*
X191966017Y-36372801D01*
X193783000Y-36372801D01*
X193783000Y-36439740D01*
X193822774Y-36639699D01*
X193900795Y-36828057D01*
X194014063Y-36997575D01*
X194158226Y-37141738D01*
X194327744Y-37255006D01*
X194516102Y-37333027D01*
X194716061Y-37372801D01*
X194742843Y-37372801D01*
X195235856Y-37865815D01*
X195260435Y-37895764D01*
X195290383Y-37920342D01*
X195290386Y-37920345D01*
X195319758Y-37944450D01*
X195379966Y-37993862D01*
X195516339Y-38066754D01*
X195664312Y-38111642D01*
X195739225Y-38119020D01*
X195779638Y-38123000D01*
X195779643Y-38123000D01*
X195818199Y-38126797D01*
X195856754Y-38123000D01*
X196493534Y-38123000D01*
X196528663Y-38175574D01*
X196672826Y-38319737D01*
X196842344Y-38433005D01*
X197030702Y-38511026D01*
X197230661Y-38550800D01*
X197434539Y-38550800D01*
X197634498Y-38511026D01*
X197822856Y-38433005D01*
X197992374Y-38319737D01*
X198136537Y-38175574D01*
X198249805Y-38006056D01*
X198327826Y-37817698D01*
X198367600Y-37617739D01*
X198367600Y-37413861D01*
X198327826Y-37213902D01*
X198249805Y-37025544D01*
X198136537Y-36856026D01*
X197992374Y-36711863D01*
X197822856Y-36598595D01*
X197634498Y-36520574D01*
X197434539Y-36480800D01*
X197230661Y-36480800D01*
X197030702Y-36520574D01*
X196952419Y-36553000D01*
X196143357Y-36553000D01*
X195853000Y-36262644D01*
X195853000Y-36246536D01*
X195873764Y-36235437D01*
X196000909Y-36131092D01*
X196027063Y-36099223D01*
X196234426Y-35891861D01*
X196266291Y-35865710D01*
X196354511Y-35758213D01*
X196423260Y-35772275D01*
X196612361Y-35773297D01*
X196798028Y-35737408D01*
X196973126Y-35665987D01*
X196982323Y-35661070D01*
X196995931Y-35465336D01*
X196600639Y-35070044D01*
X196633000Y-34907352D01*
X196633000Y-34718248D01*
X196632171Y-34714081D01*
X196716748Y-34798658D01*
X196702605Y-34812800D01*
X196804095Y-34914290D01*
X196823108Y-34959143D01*
X196954940Y-35152969D01*
X197122052Y-35317352D01*
X197318023Y-35445974D01*
X197535321Y-35533893D01*
X197562627Y-35534576D01*
X197746000Y-35409192D01*
X197746000Y-33959800D01*
X197726000Y-33959800D01*
X197726000Y-33705800D01*
X197746000Y-33705800D01*
X197746000Y-33685800D01*
X198000000Y-33685800D01*
X198000000Y-33705800D01*
X198020000Y-33705800D01*
X198020000Y-33959800D01*
X198000000Y-33959800D01*
X198000000Y-35409192D01*
X198183373Y-35534576D01*
X198210679Y-35533893D01*
X198427977Y-35445974D01*
X198623948Y-35317352D01*
X198732000Y-35211064D01*
X198732001Y-36735488D01*
X198713063Y-36754426D01*
X198599795Y-36923944D01*
X198521774Y-37112302D01*
X198482000Y-37312261D01*
X198482000Y-37516139D01*
X198521774Y-37716098D01*
X198599795Y-37904456D01*
X198713063Y-38073974D01*
X198857226Y-38218137D01*
X199026744Y-38331405D01*
X199215102Y-38409426D01*
X199415061Y-38449200D01*
X199618939Y-38449200D01*
X199818898Y-38409426D01*
X200007256Y-38331405D01*
X200176774Y-38218137D01*
X200320937Y-38073974D01*
X200434205Y-37904456D01*
X200512226Y-37716098D01*
X200552000Y-37516139D01*
X200552000Y-37312261D01*
X200512226Y-37112302D01*
X200434205Y-36923944D01*
X200320937Y-36754426D01*
X200302000Y-36735489D01*
X200302000Y-33682893D01*
X200305797Y-33644337D01*
X200302000Y-33605777D01*
X200302000Y-33605776D01*
X200298020Y-33565363D01*
X200290642Y-33490450D01*
X200245754Y-33342477D01*
X200172862Y-33206104D01*
X200074764Y-33086573D01*
X200044811Y-33061991D01*
X198829800Y-31846980D01*
X198805217Y-31817026D01*
X198773082Y-31790653D01*
X198791060Y-31772969D01*
X198922892Y-31579143D01*
X199014377Y-31363322D01*
X199062000Y-31133800D01*
X199062000Y-30579800D01*
X198000000Y-30579800D01*
X198000000Y-30599800D01*
X197746000Y-30599800D01*
X197746000Y-30579800D01*
X196684000Y-30579800D01*
X196684000Y-31133800D01*
X196731623Y-31363322D01*
X196823108Y-31579143D01*
X196830350Y-31589790D01*
X192939943Y-31589790D01*
X192901390Y-31585993D01*
X192862837Y-31589790D01*
X192862830Y-31589790D01*
X192747504Y-31601149D01*
X192599531Y-31646036D01*
X192463158Y-31718928D01*
X192417544Y-31756363D01*
X192373578Y-31792445D01*
X192373575Y-31792448D01*
X192343627Y-31817026D01*
X192319048Y-31846975D01*
X191745185Y-32420839D01*
X191715237Y-32445417D01*
X191647009Y-32528550D01*
X191517552Y-32502800D01*
X191328448Y-32502800D01*
X191142978Y-32539692D01*
X190997580Y-32599918D01*
X190858008Y-32541219D01*
X190672740Y-32503325D01*
X190483639Y-32502303D01*
X190297972Y-32538192D01*
X190188748Y-32582744D01*
X190141060Y-32512631D01*
X189973948Y-32348248D01*
X189777977Y-32219626D01*
X189588096Y-32142800D01*
X189777977Y-32065974D01*
X189973948Y-31937352D01*
X190141060Y-31772969D01*
X190272892Y-31579143D01*
X190364377Y-31363322D01*
X190412000Y-31133800D01*
X190412000Y-30579800D01*
X189350000Y-30579800D01*
X189096000Y-30579800D01*
X188034000Y-30579800D01*
X165888776Y-30579800D01*
X165904780Y-30526792D01*
X166076744Y-30203375D01*
X166308254Y-29919516D01*
X166590486Y-29686035D01*
X166912695Y-29511817D01*
X167262614Y-29403498D01*
X167657443Y-29362000D01*
X188158042Y-29362000D01*
X188081623Y-29542278D01*
G37*
X188081623Y-29542278D02*
X188034000Y-29771800D01*
X188034000Y-30325800D01*
X189096000Y-30325800D01*
X189096000Y-30305800D01*
X189350000Y-30305800D01*
X189350000Y-30325800D01*
X190412000Y-30325800D01*
X190412000Y-29771800D01*
X190364377Y-29542278D01*
X190287958Y-29362000D01*
X196808042Y-29362000D01*
X196731623Y-29542278D01*
X196684000Y-29771800D01*
X196684000Y-30325800D01*
X197746000Y-30325800D01*
X197746000Y-30305800D01*
X198000000Y-30305800D01*
X198000000Y-30325800D01*
X199062000Y-30325800D01*
X199062000Y-29771800D01*
X199014377Y-29542278D01*
X198937958Y-29362000D01*
X219677721Y-29362000D01*
X220074545Y-29400909D01*
X220425208Y-29506780D01*
X220748625Y-29678744D01*
X221032484Y-29910254D01*
X221265965Y-30192486D01*
X221440183Y-30514695D01*
X221548502Y-30864614D01*
X221590000Y-31259443D01*
X221590000Y-31782418D01*
X221590001Y-31782428D01*
X221590000Y-105377721D01*
X221551091Y-105774545D01*
X221445220Y-106125206D01*
X221273257Y-106448623D01*
X221041748Y-106732482D01*
X220759514Y-106965965D01*
X220437304Y-107140184D01*
X220087385Y-107248502D01*
X219692557Y-107290000D01*
X210044115Y-107290000D01*
X210107764Y-107237764D01*
X210132347Y-107207810D01*
X211602810Y-105737347D01*
X211632764Y-105712764D01*
X211730862Y-105593233D01*
X211803754Y-105456860D01*
X211810574Y-105434376D01*
X211879494Y-105397537D01*
X211976185Y-105318185D01*
X212055537Y-105221494D01*
X212114502Y-105111180D01*
X212150812Y-104991482D01*
X212163072Y-104867000D01*
X212163072Y-103667000D01*
X212150812Y-103542518D01*
X212114502Y-103422820D01*
X212055537Y-103312506D01*
X211976185Y-103215815D01*
X211879494Y-103136463D01*
X211769180Y-103077498D01*
X211649482Y-103041188D01*
X211525000Y-103028928D01*
X210625000Y-103028928D01*
X210500518Y-103041188D01*
X210380820Y-103077498D01*
X210270506Y-103136463D01*
X210173815Y-103215815D01*
X210094463Y-103312506D01*
X210035498Y-103422820D01*
X209999188Y-103542518D01*
X209986928Y-103667000D01*
X209986928Y-104867000D01*
X209999188Y-104991482D01*
X210029252Y-105090591D01*
X209224843Y-105895000D01*
X192395157Y-105895000D01*
X192552810Y-105737347D01*
X192582764Y-105712764D01*
X192680862Y-105593233D01*
X192753754Y-105456860D01*
X192760574Y-105434376D01*
X192829494Y-105397537D01*
X192926185Y-105318185D01*
X193005537Y-105221494D01*
X193064502Y-105111180D01*
X193100812Y-104991482D01*
X193113072Y-104867000D01*
X193113072Y-103667000D01*
X193100812Y-103542518D01*
X193064502Y-103422820D01*
X193005537Y-103312506D01*
X192926185Y-103215815D01*
X192829494Y-103136463D01*
X192719180Y-103077498D01*
X192599482Y-103041188D01*
X192475000Y-103028928D01*
X191575000Y-103028928D01*
X191450518Y-103041188D01*
X191330820Y-103077498D01*
X191220506Y-103136463D01*
X191123815Y-103215815D01*
X191044463Y-103312506D01*
X190985498Y-103422820D01*
X190949188Y-103542518D01*
X190936928Y-103667000D01*
X190936928Y-104867000D01*
X190949188Y-104991482D01*
X190979252Y-105090591D01*
X190174843Y-105895000D01*
X173319757Y-105895000D01*
X173502810Y-105711947D01*
X173532764Y-105687364D01*
X173630862Y-105567833D01*
X173698844Y-105440646D01*
X173779494Y-105397537D01*
X173876185Y-105318185D01*
X173955537Y-105221494D01*
X174014502Y-105111180D01*
X174050812Y-104991482D01*
X174063072Y-104867000D01*
X174063072Y-103667000D01*
X174050812Y-103542518D01*
X174014502Y-103422820D01*
X173955537Y-103312506D01*
X173876185Y-103215815D01*
X173779494Y-103136463D01*
X173669180Y-103077498D01*
X173549482Y-103041188D01*
X173425000Y-103028928D01*
X172525000Y-103028928D01*
X172400518Y-103041188D01*
X172280820Y-103077498D01*
X172170506Y-103136463D01*
X172073815Y-103215815D01*
X171994463Y-103312506D01*
X171935498Y-103422820D01*
X171899188Y-103542518D01*
X171886928Y-103667000D01*
X171886928Y-104867000D01*
X171899188Y-104991482D01*
X171923341Y-105071102D01*
X171424600Y-105569843D01*
X167907469Y-102052712D01*
X167906186Y-98276278D01*
X168035000Y-98276278D01*
X168035000Y-98573722D01*
X168093029Y-98865451D01*
X168206856Y-99140253D01*
X168372107Y-99387569D01*
X168582431Y-99597893D01*
X168829747Y-99763144D01*
X169104549Y-99876971D01*
X169396278Y-99935000D01*
X169693722Y-99935000D01*
X169985451Y-99876971D01*
X170260253Y-99763144D01*
X170507569Y-99597893D01*
X170717893Y-99387569D01*
X170883144Y-99140253D01*
X170996971Y-98865451D01*
X171055000Y-98573722D01*
X171055000Y-98276278D01*
X171033080Y-98166076D01*
X171996100Y-98166076D01*
X171996100Y-98683924D01*
X172097127Y-99191822D01*
X172295299Y-99670251D01*
X172583000Y-100100826D01*
X172949174Y-100467000D01*
X173379749Y-100754701D01*
X173858178Y-100952873D01*
X174366076Y-101053900D01*
X174883924Y-101053900D01*
X175391822Y-100952873D01*
X175870251Y-100754701D01*
X176300826Y-100467000D01*
X176667000Y-100100826D01*
X176954701Y-99670251D01*
X177015000Y-99524676D01*
X177015000Y-102524524D01*
X176464381Y-103028928D01*
X175825000Y-103028928D01*
X175700518Y-103041188D01*
X175580820Y-103077498D01*
X175470506Y-103136463D01*
X175373815Y-103215815D01*
X175294463Y-103312506D01*
X175235498Y-103422820D01*
X175199188Y-103542518D01*
X175186928Y-103667000D01*
X175186928Y-104867000D01*
X175199188Y-104991482D01*
X175235498Y-105111180D01*
X175294463Y-105221494D01*
X175373815Y-105318185D01*
X175470506Y-105397537D01*
X175580820Y-105456502D01*
X175700518Y-105492812D01*
X175825000Y-105505072D01*
X176725000Y-105505072D01*
X176849482Y-105492812D01*
X176969180Y-105456502D01*
X177079494Y-105397537D01*
X177176185Y-105318185D01*
X177255537Y-105221494D01*
X177314502Y-105111180D01*
X177350812Y-104991482D01*
X177363072Y-104867000D01*
X177363072Y-104334841D01*
X178314521Y-103463253D01*
X178357764Y-103427764D01*
X178395914Y-103381279D01*
X178436053Y-103336516D01*
X178444871Y-103321625D01*
X178455862Y-103308233D01*
X178484217Y-103255184D01*
X178514845Y-103203464D01*
X178520591Y-103187132D01*
X178528754Y-103171860D01*
X178546209Y-103114320D01*
X178566165Y-103057598D01*
X178568615Y-103040457D01*
X178573641Y-103023887D01*
X178579536Y-102964031D01*
X178588041Y-102904521D01*
X178585000Y-102848664D01*
X178585000Y-99440462D01*
X178742431Y-99597893D01*
X178989747Y-99763144D01*
X179264549Y-99876971D01*
X179556278Y-99935000D01*
X179853722Y-99935000D01*
X180145451Y-99876971D01*
X180420253Y-99763144D01*
X180667569Y-99597893D01*
X180877893Y-99387569D01*
X181043144Y-99140253D01*
X181156971Y-98865451D01*
X181215000Y-98573722D01*
X181215000Y-98276278D01*
X187085000Y-98276278D01*
X187085000Y-98573722D01*
X187143029Y-98865451D01*
X187256856Y-99140253D01*
X187422107Y-99387569D01*
X187632431Y-99597893D01*
X187879747Y-99763144D01*
X188154549Y-99876971D01*
X188446278Y-99935000D01*
X188743722Y-99935000D01*
X189035451Y-99876971D01*
X189310253Y-99763144D01*
X189557569Y-99597893D01*
X189767893Y-99387569D01*
X189933144Y-99140253D01*
X190046971Y-98865451D01*
X190105000Y-98573722D01*
X190105000Y-98276278D01*
X190083080Y-98166076D01*
X191046100Y-98166076D01*
X191046100Y-98683924D01*
X191147127Y-99191822D01*
X191345299Y-99670251D01*
X191633000Y-100100826D01*
X191999174Y-100467000D01*
X192429749Y-100754701D01*
X192908178Y-100952873D01*
X193416076Y-101053900D01*
X193933924Y-101053900D01*
X194441822Y-100952873D01*
X194920251Y-100754701D01*
X195350826Y-100467000D01*
X195717000Y-100100826D01*
X196004701Y-99670251D01*
X196065000Y-99524676D01*
X196065000Y-102544842D01*
X195580915Y-103028928D01*
X194875000Y-103028928D01*
X194750518Y-103041188D01*
X194630820Y-103077498D01*
X194520506Y-103136463D01*
X194423815Y-103215815D01*
X194344463Y-103312506D01*
X194285498Y-103422820D01*
X194249188Y-103542518D01*
X194236928Y-103667000D01*
X194236928Y-104867000D01*
X194249188Y-104991482D01*
X194285498Y-105111180D01*
X194344463Y-105221494D01*
X194423815Y-105318185D01*
X194520506Y-105397537D01*
X194630820Y-105456502D01*
X194750518Y-105492812D01*
X194875000Y-105505072D01*
X195775000Y-105505072D01*
X195899482Y-105492812D01*
X196019180Y-105456502D01*
X196129494Y-105397537D01*
X196226185Y-105318185D01*
X196305537Y-105221494D01*
X196364502Y-105111180D01*
X196400812Y-104991482D01*
X196413072Y-104867000D01*
X196413072Y-104417085D01*
X197377817Y-103452341D01*
X197407764Y-103427764D01*
X197505862Y-103308233D01*
X197578754Y-103171860D01*
X197620576Y-103033991D01*
X197623641Y-103023888D01*
X197626579Y-102994059D01*
X197635000Y-102908561D01*
X197635000Y-102908554D01*
X197638797Y-102870001D01*
X197635000Y-102831448D01*
X197635000Y-99440462D01*
X197792431Y-99597893D01*
X198039747Y-99763144D01*
X198314549Y-99876971D01*
X198606278Y-99935000D01*
X198903722Y-99935000D01*
X199195451Y-99876971D01*
X199470253Y-99763144D01*
X199717569Y-99597893D01*
X199927893Y-99387569D01*
X200093144Y-99140253D01*
X200206971Y-98865451D01*
X200265000Y-98573722D01*
X200265000Y-98276278D01*
X206135000Y-98276278D01*
X206135000Y-98573722D01*
X206193029Y-98865451D01*
X206306856Y-99140253D01*
X206472107Y-99387569D01*
X206682431Y-99597893D01*
X206929747Y-99763144D01*
X207204549Y-99876971D01*
X207496278Y-99935000D01*
X207793722Y-99935000D01*
X208085451Y-99876971D01*
X208360253Y-99763144D01*
X208607569Y-99597893D01*
X208817893Y-99387569D01*
X208983144Y-99140253D01*
X209096971Y-98865451D01*
X209155000Y-98573722D01*
X209155000Y-98276278D01*
X209133080Y-98166076D01*
X210096100Y-98166076D01*
X210096100Y-98683924D01*
X210197127Y-99191822D01*
X210395299Y-99670251D01*
X210683000Y-100100826D01*
X211049174Y-100467000D01*
X211479749Y-100754701D01*
X211958178Y-100952873D01*
X212466076Y-101053900D01*
X212983924Y-101053900D01*
X213491822Y-100952873D01*
X213970251Y-100754701D01*
X214400826Y-100467000D01*
X214767000Y-100100826D01*
X215054701Y-99670251D01*
X215115000Y-99524676D01*
X215115000Y-102549053D01*
X214643850Y-103028928D01*
X213925000Y-103028928D01*
X213800518Y-103041188D01*
X213680820Y-103077498D01*
X213570506Y-103136463D01*
X213473815Y-103215815D01*
X213394463Y-103312506D01*
X213335498Y-103422820D01*
X213299188Y-103542518D01*
X213286928Y-103667000D01*
X213286928Y-104867000D01*
X213299188Y-104991482D01*
X213335498Y-105111180D01*
X213394463Y-105221494D01*
X213473815Y-105318185D01*
X213570506Y-105397537D01*
X213680820Y-105456502D01*
X213800518Y-105492812D01*
X213925000Y-105505072D01*
X214825000Y-105505072D01*
X214949482Y-105492812D01*
X215069180Y-105456502D01*
X215179494Y-105397537D01*
X215276185Y-105318185D01*
X215355537Y-105221494D01*
X215414502Y-105111180D01*
X215450812Y-104991482D01*
X215463072Y-104867000D01*
X215463072Y-104435503D01*
X216430607Y-103450052D01*
X216457764Y-103427764D01*
X216484631Y-103395027D01*
X216487163Y-103392448D01*
X216509090Y-103365224D01*
X216555862Y-103308233D01*
X216557578Y-103305023D01*
X216559853Y-103302198D01*
X216593960Y-103236956D01*
X216628754Y-103171860D01*
X216629810Y-103168380D01*
X216631492Y-103165162D01*
X216652250Y-103094404D01*
X216673641Y-103023887D01*
X216673997Y-103020276D01*
X216675021Y-103016784D01*
X216681573Y-102943355D01*
X216685000Y-102908561D01*
X216685000Y-102904948D01*
X216688764Y-102862764D01*
X216685000Y-102827834D01*
X216685000Y-99440462D01*
X216842431Y-99597893D01*
X217089747Y-99763144D01*
X217364549Y-99876971D01*
X217656278Y-99935000D01*
X217953722Y-99935000D01*
X218245451Y-99876971D01*
X218520253Y-99763144D01*
X218767569Y-99597893D01*
X218977893Y-99387569D01*
X219143144Y-99140253D01*
X219256971Y-98865451D01*
X219315000Y-98573722D01*
X219315000Y-98276278D01*
X219256971Y-97984549D01*
X219143144Y-97709747D01*
X218977893Y-97462431D01*
X218767569Y-97252107D01*
X218520253Y-97086856D01*
X218245451Y-96973029D01*
X217953722Y-96915000D01*
X217656278Y-96915000D01*
X217364549Y-96973029D01*
X217089747Y-97086856D01*
X216842431Y-97252107D01*
X216685000Y-97409538D01*
X216685000Y-94387736D01*
X216824692Y-94178673D01*
X216957364Y-93858373D01*
X217025000Y-93518345D01*
X217025000Y-93171655D01*
X216957364Y-92831627D01*
X216824692Y-92511327D01*
X216632081Y-92223065D01*
X216386935Y-91977919D01*
X216098673Y-91785308D01*
X215778373Y-91652636D01*
X215438345Y-91585000D01*
X215091655Y-91585000D01*
X214751627Y-91652636D01*
X214431327Y-91785308D01*
X214143065Y-91977919D01*
X213897919Y-92223065D01*
X213705308Y-92511327D01*
X213572636Y-92831627D01*
X213505000Y-93171655D01*
X213505000Y-93518345D01*
X213572636Y-93858373D01*
X213705308Y-94178673D01*
X213897919Y-94466935D01*
X214143065Y-94712081D01*
X214431327Y-94904692D01*
X214751627Y-95037364D01*
X215091655Y-95105000D01*
X215115001Y-95105000D01*
X215115001Y-97325325D01*
X215054701Y-97179749D01*
X214767000Y-96749174D01*
X214400826Y-96383000D01*
X213970251Y-96095299D01*
X213491822Y-95897127D01*
X212983924Y-95796100D01*
X212466076Y-95796100D01*
X211958178Y-95897127D01*
X211479749Y-96095299D01*
X211049174Y-96383000D01*
X210683000Y-96749174D01*
X210395299Y-97179749D01*
X210197127Y-97658178D01*
X210096100Y-98166076D01*
X209133080Y-98166076D01*
X209096971Y-97984549D01*
X208983144Y-97709747D01*
X208939882Y-97645000D01*
X209088345Y-97645000D01*
X209428373Y-97577364D01*
X209748673Y-97444692D01*
X210036935Y-97252081D01*
X210282081Y-97006935D01*
X210474692Y-96718673D01*
X210607364Y-96398373D01*
X210675000Y-96058345D01*
X210675000Y-95711655D01*
X210607364Y-95371627D01*
X210474692Y-95051327D01*
X210282081Y-94763065D01*
X210036935Y-94517919D01*
X209748673Y-94325308D01*
X209428373Y-94192636D01*
X209088345Y-94125000D01*
X208741655Y-94125000D01*
X208401627Y-94192636D01*
X208081327Y-94325308D01*
X207793065Y-94517919D01*
X207547919Y-94763065D01*
X207355308Y-95051327D01*
X207222636Y-95371627D01*
X207155000Y-95711655D01*
X207155000Y-96058345D01*
X207222636Y-96398373D01*
X207355308Y-96718673D01*
X207487638Y-96916719D01*
X207204549Y-96973029D01*
X206929747Y-97086856D01*
X206682431Y-97252107D01*
X206472107Y-97462431D01*
X206306856Y-97709747D01*
X206193029Y-97984549D01*
X206135000Y-98276278D01*
X200265000Y-98276278D01*
X200206971Y-97984549D01*
X200093144Y-97709747D01*
X199927893Y-97462431D01*
X199717569Y-97252107D01*
X199470253Y-97086856D01*
X199195451Y-96973029D01*
X198903722Y-96915000D01*
X198606278Y-96915000D01*
X198314549Y-96973029D01*
X198039747Y-97086856D01*
X197792431Y-97252107D01*
X197635000Y-97409538D01*
X197635000Y-94387736D01*
X197774692Y-94178673D01*
X197907364Y-93858373D01*
X197975000Y-93518345D01*
X197975000Y-93171655D01*
X197907364Y-92831627D01*
X197774692Y-92511327D01*
X197582081Y-92223065D01*
X197336935Y-91977919D01*
X197048673Y-91785308D01*
X196728373Y-91652636D01*
X196388345Y-91585000D01*
X196041655Y-91585000D01*
X195701627Y-91652636D01*
X195381327Y-91785308D01*
X195093065Y-91977919D01*
X194847919Y-92223065D01*
X194655308Y-92511327D01*
X194522636Y-92831627D01*
X194455000Y-93171655D01*
X194455000Y-93518345D01*
X194522636Y-93858373D01*
X194655308Y-94178673D01*
X194847919Y-94466935D01*
X195093065Y-94712081D01*
X195381327Y-94904692D01*
X195701627Y-95037364D01*
X196041655Y-95105000D01*
X196065001Y-95105000D01*
X196065001Y-97325325D01*
X196004701Y-97179749D01*
X195717000Y-96749174D01*
X195350826Y-96383000D01*
X194920251Y-96095299D01*
X194441822Y-95897127D01*
X193933924Y-95796100D01*
X193416076Y-95796100D01*
X192908178Y-95897127D01*
X192429749Y-96095299D01*
X191999174Y-96383000D01*
X191633000Y-96749174D01*
X191345299Y-97179749D01*
X191147127Y-97658178D01*
X191046100Y-98166076D01*
X190083080Y-98166076D01*
X190046971Y-97984549D01*
X189933144Y-97709747D01*
X189889882Y-97645000D01*
X190038345Y-97645000D01*
X190378373Y-97577364D01*
X190698673Y-97444692D01*
X190986935Y-97252081D01*
X191232081Y-97006935D01*
X191424692Y-96718673D01*
X191557364Y-96398373D01*
X191625000Y-96058345D01*
X191625000Y-95711655D01*
X191557364Y-95371627D01*
X191424692Y-95051327D01*
X191232081Y-94763065D01*
X190986935Y-94517919D01*
X190698673Y-94325308D01*
X190378373Y-94192636D01*
X190038345Y-94125000D01*
X189691655Y-94125000D01*
X189351627Y-94192636D01*
X189031327Y-94325308D01*
X188743065Y-94517919D01*
X188497919Y-94763065D01*
X188305308Y-95051327D01*
X188172636Y-95371627D01*
X188105000Y-95711655D01*
X188105000Y-96058345D01*
X188172636Y-96398373D01*
X188305308Y-96718673D01*
X188437638Y-96916719D01*
X188154549Y-96973029D01*
X187879747Y-97086856D01*
X187632431Y-97252107D01*
X187422107Y-97462431D01*
X187256856Y-97709747D01*
X187143029Y-97984549D01*
X187085000Y-98276278D01*
X181215000Y-98276278D01*
X181156971Y-97984549D01*
X181043144Y-97709747D01*
X180877893Y-97462431D01*
X180667569Y-97252107D01*
X180420253Y-97086856D01*
X180145451Y-96973029D01*
X179853722Y-96915000D01*
X179556278Y-96915000D01*
X179264549Y-96973029D01*
X178989747Y-97086856D01*
X178742431Y-97252107D01*
X178585000Y-97409538D01*
X178585000Y-94387736D01*
X178724692Y-94178673D01*
X178857364Y-93858373D01*
X178925000Y-93518345D01*
X178925000Y-93171655D01*
X178857364Y-92831627D01*
X178724692Y-92511327D01*
X178532081Y-92223065D01*
X178286935Y-91977919D01*
X177998673Y-91785308D01*
X177678373Y-91652636D01*
X177338345Y-91585000D01*
X176991655Y-91585000D01*
X176651627Y-91652636D01*
X176331327Y-91785308D01*
X176043065Y-91977919D01*
X175797919Y-92223065D01*
X175605308Y-92511327D01*
X175472636Y-92831627D01*
X175405000Y-93171655D01*
X175405000Y-93518345D01*
X175472636Y-93858373D01*
X175605308Y-94178673D01*
X175797919Y-94466935D01*
X176043065Y-94712081D01*
X176331327Y-94904692D01*
X176651627Y-95037364D01*
X176991655Y-95105000D01*
X177015001Y-95105000D01*
X177015001Y-97325325D01*
X176954701Y-97179749D01*
X176667000Y-96749174D01*
X176300826Y-96383000D01*
X175870251Y-96095299D01*
X175391822Y-95897127D01*
X174883924Y-95796100D01*
X174366076Y-95796100D01*
X173858178Y-95897127D01*
X173379749Y-96095299D01*
X172949174Y-96383000D01*
X172583000Y-96749174D01*
X172295299Y-97179749D01*
X172097127Y-97658178D01*
X171996100Y-98166076D01*
X171033080Y-98166076D01*
X170996971Y-97984549D01*
X170883144Y-97709747D01*
X170839882Y-97645000D01*
X170988345Y-97645000D01*
X171328373Y-97577364D01*
X171648673Y-97444692D01*
X171936935Y-97252081D01*
X172182081Y-97006935D01*
X172374692Y-96718673D01*
X172507364Y-96398373D01*
X172575000Y-96058345D01*
X172575000Y-95711655D01*
X172507364Y-95371627D01*
X172374692Y-95051327D01*
X172182081Y-94763065D01*
X171936935Y-94517919D01*
X171648673Y-94325308D01*
X171328373Y-94192636D01*
X170988345Y-94125000D01*
X170641655Y-94125000D01*
X170301627Y-94192636D01*
X169981327Y-94325308D01*
X169693065Y-94517919D01*
X169447919Y-94763065D01*
X169255308Y-95051327D01*
X169122636Y-95371627D01*
X169055000Y-95711655D01*
X169055000Y-96058345D01*
X169122636Y-96398373D01*
X169255308Y-96718673D01*
X169387638Y-96916719D01*
X169104549Y-96973029D01*
X168829747Y-97086856D01*
X168582431Y-97252107D01*
X168372107Y-97462431D01*
X168206856Y-97709747D01*
X168093029Y-97984549D01*
X168035000Y-98276278D01*
X167906186Y-98276278D01*
X167901740Y-85191898D01*
X170867658Y-88157816D01*
X170892236Y-88187764D01*
X170922184Y-88212342D01*
X170922187Y-88212345D01*
X170951559Y-88236450D01*
X171011767Y-88285862D01*
X171148140Y-88358754D01*
X171296112Y-88403641D01*
X171310490Y-88405057D01*
X171411439Y-88415000D01*
X171411446Y-88415000D01*
X171449999Y-88418797D01*
X171450000Y-88418797D01*
X171488553Y-88415000D01*
X190461447Y-88415000D01*
X190500000Y-88418797D01*
X190538553Y-88415000D01*
X209486047Y-88415000D01*
X209524600Y-88418797D01*
X209563153Y-88415000D01*
X209563161Y-88415000D01*
X209678487Y-88403641D01*
X209826460Y-88358754D01*
X209962833Y-88285862D01*
X210082364Y-88187764D01*
X210106947Y-88157810D01*
X211602810Y-86661947D01*
X211632764Y-86637364D01*
X211730862Y-86517833D01*
X211798844Y-86390646D01*
X211879494Y-86347537D01*
X211976185Y-86268185D01*
X212055537Y-86171494D01*
X212114502Y-86061180D01*
X212150812Y-85941482D01*
X212163072Y-85817000D01*
X212163072Y-84617000D01*
X212150812Y-84492518D01*
X212114502Y-84372820D01*
X212055537Y-84262506D01*
X211976185Y-84165815D01*
X211879494Y-84086463D01*
X211769180Y-84027498D01*
X211649482Y-83991188D01*
X211525000Y-83978928D01*
X210625000Y-83978928D01*
X210500518Y-83991188D01*
X210380820Y-84027498D01*
X210270506Y-84086463D01*
X210173815Y-84165815D01*
X210094463Y-84262506D01*
X210035498Y-84372820D01*
X209999188Y-84492518D01*
X209986928Y-84617000D01*
X209986928Y-85817000D01*
X209999188Y-85941482D01*
X210023341Y-86021102D01*
X209199443Y-86845000D01*
X192395157Y-86845000D01*
X192552810Y-86687347D01*
X192582764Y-86662764D01*
X192680862Y-86543233D01*
X192753754Y-86406860D01*
X192760574Y-86384376D01*
X192829494Y-86347537D01*
X192926185Y-86268185D01*
X193005537Y-86171494D01*
X193064502Y-86061180D01*
X193100812Y-85941482D01*
X193113072Y-85817000D01*
X193113072Y-84617000D01*
X193100812Y-84492518D01*
X193064502Y-84372820D01*
X193005537Y-84262506D01*
X192926185Y-84165815D01*
X192829494Y-84086463D01*
X192719180Y-84027498D01*
X192599482Y-83991188D01*
X192475000Y-83978928D01*
X191575000Y-83978928D01*
X191450518Y-83991188D01*
X191330820Y-84027498D01*
X191220506Y-84086463D01*
X191123815Y-84165815D01*
X191044463Y-84262506D01*
X190985498Y-84372820D01*
X190949188Y-84492518D01*
X190936928Y-84617000D01*
X190936928Y-85817000D01*
X190949188Y-85941482D01*
X190979252Y-86040591D01*
X190174843Y-86845000D01*
X173345157Y-86845000D01*
X173502810Y-86687347D01*
X173532764Y-86662764D01*
X173630862Y-86543233D01*
X173703754Y-86406860D01*
X173710574Y-86384376D01*
X173779494Y-86347537D01*
X173876185Y-86268185D01*
X173955537Y-86171494D01*
X174014502Y-86061180D01*
X174050812Y-85941482D01*
X174063072Y-85817000D01*
X174063072Y-84617000D01*
X174050812Y-84492518D01*
X174014502Y-84372820D01*
X173955537Y-84262506D01*
X173876185Y-84165815D01*
X173779494Y-84086463D01*
X173669180Y-84027498D01*
X173549482Y-83991188D01*
X173425000Y-83978928D01*
X172525000Y-83978928D01*
X172400518Y-83991188D01*
X172280820Y-84027498D01*
X172170506Y-84086463D01*
X172073815Y-84165815D01*
X171994463Y-84262506D01*
X171935498Y-84372820D01*
X171899188Y-84492518D01*
X171886928Y-84617000D01*
X171886928Y-85817000D01*
X171899188Y-85941482D01*
X171929252Y-86040591D01*
X171450000Y-86519843D01*
X168407590Y-83477433D01*
X168407590Y-80373052D01*
X168582431Y-80547893D01*
X168829747Y-80713144D01*
X169104549Y-80826971D01*
X169396278Y-80885000D01*
X169693722Y-80885000D01*
X169985451Y-80826971D01*
X170260253Y-80713144D01*
X170507569Y-80547893D01*
X170717893Y-80337569D01*
X170883144Y-80090253D01*
X170996971Y-79815451D01*
X171055000Y-79523722D01*
X171055000Y-79226278D01*
X171033080Y-79116076D01*
X171996100Y-79116076D01*
X171996100Y-79633924D01*
X172097127Y-80141822D01*
X172295299Y-80620251D01*
X172583000Y-81050826D01*
X172949174Y-81417000D01*
X173379749Y-81704701D01*
X173858178Y-81902873D01*
X174366076Y-82003900D01*
X174883924Y-82003900D01*
X175391822Y-81902873D01*
X175870251Y-81704701D01*
X176300826Y-81417000D01*
X176667000Y-81050826D01*
X176954701Y-80620251D01*
X177015000Y-80474676D01*
X177015000Y-83494842D01*
X176530915Y-83978928D01*
X175825000Y-83978928D01*
X175700518Y-83991188D01*
X175580820Y-84027498D01*
X175470506Y-84086463D01*
X175373815Y-84165815D01*
X175294463Y-84262506D01*
X175235498Y-84372820D01*
X175199188Y-84492518D01*
X175186928Y-84617000D01*
X175186928Y-85817000D01*
X175199188Y-85941482D01*
X175235498Y-86061180D01*
X175294463Y-86171494D01*
X175373815Y-86268185D01*
X175470506Y-86347537D01*
X175580820Y-86406502D01*
X175700518Y-86442812D01*
X175825000Y-86455072D01*
X176725000Y-86455072D01*
X176849482Y-86442812D01*
X176969180Y-86406502D01*
X177079494Y-86347537D01*
X177176185Y-86268185D01*
X177255537Y-86171494D01*
X177314502Y-86061180D01*
X177350812Y-85941482D01*
X177363072Y-85817000D01*
X177363072Y-85367085D01*
X178327817Y-84402341D01*
X178357764Y-84377764D01*
X178455862Y-84258233D01*
X178528754Y-84121860D01*
X178573641Y-83973887D01*
X178585000Y-83858561D01*
X178585000Y-83858554D01*
X178588797Y-83820001D01*
X178585000Y-83781448D01*
X178585000Y-80390462D01*
X178742431Y-80547893D01*
X178989747Y-80713144D01*
X179264549Y-80826971D01*
X179556278Y-80885000D01*
X179853722Y-80885000D01*
X180145451Y-80826971D01*
X180420253Y-80713144D01*
X180667569Y-80547893D01*
X180877893Y-80337569D01*
X181043144Y-80090253D01*
X181156971Y-79815451D01*
X181215000Y-79523722D01*
X181215000Y-79226278D01*
X187085000Y-79226278D01*
X187085000Y-79523722D01*
X187143029Y-79815451D01*
X187256856Y-80090253D01*
X187422107Y-80337569D01*
X187632431Y-80547893D01*
X187879747Y-80713144D01*
X188154549Y-80826971D01*
X188446278Y-80885000D01*
X188743722Y-80885000D01*
X189035451Y-80826971D01*
X189310253Y-80713144D01*
X189557569Y-80547893D01*
X189767893Y-80337569D01*
X189933144Y-80090253D01*
X190046971Y-79815451D01*
X190105000Y-79523722D01*
X190105000Y-79226278D01*
X190083080Y-79116076D01*
X191046100Y-79116076D01*
X191046100Y-79633924D01*
X191147127Y-80141822D01*
X191345299Y-80620251D01*
X191633000Y-81050826D01*
X191999174Y-81417000D01*
X192429749Y-81704701D01*
X192908178Y-81902873D01*
X193416076Y-82003900D01*
X193933924Y-82003900D01*
X194441822Y-81902873D01*
X194920251Y-81704701D01*
X195350826Y-81417000D01*
X195717000Y-81050826D01*
X196004701Y-80620251D01*
X196065000Y-80474676D01*
X196065000Y-83494842D01*
X195580915Y-83978928D01*
X194875000Y-83978928D01*
X194750518Y-83991188D01*
X194630820Y-84027498D01*
X194520506Y-84086463D01*
X194423815Y-84165815D01*
X194344463Y-84262506D01*
X194285498Y-84372820D01*
X194249188Y-84492518D01*
X194236928Y-84617000D01*
X194236928Y-85817000D01*
X194249188Y-85941482D01*
X194285498Y-86061180D01*
X194344463Y-86171494D01*
X194423815Y-86268185D01*
X194520506Y-86347537D01*
X194630820Y-86406502D01*
X194750518Y-86442812D01*
X194875000Y-86455072D01*
X195775000Y-86455072D01*
X195899482Y-86442812D01*
X196019180Y-86406502D01*
X196129494Y-86347537D01*
X196226185Y-86268185D01*
X196305537Y-86171494D01*
X196364502Y-86061180D01*
X196400812Y-85941482D01*
X196413072Y-85817000D01*
X196413072Y-85367085D01*
X197377817Y-84402341D01*
X197407764Y-84377764D01*
X197505862Y-84258233D01*
X197578754Y-84121860D01*
X197623641Y-83973887D01*
X197635000Y-83858561D01*
X197635000Y-83858554D01*
X197638797Y-83820001D01*
X197635000Y-83781448D01*
X197635000Y-80390462D01*
X197792431Y-80547893D01*
X198039747Y-80713144D01*
X198314549Y-80826971D01*
X198606278Y-80885000D01*
X198903722Y-80885000D01*
X199195451Y-80826971D01*
X199470253Y-80713144D01*
X199717569Y-80547893D01*
X199927893Y-80337569D01*
X200093144Y-80090253D01*
X200206971Y-79815451D01*
X200265000Y-79523722D01*
X200265000Y-79226278D01*
X206135000Y-79226278D01*
X206135000Y-79523722D01*
X206193029Y-79815451D01*
X206306856Y-80090253D01*
X206472107Y-80337569D01*
X206682431Y-80547893D01*
X206929747Y-80713144D01*
X207204549Y-80826971D01*
X207496278Y-80885000D01*
X207793722Y-80885000D01*
X208085451Y-80826971D01*
X208360253Y-80713144D01*
X208607569Y-80547893D01*
X208817893Y-80337569D01*
X208983144Y-80090253D01*
X209096971Y-79815451D01*
X209155000Y-79523722D01*
X209155000Y-79226278D01*
X209133080Y-79116076D01*
X210096100Y-79116076D01*
X210096100Y-79633924D01*
X210197127Y-80141822D01*
X210395299Y-80620251D01*
X210683000Y-81050826D01*
X211049174Y-81417000D01*
X211479749Y-81704701D01*
X211958178Y-81902873D01*
X212466076Y-82003900D01*
X212983924Y-82003900D01*
X213491822Y-81902873D01*
X213970251Y-81704701D01*
X214400826Y-81417000D01*
X214767000Y-81050826D01*
X215054701Y-80620251D01*
X215115000Y-80474676D01*
X215115000Y-83494842D01*
X214630915Y-83978928D01*
X213925000Y-83978928D01*
X213800518Y-83991188D01*
X213680820Y-84027498D01*
X213570506Y-84086463D01*
X213473815Y-84165815D01*
X213394463Y-84262506D01*
X213335498Y-84372820D01*
X213299188Y-84492518D01*
X213286928Y-84617000D01*
X213286928Y-85817000D01*
X213299188Y-85941482D01*
X213335498Y-86061180D01*
X213394463Y-86171494D01*
X213473815Y-86268185D01*
X213570506Y-86347537D01*
X213680820Y-86406502D01*
X213800518Y-86442812D01*
X213925000Y-86455072D01*
X214825000Y-86455072D01*
X214949482Y-86442812D01*
X215069180Y-86406502D01*
X215179494Y-86347537D01*
X215276185Y-86268185D01*
X215355537Y-86171494D01*
X215414502Y-86061180D01*
X215450812Y-85941482D01*
X215463072Y-85817000D01*
X215463072Y-85367085D01*
X216427817Y-84402341D01*
X216457764Y-84377764D01*
X216555862Y-84258233D01*
X216628754Y-84121860D01*
X216673641Y-83973887D01*
X216685000Y-83858561D01*
X216685000Y-83858554D01*
X216688797Y-83820001D01*
X216685000Y-83781448D01*
X216685000Y-80390462D01*
X216842431Y-80547893D01*
X217089747Y-80713144D01*
X217364549Y-80826971D01*
X217656278Y-80885000D01*
X217953722Y-80885000D01*
X218245451Y-80826971D01*
X218520253Y-80713144D01*
X218767569Y-80547893D01*
X218977893Y-80337569D01*
X219143144Y-80090253D01*
X219256971Y-79815451D01*
X219315000Y-79523722D01*
X219315000Y-79226278D01*
X219256971Y-78934549D01*
X219143144Y-78659747D01*
X218977893Y-78412431D01*
X218767569Y-78202107D01*
X218520253Y-78036856D01*
X218245451Y-77923029D01*
X217953722Y-77865000D01*
X217656278Y-77865000D01*
X217364549Y-77923029D01*
X217089747Y-78036856D01*
X216842431Y-78202107D01*
X216685000Y-78359538D01*
X216685000Y-75337736D01*
X216824692Y-75128673D01*
X216957364Y-74808373D01*
X217025000Y-74468345D01*
X217025000Y-74121655D01*
X216957364Y-73781627D01*
X216824692Y-73461327D01*
X216632081Y-73173065D01*
X216386935Y-72927919D01*
X216098673Y-72735308D01*
X215778373Y-72602636D01*
X215438345Y-72535000D01*
X215091655Y-72535000D01*
X214751627Y-72602636D01*
X214431327Y-72735308D01*
X214143065Y-72927919D01*
X213897919Y-73173065D01*
X213705308Y-73461327D01*
X213572636Y-73781627D01*
X213505000Y-74121655D01*
X213505000Y-74468345D01*
X213572636Y-74808373D01*
X213705308Y-75128673D01*
X213897919Y-75416935D01*
X214143065Y-75662081D01*
X214431327Y-75854692D01*
X214751627Y-75987364D01*
X215091655Y-76055000D01*
X215115001Y-76055000D01*
X215115001Y-78275325D01*
X215054701Y-78129749D01*
X214767000Y-77699174D01*
X214400826Y-77333000D01*
X213970251Y-77045299D01*
X213491822Y-76847127D01*
X212983924Y-76746100D01*
X212466076Y-76746100D01*
X211958178Y-76847127D01*
X211479749Y-77045299D01*
X211049174Y-77333000D01*
X210683000Y-77699174D01*
X210395299Y-78129749D01*
X210197127Y-78608178D01*
X210096100Y-79116076D01*
X209133080Y-79116076D01*
X209096971Y-78934549D01*
X208983144Y-78659747D01*
X208939882Y-78595000D01*
X209088345Y-78595000D01*
X209428373Y-78527364D01*
X209748673Y-78394692D01*
X210036935Y-78202081D01*
X210282081Y-77956935D01*
X210474692Y-77668673D01*
X210607364Y-77348373D01*
X210675000Y-77008345D01*
X210675000Y-76661655D01*
X210607364Y-76321627D01*
X210474692Y-76001327D01*
X210282081Y-75713065D01*
X210036935Y-75467919D01*
X209748673Y-75275308D01*
X209428373Y-75142636D01*
X209088345Y-75075000D01*
X208741655Y-75075000D01*
X208401627Y-75142636D01*
X208081327Y-75275308D01*
X207793065Y-75467919D01*
X207547919Y-75713065D01*
X207355308Y-76001327D01*
X207222636Y-76321627D01*
X207155000Y-76661655D01*
X207155000Y-77008345D01*
X207222636Y-77348373D01*
X207355308Y-77668673D01*
X207487638Y-77866719D01*
X207204549Y-77923029D01*
X206929747Y-78036856D01*
X206682431Y-78202107D01*
X206472107Y-78412431D01*
X206306856Y-78659747D01*
X206193029Y-78934549D01*
X206135000Y-79226278D01*
X200265000Y-79226278D01*
X200206971Y-78934549D01*
X200093144Y-78659747D01*
X199927893Y-78412431D01*
X199717569Y-78202107D01*
X199470253Y-78036856D01*
X199195451Y-77923029D01*
X198903722Y-77865000D01*
X198606278Y-77865000D01*
X198314549Y-77923029D01*
X198039747Y-78036856D01*
X197792431Y-78202107D01*
X197635000Y-78359538D01*
X197635000Y-75337736D01*
X197774692Y-75128673D01*
X197907364Y-74808373D01*
X197975000Y-74468345D01*
X197975000Y-74121655D01*
X197907364Y-73781627D01*
X197774692Y-73461327D01*
X197582081Y-73173065D01*
X197336935Y-72927919D01*
X197048673Y-72735308D01*
X196728373Y-72602636D01*
X196388345Y-72535000D01*
X196041655Y-72535000D01*
X195701627Y-72602636D01*
X195381327Y-72735308D01*
X195093065Y-72927919D01*
X194847919Y-73173065D01*
X194655308Y-73461327D01*
X194522636Y-73781627D01*
X194455000Y-74121655D01*
X194455000Y-74468345D01*
X194522636Y-74808373D01*
X194655308Y-75128673D01*
X194847919Y-75416935D01*
X195093065Y-75662081D01*
X195381327Y-75854692D01*
X195701627Y-75987364D01*
X196041655Y-76055000D01*
X196065001Y-76055000D01*
X196065001Y-78275325D01*
X196004701Y-78129749D01*
X195717000Y-77699174D01*
X195350826Y-77333000D01*
X194920251Y-77045299D01*
X194441822Y-76847127D01*
X193933924Y-76746100D01*
X193416076Y-76746100D01*
X192908178Y-76847127D01*
X192429749Y-77045299D01*
X191999174Y-77333000D01*
X191633000Y-77699174D01*
X191345299Y-78129749D01*
X191147127Y-78608178D01*
X191046100Y-79116076D01*
X190083080Y-79116076D01*
X190046971Y-78934549D01*
X189933144Y-78659747D01*
X189889882Y-78595000D01*
X190038345Y-78595000D01*
X190378373Y-78527364D01*
X190698673Y-78394692D01*
X190986935Y-78202081D01*
X191232081Y-77956935D01*
X191424692Y-77668673D01*
X191557364Y-77348373D01*
X191625000Y-77008345D01*
X191625000Y-76661655D01*
X191557364Y-76321627D01*
X191424692Y-76001327D01*
X191232081Y-75713065D01*
X190986935Y-75467919D01*
X190698673Y-75275308D01*
X190378373Y-75142636D01*
X190038345Y-75075000D01*
X189691655Y-75075000D01*
X189351627Y-75142636D01*
X189031327Y-75275308D01*
X188743065Y-75467919D01*
X188497919Y-75713065D01*
X188305308Y-76001327D01*
X188172636Y-76321627D01*
X188105000Y-76661655D01*
X188105000Y-77008345D01*
X188172636Y-77348373D01*
X188305308Y-77668673D01*
X188437638Y-77866719D01*
X188154549Y-77923029D01*
X187879747Y-78036856D01*
X187632431Y-78202107D01*
X187422107Y-78412431D01*
X187256856Y-78659747D01*
X187143029Y-78934549D01*
X187085000Y-79226278D01*
X181215000Y-79226278D01*
X181156971Y-78934549D01*
X181043144Y-78659747D01*
X180877893Y-78412431D01*
X180667569Y-78202107D01*
X180420253Y-78036856D01*
X180145451Y-77923029D01*
X179853722Y-77865000D01*
X179556278Y-77865000D01*
X179264549Y-77923029D01*
X178989747Y-78036856D01*
X178742431Y-78202107D01*
X178585000Y-78359538D01*
X178585000Y-75337736D01*
X178724692Y-75128673D01*
X178857364Y-74808373D01*
X178925000Y-74468345D01*
X178925000Y-74121655D01*
X178857364Y-73781627D01*
X178724692Y-73461327D01*
X178532081Y-73173065D01*
X178286935Y-72927919D01*
X177998673Y-72735308D01*
X177678373Y-72602636D01*
X177338345Y-72535000D01*
X176991655Y-72535000D01*
X176651627Y-72602636D01*
X176331327Y-72735308D01*
X176043065Y-72927919D01*
X175797919Y-73173065D01*
X175605308Y-73461327D01*
X175472636Y-73781627D01*
X175405000Y-74121655D01*
X175405000Y-74468345D01*
X175472636Y-74808373D01*
X175605308Y-75128673D01*
X175797919Y-75416935D01*
X176043065Y-75662081D01*
X176331327Y-75854692D01*
X176651627Y-75987364D01*
X176991655Y-76055000D01*
X177015001Y-76055000D01*
X177015001Y-78275325D01*
X176954701Y-78129749D01*
X176667000Y-77699174D01*
X176300826Y-77333000D01*
X175870251Y-77045299D01*
X175391822Y-76847127D01*
X174883924Y-76746100D01*
X174366076Y-76746100D01*
X173858178Y-76847127D01*
X173379749Y-77045299D01*
X172949174Y-77333000D01*
X172583000Y-77699174D01*
X172295299Y-78129749D01*
X172097127Y-78608178D01*
X171996100Y-79116076D01*
X171033080Y-79116076D01*
X170996971Y-78934549D01*
X170883144Y-78659747D01*
X170839882Y-78595000D01*
X170988345Y-78595000D01*
X171328373Y-78527364D01*
X171648673Y-78394692D01*
X171936935Y-78202081D01*
X172182081Y-77956935D01*
X172374692Y-77668673D01*
X172507364Y-77348373D01*
X172575000Y-77008345D01*
X172575000Y-76661655D01*
X172507364Y-76321627D01*
X172374692Y-76001327D01*
X172182081Y-75713065D01*
X171936935Y-75467919D01*
X171648673Y-75275308D01*
X171328373Y-75142636D01*
X170988345Y-75075000D01*
X170641655Y-75075000D01*
X170301627Y-75142636D01*
X169981327Y-75275308D01*
X169693065Y-75467919D01*
X169447919Y-75713065D01*
X169255308Y-76001327D01*
X169122636Y-76321627D01*
X169055000Y-76661655D01*
X169055000Y-77008345D01*
X169122636Y-77348373D01*
X169255308Y-77668673D01*
X169387638Y-77866719D01*
X169104549Y-77923029D01*
X168829747Y-78036856D01*
X168582431Y-78202107D01*
X168407590Y-78376948D01*
X168407590Y-66622347D01*
X170865325Y-69080083D01*
X170887572Y-69107660D01*
X170890124Y-69109790D01*
X170892236Y-69112364D01*
X170922184Y-69136942D01*
X170922187Y-69136945D01*
X170949539Y-69159392D01*
X171006276Y-69206758D01*
X171009190Y-69208347D01*
X171011767Y-69210462D01*
X171077163Y-69245416D01*
X171142032Y-69280793D01*
X171145203Y-69281784D01*
X171148140Y-69283354D01*
X171219002Y-69304850D01*
X171289622Y-69326922D01*
X171292931Y-69327276D01*
X171296112Y-69328241D01*
X171308956Y-69329506D01*
X171369827Y-69335501D01*
X171443377Y-69343369D01*
X171446688Y-69343071D01*
X171449999Y-69343397D01*
X171488552Y-69339600D01*
X190458142Y-69339600D01*
X190493377Y-69343369D01*
X190535248Y-69339600D01*
X209511447Y-69339600D01*
X209550000Y-69343397D01*
X209588553Y-69339600D01*
X209588561Y-69339600D01*
X209703887Y-69328241D01*
X209851860Y-69283354D01*
X209988233Y-69210462D01*
X210107764Y-69112364D01*
X210132347Y-69082410D01*
X211602810Y-67611947D01*
X211632764Y-67587364D01*
X211730862Y-67467833D01*
X211798844Y-67340646D01*
X211879494Y-67297537D01*
X211976185Y-67218185D01*
X212055537Y-67121494D01*
X212114502Y-67011180D01*
X212150812Y-66891482D01*
X212163072Y-66767000D01*
X212163072Y-65567000D01*
X212150812Y-65442518D01*
X212114502Y-65322820D01*
X212055537Y-65212506D01*
X211976185Y-65115815D01*
X211879494Y-65036463D01*
X211769180Y-64977498D01*
X211649482Y-64941188D01*
X211525000Y-64928928D01*
X210625000Y-64928928D01*
X210500518Y-64941188D01*
X210380820Y-64977498D01*
X210270506Y-65036463D01*
X210173815Y-65115815D01*
X210094463Y-65212506D01*
X210035498Y-65322820D01*
X209999188Y-65442518D01*
X209986928Y-65567000D01*
X209986928Y-66767000D01*
X209999188Y-66891482D01*
X210023341Y-66971102D01*
X209224843Y-67769600D01*
X192417896Y-67769600D01*
X192550264Y-67639437D01*
X192582764Y-67612764D01*
X192629708Y-67555563D01*
X192677158Y-67498725D01*
X192678749Y-67495808D01*
X192680862Y-67493233D01*
X192715789Y-67427888D01*
X192751193Y-67362969D01*
X192752185Y-67359796D01*
X192753754Y-67356860D01*
X192760574Y-67334376D01*
X192829494Y-67297537D01*
X192926185Y-67218185D01*
X193005537Y-67121494D01*
X193064502Y-67011180D01*
X193100812Y-66891482D01*
X193113072Y-66767000D01*
X193113072Y-65567000D01*
X193100812Y-65442518D01*
X193064502Y-65322820D01*
X193005537Y-65212506D01*
X192926185Y-65115815D01*
X192829494Y-65036463D01*
X192719180Y-64977498D01*
X192599482Y-64941188D01*
X192475000Y-64928928D01*
X191575000Y-64928928D01*
X191450518Y-64941188D01*
X191330820Y-64977498D01*
X191220506Y-65036463D01*
X191123815Y-65115815D01*
X191044463Y-65212506D01*
X190985498Y-65322820D01*
X190949188Y-65442518D01*
X190936928Y-65567000D01*
X190936928Y-66767000D01*
X190949188Y-66891482D01*
X190977334Y-66984266D01*
X190178699Y-67769600D01*
X173367896Y-67769600D01*
X173500264Y-67639437D01*
X173532764Y-67612764D01*
X173579708Y-67555563D01*
X173627158Y-67498725D01*
X173628749Y-67495808D01*
X173630862Y-67493233D01*
X173665789Y-67427888D01*
X173701193Y-67362969D01*
X173702185Y-67359796D01*
X173703754Y-67356860D01*
X173710574Y-67334376D01*
X173779494Y-67297537D01*
X173876185Y-67218185D01*
X173955537Y-67121494D01*
X174014502Y-67011180D01*
X174050812Y-66891482D01*
X174063072Y-66767000D01*
X174063072Y-65567000D01*
X174050812Y-65442518D01*
X174014502Y-65322820D01*
X173955537Y-65212506D01*
X173876185Y-65115815D01*
X173779494Y-65036463D01*
X173669180Y-64977498D01*
X173549482Y-64941188D01*
X173425000Y-64928928D01*
X172525000Y-64928928D01*
X172400518Y-64941188D01*
X172280820Y-64977498D01*
X172170506Y-65036463D01*
X172073815Y-65115815D01*
X171994463Y-65212506D01*
X171935498Y-65322820D01*
X171899188Y-65442518D01*
X171886928Y-65567000D01*
X171886928Y-66767000D01*
X171899188Y-66891482D01*
X171927334Y-66984266D01*
X171454643Y-67449085D01*
X168907600Y-64902043D01*
X168907600Y-61695392D01*
X169104549Y-61776971D01*
X169396278Y-61835000D01*
X169693722Y-61835000D01*
X169985451Y-61776971D01*
X170260253Y-61663144D01*
X170507569Y-61497893D01*
X170717893Y-61287569D01*
X170883144Y-61040253D01*
X170996971Y-60765451D01*
X171055000Y-60473722D01*
X171055000Y-60176278D01*
X171033080Y-60066076D01*
X171996100Y-60066076D01*
X171996100Y-60583924D01*
X172097127Y-61091822D01*
X172295299Y-61570251D01*
X172583000Y-62000826D01*
X172949174Y-62367000D01*
X173379749Y-62654701D01*
X173858178Y-62852873D01*
X174366076Y-62953900D01*
X174883924Y-62953900D01*
X175391822Y-62852873D01*
X175870251Y-62654701D01*
X176300826Y-62367000D01*
X176667000Y-62000826D01*
X176954701Y-61570251D01*
X177015000Y-61424676D01*
X177015000Y-64444842D01*
X176530915Y-64928928D01*
X175825000Y-64928928D01*
X175700518Y-64941188D01*
X175580820Y-64977498D01*
X175470506Y-65036463D01*
X175373815Y-65115815D01*
X175294463Y-65212506D01*
X175235498Y-65322820D01*
X175199188Y-65442518D01*
X175186928Y-65567000D01*
X175186928Y-66767000D01*
X175199188Y-66891482D01*
X175235498Y-67011180D01*
X175294463Y-67121494D01*
X175373815Y-67218185D01*
X175470506Y-67297537D01*
X175580820Y-67356502D01*
X175700518Y-67392812D01*
X175825000Y-67405072D01*
X176725000Y-67405072D01*
X176849482Y-67392812D01*
X176969180Y-67356502D01*
X177079494Y-67297537D01*
X177176185Y-67218185D01*
X177255537Y-67121494D01*
X177314502Y-67011180D01*
X177350812Y-66891482D01*
X177363072Y-66767000D01*
X177363072Y-66317085D01*
X178327817Y-65352341D01*
X178357764Y-65327764D01*
X178455862Y-65208233D01*
X178528754Y-65071860D01*
X178573641Y-64923887D01*
X178585000Y-64808561D01*
X178585000Y-64808554D01*
X178588797Y-64770001D01*
X178585000Y-64731448D01*
X178585000Y-61340462D01*
X178742431Y-61497893D01*
X178989747Y-61663144D01*
X179264549Y-61776971D01*
X179556278Y-61835000D01*
X179853722Y-61835000D01*
X180145451Y-61776971D01*
X180420253Y-61663144D01*
X180667569Y-61497893D01*
X180877893Y-61287569D01*
X181043144Y-61040253D01*
X181156971Y-60765451D01*
X181215000Y-60473722D01*
X181215000Y-60176278D01*
X187085000Y-60176278D01*
X187085000Y-60473722D01*
X187143029Y-60765451D01*
X187256856Y-61040253D01*
X187422107Y-61287569D01*
X187632431Y-61497893D01*
X187879747Y-61663144D01*
X188154549Y-61776971D01*
X188446278Y-61835000D01*
X188743722Y-61835000D01*
X189035451Y-61776971D01*
X189310253Y-61663144D01*
X189557569Y-61497893D01*
X189767893Y-61287569D01*
X189933144Y-61040253D01*
X190046971Y-60765451D01*
X190105000Y-60473722D01*
X190105000Y-60176278D01*
X190083080Y-60066076D01*
X191046100Y-60066076D01*
X191046100Y-60583924D01*
X191147127Y-61091822D01*
X191345299Y-61570251D01*
X191633000Y-62000826D01*
X191999174Y-62367000D01*
X192429749Y-62654701D01*
X192908178Y-62852873D01*
X193416076Y-62953900D01*
X193933924Y-62953900D01*
X194441822Y-62852873D01*
X194920251Y-62654701D01*
X195350826Y-62367000D01*
X195717000Y-62000826D01*
X196004701Y-61570251D01*
X196065000Y-61424676D01*
X196065000Y-64444842D01*
X195580915Y-64928928D01*
X194875000Y-64928928D01*
X194750518Y-64941188D01*
X194630820Y-64977498D01*
X194520506Y-65036463D01*
X194423815Y-65115815D01*
X194344463Y-65212506D01*
X194285498Y-65322820D01*
X194249188Y-65442518D01*
X194236928Y-65567000D01*
X194236928Y-66767000D01*
X194249188Y-66891482D01*
X194285498Y-67011180D01*
X194344463Y-67121494D01*
X194423815Y-67218185D01*
X194520506Y-67297537D01*
X194630820Y-67356502D01*
X194750518Y-67392812D01*
X194875000Y-67405072D01*
X195775000Y-67405072D01*
X195899482Y-67392812D01*
X196019180Y-67356502D01*
X196129494Y-67297537D01*
X196226185Y-67218185D01*
X196305537Y-67121494D01*
X196364502Y-67011180D01*
X196400812Y-66891482D01*
X196413072Y-66767000D01*
X196413072Y-66317085D01*
X197377817Y-65352341D01*
X197407764Y-65327764D01*
X197505862Y-65208233D01*
X197578754Y-65071860D01*
X197623641Y-64923887D01*
X197635000Y-64808561D01*
X197635000Y-64808554D01*
X197638797Y-64770001D01*
X197635000Y-64731448D01*
X197635000Y-61340462D01*
X197792431Y-61497893D01*
X198039747Y-61663144D01*
X198314549Y-61776971D01*
X198606278Y-61835000D01*
X198903722Y-61835000D01*
X199195451Y-61776971D01*
X199470253Y-61663144D01*
X199717569Y-61497893D01*
X199927893Y-61287569D01*
X200093144Y-61040253D01*
X200206971Y-60765451D01*
X200265000Y-60473722D01*
X200265000Y-60176278D01*
X206135000Y-60176278D01*
X206135000Y-60473722D01*
X206193029Y-60765451D01*
X206306856Y-61040253D01*
X206472107Y-61287569D01*
X206682431Y-61497893D01*
X206929747Y-61663144D01*
X207204549Y-61776971D01*
X207496278Y-61835000D01*
X207793722Y-61835000D01*
X208085451Y-61776971D01*
X208360253Y-61663144D01*
X208607569Y-61497893D01*
X208817893Y-61287569D01*
X208983144Y-61040253D01*
X209096971Y-60765451D01*
X209155000Y-60473722D01*
X209155000Y-60176278D01*
X209133080Y-60066076D01*
X210096100Y-60066076D01*
X210096100Y-60583924D01*
X210197127Y-61091822D01*
X210395299Y-61570251D01*
X210683000Y-62000826D01*
X211049174Y-62367000D01*
X211479749Y-62654701D01*
X211958178Y-62852873D01*
X212466076Y-62953900D01*
X212983924Y-62953900D01*
X213491822Y-62852873D01*
X213970251Y-62654701D01*
X214400826Y-62367000D01*
X214767000Y-62000826D01*
X215054701Y-61570251D01*
X215115000Y-61424676D01*
X215115000Y-64444842D01*
X214630915Y-64928928D01*
X213925000Y-64928928D01*
X213800518Y-64941188D01*
X213680820Y-64977498D01*
X213570506Y-65036463D01*
X213473815Y-65115815D01*
X213394463Y-65212506D01*
X213335498Y-65322820D01*
X213299188Y-65442518D01*
X213286928Y-65567000D01*
X213286928Y-66767000D01*
X213299188Y-66891482D01*
X213335498Y-67011180D01*
X213394463Y-67121494D01*
X213473815Y-67218185D01*
X213570506Y-67297537D01*
X213680820Y-67356502D01*
X213800518Y-67392812D01*
X213925000Y-67405072D01*
X214825000Y-67405072D01*
X214949482Y-67392812D01*
X215069180Y-67356502D01*
X215179494Y-67297537D01*
X215276185Y-67218185D01*
X215355537Y-67121494D01*
X215414502Y-67011180D01*
X215450812Y-66891482D01*
X215463072Y-66767000D01*
X215463072Y-66317085D01*
X216427817Y-65352341D01*
X216457764Y-65327764D01*
X216555862Y-65208233D01*
X216628754Y-65071860D01*
X216673641Y-64923887D01*
X216685000Y-64808561D01*
X216685000Y-64808554D01*
X216688797Y-64770001D01*
X216685000Y-64731448D01*
X216685000Y-61340462D01*
X216842431Y-61497893D01*
X217089747Y-61663144D01*
X217364549Y-61776971D01*
X217656278Y-61835000D01*
X217953722Y-61835000D01*
X218245451Y-61776971D01*
X218520253Y-61663144D01*
X218767569Y-61497893D01*
X218977893Y-61287569D01*
X219143144Y-61040253D01*
X219256971Y-60765451D01*
X219315000Y-60473722D01*
X219315000Y-60176278D01*
X219256971Y-59884549D01*
X219143144Y-59609747D01*
X218977893Y-59362431D01*
X218767569Y-59152107D01*
X218520253Y-58986856D01*
X218245451Y-58873029D01*
X217953722Y-58815000D01*
X217656278Y-58815000D01*
X217364549Y-58873029D01*
X217089747Y-58986856D01*
X216842431Y-59152107D01*
X216685000Y-59309538D01*
X216685000Y-56287736D01*
X216824692Y-56078673D01*
X216957364Y-55758373D01*
X217025000Y-55418345D01*
X217025000Y-55071655D01*
X216957364Y-54731627D01*
X216824692Y-54411327D01*
X216632081Y-54123065D01*
X216386935Y-53877919D01*
X216098673Y-53685308D01*
X215778373Y-53552636D01*
X215438345Y-53485000D01*
X215091655Y-53485000D01*
X214751627Y-53552636D01*
X214431327Y-53685308D01*
X214143065Y-53877919D01*
X213897919Y-54123065D01*
X213705308Y-54411327D01*
X213572636Y-54731627D01*
X213505000Y-55071655D01*
X213505000Y-55418345D01*
X213572636Y-55758373D01*
X213705308Y-56078673D01*
X213897919Y-56366935D01*
X214143065Y-56612081D01*
X214431327Y-56804692D01*
X214751627Y-56937364D01*
X215091655Y-57005000D01*
X215115001Y-57005000D01*
X215115001Y-59225325D01*
X215054701Y-59079749D01*
X214767000Y-58649174D01*
X214400826Y-58283000D01*
X213970251Y-57995299D01*
X213491822Y-57797127D01*
X212983924Y-57696100D01*
X212466076Y-57696100D01*
X211958178Y-57797127D01*
X211479749Y-57995299D01*
X211049174Y-58283000D01*
X210683000Y-58649174D01*
X210395299Y-59079749D01*
X210197127Y-59558178D01*
X210096100Y-60066076D01*
X209133080Y-60066076D01*
X209096971Y-59884549D01*
X208983144Y-59609747D01*
X208939882Y-59545000D01*
X209088345Y-59545000D01*
X209428373Y-59477364D01*
X209748673Y-59344692D01*
X210036935Y-59152081D01*
X210282081Y-58906935D01*
X210474692Y-58618673D01*
X210607364Y-58298373D01*
X210675000Y-57958345D01*
X210675000Y-57611655D01*
X210607364Y-57271627D01*
X210474692Y-56951327D01*
X210282081Y-56663065D01*
X210036935Y-56417919D01*
X209748673Y-56225308D01*
X209428373Y-56092636D01*
X209088345Y-56025000D01*
X208741655Y-56025000D01*
X208401627Y-56092636D01*
X208081327Y-56225308D01*
X207793065Y-56417919D01*
X207547919Y-56663065D01*
X207355308Y-56951327D01*
X207222636Y-57271627D01*
X207155000Y-57611655D01*
X207155000Y-57958345D01*
X207222636Y-58298373D01*
X207355308Y-58618673D01*
X207487638Y-58816719D01*
X207204549Y-58873029D01*
X206929747Y-58986856D01*
X206682431Y-59152107D01*
X206472107Y-59362431D01*
X206306856Y-59609747D01*
X206193029Y-59884549D01*
X206135000Y-60176278D01*
X200265000Y-60176278D01*
X200206971Y-59884549D01*
X200093144Y-59609747D01*
X199927893Y-59362431D01*
X199717569Y-59152107D01*
X199470253Y-58986856D01*
X199195451Y-58873029D01*
X198903722Y-58815000D01*
X198606278Y-58815000D01*
X198314549Y-58873029D01*
X198039747Y-58986856D01*
X197792431Y-59152107D01*
X197635000Y-59309538D01*
X197635000Y-56287736D01*
X197774692Y-56078673D01*
X197907364Y-55758373D01*
X197975000Y-55418345D01*
X197975000Y-55071655D01*
X197907364Y-54731627D01*
X197774692Y-54411327D01*
X197582081Y-54123065D01*
X197336935Y-53877919D01*
X197048673Y-53685308D01*
X196728373Y-53552636D01*
X196388345Y-53485000D01*
X196041655Y-53485000D01*
X195701627Y-53552636D01*
X195381327Y-53685308D01*
X195093065Y-53877919D01*
X194847919Y-54123065D01*
X194655308Y-54411327D01*
X194522636Y-54731627D01*
X194455000Y-55071655D01*
X194455000Y-55418345D01*
X194522636Y-55758373D01*
X194655308Y-56078673D01*
X194847919Y-56366935D01*
X195093065Y-56612081D01*
X195381327Y-56804692D01*
X195701627Y-56937364D01*
X196041655Y-57005000D01*
X196065001Y-57005000D01*
X196065001Y-59225325D01*
X196004701Y-59079749D01*
X195717000Y-58649174D01*
X195350826Y-58283000D01*
X194920251Y-57995299D01*
X194441822Y-57797127D01*
X193933924Y-57696100D01*
X193416076Y-57696100D01*
X192908178Y-57797127D01*
X192429749Y-57995299D01*
X191999174Y-58283000D01*
X191633000Y-58649174D01*
X191345299Y-59079749D01*
X191147127Y-59558178D01*
X191046100Y-60066076D01*
X190083080Y-60066076D01*
X190046971Y-59884549D01*
X189933144Y-59609747D01*
X189889882Y-59545000D01*
X190038345Y-59545000D01*
X190378373Y-59477364D01*
X190698673Y-59344692D01*
X190986935Y-59152081D01*
X191232081Y-58906935D01*
X191424692Y-58618673D01*
X191557364Y-58298373D01*
X191625000Y-57958345D01*
X191625000Y-57611655D01*
X191557364Y-57271627D01*
X191424692Y-56951327D01*
X191232081Y-56663065D01*
X190986935Y-56417919D01*
X190698673Y-56225308D01*
X190378373Y-56092636D01*
X190038345Y-56025000D01*
X189691655Y-56025000D01*
X189351627Y-56092636D01*
X189031327Y-56225308D01*
X188743065Y-56417919D01*
X188497919Y-56663065D01*
X188305308Y-56951327D01*
X188172636Y-57271627D01*
X188105000Y-57611655D01*
X188105000Y-57958345D01*
X188172636Y-58298373D01*
X188305308Y-58618673D01*
X188437638Y-58816719D01*
X188154549Y-58873029D01*
X187879747Y-58986856D01*
X187632431Y-59152107D01*
X187422107Y-59362431D01*
X187256856Y-59609747D01*
X187143029Y-59884549D01*
X187085000Y-60176278D01*
X181215000Y-60176278D01*
X181156971Y-59884549D01*
X181043144Y-59609747D01*
X180877893Y-59362431D01*
X180667569Y-59152107D01*
X180420253Y-58986856D01*
X180145451Y-58873029D01*
X179853722Y-58815000D01*
X179556278Y-58815000D01*
X179264549Y-58873029D01*
X178989747Y-58986856D01*
X178742431Y-59152107D01*
X178585000Y-59309538D01*
X178585000Y-56287736D01*
X178724692Y-56078673D01*
X178857364Y-55758373D01*
X178925000Y-55418345D01*
X178925000Y-55071655D01*
X178857364Y-54731627D01*
X178724692Y-54411327D01*
X178532081Y-54123065D01*
X178286935Y-53877919D01*
X177998673Y-53685308D01*
X177678373Y-53552636D01*
X177338345Y-53485000D01*
X176991655Y-53485000D01*
X176651627Y-53552636D01*
X176331327Y-53685308D01*
X176043065Y-53877919D01*
X175797919Y-54123065D01*
X175605308Y-54411327D01*
X175472636Y-54731627D01*
X175405000Y-55071655D01*
X175405000Y-55418345D01*
X175472636Y-55758373D01*
X175605308Y-56078673D01*
X175797919Y-56366935D01*
X176043065Y-56612081D01*
X176331327Y-56804692D01*
X176651627Y-56937364D01*
X176991655Y-57005000D01*
X177015001Y-57005000D01*
X177015001Y-59225325D01*
X176954701Y-59079749D01*
X176667000Y-58649174D01*
X176300826Y-58283000D01*
X175870251Y-57995299D01*
X175391822Y-57797127D01*
X174883924Y-57696100D01*
X174366076Y-57696100D01*
X173858178Y-57797127D01*
X173379749Y-57995299D01*
X172949174Y-58283000D01*
X172583000Y-58649174D01*
X172295299Y-59079749D01*
X172097127Y-59558178D01*
X171996100Y-60066076D01*
X171033080Y-60066076D01*
X170996971Y-59884549D01*
X170883144Y-59609747D01*
X170839882Y-59545000D01*
X170988345Y-59545000D01*
X171328373Y-59477364D01*
X171648673Y-59344692D01*
X171936935Y-59152081D01*
X172182081Y-58906935D01*
X172374692Y-58618673D01*
X172507364Y-58298373D01*
X172575000Y-57958345D01*
X172575000Y-57611655D01*
X172507364Y-57271627D01*
X172374692Y-56951327D01*
X172182081Y-56663065D01*
X171936935Y-56417919D01*
X171648673Y-56225308D01*
X171328373Y-56092636D01*
X170988345Y-56025000D01*
X170641655Y-56025000D01*
X170301627Y-56092636D01*
X169981327Y-56225308D01*
X169693065Y-56417919D01*
X169447919Y-56663065D01*
X169255308Y-56951327D01*
X169122636Y-57271627D01*
X169055000Y-57611655D01*
X169055000Y-57958345D01*
X169122636Y-58298373D01*
X169255308Y-58618673D01*
X169387638Y-58816719D01*
X169104549Y-58873029D01*
X168907600Y-58954608D01*
X168907600Y-56960572D01*
X171739502Y-54349600D01*
X171805939Y-54349600D01*
X172005898Y-54309826D01*
X172194256Y-54231805D01*
X172363774Y-54118537D01*
X172507937Y-53974374D01*
X172621205Y-53804856D01*
X172699226Y-53616498D01*
X172739000Y-53416539D01*
X172739000Y-53212661D01*
X172699226Y-53012702D01*
X172621205Y-52824344D01*
X172614693Y-52814598D01*
X172621205Y-52804853D01*
X172699226Y-52616495D01*
X172739000Y-52416536D01*
X172739000Y-52212658D01*
X172699226Y-52012699D01*
X172621205Y-51824341D01*
X172612490Y-51811299D01*
X172621205Y-51798256D01*
X172699226Y-51609898D01*
X172739000Y-51409939D01*
X172739000Y-51403200D01*
X172796539Y-51403200D01*
X172996498Y-51363426D01*
X173184856Y-51285405D01*
X173307885Y-51203200D01*
X177669315Y-51203200D01*
X177792344Y-51285405D01*
X177980702Y-51363426D01*
X178180661Y-51403200D01*
X178384539Y-51403200D01*
X178584498Y-51363426D01*
X178772856Y-51285405D01*
X178942374Y-51172137D01*
X179086537Y-51027974D01*
X179199805Y-50858456D01*
X179277826Y-50670098D01*
X179317600Y-50470139D01*
X179317600Y-50266261D01*
X179277826Y-50066302D01*
X179199805Y-49877944D01*
X179086537Y-49708426D01*
X178942374Y-49564263D01*
X178772856Y-49450995D01*
X178584498Y-49372974D01*
X178384539Y-49333200D01*
X178180661Y-49333200D01*
X177980702Y-49372974D01*
X177792344Y-49450995D01*
X177669315Y-49533200D01*
X173307885Y-49533200D01*
X173184856Y-49450995D01*
X172996498Y-49372974D01*
X172796539Y-49333200D01*
X172592661Y-49333200D01*
X172392702Y-49372974D01*
X172204344Y-49450995D01*
X172034826Y-49564263D01*
X171890663Y-49708426D01*
X171777395Y-49877944D01*
X171699374Y-50066302D01*
X171659600Y-50266261D01*
X171659600Y-50273000D01*
X171602061Y-50273000D01*
X171402102Y-50312774D01*
X171213744Y-50390795D01*
X171044226Y-50504063D01*
X170900063Y-50648226D01*
X170786795Y-50817744D01*
X170708774Y-51006102D01*
X170692960Y-51085604D01*
X166595598Y-54750467D01*
X166548647Y-54789026D01*
X166513557Y-54831812D01*
X166476135Y-54872560D01*
X166464633Y-54891467D01*
X166450590Y-54908590D01*
X166424520Y-54957404D01*
X166395768Y-55004666D01*
X166388173Y-55025461D01*
X166377744Y-55044988D01*
X166361703Y-55097934D01*
X166342718Y-55149912D01*
X166339326Y-55171791D01*
X166332907Y-55192976D01*
X166327501Y-55248052D01*
X166319025Y-55302718D01*
X166321606Y-55363393D01*
X166337568Y-102339552D01*
X166333783Y-102377980D01*
X166337594Y-102416674D01*
X166337594Y-102416808D01*
X166341320Y-102454504D01*
X166348939Y-102531866D01*
X166348979Y-102531998D01*
X166348992Y-102532130D01*
X166371179Y-102605182D01*
X166393826Y-102679839D01*
X166393890Y-102679959D01*
X166393929Y-102680087D01*
X166431211Y-102749782D01*
X166466719Y-102816212D01*
X166466800Y-102816311D01*
X166466867Y-102816436D01*
X166516472Y-102876837D01*
X166540235Y-102905792D01*
X166540331Y-102905888D01*
X166565006Y-102935933D01*
X166594861Y-102960418D01*
X170842253Y-107207810D01*
X170866836Y-107237764D01*
X170930485Y-107290000D01*
X167672279Y-107290000D01*
X167275455Y-107251091D01*
X166924794Y-107145220D01*
X166601377Y-106973257D01*
X166317518Y-106741748D01*
X166084035Y-106459514D01*
X165909816Y-106137304D01*
X165801498Y-105787385D01*
X165760000Y-105392557D01*
X165760000Y-41503261D01*
X184385000Y-41503261D01*
X184385000Y-41707139D01*
X184424774Y-41907098D01*
X184502795Y-42095456D01*
X184585000Y-42218485D01*
X184585001Y-44192314D01*
X184502795Y-44315344D01*
X184424774Y-44503702D01*
X184385000Y-44703661D01*
X184385000Y-44907539D01*
X184424774Y-45107498D01*
X184502795Y-45295856D01*
X184616063Y-45465374D01*
X184760226Y-45609537D01*
X184929744Y-45722805D01*
X185118102Y-45800826D01*
X185318061Y-45840600D01*
X185521939Y-45840600D01*
X185721898Y-45800826D01*
X185910256Y-45722805D01*
X186079774Y-45609537D01*
X186223937Y-45465374D01*
X186337205Y-45295856D01*
X186415226Y-45107498D01*
X186455000Y-44907539D01*
X186455000Y-44703661D01*
X186415226Y-44503702D01*
X186337205Y-44315344D01*
X186255000Y-44192315D01*
X186255000Y-43841469D01*
X186367608Y-43841469D01*
X186567567Y-43801695D01*
X186755925Y-43723674D01*
X186925443Y-43610406D01*
X186944380Y-43591469D01*
X187695158Y-43591469D01*
X187732026Y-43628337D01*
X187901544Y-43741605D01*
X188089902Y-43819626D01*
X188289861Y-43859400D01*
X188493739Y-43859400D01*
X188693698Y-43819626D01*
X188882056Y-43741605D01*
X189051574Y-43628337D01*
X189195737Y-43484174D01*
X189309005Y-43314656D01*
X189387026Y-43126298D01*
X189426800Y-42926339D01*
X189426800Y-42722461D01*
X189387026Y-42522502D01*
X189309005Y-42334144D01*
X189195737Y-42164626D01*
X189051574Y-42020463D01*
X188882056Y-41907195D01*
X188693698Y-41829174D01*
X188493739Y-41789400D01*
X188289861Y-41789400D01*
X188089902Y-41829174D01*
X187901544Y-41907195D01*
X187732026Y-42020463D01*
X187731020Y-42021469D01*
X186944380Y-42021469D01*
X186925443Y-42002532D01*
X186755925Y-41889264D01*
X186567567Y-41811243D01*
X186439365Y-41785742D01*
X186455000Y-41707139D01*
X186455000Y-41503261D01*
X186415226Y-41303302D01*
X186337205Y-41114944D01*
X186223937Y-40945426D01*
X186079774Y-40801263D01*
X185910256Y-40687995D01*
X185721898Y-40609974D01*
X185521939Y-40570200D01*
X185318061Y-40570200D01*
X185118102Y-40609974D01*
X184929744Y-40687995D01*
X184760226Y-40801263D01*
X184616063Y-40945426D01*
X184502795Y-41114944D01*
X184424774Y-41303302D01*
X184385000Y-41503261D01*
X165760000Y-41503261D01*
X165760000Y-33959800D01*
X188034000Y-33959800D01*
X188034000Y-34513800D01*
X188081623Y-34743322D01*
X188173108Y-34959143D01*
X188304940Y-35152969D01*
X188472052Y-35317352D01*
X188668023Y-35445974D01*
X188885321Y-35533893D01*
X188912627Y-35534576D01*
X189096000Y-35409192D01*
X189096000Y-33959800D01*
X188034000Y-33959800D01*
X165760000Y-33959800D01*
X165760000Y-31274279D01*
X165798909Y-30877455D01*
X165888776Y-30579800D01*
X188034000Y-30579800D01*
X188034000Y-31133800D01*
X188081623Y-31363322D01*
X188173108Y-31579143D01*
X188304940Y-31772969D01*
X188472052Y-31937352D01*
X188668023Y-32065974D01*
X188857904Y-32142800D01*
X188668023Y-32219626D01*
X188472052Y-32348248D01*
X188304940Y-32512631D01*
X188173108Y-32706457D01*
X188081623Y-32922278D01*
X188034000Y-33151800D01*
X188034000Y-33705800D01*
X189096000Y-33705800D01*
X189096000Y-32256408D01*
X188929849Y-32142800D01*
X189096000Y-32029192D01*
X189096000Y-30579800D01*
X189350000Y-30579800D01*
X189350000Y-32029192D01*
X189516151Y-32142800D01*
X189350000Y-32256408D01*
X189350000Y-33705800D01*
X189370000Y-33705800D01*
X189370000Y-33959800D01*
X189350000Y-33959800D01*
X189350000Y-35409192D01*
X189533373Y-35534576D01*
X189560679Y-35533893D01*
X189777977Y-35445974D01*
X189973948Y-35317352D01*
X190141060Y-35152969D01*
X190272892Y-34959143D01*
X190291905Y-34914290D01*
X190393395Y-34812800D01*
X190379253Y-34798658D01*
X190463829Y-34714081D01*
X190463000Y-34718248D01*
X190463000Y-34907352D01*
X190495361Y-35070044D01*
X190100069Y-35465336D01*
X190113677Y-35661070D01*
X190287992Y-35734381D01*
X190473260Y-35772275D01*
X190662361Y-35773297D01*
X190848028Y-35737408D01*
X190916010Y-35709679D01*
X191305553Y-36099222D01*
X191331708Y-36131092D01*
X191458853Y-36235437D01*
X191603912Y-36312973D01*
X191761310Y-36360719D01*
X191924998Y-36376841D01*
X191966017Y-36372801D01*
X193783000Y-36372801D01*
X193783000Y-36439740D01*
X193822774Y-36639699D01*
X193900795Y-36828057D01*
X194014063Y-36997575D01*
X194158226Y-37141738D01*
X194327744Y-37255006D01*
X194516102Y-37333027D01*
X194716061Y-37372801D01*
X194742843Y-37372801D01*
X195235856Y-37865815D01*
X195260435Y-37895764D01*
X195290383Y-37920342D01*
X195290386Y-37920345D01*
X195319758Y-37944450D01*
X195379966Y-37993862D01*
X195516339Y-38066754D01*
X195664312Y-38111642D01*
X195739225Y-38119020D01*
X195779638Y-38123000D01*
X195779643Y-38123000D01*
X195818199Y-38126797D01*
X195856754Y-38123000D01*
X196493534Y-38123000D01*
X196528663Y-38175574D01*
X196672826Y-38319737D01*
X196842344Y-38433005D01*
X197030702Y-38511026D01*
X197230661Y-38550800D01*
X197434539Y-38550800D01*
X197634498Y-38511026D01*
X197822856Y-38433005D01*
X197992374Y-38319737D01*
X198136537Y-38175574D01*
X198249805Y-38006056D01*
X198327826Y-37817698D01*
X198367600Y-37617739D01*
X198367600Y-37413861D01*
X198327826Y-37213902D01*
X198249805Y-37025544D01*
X198136537Y-36856026D01*
X197992374Y-36711863D01*
X197822856Y-36598595D01*
X197634498Y-36520574D01*
X197434539Y-36480800D01*
X197230661Y-36480800D01*
X197030702Y-36520574D01*
X196952419Y-36553000D01*
X196143357Y-36553000D01*
X195853000Y-36262644D01*
X195853000Y-36246536D01*
X195873764Y-36235437D01*
X196000909Y-36131092D01*
X196027063Y-36099223D01*
X196234426Y-35891861D01*
X196266291Y-35865710D01*
X196354511Y-35758213D01*
X196423260Y-35772275D01*
X196612361Y-35773297D01*
X196798028Y-35737408D01*
X196973126Y-35665987D01*
X196982323Y-35661070D01*
X196995931Y-35465336D01*
X196600639Y-35070044D01*
X196633000Y-34907352D01*
X196633000Y-34718248D01*
X196632171Y-34714081D01*
X196716748Y-34798658D01*
X196702605Y-34812800D01*
X196804095Y-34914290D01*
X196823108Y-34959143D01*
X196954940Y-35152969D01*
X197122052Y-35317352D01*
X197318023Y-35445974D01*
X197535321Y-35533893D01*
X197562627Y-35534576D01*
X197746000Y-35409192D01*
X197746000Y-33959800D01*
X197726000Y-33959800D01*
X197726000Y-33705800D01*
X197746000Y-33705800D01*
X197746000Y-33685800D01*
X198000000Y-33685800D01*
X198000000Y-33705800D01*
X198020000Y-33705800D01*
X198020000Y-33959800D01*
X198000000Y-33959800D01*
X198000000Y-35409192D01*
X198183373Y-35534576D01*
X198210679Y-35533893D01*
X198427977Y-35445974D01*
X198623948Y-35317352D01*
X198732000Y-35211064D01*
X198732001Y-36735488D01*
X198713063Y-36754426D01*
X198599795Y-36923944D01*
X198521774Y-37112302D01*
X198482000Y-37312261D01*
X198482000Y-37516139D01*
X198521774Y-37716098D01*
X198599795Y-37904456D01*
X198713063Y-38073974D01*
X198857226Y-38218137D01*
X199026744Y-38331405D01*
X199215102Y-38409426D01*
X199415061Y-38449200D01*
X199618939Y-38449200D01*
X199818898Y-38409426D01*
X200007256Y-38331405D01*
X200176774Y-38218137D01*
X200320937Y-38073974D01*
X200434205Y-37904456D01*
X200512226Y-37716098D01*
X200552000Y-37516139D01*
X200552000Y-37312261D01*
X200512226Y-37112302D01*
X200434205Y-36923944D01*
X200320937Y-36754426D01*
X200302000Y-36735489D01*
X200302000Y-33682893D01*
X200305797Y-33644337D01*
X200302000Y-33605777D01*
X200302000Y-33605776D01*
X200298020Y-33565363D01*
X200290642Y-33490450D01*
X200245754Y-33342477D01*
X200172862Y-33206104D01*
X200074764Y-33086573D01*
X200044811Y-33061991D01*
X198829800Y-31846980D01*
X198805217Y-31817026D01*
X198773082Y-31790653D01*
X198791060Y-31772969D01*
X198922892Y-31579143D01*
X199014377Y-31363322D01*
X199062000Y-31133800D01*
X199062000Y-30579800D01*
X198000000Y-30579800D01*
X198000000Y-30599800D01*
X197746000Y-30599800D01*
X197746000Y-30579800D01*
X196684000Y-30579800D01*
X196684000Y-31133800D01*
X196731623Y-31363322D01*
X196823108Y-31579143D01*
X196830350Y-31589790D01*
X192939943Y-31589790D01*
X192901390Y-31585993D01*
X192862837Y-31589790D01*
X192862830Y-31589790D01*
X192747504Y-31601149D01*
X192599531Y-31646036D01*
X192463158Y-31718928D01*
X192417544Y-31756363D01*
X192373578Y-31792445D01*
X192373575Y-31792448D01*
X192343627Y-31817026D01*
X192319048Y-31846975D01*
X191745185Y-32420839D01*
X191715237Y-32445417D01*
X191647009Y-32528550D01*
X191517552Y-32502800D01*
X191328448Y-32502800D01*
X191142978Y-32539692D01*
X190997580Y-32599918D01*
X190858008Y-32541219D01*
X190672740Y-32503325D01*
X190483639Y-32502303D01*
X190297972Y-32538192D01*
X190188748Y-32582744D01*
X190141060Y-32512631D01*
X189973948Y-32348248D01*
X189777977Y-32219626D01*
X189588096Y-32142800D01*
X189777977Y-32065974D01*
X189973948Y-31937352D01*
X190141060Y-31772969D01*
X190272892Y-31579143D01*
X190364377Y-31363322D01*
X190412000Y-31133800D01*
X190412000Y-30579800D01*
X189350000Y-30579800D01*
X189096000Y-30579800D01*
X188034000Y-30579800D01*
X165888776Y-30579800D01*
X165904780Y-30526792D01*
X166076744Y-30203375D01*
X166308254Y-29919516D01*
X166590486Y-29686035D01*
X166912695Y-29511817D01*
X167262614Y-29403498D01*
X167657443Y-29362000D01*
X188158042Y-29362000D01*
X188081623Y-29542278D01*
G36*
X190463000Y-33368248D02*
G01*
X190463000Y-33557352D01*
X190463829Y-33561519D01*
X190412000Y-33509690D01*
X190412000Y-33415910D01*
X190463829Y-33364081D01*
X190463000Y-33368248D01*
G37*
X190463000Y-33368248D02*
X190463000Y-33557352D01*
X190463829Y-33561519D01*
X190412000Y-33509690D01*
X190412000Y-33415910D01*
X190463829Y-33364081D01*
X190463000Y-33368248D01*
G36*
X196684000Y-33415910D02*
G01*
X196684000Y-33509690D01*
X196632171Y-33561519D01*
X196633000Y-33557352D01*
X196633000Y-33368248D01*
X196632171Y-33364081D01*
X196684000Y-33415910D01*
G37*
X196684000Y-33415910D02*
X196684000Y-33509690D01*
X196632171Y-33561519D01*
X196633000Y-33557352D01*
X196633000Y-33368248D01*
X196632171Y-33364081D01*
X196684000Y-33415910D01*
%TD*%
M02*
