%TF.GenerationSoftware,KiCad,Pcbnew,(5.1.6)-1*%
%TF.CreationDate,2020-08-31T14:33:41-05:00*%
%TF.ProjectId,totoro-pcb-macropad,746f746f-726f-42d7-9063-622d6d616372,rev?*%
%TF.SameCoordinates,Original*%
%TF.FileFunction,Soldermask,Top*%
%TF.FilePolarity,Negative*%
%FSLAX46Y46*%
G04 Gerber Fmt 4.6, Leading zero omitted, Abs format (unit mm)*
G04 Created by KiCad (PCBNEW (5.1.6)-1) date 2020-08-31 14:33:41*
%MOMM*%
%LPD*%
G01*
G04 APERTURE LIST*
%ADD10R,2.200000X1.900000*%
%ADD11R,0.650000X1.600000*%
%ADD12R,1.600000X0.650000*%
%ADD13R,1.800000X1.100000*%
%ADD14C,4.087800*%
%ADD15C,1.850000*%
%ADD16O,1.208000X2.316000*%
%ADD17C,0.750000*%
G04 APERTURE END LIST*
%TO.C, *%
G36*
G01*
X194586456Y-39457800D02*
X193271544Y-39457800D01*
G75*
G02*
X193004000Y-39190256I0J267544D01*
G01*
X193004000Y-38200344D01*
G75*
G02*
X193271544Y-37932800I267544J0D01*
G01*
X194586456Y-37932800D01*
G75*
G02*
X194854000Y-38200344I0J-267544D01*
G01*
X194854000Y-39190256D01*
G75*
G02*
X194586456Y-39457800I-267544J0D01*
G01*
G37*
G36*
G01*
X194586456Y-42432800D02*
X193271544Y-42432800D01*
G75*
G02*
X193004000Y-42165256I0J267544D01*
G01*
X193004000Y-41175344D01*
G75*
G02*
X193271544Y-40907800I267544J0D01*
G01*
X194586456Y-40907800D01*
G75*
G02*
X194854000Y-41175344I0J-267544D01*
G01*
X194854000Y-42165256D01*
G75*
G02*
X194586456Y-42432800I-267544J0D01*
G01*
G37*
%TD*%
D10*
%TO.C, *%
X177091000Y-33104000D03*
X174191000Y-33104000D03*
X174191000Y-30904000D03*
X177091000Y-30904000D03*
%TD*%
D11*
%TO.C, *%
X179514000Y-47102000D03*
X178714000Y-47102000D03*
X177914000Y-47102000D03*
X177114000Y-47102000D03*
X176314000Y-47102000D03*
X175514000Y-47102000D03*
X174714000Y-47102000D03*
X173914000Y-47102000D03*
X173114000Y-47102000D03*
X172314000Y-47102000D03*
X171514000Y-47102000D03*
D12*
X169814000Y-45402000D03*
X169814000Y-44602000D03*
X169814000Y-43802000D03*
X169814000Y-43002000D03*
X169814000Y-42202000D03*
X169814000Y-41402000D03*
X169814000Y-40602000D03*
X169814000Y-39802000D03*
X169814000Y-39002000D03*
X169814000Y-38202000D03*
X169814000Y-37402000D03*
D11*
X171514000Y-35702000D03*
X172314000Y-35702000D03*
X173114000Y-35702000D03*
X173914000Y-35702000D03*
X174714000Y-35702000D03*
X175514000Y-35702000D03*
X176314000Y-35702000D03*
X177114000Y-35702000D03*
X177914000Y-35702000D03*
X178714000Y-35702000D03*
X179514000Y-35702000D03*
D12*
X181214000Y-37402000D03*
X181214000Y-38202000D03*
X181214000Y-39002000D03*
X181214000Y-39802000D03*
X181214000Y-40602000D03*
X181214000Y-41402000D03*
X181214000Y-42202000D03*
X181214000Y-43002000D03*
X181214000Y-43802000D03*
X181214000Y-44602000D03*
X181214000Y-45402000D03*
%TD*%
D13*
%TO.C, *%
X218542000Y-36190000D03*
X212242000Y-36190000D03*
X218542000Y-32390000D03*
X212242000Y-32390000D03*
%TD*%
%TO.C, *%
G36*
G01*
X196879738Y-40617200D02*
X197836262Y-40617200D01*
G75*
G02*
X198108000Y-40888938I0J-271738D01*
G01*
X198108000Y-41595462D01*
G75*
G02*
X197836262Y-41867200I-271738J0D01*
G01*
X196879738Y-41867200D01*
G75*
G02*
X196608000Y-41595462I0J271738D01*
G01*
X196608000Y-40888938D01*
G75*
G02*
X196879738Y-40617200I271738J0D01*
G01*
G37*
G36*
G01*
X196879738Y-38567200D02*
X197836262Y-38567200D01*
G75*
G02*
X198108000Y-38838938I0J-271738D01*
G01*
X198108000Y-39545462D01*
G75*
G02*
X197836262Y-39817200I-271738J0D01*
G01*
X196879738Y-39817200D01*
G75*
G02*
X196608000Y-39545462I0J271738D01*
G01*
X196608000Y-38838938D01*
G75*
G02*
X196879738Y-38567200I271738J0D01*
G01*
G37*
%TD*%
%TO.C, *%
G36*
G01*
X199995262Y-39833600D02*
X199038738Y-39833600D01*
G75*
G02*
X198767000Y-39561862I0J271738D01*
G01*
X198767000Y-38855338D01*
G75*
G02*
X199038738Y-38583600I271738J0D01*
G01*
X199995262Y-38583600D01*
G75*
G02*
X200267000Y-38855338I0J-271738D01*
G01*
X200267000Y-39561862D01*
G75*
G02*
X199995262Y-39833600I-271738J0D01*
G01*
G37*
G36*
G01*
X199995262Y-41883600D02*
X199038738Y-41883600D01*
G75*
G02*
X198767000Y-41611862I0J271738D01*
G01*
X198767000Y-40905338D01*
G75*
G02*
X199038738Y-40633600I271738J0D01*
G01*
X199995262Y-40633600D01*
G75*
G02*
X200267000Y-40905338I0J-271738D01*
G01*
X200267000Y-41611862D01*
G75*
G02*
X199995262Y-41883600I-271738J0D01*
G01*
G37*
%TD*%
%TO.C, *%
G36*
G01*
X188819262Y-39791800D02*
X187862738Y-39791800D01*
G75*
G02*
X187591000Y-39520062I0J271738D01*
G01*
X187591000Y-38813538D01*
G75*
G02*
X187862738Y-38541800I271738J0D01*
G01*
X188819262Y-38541800D01*
G75*
G02*
X189091000Y-38813538I0J-271738D01*
G01*
X189091000Y-39520062D01*
G75*
G02*
X188819262Y-39791800I-271738J0D01*
G01*
G37*
G36*
G01*
X188819262Y-41841800D02*
X187862738Y-41841800D01*
G75*
G02*
X187591000Y-41570062I0J271738D01*
G01*
X187591000Y-40863538D01*
G75*
G02*
X187862738Y-40591800I271738J0D01*
G01*
X188819262Y-40591800D01*
G75*
G02*
X189091000Y-40863538I0J-271738D01*
G01*
X189091000Y-41570062D01*
G75*
G02*
X188819262Y-41841800I-271738J0D01*
G01*
G37*
%TD*%
%TO.C, *%
G36*
G01*
X190978262Y-39791800D02*
X190021738Y-39791800D01*
G75*
G02*
X189750000Y-39520062I0J271738D01*
G01*
X189750000Y-38813538D01*
G75*
G02*
X190021738Y-38541800I271738J0D01*
G01*
X190978262Y-38541800D01*
G75*
G02*
X191250000Y-38813538I0J-271738D01*
G01*
X191250000Y-39520062D01*
G75*
G02*
X190978262Y-39791800I-271738J0D01*
G01*
G37*
G36*
G01*
X190978262Y-41841800D02*
X190021738Y-41841800D01*
G75*
G02*
X189750000Y-41570062I0J271738D01*
G01*
X189750000Y-40863538D01*
G75*
G02*
X190021738Y-40591800I271738J0D01*
G01*
X190978262Y-40591800D01*
G75*
G02*
X191250000Y-40863538I0J-271738D01*
G01*
X191250000Y-41570062D01*
G75*
G02*
X190978262Y-41841800I-271738J0D01*
G01*
G37*
%TD*%
%TO.C, *%
G36*
G01*
X168118262Y-46014800D02*
X167161738Y-46014800D01*
G75*
G02*
X166890000Y-45743062I0J271738D01*
G01*
X166890000Y-45036538D01*
G75*
G02*
X167161738Y-44764800I271738J0D01*
G01*
X168118262Y-44764800D01*
G75*
G02*
X168390000Y-45036538I0J-271738D01*
G01*
X168390000Y-45743062D01*
G75*
G02*
X168118262Y-46014800I-271738J0D01*
G01*
G37*
G36*
G01*
X168118262Y-48064800D02*
X167161738Y-48064800D01*
G75*
G02*
X166890000Y-47793062I0J271738D01*
G01*
X166890000Y-47086538D01*
G75*
G02*
X167161738Y-46814800I271738J0D01*
G01*
X168118262Y-46814800D01*
G75*
G02*
X168390000Y-47086538I0J-271738D01*
G01*
X168390000Y-47793062D01*
G75*
G02*
X168118262Y-48064800I-271738J0D01*
G01*
G37*
%TD*%
%TO.C, *%
G36*
G01*
X183036738Y-32413000D02*
X183993262Y-32413000D01*
G75*
G02*
X184265000Y-32684738I0J-271738D01*
G01*
X184265000Y-33391262D01*
G75*
G02*
X183993262Y-33663000I-271738J0D01*
G01*
X183036738Y-33663000D01*
G75*
G02*
X182765000Y-33391262I0J271738D01*
G01*
X182765000Y-32684738D01*
G75*
G02*
X183036738Y-32413000I271738J0D01*
G01*
G37*
G36*
G01*
X183036738Y-30363000D02*
X183993262Y-30363000D01*
G75*
G02*
X184265000Y-30634738I0J-271738D01*
G01*
X184265000Y-31341262D01*
G75*
G02*
X183993262Y-31613000I-271738J0D01*
G01*
X183036738Y-31613000D01*
G75*
G02*
X182765000Y-31341262I0J271738D01*
G01*
X182765000Y-30634738D01*
G75*
G02*
X183036738Y-30363000I271738J0D01*
G01*
G37*
%TD*%
D14*
%TO.C,MX9*%
X212725000Y-98425000D03*
D15*
X207645000Y-98425000D03*
X217805000Y-98425000D03*
%TD*%
D14*
%TO.C,MX8*%
X193675000Y-98425000D03*
D15*
X188595000Y-98425000D03*
X198755000Y-98425000D03*
%TD*%
D14*
%TO.C,MX7*%
X174625000Y-98425000D03*
D15*
X169545000Y-98425000D03*
X179705000Y-98425000D03*
%TD*%
D14*
%TO.C,MX6*%
X212725000Y-79375000D03*
D15*
X207645000Y-79375000D03*
X217805000Y-79375000D03*
%TD*%
D14*
%TO.C,MX5*%
X193675000Y-79375000D03*
D15*
X188595000Y-79375000D03*
X198755000Y-79375000D03*
%TD*%
D14*
%TO.C,MX4*%
X174625000Y-79375000D03*
D15*
X169545000Y-79375000D03*
X179705000Y-79375000D03*
%TD*%
D14*
%TO.C,MX3*%
X212725000Y-60325000D03*
D15*
X207645000Y-60325000D03*
X217805000Y-60325000D03*
%TD*%
D14*
%TO.C,MX2*%
X193675000Y-60325000D03*
D15*
X188595000Y-60325000D03*
X198755000Y-60325000D03*
%TD*%
D14*
%TO.C,MX1*%
X174625000Y-60325000D03*
D15*
X169545000Y-60325000D03*
X179705000Y-60325000D03*
%TD*%
D16*
%TO.C, *%
X197873000Y-30452800D03*
X189223000Y-30452800D03*
X189223000Y-33832800D03*
X197873000Y-33832800D03*
D17*
X196523000Y-33462800D03*
X195673000Y-33462800D03*
X194823000Y-33462800D03*
X193973000Y-33462800D03*
X193123000Y-33462800D03*
X192273000Y-33462800D03*
X191423000Y-33462800D03*
X190573000Y-33462800D03*
X190573000Y-34812800D03*
X191423000Y-34812800D03*
X192273000Y-34812800D03*
X193123000Y-34812800D03*
X193973000Y-34812800D03*
X194823000Y-34812800D03*
X195673000Y-34812800D03*
X196523000Y-34812800D03*
%TD*%
%TO.C, *%
G36*
G01*
X183036738Y-41582400D02*
X183993262Y-41582400D01*
G75*
G02*
X184265000Y-41854138I0J-271738D01*
G01*
X184265000Y-42560662D01*
G75*
G02*
X183993262Y-42832400I-271738J0D01*
G01*
X183036738Y-42832400D01*
G75*
G02*
X182765000Y-42560662I0J271738D01*
G01*
X182765000Y-41854138D01*
G75*
G02*
X183036738Y-41582400I271738J0D01*
G01*
G37*
G36*
G01*
X183036738Y-39532400D02*
X183993262Y-39532400D01*
G75*
G02*
X184265000Y-39804138I0J-271738D01*
G01*
X184265000Y-40510662D01*
G75*
G02*
X183993262Y-40782400I-271738J0D01*
G01*
X183036738Y-40782400D01*
G75*
G02*
X182765000Y-40510662I0J271738D01*
G01*
X182765000Y-39804138D01*
G75*
G02*
X183036738Y-39532400I271738J0D01*
G01*
G37*
%TD*%
%TO.C, *%
G36*
G01*
X183036738Y-46256000D02*
X183993262Y-46256000D01*
G75*
G02*
X184265000Y-46527738I0J-271738D01*
G01*
X184265000Y-47234262D01*
G75*
G02*
X183993262Y-47506000I-271738J0D01*
G01*
X183036738Y-47506000D01*
G75*
G02*
X182765000Y-47234262I0J271738D01*
G01*
X182765000Y-46527738D01*
G75*
G02*
X183036738Y-46256000I271738J0D01*
G01*
G37*
G36*
G01*
X183036738Y-44206000D02*
X183993262Y-44206000D01*
G75*
G02*
X184265000Y-44477738I0J-271738D01*
G01*
X184265000Y-45184262D01*
G75*
G02*
X183993262Y-45456000I-271738J0D01*
G01*
X183036738Y-45456000D01*
G75*
G02*
X182765000Y-45184262I0J271738D01*
G01*
X182765000Y-44477738D01*
G75*
G02*
X183036738Y-44206000I271738J0D01*
G01*
G37*
%TD*%
%TO.C, *%
G36*
G01*
X183036738Y-37772400D02*
X183993262Y-37772400D01*
G75*
G02*
X184265000Y-38044138I0J-271738D01*
G01*
X184265000Y-38750662D01*
G75*
G02*
X183993262Y-39022400I-271738J0D01*
G01*
X183036738Y-39022400D01*
G75*
G02*
X182765000Y-38750662I0J271738D01*
G01*
X182765000Y-38044138D01*
G75*
G02*
X183036738Y-37772400I271738J0D01*
G01*
G37*
G36*
G01*
X183036738Y-35722400D02*
X183993262Y-35722400D01*
G75*
G02*
X184265000Y-35994138I0J-271738D01*
G01*
X184265000Y-36700662D01*
G75*
G02*
X183993262Y-36972400I-271738J0D01*
G01*
X183036738Y-36972400D01*
G75*
G02*
X182765000Y-36700662I0J271738D01*
G01*
X182765000Y-35994138D01*
G75*
G02*
X183036738Y-35722400I271738J0D01*
G01*
G37*
%TD*%
%TO.C, *%
G36*
G01*
X168118262Y-36566000D02*
X167161738Y-36566000D01*
G75*
G02*
X166890000Y-36294262I0J271738D01*
G01*
X166890000Y-35587738D01*
G75*
G02*
X167161738Y-35316000I271738J0D01*
G01*
X168118262Y-35316000D01*
G75*
G02*
X168390000Y-35587738I0J-271738D01*
G01*
X168390000Y-36294262D01*
G75*
G02*
X168118262Y-36566000I-271738J0D01*
G01*
G37*
G36*
G01*
X168118262Y-38616000D02*
X167161738Y-38616000D01*
G75*
G02*
X166890000Y-38344262I0J271738D01*
G01*
X166890000Y-37637738D01*
G75*
G02*
X167161738Y-37366000I271738J0D01*
G01*
X168118262Y-37366000D01*
G75*
G02*
X168390000Y-37637738I0J-271738D01*
G01*
X168390000Y-38344262D01*
G75*
G02*
X168118262Y-38616000I-271738J0D01*
G01*
G37*
%TD*%
%TO.C, *%
G36*
G01*
X170110200Y-48823138D02*
X170110200Y-49779662D01*
G75*
G02*
X169838462Y-50051400I-271738J0D01*
G01*
X169131938Y-50051400D01*
G75*
G02*
X168860200Y-49779662I0J271738D01*
G01*
X168860200Y-48823138D01*
G75*
G02*
X169131938Y-48551400I271738J0D01*
G01*
X169838462Y-48551400D01*
G75*
G02*
X170110200Y-48823138I0J-271738D01*
G01*
G37*
G36*
G01*
X172160200Y-48823138D02*
X172160200Y-49779662D01*
G75*
G02*
X171888462Y-50051400I-271738J0D01*
G01*
X171181938Y-50051400D01*
G75*
G02*
X170910200Y-49779662I0J271738D01*
G01*
X170910200Y-48823138D01*
G75*
G02*
X171181938Y-48551400I271738J0D01*
G01*
X171888462Y-48551400D01*
G75*
G02*
X172160200Y-48823138I0J-271738D01*
G01*
G37*
%TD*%
%TO.C, *%
G36*
G01*
X180943200Y-49754262D02*
X180943200Y-48797738D01*
G75*
G02*
X181214938Y-48526000I271738J0D01*
G01*
X181921462Y-48526000D01*
G75*
G02*
X182193200Y-48797738I0J-271738D01*
G01*
X182193200Y-49754262D01*
G75*
G02*
X181921462Y-50026000I-271738J0D01*
G01*
X181214938Y-50026000D01*
G75*
G02*
X180943200Y-49754262I0J271738D01*
G01*
G37*
G36*
G01*
X178893200Y-49754262D02*
X178893200Y-48797738D01*
G75*
G02*
X179164938Y-48526000I271738J0D01*
G01*
X179871462Y-48526000D01*
G75*
G02*
X180143200Y-48797738I0J-271738D01*
G01*
X180143200Y-49754262D01*
G75*
G02*
X179871462Y-50026000I-271738J0D01*
G01*
X179164938Y-50026000D01*
G75*
G02*
X178893200Y-49754262I0J271738D01*
G01*
G37*
%TD*%
%TO.C, *%
G36*
G01*
X170844738Y-32395000D02*
X171801262Y-32395000D01*
G75*
G02*
X172073000Y-32666738I0J-271738D01*
G01*
X172073000Y-33373262D01*
G75*
G02*
X171801262Y-33645000I-271738J0D01*
G01*
X170844738Y-33645000D01*
G75*
G02*
X170573000Y-33373262I0J271738D01*
G01*
X170573000Y-32666738D01*
G75*
G02*
X170844738Y-32395000I271738J0D01*
G01*
G37*
G36*
G01*
X170844738Y-30345000D02*
X171801262Y-30345000D01*
G75*
G02*
X172073000Y-30616738I0J-271738D01*
G01*
X172073000Y-31323262D01*
G75*
G02*
X171801262Y-31595000I-271738J0D01*
G01*
X170844738Y-31595000D01*
G75*
G02*
X170573000Y-31323262I0J271738D01*
G01*
X170573000Y-30616738D01*
G75*
G02*
X170844738Y-30345000I271738J0D01*
G01*
G37*
%TD*%
%TO.C, *%
G36*
G01*
X179480738Y-32413000D02*
X180437262Y-32413000D01*
G75*
G02*
X180709000Y-32684738I0J-271738D01*
G01*
X180709000Y-33391262D01*
G75*
G02*
X180437262Y-33663000I-271738J0D01*
G01*
X179480738Y-33663000D01*
G75*
G02*
X179209000Y-33391262I0J271738D01*
G01*
X179209000Y-32684738D01*
G75*
G02*
X179480738Y-32413000I271738J0D01*
G01*
G37*
G36*
G01*
X179480738Y-30363000D02*
X180437262Y-30363000D01*
G75*
G02*
X180709000Y-30634738I0J-271738D01*
G01*
X180709000Y-31341262D01*
G75*
G02*
X180437262Y-31613000I-271738J0D01*
G01*
X179480738Y-31613000D01*
G75*
G02*
X179209000Y-31341262I0J271738D01*
G01*
X179209000Y-30634738D01*
G75*
G02*
X179480738Y-30363000I271738J0D01*
G01*
G37*
%TD*%
M02*
