M48
; DRILL file {KiCad (5.1.6)-1} date 08/31/20 14:33:42
; FORMAT={-:-/ absolute / inch / decimal}
; #@! TF.CreationDate,2020-08-31T14:33:42-05:00
; #@! TF.GenerationSoftware,Kicad,Pcbnew,(5.1.6)-1
; #@! TF.FileFunction,NonPlated,1,2,NPTH
FMAT,2
INCH
T1C0.0689
T2C0.1570
%
G90
G05
T1
X7.825Y-3.125
X6.675Y-3.875
X8.175Y-3.875
X6.675Y-3.125
X8.175Y-2.375
X8.575Y-2.375
X6.675Y-2.375
X7.075Y-2.375
X7.425Y-3.125
X7.075Y-3.875
X8.175Y-3.125
X8.575Y-3.125
X7.425Y-3.875
X7.825Y-3.875
X7.425Y-2.375
X7.825Y-2.375
X8.575Y-3.875
X7.075Y-3.125
T2
X6.875Y-3.125
X8.375Y-2.375
X6.875Y-2.375
X7.625Y-3.125
X6.875Y-3.875
X8.375Y-3.125
X7.625Y-3.875
X7.625Y-2.375
X8.375Y-3.875
T0
M30
