%TF.GenerationSoftware,KiCad,Pcbnew,(5.1.6)-1*%
%TF.CreationDate,2020-08-31T14:33:41-05:00*%
%TF.ProjectId,totoro-pcb-macropad,746f746f-726f-42d7-9063-622d6d616372,rev?*%
%TF.SameCoordinates,Original*%
%TF.FileFunction,Legend,Bot*%
%TF.FilePolarity,Positive*%
%FSLAX46Y46*%
G04 Gerber Fmt 4.6, Leading zero omitted, Abs format (unit mm)*
G04 Created by KiCad (PCBNEW (5.1.6)-1) date 2020-08-31 14:33:41*
%MOMM*%
%LPD*%
G01*
G04 APERTURE LIST*
%ADD10C,0.150000*%
%ADD11C,0.120000*%
G04 APERTURE END LIST*
D10*
X219959228Y-38936085D02*
X219959228Y-38602752D01*
X219435419Y-38459895D02*
X219435419Y-38936085D01*
X220435419Y-38936085D01*
X220435419Y-38459895D01*
X219483038Y-38078942D02*
X219435419Y-37983704D01*
X219435419Y-37793228D01*
X219483038Y-37697990D01*
X219578276Y-37650371D01*
X219625895Y-37650371D01*
X219721133Y-37697990D01*
X219768752Y-37793228D01*
X219768752Y-37936085D01*
X219816371Y-38031323D01*
X219911609Y-38078942D01*
X219959228Y-38078942D01*
X220054466Y-38031323D01*
X220102085Y-37936085D01*
X220102085Y-37793228D01*
X220054466Y-37697990D01*
X219483038Y-36793228D02*
X219435419Y-36888466D01*
X219435419Y-37078942D01*
X219483038Y-37174180D01*
X219530657Y-37221800D01*
X219625895Y-37269419D01*
X219911609Y-37269419D01*
X220006847Y-37221800D01*
X220054466Y-37174180D01*
X220102085Y-37078942D01*
X220102085Y-36888466D01*
X220054466Y-36793228D01*
X219435419Y-36364657D02*
X220435419Y-36364657D01*
X219435419Y-35936085D02*
X219959228Y-35936085D01*
X220054466Y-35983704D01*
X220102085Y-36078942D01*
X220102085Y-36221800D01*
X220054466Y-36317038D01*
X220006847Y-36364657D01*
X219483038Y-35078942D02*
X219435419Y-35174180D01*
X219435419Y-35364657D01*
X219483038Y-35459895D01*
X219578276Y-35507514D01*
X219959228Y-35507514D01*
X220054466Y-35459895D01*
X220102085Y-35364657D01*
X220102085Y-35174180D01*
X220054466Y-35078942D01*
X219959228Y-35031323D01*
X219863990Y-35031323D01*
X219768752Y-35507514D01*
X220340180Y-33888466D02*
X220387800Y-33840847D01*
X220435419Y-33745609D01*
X220435419Y-33507514D01*
X220387800Y-33412276D01*
X220340180Y-33364657D01*
X220244942Y-33317038D01*
X220149704Y-33317038D01*
X220006847Y-33364657D01*
X219435419Y-33936085D01*
X219435419Y-33317038D01*
X220435419Y-32697990D02*
X220435419Y-32602752D01*
X220387800Y-32507514D01*
X220340180Y-32459895D01*
X220244942Y-32412276D01*
X220054466Y-32364657D01*
X219816371Y-32364657D01*
X219625895Y-32412276D01*
X219530657Y-32459895D01*
X219483038Y-32507514D01*
X219435419Y-32602752D01*
X219435419Y-32697990D01*
X219483038Y-32793228D01*
X219530657Y-32840847D01*
X219625895Y-32888466D01*
X219816371Y-32936085D01*
X220054466Y-32936085D01*
X220244942Y-32888466D01*
X220340180Y-32840847D01*
X220387800Y-32793228D01*
X220435419Y-32697990D01*
X220340180Y-31983704D02*
X220387800Y-31936085D01*
X220435419Y-31840847D01*
X220435419Y-31602752D01*
X220387800Y-31507514D01*
X220340180Y-31459895D01*
X220244942Y-31412276D01*
X220149704Y-31412276D01*
X220006847Y-31459895D01*
X219435419Y-32031323D01*
X219435419Y-31412276D01*
X220435419Y-30793228D02*
X220435419Y-30697990D01*
X220387800Y-30602752D01*
X220340180Y-30555133D01*
X220244942Y-30507514D01*
X220054466Y-30459895D01*
X219816371Y-30459895D01*
X219625895Y-30507514D01*
X219530657Y-30555133D01*
X219483038Y-30602752D01*
X219435419Y-30697990D01*
X219435419Y-30793228D01*
X219483038Y-30888466D01*
X219530657Y-30936085D01*
X219625895Y-30983704D01*
X219816371Y-31031323D01*
X220054466Y-31031323D01*
X220244942Y-30983704D01*
X220340180Y-30936085D01*
X220387800Y-30888466D01*
X220435419Y-30793228D01*
D11*
%TO.C, *%
X210475000Y-105267000D02*
X210475000Y-103267000D01*
X210475000Y-103267000D02*
X214375000Y-103267000D01*
X210475000Y-105267000D02*
X214375000Y-105267000D01*
X191425000Y-105267000D02*
X191425000Y-103267000D01*
X191425000Y-103267000D02*
X195325000Y-103267000D01*
X191425000Y-105267000D02*
X195325000Y-105267000D01*
X172375000Y-105267000D02*
X172375000Y-103267000D01*
X172375000Y-103267000D02*
X176275000Y-103267000D01*
X172375000Y-105267000D02*
X176275000Y-105267000D01*
X210475000Y-86217000D02*
X210475000Y-84217000D01*
X210475000Y-84217000D02*
X214375000Y-84217000D01*
X210475000Y-86217000D02*
X214375000Y-86217000D01*
X191425000Y-86217000D02*
X191425000Y-84217000D01*
X191425000Y-84217000D02*
X195325000Y-84217000D01*
X191425000Y-86217000D02*
X195325000Y-86217000D01*
X172375000Y-86217000D02*
X172375000Y-84217000D01*
X172375000Y-84217000D02*
X176275000Y-84217000D01*
X172375000Y-86217000D02*
X176275000Y-86217000D01*
X210475000Y-67167000D02*
X210475000Y-65167000D01*
X210475000Y-65167000D02*
X214375000Y-65167000D01*
X210475000Y-67167000D02*
X214375000Y-67167000D01*
X191425000Y-67167000D02*
X191425000Y-65167000D01*
X191425000Y-65167000D02*
X195325000Y-65167000D01*
X191425000Y-67167000D02*
X195325000Y-67167000D01*
X172375000Y-67167000D02*
X172375000Y-65167000D01*
X172375000Y-65167000D02*
X176275000Y-65167000D01*
X172375000Y-67167000D02*
X176275000Y-67167000D01*
D10*
%TD*%
M02*
