%TF.GenerationSoftware,KiCad,Pcbnew,(5.1.6)-1*%
%TF.CreationDate,2020-08-31T14:33:41-05:00*%
%TF.ProjectId,totoro-pcb-macropad,746f746f-726f-42d7-9063-622d6d616372,rev?*%
%TF.SameCoordinates,Original*%
%TF.FileFunction,Copper,L1,Top*%
%TF.FilePolarity,Positive*%
%FSLAX46Y46*%
G04 Gerber Fmt 4.6, Leading zero omitted, Abs format (unit mm)*
G04 Created by KiCad (PCBNEW (5.1.6)-1) date 2020-08-31 14:33:41*
%MOMM*%
%LPD*%
G01*
G04 APERTURE LIST*
%TA.AperFunction,SMDPad,CuDef*%
%ADD10R,2.100000X1.800000*%
%TD*%
%TA.AperFunction,SMDPad,CuDef*%
%ADD11R,0.550000X1.500000*%
%TD*%
%TA.AperFunction,SMDPad,CuDef*%
%ADD12R,1.500000X0.550000*%
%TD*%
%TA.AperFunction,SMDPad,CuDef*%
%ADD13R,1.700000X1.000000*%
%TD*%
%TA.AperFunction,ComponentPad*%
%ADD14C,2.250000*%
%TD*%
%TA.AperFunction,ComponentPad*%
%ADD15O,1.108000X2.216000*%
%TD*%
%TA.AperFunction,ComponentPad*%
%ADD16C,0.650000*%
%TD*%
%TA.AperFunction,ViaPad*%
%ADD17C,0.800000*%
%TD*%
%TA.AperFunction,Conductor*%
%ADD18C,0.400000*%
%TD*%
%TA.AperFunction,Conductor*%
%ADD19C,0.300000*%
%TD*%
%TA.AperFunction,Conductor*%
%ADD20C,0.254000*%
%TD*%
G04 APERTURE END LIST*
%TO.P, ,2*%
%TO.N,VCC*%
%TA.AperFunction,SMDPad,CuDef*%
G36*
G01*
X194554000Y-39407800D02*
X193304000Y-39407800D01*
G75*
G02*
X193054000Y-39157800I0J250000D01*
G01*
X193054000Y-38232800D01*
G75*
G02*
X193304000Y-37982800I250000J0D01*
G01*
X194554000Y-37982800D01*
G75*
G02*
X194804000Y-38232800I0J-250000D01*
G01*
X194804000Y-39157800D01*
G75*
G02*
X194554000Y-39407800I-250000J0D01*
G01*
G37*
%TD.AperFunction*%
%TO.P, ,1*%
%TO.N,+5V*%
%TA.AperFunction,SMDPad,CuDef*%
G36*
G01*
X194554000Y-42382800D02*
X193304000Y-42382800D01*
G75*
G02*
X193054000Y-42132800I0J250000D01*
G01*
X193054000Y-41207800D01*
G75*
G02*
X193304000Y-40957800I250000J0D01*
G01*
X194554000Y-40957800D01*
G75*
G02*
X194804000Y-41207800I0J-250000D01*
G01*
X194804000Y-42132800D01*
G75*
G02*
X194554000Y-42382800I-250000J0D01*
G01*
G37*
%TD.AperFunction*%
%TD*%
D10*
%TO.P, ,4*%
%TO.N,N/C*%
X177091000Y-33104000D03*
%TO.P, ,3*%
%TO.N,GND*%
X174191000Y-33104000D03*
%TO.P, ,2*%
%TO.N,Net-(C2-Pad1)*%
X174191000Y-30904000D03*
%TO.P, ,1*%
%TO.N,Net-(C1-Pad1)*%
X177091000Y-30904000D03*
%TD*%
D11*
%TO.P, ,44*%
%TO.N,+5V*%
X179514000Y-47102000D03*
%TO.P, ,43*%
%TO.N,GND*%
X178714000Y-47102000D03*
%TO.P, ,42*%
%TO.N,Net-(U1-Pad42)*%
X177914000Y-47102000D03*
%TO.P, ,41*%
%TO.N,COL2*%
X177114000Y-47102000D03*
%TO.P, ,40*%
%TO.N,COL1*%
X176314000Y-47102000D03*
%TO.P, ,39*%
%TO.N,COL0*%
X175514000Y-47102000D03*
%TO.P, ,38*%
%TO.N,ROW0*%
X174714000Y-47102000D03*
%TO.P, ,37*%
%TO.N,ROW1*%
X173914000Y-47102000D03*
%TO.P, ,36*%
%TO.N,ROW2*%
X173114000Y-47102000D03*
%TO.P, ,35*%
%TO.N,GND*%
X172314000Y-47102000D03*
%TO.P, ,34*%
%TO.N,+5V*%
X171514000Y-47102000D03*
D12*
%TO.P, ,33*%
%TO.N,Net-(R2-Pad2)*%
X169814000Y-45402000D03*
%TO.P, ,32*%
%TO.N,Net-(U1-Pad32)*%
X169814000Y-44602000D03*
%TO.P, ,31*%
%TO.N,Net-(U1-Pad31)*%
X169814000Y-43802000D03*
%TO.P, ,30*%
%TO.N,Net-(U1-Pad30)*%
X169814000Y-43002000D03*
%TO.P, ,29*%
%TO.N,Net-(U1-Pad29)*%
X169814000Y-42202000D03*
%TO.P, ,28*%
%TO.N,Net-(U1-Pad28)*%
X169814000Y-41402000D03*
%TO.P, ,27*%
%TO.N,Net-(U1-Pad27)*%
X169814000Y-40602000D03*
%TO.P, ,26*%
%TO.N,Net-(U1-Pad26)*%
X169814000Y-39802000D03*
%TO.P, ,25*%
%TO.N,Net-(U1-Pad25)*%
X169814000Y-39002000D03*
%TO.P, ,24*%
%TO.N,+5V*%
X169814000Y-38202000D03*
%TO.P, ,23*%
%TO.N,GND*%
X169814000Y-37402000D03*
D11*
%TO.P, ,22*%
%TO.N,Net-(U1-Pad22)*%
X171514000Y-35702000D03*
%TO.P, ,21*%
%TO.N,Net-(U1-Pad21)*%
X172314000Y-35702000D03*
%TO.P, ,20*%
%TO.N,Net-(U1-Pad20)*%
X173114000Y-35702000D03*
%TO.P, ,19*%
%TO.N,Net-(U1-Pad19)*%
X173914000Y-35702000D03*
%TO.P, ,18*%
%TO.N,Net-(U1-Pad18)*%
X174714000Y-35702000D03*
%TO.P, ,17*%
%TO.N,Net-(C2-Pad1)*%
X175514000Y-35702000D03*
%TO.P, ,16*%
%TO.N,Net-(C1-Pad1)*%
X176314000Y-35702000D03*
%TO.P, ,15*%
%TO.N,GND*%
X177114000Y-35702000D03*
%TO.P, ,14*%
%TO.N,+5V*%
X177914000Y-35702000D03*
%TO.P, ,13*%
%TO.N,Net-(R1-Pad1)*%
X178714000Y-35702000D03*
%TO.P, ,12*%
%TO.N,Net-(U1-Pad12)*%
X179514000Y-35702000D03*
D12*
%TO.P, ,11*%
%TO.N,Net-(U1-Pad11)*%
X181214000Y-37402000D03*
%TO.P, ,10*%
%TO.N,Net-(U1-Pad10)*%
X181214000Y-38202000D03*
%TO.P, ,9*%
%TO.N,Net-(U1-Pad9)*%
X181214000Y-39002000D03*
%TO.P, ,8*%
%TO.N,Net-(U1-Pad8)*%
X181214000Y-39802000D03*
%TO.P, ,7*%
%TO.N,+5V*%
X181214000Y-40602000D03*
%TO.P, ,6*%
%TO.N,Net-(C8-Pad1)*%
X181214000Y-41402000D03*
%TO.P, ,5*%
%TO.N,GND*%
X181214000Y-42202000D03*
%TO.P, ,4*%
%TO.N,Net-(R3-Pad1)*%
X181214000Y-43002000D03*
%TO.P, ,3*%
%TO.N,Net-(R4-Pad1)*%
X181214000Y-43802000D03*
%TO.P, ,2*%
%TO.N,+5V*%
X181214000Y-44602000D03*
%TO.P, ,1*%
%TO.N,Net-(U1-Pad1)*%
X181214000Y-45402000D03*
%TD*%
D13*
%TO.P, ,2*%
%TO.N,Net-(R1-Pad1)*%
X218542000Y-36190000D03*
X212242000Y-36190000D03*
%TO.P, ,1*%
%TO.N,GND*%
X218542000Y-32390000D03*
X212242000Y-32390000D03*
%TD*%
%TO.P, ,2*%
%TO.N,GND*%
%TA.AperFunction,SMDPad,CuDef*%
G36*
G01*
X196907999Y-40667200D02*
X197808001Y-40667200D01*
G75*
G02*
X198058000Y-40917199I0J-249999D01*
G01*
X198058000Y-41567201D01*
G75*
G02*
X197808001Y-41817200I-249999J0D01*
G01*
X196907999Y-41817200D01*
G75*
G02*
X196658000Y-41567201I0J249999D01*
G01*
X196658000Y-40917199D01*
G75*
G02*
X196907999Y-40667200I249999J0D01*
G01*
G37*
%TD.AperFunction*%
%TO.P, ,1*%
%TO.N,Net-(J1-PadA5)*%
%TA.AperFunction,SMDPad,CuDef*%
G36*
G01*
X196907999Y-38617200D02*
X197808001Y-38617200D01*
G75*
G02*
X198058000Y-38867199I0J-249999D01*
G01*
X198058000Y-39517201D01*
G75*
G02*
X197808001Y-39767200I-249999J0D01*
G01*
X196907999Y-39767200D01*
G75*
G02*
X196658000Y-39517201I0J249999D01*
G01*
X196658000Y-38867199D01*
G75*
G02*
X196907999Y-38617200I249999J0D01*
G01*
G37*
%TD.AperFunction*%
%TD*%
%TO.P, ,2*%
%TO.N,Net-(J1-PadB5)*%
%TA.AperFunction,SMDPad,CuDef*%
G36*
G01*
X199967001Y-39783600D02*
X199066999Y-39783600D01*
G75*
G02*
X198817000Y-39533601I0J249999D01*
G01*
X198817000Y-38883599D01*
G75*
G02*
X199066999Y-38633600I249999J0D01*
G01*
X199967001Y-38633600D01*
G75*
G02*
X200217000Y-38883599I0J-249999D01*
G01*
X200217000Y-39533601D01*
G75*
G02*
X199967001Y-39783600I-249999J0D01*
G01*
G37*
%TD.AperFunction*%
%TO.P, ,1*%
%TO.N,GND*%
%TA.AperFunction,SMDPad,CuDef*%
G36*
G01*
X199967001Y-41833600D02*
X199066999Y-41833600D01*
G75*
G02*
X198817000Y-41583601I0J249999D01*
G01*
X198817000Y-40933599D01*
G75*
G02*
X199066999Y-40683600I249999J0D01*
G01*
X199967001Y-40683600D01*
G75*
G02*
X200217000Y-40933599I0J-249999D01*
G01*
X200217000Y-41583601D01*
G75*
G02*
X199967001Y-41833600I-249999J0D01*
G01*
G37*
%TD.AperFunction*%
%TD*%
%TO.P, ,2*%
%TO.N,Net-(J1-PadA7)*%
%TA.AperFunction,SMDPad,CuDef*%
G36*
G01*
X188791001Y-39741800D02*
X187890999Y-39741800D01*
G75*
G02*
X187641000Y-39491801I0J249999D01*
G01*
X187641000Y-38841799D01*
G75*
G02*
X187890999Y-38591800I249999J0D01*
G01*
X188791001Y-38591800D01*
G75*
G02*
X189041000Y-38841799I0J-249999D01*
G01*
X189041000Y-39491801D01*
G75*
G02*
X188791001Y-39741800I-249999J0D01*
G01*
G37*
%TD.AperFunction*%
%TO.P, ,1*%
%TO.N,Net-(R4-Pad1)*%
%TA.AperFunction,SMDPad,CuDef*%
G36*
G01*
X188791001Y-41791800D02*
X187890999Y-41791800D01*
G75*
G02*
X187641000Y-41541801I0J249999D01*
G01*
X187641000Y-40891799D01*
G75*
G02*
X187890999Y-40641800I249999J0D01*
G01*
X188791001Y-40641800D01*
G75*
G02*
X189041000Y-40891799I0J-249999D01*
G01*
X189041000Y-41541801D01*
G75*
G02*
X188791001Y-41791800I-249999J0D01*
G01*
G37*
%TD.AperFunction*%
%TD*%
%TO.P, ,2*%
%TO.N,Net-(J1-PadA6)*%
%TA.AperFunction,SMDPad,CuDef*%
G36*
G01*
X190950001Y-39741800D02*
X190049999Y-39741800D01*
G75*
G02*
X189800000Y-39491801I0J249999D01*
G01*
X189800000Y-38841799D01*
G75*
G02*
X190049999Y-38591800I249999J0D01*
G01*
X190950001Y-38591800D01*
G75*
G02*
X191200000Y-38841799I0J-249999D01*
G01*
X191200000Y-39491801D01*
G75*
G02*
X190950001Y-39741800I-249999J0D01*
G01*
G37*
%TD.AperFunction*%
%TO.P, ,1*%
%TO.N,Net-(R3-Pad1)*%
%TA.AperFunction,SMDPad,CuDef*%
G36*
G01*
X190950001Y-41791800D02*
X190049999Y-41791800D01*
G75*
G02*
X189800000Y-41541801I0J249999D01*
G01*
X189800000Y-40891799D01*
G75*
G02*
X190049999Y-40641800I249999J0D01*
G01*
X190950001Y-40641800D01*
G75*
G02*
X191200000Y-40891799I0J-249999D01*
G01*
X191200000Y-41541801D01*
G75*
G02*
X190950001Y-41791800I-249999J0D01*
G01*
G37*
%TD.AperFunction*%
%TD*%
%TO.P, ,2*%
%TO.N,Net-(R2-Pad2)*%
%TA.AperFunction,SMDPad,CuDef*%
G36*
G01*
X168090001Y-45964800D02*
X167189999Y-45964800D01*
G75*
G02*
X166940000Y-45714801I0J249999D01*
G01*
X166940000Y-45064799D01*
G75*
G02*
X167189999Y-44814800I249999J0D01*
G01*
X168090001Y-44814800D01*
G75*
G02*
X168340000Y-45064799I0J-249999D01*
G01*
X168340000Y-45714801D01*
G75*
G02*
X168090001Y-45964800I-249999J0D01*
G01*
G37*
%TD.AperFunction*%
%TO.P, ,1*%
%TO.N,GND*%
%TA.AperFunction,SMDPad,CuDef*%
G36*
G01*
X168090001Y-48014800D02*
X167189999Y-48014800D01*
G75*
G02*
X166940000Y-47764801I0J249999D01*
G01*
X166940000Y-47114799D01*
G75*
G02*
X167189999Y-46864800I249999J0D01*
G01*
X168090001Y-46864800D01*
G75*
G02*
X168340000Y-47114799I0J-249999D01*
G01*
X168340000Y-47764801D01*
G75*
G02*
X168090001Y-48014800I-249999J0D01*
G01*
G37*
%TD.AperFunction*%
%TD*%
%TO.P, ,2*%
%TO.N,+5V*%
%TA.AperFunction,SMDPad,CuDef*%
G36*
G01*
X183064999Y-32463000D02*
X183965001Y-32463000D01*
G75*
G02*
X184215000Y-32712999I0J-249999D01*
G01*
X184215000Y-33363001D01*
G75*
G02*
X183965001Y-33613000I-249999J0D01*
G01*
X183064999Y-33613000D01*
G75*
G02*
X182815000Y-33363001I0J249999D01*
G01*
X182815000Y-32712999D01*
G75*
G02*
X183064999Y-32463000I249999J0D01*
G01*
G37*
%TD.AperFunction*%
%TO.P, ,1*%
%TO.N,Net-(R1-Pad1)*%
%TA.AperFunction,SMDPad,CuDef*%
G36*
G01*
X183064999Y-30413000D02*
X183965001Y-30413000D01*
G75*
G02*
X184215000Y-30662999I0J-249999D01*
G01*
X184215000Y-31313001D01*
G75*
G02*
X183965001Y-31563000I-249999J0D01*
G01*
X183064999Y-31563000D01*
G75*
G02*
X182815000Y-31313001I0J249999D01*
G01*
X182815000Y-30662999D01*
G75*
G02*
X183064999Y-30413000I249999J0D01*
G01*
G37*
%TD.AperFunction*%
%TD*%
D14*
%TO.P,MX9,2*%
%TO.N,Net-(D9-Pad2)*%
X215265000Y-93345000D03*
%TO.P,MX9,1*%
%TO.N,COL2*%
X208915000Y-95885000D03*
%TD*%
%TO.P,MX8,2*%
%TO.N,Net-(D8-Pad2)*%
X196215000Y-93345000D03*
%TO.P,MX8,1*%
%TO.N,COL1*%
X189865000Y-95885000D03*
%TD*%
%TO.P,MX7,2*%
%TO.N,Net-(D7-Pad2)*%
X177165000Y-93345000D03*
%TO.P,MX7,1*%
%TO.N,COL0*%
X170815000Y-95885000D03*
%TD*%
%TO.P,MX6,2*%
%TO.N,Net-(D6-Pad2)*%
X215265000Y-74295000D03*
%TO.P,MX6,1*%
%TO.N,COL2*%
X208915000Y-76835000D03*
%TD*%
%TO.P,MX5,2*%
%TO.N,Net-(D5-Pad2)*%
X196215000Y-74295000D03*
%TO.P,MX5,1*%
%TO.N,COL1*%
X189865000Y-76835000D03*
%TD*%
%TO.P,MX4,2*%
%TO.N,Net-(D4-Pad2)*%
X177165000Y-74295000D03*
%TO.P,MX4,1*%
%TO.N,COL0*%
X170815000Y-76835000D03*
%TD*%
%TO.P,MX3,2*%
%TO.N,Net-(D3-Pad2)*%
X215265000Y-55245000D03*
%TO.P,MX3,1*%
%TO.N,COL2*%
X208915000Y-57785000D03*
%TD*%
%TO.P,MX2,2*%
%TO.N,Net-(D2-Pad2)*%
X196215000Y-55245000D03*
%TO.P,MX2,1*%
%TO.N,COL1*%
X189865000Y-57785000D03*
%TD*%
%TO.P,MX1,2*%
%TO.N,Net-(D1-Pad2)*%
X177165000Y-55245000D03*
%TO.P,MX1,1*%
%TO.N,COL0*%
X170815000Y-57785000D03*
%TD*%
D15*
%TO.P, ,P4*%
%TO.N,GND*%
X197873000Y-30452800D03*
%TO.P, ,P3*%
X189223000Y-30452800D03*
%TO.P, ,P2*%
X189223000Y-33832800D03*
%TO.P, ,P1*%
X197873000Y-33832800D03*
D16*
%TO.P, ,B12*%
X196523000Y-33462800D03*
%TO.P, ,B9*%
%TO.N,VCC*%
X195673000Y-33462800D03*
%TO.P, ,B8*%
%TO.N,Net-(J1-PadB8)*%
X194823000Y-33462800D03*
%TO.P, ,B7*%
%TO.N,Net-(J1-PadA7)*%
X193973000Y-33462800D03*
%TO.P, ,B6*%
%TO.N,Net-(J1-PadA6)*%
X193123000Y-33462800D03*
%TO.P, ,B5*%
%TO.N,Net-(J1-PadB5)*%
X192273000Y-33462800D03*
%TO.P, ,B4*%
%TO.N,VCC*%
X191423000Y-33462800D03*
%TO.P, ,B1*%
%TO.N,GND*%
X190573000Y-33462800D03*
%TO.P, ,A12*%
X190573000Y-34812800D03*
%TO.P, ,A9*%
%TO.N,VCC*%
X191423000Y-34812800D03*
%TO.P, ,A8*%
%TO.N,Net-(J1-PadA8)*%
X192273000Y-34812800D03*
%TO.P, ,A7*%
%TO.N,Net-(J1-PadA7)*%
X193123000Y-34812800D03*
%TO.P, ,A6*%
%TO.N,Net-(J1-PadA6)*%
X193973000Y-34812800D03*
%TO.P, ,A5*%
%TO.N,Net-(J1-PadA5)*%
X194823000Y-34812800D03*
%TO.P, ,A4*%
%TO.N,VCC*%
X195673000Y-34812800D03*
%TO.P, ,A1*%
%TO.N,GND*%
X196523000Y-34812800D03*
%TD*%
%TO.P, ,2*%
%TO.N,GND*%
%TA.AperFunction,SMDPad,CuDef*%
G36*
G01*
X183064999Y-41632400D02*
X183965001Y-41632400D01*
G75*
G02*
X184215000Y-41882399I0J-249999D01*
G01*
X184215000Y-42532401D01*
G75*
G02*
X183965001Y-42782400I-249999J0D01*
G01*
X183064999Y-42782400D01*
G75*
G02*
X182815000Y-42532401I0J249999D01*
G01*
X182815000Y-41882399D01*
G75*
G02*
X183064999Y-41632400I249999J0D01*
G01*
G37*
%TD.AperFunction*%
%TO.P, ,1*%
%TO.N,Net-(C8-Pad1)*%
%TA.AperFunction,SMDPad,CuDef*%
G36*
G01*
X183064999Y-39582400D02*
X183965001Y-39582400D01*
G75*
G02*
X184215000Y-39832399I0J-249999D01*
G01*
X184215000Y-40482401D01*
G75*
G02*
X183965001Y-40732400I-249999J0D01*
G01*
X183064999Y-40732400D01*
G75*
G02*
X182815000Y-40482401I0J249999D01*
G01*
X182815000Y-39832399D01*
G75*
G02*
X183064999Y-39582400I249999J0D01*
G01*
G37*
%TD.AperFunction*%
%TD*%
%TO.P, ,2*%
%TO.N,GND*%
%TA.AperFunction,SMDPad,CuDef*%
G36*
G01*
X183064999Y-46306000D02*
X183965001Y-46306000D01*
G75*
G02*
X184215000Y-46555999I0J-249999D01*
G01*
X184215000Y-47206001D01*
G75*
G02*
X183965001Y-47456000I-249999J0D01*
G01*
X183064999Y-47456000D01*
G75*
G02*
X182815000Y-47206001I0J249999D01*
G01*
X182815000Y-46555999D01*
G75*
G02*
X183064999Y-46306000I249999J0D01*
G01*
G37*
%TD.AperFunction*%
%TO.P, ,1*%
%TO.N,+5V*%
%TA.AperFunction,SMDPad,CuDef*%
G36*
G01*
X183064999Y-44256000D02*
X183965001Y-44256000D01*
G75*
G02*
X184215000Y-44505999I0J-249999D01*
G01*
X184215000Y-45156001D01*
G75*
G02*
X183965001Y-45406000I-249999J0D01*
G01*
X183064999Y-45406000D01*
G75*
G02*
X182815000Y-45156001I0J249999D01*
G01*
X182815000Y-44505999D01*
G75*
G02*
X183064999Y-44256000I249999J0D01*
G01*
G37*
%TD.AperFunction*%
%TD*%
%TO.P, ,2*%
%TO.N,GND*%
%TA.AperFunction,SMDPad,CuDef*%
G36*
G01*
X183064999Y-37822400D02*
X183965001Y-37822400D01*
G75*
G02*
X184215000Y-38072399I0J-249999D01*
G01*
X184215000Y-38722401D01*
G75*
G02*
X183965001Y-38972400I-249999J0D01*
G01*
X183064999Y-38972400D01*
G75*
G02*
X182815000Y-38722401I0J249999D01*
G01*
X182815000Y-38072399D01*
G75*
G02*
X183064999Y-37822400I249999J0D01*
G01*
G37*
%TD.AperFunction*%
%TO.P, ,1*%
%TO.N,+5V*%
%TA.AperFunction,SMDPad,CuDef*%
G36*
G01*
X183064999Y-35772400D02*
X183965001Y-35772400D01*
G75*
G02*
X184215000Y-36022399I0J-249999D01*
G01*
X184215000Y-36672401D01*
G75*
G02*
X183965001Y-36922400I-249999J0D01*
G01*
X183064999Y-36922400D01*
G75*
G02*
X182815000Y-36672401I0J249999D01*
G01*
X182815000Y-36022399D01*
G75*
G02*
X183064999Y-35772400I249999J0D01*
G01*
G37*
%TD.AperFunction*%
%TD*%
%TO.P, ,2*%
%TO.N,GND*%
%TA.AperFunction,SMDPad,CuDef*%
G36*
G01*
X168090001Y-36516000D02*
X167189999Y-36516000D01*
G75*
G02*
X166940000Y-36266001I0J249999D01*
G01*
X166940000Y-35615999D01*
G75*
G02*
X167189999Y-35366000I249999J0D01*
G01*
X168090001Y-35366000D01*
G75*
G02*
X168340000Y-35615999I0J-249999D01*
G01*
X168340000Y-36266001D01*
G75*
G02*
X168090001Y-36516000I-249999J0D01*
G01*
G37*
%TD.AperFunction*%
%TO.P, ,1*%
%TO.N,+5V*%
%TA.AperFunction,SMDPad,CuDef*%
G36*
G01*
X168090001Y-38566000D02*
X167189999Y-38566000D01*
G75*
G02*
X166940000Y-38316001I0J249999D01*
G01*
X166940000Y-37665999D01*
G75*
G02*
X167189999Y-37416000I249999J0D01*
G01*
X168090001Y-37416000D01*
G75*
G02*
X168340000Y-37665999I0J-249999D01*
G01*
X168340000Y-38316001D01*
G75*
G02*
X168090001Y-38566000I-249999J0D01*
G01*
G37*
%TD.AperFunction*%
%TD*%
%TO.P, ,2*%
%TO.N,GND*%
%TA.AperFunction,SMDPad,CuDef*%
G36*
G01*
X170060200Y-48851399D02*
X170060200Y-49751401D01*
G75*
G02*
X169810201Y-50001400I-249999J0D01*
G01*
X169160199Y-50001400D01*
G75*
G02*
X168910200Y-49751401I0J249999D01*
G01*
X168910200Y-48851399D01*
G75*
G02*
X169160199Y-48601400I249999J0D01*
G01*
X169810201Y-48601400D01*
G75*
G02*
X170060200Y-48851399I0J-249999D01*
G01*
G37*
%TD.AperFunction*%
%TO.P, ,1*%
%TO.N,+5V*%
%TA.AperFunction,SMDPad,CuDef*%
G36*
G01*
X172110200Y-48851399D02*
X172110200Y-49751401D01*
G75*
G02*
X171860201Y-50001400I-249999J0D01*
G01*
X171210199Y-50001400D01*
G75*
G02*
X170960200Y-49751401I0J249999D01*
G01*
X170960200Y-48851399D01*
G75*
G02*
X171210199Y-48601400I249999J0D01*
G01*
X171860201Y-48601400D01*
G75*
G02*
X172110200Y-48851399I0J-249999D01*
G01*
G37*
%TD.AperFunction*%
%TD*%
%TO.P, ,2*%
%TO.N,GND*%
%TA.AperFunction,SMDPad,CuDef*%
G36*
G01*
X180993200Y-49726001D02*
X180993200Y-48825999D01*
G75*
G02*
X181243199Y-48576000I249999J0D01*
G01*
X181893201Y-48576000D01*
G75*
G02*
X182143200Y-48825999I0J-249999D01*
G01*
X182143200Y-49726001D01*
G75*
G02*
X181893201Y-49976000I-249999J0D01*
G01*
X181243199Y-49976000D01*
G75*
G02*
X180993200Y-49726001I0J249999D01*
G01*
G37*
%TD.AperFunction*%
%TO.P, ,1*%
%TO.N,+5V*%
%TA.AperFunction,SMDPad,CuDef*%
G36*
G01*
X178943200Y-49726001D02*
X178943200Y-48825999D01*
G75*
G02*
X179193199Y-48576000I249999J0D01*
G01*
X179843201Y-48576000D01*
G75*
G02*
X180093200Y-48825999I0J-249999D01*
G01*
X180093200Y-49726001D01*
G75*
G02*
X179843201Y-49976000I-249999J0D01*
G01*
X179193199Y-49976000D01*
G75*
G02*
X178943200Y-49726001I0J249999D01*
G01*
G37*
%TD.AperFunction*%
%TD*%
%TO.P, ,2*%
%TO.N,GND*%
%TA.AperFunction,SMDPad,CuDef*%
G36*
G01*
X170872999Y-32445000D02*
X171773001Y-32445000D01*
G75*
G02*
X172023000Y-32694999I0J-249999D01*
G01*
X172023000Y-33345001D01*
G75*
G02*
X171773001Y-33595000I-249999J0D01*
G01*
X170872999Y-33595000D01*
G75*
G02*
X170623000Y-33345001I0J249999D01*
G01*
X170623000Y-32694999D01*
G75*
G02*
X170872999Y-32445000I249999J0D01*
G01*
G37*
%TD.AperFunction*%
%TO.P, ,1*%
%TO.N,Net-(C2-Pad1)*%
%TA.AperFunction,SMDPad,CuDef*%
G36*
G01*
X170872999Y-30395000D02*
X171773001Y-30395000D01*
G75*
G02*
X172023000Y-30644999I0J-249999D01*
G01*
X172023000Y-31295001D01*
G75*
G02*
X171773001Y-31545000I-249999J0D01*
G01*
X170872999Y-31545000D01*
G75*
G02*
X170623000Y-31295001I0J249999D01*
G01*
X170623000Y-30644999D01*
G75*
G02*
X170872999Y-30395000I249999J0D01*
G01*
G37*
%TD.AperFunction*%
%TD*%
%TO.P, ,2*%
%TO.N,GND*%
%TA.AperFunction,SMDPad,CuDef*%
G36*
G01*
X179508999Y-32463000D02*
X180409001Y-32463000D01*
G75*
G02*
X180659000Y-32712999I0J-249999D01*
G01*
X180659000Y-33363001D01*
G75*
G02*
X180409001Y-33613000I-249999J0D01*
G01*
X179508999Y-33613000D01*
G75*
G02*
X179259000Y-33363001I0J249999D01*
G01*
X179259000Y-32712999D01*
G75*
G02*
X179508999Y-32463000I249999J0D01*
G01*
G37*
%TD.AperFunction*%
%TO.P, ,1*%
%TO.N,Net-(C1-Pad1)*%
%TA.AperFunction,SMDPad,CuDef*%
G36*
G01*
X179508999Y-30413000D02*
X180409001Y-30413000D01*
G75*
G02*
X180659000Y-30662999I0J-249999D01*
G01*
X180659000Y-31313001D01*
G75*
G02*
X180409001Y-31563000I-249999J0D01*
G01*
X179508999Y-31563000D01*
G75*
G02*
X179259000Y-31313001I0J249999D01*
G01*
X179259000Y-30662999D01*
G75*
G02*
X179508999Y-30413000I249999J0D01*
G01*
G37*
%TD.AperFunction*%
%TD*%
D17*
%TO.N,+5V*%
X178282600Y-50368200D03*
X172694600Y-50368200D03*
X185420000Y-41605200D03*
X185420000Y-44805600D03*
%TO.N,ROW0*%
X171704000Y-53314600D03*
%TO.N,ROW1*%
X171704000Y-52314597D03*
%TO.N,ROW2*%
X171704000Y-51308000D03*
%TO.N,Net-(J1-PadB5)*%
X199517000Y-37414200D03*
%TO.N,Net-(J1-PadA5)*%
X194818000Y-36337801D03*
X197332600Y-37515800D03*
%TO.N,Net-(R3-Pad1)*%
X186265669Y-42806469D03*
X188391800Y-42824400D03*
%TD*%
D18*
%TO.N,+5V*%
X167640000Y-37991000D02*
X167850600Y-38201600D01*
X167850600Y-38201600D02*
X169519600Y-38201600D01*
X183515000Y-44831000D02*
X183286400Y-44602400D01*
X183286400Y-44602400D02*
X181610000Y-44602400D01*
X183515000Y-36347400D02*
X182499000Y-36347400D01*
X178118999Y-36852001D02*
X177901600Y-36634602D01*
X182499000Y-36347400D02*
X180613602Y-36347400D01*
X180613602Y-36347400D02*
X180109001Y-36852001D01*
X177901600Y-36634602D02*
X177901600Y-35941000D01*
X171535200Y-49301400D02*
X171535200Y-47303800D01*
X179518200Y-49276000D02*
X179518200Y-47362000D01*
X193929000Y-41670300D02*
X190768300Y-44831000D01*
X183515000Y-36347400D02*
X184734200Y-36347400D01*
X184734200Y-36347400D02*
X185420000Y-37033200D01*
X179518200Y-49276000D02*
X179518200Y-50181400D01*
X179518200Y-50181400D02*
X179712810Y-50376010D01*
X179712810Y-50376010D02*
X182162446Y-50376010D01*
X190768300Y-44831000D02*
X187934600Y-44831000D01*
X183515000Y-44831000D02*
X185394600Y-44831000D01*
X166539990Y-48050446D02*
X168890954Y-50401410D01*
X167640000Y-37991000D02*
X166539990Y-39091010D01*
X168890954Y-50401410D02*
X172635990Y-50401410D01*
X166539990Y-39091010D02*
X166539990Y-48050446D01*
X178290410Y-50376010D02*
X178282600Y-50368200D01*
X179712810Y-50376010D02*
X178290410Y-50376010D01*
X171535200Y-49301400D02*
X171535200Y-50402600D01*
X187401200Y-44831000D02*
X188010800Y-44831000D01*
X185394600Y-44831000D02*
X187401200Y-44831000D01*
X185420000Y-37033200D02*
X185420000Y-41605200D01*
X185420000Y-47118456D02*
X182170256Y-50368200D01*
X185420000Y-44805600D02*
X185420000Y-47118456D01*
X179886199Y-36852001D02*
X179886199Y-40219201D01*
X179886199Y-40219201D02*
X180281598Y-40614600D01*
X179886199Y-36852001D02*
X178118999Y-36852001D01*
X180109001Y-36852001D02*
X179886199Y-36852001D01*
X180281598Y-40614600D02*
X181330600Y-40614600D01*
X185420000Y-37033200D02*
X185420000Y-33756600D01*
X185420000Y-33756600D02*
X184708800Y-33045400D01*
X184708800Y-33045400D02*
X183489600Y-33045400D01*
D19*
%TO.N,Net-(C1-Pad1)*%
X178441000Y-30904000D02*
X178714400Y-31177400D01*
X177091000Y-30904000D02*
X178441000Y-30904000D01*
X178714400Y-33985200D02*
X178181000Y-34518600D01*
X178714400Y-31177400D02*
X178714400Y-33985200D01*
X178181000Y-34518600D02*
X176682400Y-34518600D01*
X176642398Y-34518600D02*
X176199800Y-34961198D01*
X176682400Y-34518600D02*
X176642398Y-34518600D01*
X176199800Y-34961198D02*
X176199800Y-35331400D01*
X179959000Y-30988000D02*
X178943000Y-30988000D01*
X178943000Y-30988000D02*
X178714400Y-31216600D01*
%TO.N,Net-(C2-Pad1)*%
X174191000Y-30904000D02*
X172981800Y-30904000D01*
X172981800Y-30904000D02*
X172567600Y-31318200D01*
X172567600Y-34060602D02*
X173025598Y-34518600D01*
X172567600Y-31318200D02*
X172567600Y-34060602D01*
X173025598Y-34518600D02*
X175056800Y-34518600D01*
X175056800Y-34518600D02*
X175539400Y-35001200D01*
X171323000Y-30970000D02*
X172244800Y-30970000D01*
X172244800Y-30970000D02*
X172593000Y-31318200D01*
D18*
%TO.N,VCC*%
X195673000Y-34812800D02*
X195673000Y-33697200D01*
X191423000Y-34812800D02*
X191423000Y-33494000D01*
X193929000Y-38695300D02*
X193929000Y-37541200D01*
X195681600Y-36658203D02*
X195681600Y-34848800D01*
X193929000Y-37541200D02*
X194332398Y-37137802D01*
X195202001Y-37137802D02*
X195681600Y-36658203D01*
X194332398Y-37137802D02*
X195202001Y-37137802D01*
D19*
%TO.N,Net-(C8-Pad1)*%
X182264000Y-41402000D02*
X182397400Y-41268600D01*
X181214000Y-41402000D02*
X182264000Y-41402000D01*
X182397400Y-41268600D02*
X182397400Y-40335200D01*
X182397400Y-40335200D02*
X182575200Y-40157400D01*
X182575200Y-40157400D02*
X183337200Y-40157400D01*
%TO.N,ROW0*%
X174714000Y-50873042D02*
X172272442Y-53314600D01*
X174714000Y-47102000D02*
X174714000Y-50873042D01*
X172272442Y-53314600D02*
X171678600Y-53314600D01*
%TO.N,ROW1*%
X171704000Y-52314597D02*
X172565325Y-52314597D01*
X173944611Y-50935311D02*
X173944611Y-47173211D01*
X172565325Y-52314597D02*
X173944611Y-50935311D01*
%TO.N,ROW2*%
X173444601Y-48202001D02*
X173126400Y-47883800D01*
X173444601Y-50728201D02*
X173444601Y-48202001D01*
X171704000Y-51308000D02*
X172864802Y-51308000D01*
X172864802Y-51308000D02*
X173444601Y-50728201D01*
X173126400Y-47883800D02*
X173126400Y-47371000D01*
%TO.N,Net-(J1-PadA7)*%
X188341000Y-39166800D02*
X188442600Y-39166800D01*
X188442600Y-39166800D02*
X188899800Y-38709600D01*
X192828810Y-35821990D02*
X193141600Y-35509200D01*
X193141600Y-35509200D02*
X193141600Y-34798000D01*
X192600210Y-35821990D02*
X192828810Y-35821990D01*
X188341000Y-39166800D02*
X188341000Y-37947600D01*
X188341000Y-37947600D02*
X190500000Y-35814000D01*
X192600210Y-35821990D02*
X190507990Y-35821990D01*
%TO.N,Net-(J1-PadA6)*%
X193973000Y-34461802D02*
X193116200Y-33605002D01*
X193973000Y-34812800D02*
X193973000Y-34461802D01*
X193116200Y-33605002D02*
X193116200Y-33451800D01*
X190500000Y-36982400D02*
X190500000Y-39166800D01*
X191135000Y-36322000D02*
X190500000Y-36982400D01*
X193116200Y-36322000D02*
X191135000Y-36322000D01*
X193979800Y-34848800D02*
X193979800Y-35458400D01*
X193979800Y-35458400D02*
X193116200Y-36322000D01*
%TO.N,Net-(J1-PadB5)*%
X199517000Y-37414200D02*
X199517000Y-38811200D01*
%TO.N,Net-(J1-PadA5)*%
X194823000Y-34812800D02*
X194823000Y-35986800D01*
X194823000Y-35986800D02*
X194818000Y-35991800D01*
X194818000Y-35991800D02*
X194818000Y-36337801D01*
X197332600Y-37515800D02*
X197332600Y-39065200D01*
%TO.N,COL0*%
X170815000Y-95885000D02*
X170815000Y-76835000D01*
X170815000Y-76835000D02*
X170815000Y-57785000D01*
X175463200Y-50901600D02*
X175488600Y-47472600D01*
X170815000Y-57785000D02*
X170815000Y-55626000D01*
X170815000Y-55626000D02*
X175463200Y-50901600D01*
%TO.N,COL1*%
X189865000Y-95885000D02*
X189865000Y-76835000D01*
X189865000Y-76835000D02*
X189865000Y-57785000D01*
X189865000Y-55626000D02*
X186690000Y-52451000D01*
X189865000Y-57785000D02*
X189865000Y-55626000D01*
X177876200Y-52451000D02*
X186385200Y-52443010D01*
X186385200Y-52443010D02*
X186639200Y-52451000D01*
X176301400Y-47320200D02*
X176301400Y-50901600D01*
X176301400Y-50901600D02*
X177876200Y-52451000D01*
%TO.N,COL2*%
X208915000Y-95885000D02*
X208915000Y-76835000D01*
X208915000Y-76835000D02*
X208915000Y-57785000D01*
X177114200Y-50901600D02*
X177114200Y-47345600D01*
X205206600Y-51943000D02*
X178181000Y-51943000D01*
X178181000Y-51943000D02*
X177114200Y-50901600D01*
X208915000Y-57785000D02*
X208915000Y-55626000D01*
X208915000Y-55626000D02*
X205206600Y-51943000D01*
%TO.N,Net-(R1-Pad1)*%
X183515000Y-30988000D02*
X182829200Y-30988000D01*
X178714000Y-34692720D02*
X179294520Y-34112200D01*
X178714000Y-35702000D02*
X178714000Y-34692720D01*
X179294520Y-34112200D02*
X181533800Y-34112200D01*
X181533800Y-34112200D02*
X182295800Y-33350200D01*
X182295800Y-33350200D02*
X182295800Y-31521400D01*
X182295800Y-31521400D02*
X182829200Y-30988000D01*
X182829200Y-30988000D02*
X183667400Y-30988000D01*
X212242000Y-36190000D02*
X210561000Y-36190000D01*
X210561000Y-36190000D02*
X210032600Y-35661600D01*
X210032600Y-35661600D02*
X210032600Y-32639000D01*
X210032600Y-32639000D02*
X209304410Y-31910810D01*
X209304410Y-31910810D02*
X188484990Y-31910810D01*
X188484990Y-31910810D02*
X188120810Y-31910810D01*
X188120810Y-31910810D02*
X187223400Y-31013400D01*
X187223400Y-31013400D02*
X183946800Y-31013400D01*
X212242000Y-36190000D02*
X212694600Y-36190000D01*
X212694600Y-36190000D02*
X213969600Y-37465000D01*
X213969600Y-37465000D02*
X216814400Y-37465000D01*
X216814400Y-37465000D02*
X217957400Y-36322000D01*
%TO.N,Net-(R2-Pad2)*%
X167640000Y-45389800D02*
X169494200Y-45389800D01*
%TO.N,Net-(R3-Pad1)*%
X182264000Y-43002000D02*
X182576990Y-43314990D01*
X181214000Y-43002000D02*
X182264000Y-43002000D01*
X182576990Y-43314990D02*
X185699400Y-43314990D01*
X185699400Y-43314990D02*
X185757148Y-43314990D01*
X185757148Y-43314990D02*
X186265669Y-42806469D01*
X188391800Y-42824400D02*
X189966600Y-42824400D01*
X189966600Y-42824400D02*
X190525400Y-42265600D01*
X190525400Y-42265600D02*
X190525400Y-41249600D01*
%TO.N,Net-(R4-Pad1)*%
X188341000Y-41791800D02*
X186317800Y-43815000D01*
X188341000Y-41216800D02*
X188341000Y-41791800D01*
X186317800Y-43815000D02*
X181660800Y-43815000D01*
D18*
%TO.N,GND*%
X172314000Y-47102000D02*
X172314000Y-45618800D01*
X178714000Y-47102000D02*
X178714000Y-45669600D01*
X181214000Y-42202000D02*
X179768400Y-42202000D01*
X177114000Y-35702000D02*
X177114000Y-37439400D01*
X169814000Y-37402000D02*
X171361600Y-37402000D01*
X172314000Y-45618800D02*
X172314000Y-42239800D01*
X172314000Y-42239800D02*
X177114200Y-37439600D01*
X171361600Y-37402000D02*
X173215800Y-37402000D01*
X173215800Y-37402000D02*
X174447200Y-38633400D01*
X174447200Y-38633400D02*
X174447200Y-40081200D01*
X179768400Y-42202000D02*
X174409000Y-42202000D01*
X174409000Y-42202000D02*
X173380400Y-41173400D01*
X178714000Y-45669600D02*
X178714000Y-43738400D01*
X178714000Y-43738400D02*
X177190400Y-42214800D01*
D19*
X174947400Y-33104000D02*
X175640999Y-32410401D01*
D18*
X174191000Y-33104000D02*
X174947400Y-33104000D01*
D19*
X175640999Y-32410401D02*
X175641000Y-31826198D01*
X175641000Y-29773998D02*
X175356402Y-29489400D01*
X175641000Y-31826198D02*
X175641000Y-29773998D01*
X170272990Y-30396464D02*
X170272990Y-32604990D01*
X175356402Y-29489400D02*
X171180054Y-29489400D01*
X171180054Y-29489400D02*
X170272990Y-30396464D01*
X170272990Y-32604990D02*
X170764200Y-33096200D01*
X181009010Y-30414464D02*
X180083946Y-29489400D01*
X179959000Y-33038000D02*
X181009010Y-31987990D01*
X181009010Y-31987990D02*
X181009010Y-30414464D01*
X180083946Y-29489400D02*
X175945800Y-29489400D01*
X175945800Y-29489400D02*
X175641000Y-29794200D01*
D18*
X169521202Y-47439800D02*
X171215602Y-45745400D01*
X167640000Y-47439800D02*
X169521202Y-47439800D01*
X171215602Y-45745400D02*
X172339000Y-45745400D01*
X169485200Y-49301400D02*
X169485200Y-47456200D01*
X181568200Y-47411198D02*
X180105602Y-45948600D01*
X181568200Y-49276000D02*
X181568200Y-47411198D01*
X180105602Y-45948600D02*
X178714400Y-45948600D01*
X183515000Y-46881000D02*
X182100000Y-46881000D01*
X182100000Y-46881000D02*
X181559200Y-47421800D01*
X181214000Y-42202000D02*
X183502200Y-42202000D01*
X184619999Y-41770201D02*
X184175400Y-42214800D01*
X184175400Y-42214800D02*
X183616600Y-42214800D01*
X183515000Y-38397400D02*
X184345800Y-38397400D01*
X184345800Y-38397400D02*
X184523600Y-38397400D01*
X184615010Y-41714610D02*
X184619999Y-41719599D01*
X184523600Y-38397400D02*
X184615010Y-38488810D01*
X184615010Y-38488810D02*
X184615010Y-41714610D01*
X184619999Y-41719599D02*
X184619999Y-41757600D01*
X196523000Y-34812800D02*
X196523000Y-33455000D01*
X190573000Y-34812800D02*
X190573000Y-33480400D01*
%TD*%
D20*
%TO.N,GND*%
G36*
X188081623Y-29542278D02*
G01*
X188034000Y-29771800D01*
X188034000Y-30325800D01*
X189096000Y-30325800D01*
X189096000Y-30305800D01*
X189350000Y-30305800D01*
X189350000Y-30325800D01*
X190412000Y-30325800D01*
X190412000Y-29771800D01*
X190364377Y-29542278D01*
X190287958Y-29362000D01*
X196808042Y-29362000D01*
X196731623Y-29542278D01*
X196684000Y-29771800D01*
X196684000Y-30325800D01*
X197746000Y-30325800D01*
X197746000Y-30305800D01*
X198000000Y-30305800D01*
X198000000Y-30325800D01*
X199062000Y-30325800D01*
X199062000Y-29771800D01*
X199014377Y-29542278D01*
X198937958Y-29362000D01*
X219677721Y-29362000D01*
X220074545Y-29400909D01*
X220425208Y-29506780D01*
X220748625Y-29678744D01*
X221032484Y-29910254D01*
X221265965Y-30192486D01*
X221440183Y-30514695D01*
X221548502Y-30864614D01*
X221590000Y-31259443D01*
X221590000Y-31782418D01*
X221590001Y-31782428D01*
X221590000Y-105377721D01*
X221551091Y-105774545D01*
X221445220Y-106125206D01*
X221273257Y-106448623D01*
X221041748Y-106732482D01*
X220759514Y-106965965D01*
X220437304Y-107140184D01*
X220087385Y-107248502D01*
X219692557Y-107290000D01*
X167672279Y-107290000D01*
X167275455Y-107251091D01*
X166924794Y-107145220D01*
X166601377Y-106973257D01*
X166317518Y-106741748D01*
X166084035Y-106459514D01*
X165909816Y-106137304D01*
X165801498Y-105787385D01*
X165760000Y-105392557D01*
X165760000Y-48355649D01*
X165764818Y-48371532D01*
X165839659Y-48511549D01*
X165842355Y-48516592D01*
X165946700Y-48643737D01*
X165978564Y-48669887D01*
X168271513Y-50962837D01*
X168297663Y-50994701D01*
X168393858Y-51073646D01*
X168424808Y-51099046D01*
X168569867Y-51176582D01*
X168727265Y-51224328D01*
X168890953Y-51240450D01*
X168931972Y-51236410D01*
X170669000Y-51236410D01*
X170669000Y-51409939D01*
X170708774Y-51609898D01*
X170786795Y-51798256D01*
X170795510Y-51811299D01*
X170786795Y-51824341D01*
X170708774Y-52012699D01*
X170669000Y-52212658D01*
X170669000Y-52416536D01*
X170708774Y-52616495D01*
X170786795Y-52804853D01*
X170793307Y-52814598D01*
X170786795Y-52824344D01*
X170708774Y-53012702D01*
X170669000Y-53212661D01*
X170669000Y-53416539D01*
X170708774Y-53616498D01*
X170786795Y-53804856D01*
X170900063Y-53974374D01*
X171044226Y-54118537D01*
X171136348Y-54180091D01*
X170284712Y-55045687D01*
X170257237Y-55068236D01*
X170230630Y-55100656D01*
X170228383Y-55102940D01*
X170206160Y-55130473D01*
X170159139Y-55187767D01*
X170157618Y-55190612D01*
X170155598Y-55193115D01*
X170121190Y-55258766D01*
X170086247Y-55324140D01*
X170085313Y-55327218D01*
X170083816Y-55330075D01*
X170062838Y-55401309D01*
X170041360Y-55472113D01*
X170041045Y-55475311D01*
X170040133Y-55478408D01*
X170033459Y-55552327D01*
X170030001Y-55587439D01*
X170030001Y-55590632D01*
X170026229Y-55632412D01*
X170030001Y-55667763D01*
X170030001Y-56205147D01*
X169981327Y-56225308D01*
X169693065Y-56417919D01*
X169447919Y-56663065D01*
X169255308Y-56951327D01*
X169122636Y-57271627D01*
X169055000Y-57611655D01*
X169055000Y-57958345D01*
X169122636Y-58298373D01*
X169255308Y-58618673D01*
X169387638Y-58816719D01*
X169104549Y-58873029D01*
X168829747Y-58986856D01*
X168582431Y-59152107D01*
X168372107Y-59362431D01*
X168206856Y-59609747D01*
X168093029Y-59884549D01*
X168035000Y-60176278D01*
X168035000Y-60473722D01*
X168093029Y-60765451D01*
X168206856Y-61040253D01*
X168372107Y-61287569D01*
X168582431Y-61497893D01*
X168829747Y-61663144D01*
X169104549Y-61776971D01*
X169396278Y-61835000D01*
X169693722Y-61835000D01*
X169985451Y-61776971D01*
X170030001Y-61758518D01*
X170030000Y-75255147D01*
X169981327Y-75275308D01*
X169693065Y-75467919D01*
X169447919Y-75713065D01*
X169255308Y-76001327D01*
X169122636Y-76321627D01*
X169055000Y-76661655D01*
X169055000Y-77008345D01*
X169122636Y-77348373D01*
X169255308Y-77668673D01*
X169387638Y-77866719D01*
X169104549Y-77923029D01*
X168829747Y-78036856D01*
X168582431Y-78202107D01*
X168372107Y-78412431D01*
X168206856Y-78659747D01*
X168093029Y-78934549D01*
X168035000Y-79226278D01*
X168035000Y-79523722D01*
X168093029Y-79815451D01*
X168206856Y-80090253D01*
X168372107Y-80337569D01*
X168582431Y-80547893D01*
X168829747Y-80713144D01*
X169104549Y-80826971D01*
X169396278Y-80885000D01*
X169693722Y-80885000D01*
X169985451Y-80826971D01*
X170030001Y-80808518D01*
X170030000Y-94305147D01*
X169981327Y-94325308D01*
X169693065Y-94517919D01*
X169447919Y-94763065D01*
X169255308Y-95051327D01*
X169122636Y-95371627D01*
X169055000Y-95711655D01*
X169055000Y-96058345D01*
X169122636Y-96398373D01*
X169255308Y-96718673D01*
X169387638Y-96916719D01*
X169104549Y-96973029D01*
X168829747Y-97086856D01*
X168582431Y-97252107D01*
X168372107Y-97462431D01*
X168206856Y-97709747D01*
X168093029Y-97984549D01*
X168035000Y-98276278D01*
X168035000Y-98573722D01*
X168093029Y-98865451D01*
X168206856Y-99140253D01*
X168372107Y-99387569D01*
X168582431Y-99597893D01*
X168829747Y-99763144D01*
X169104549Y-99876971D01*
X169396278Y-99935000D01*
X169693722Y-99935000D01*
X169985451Y-99876971D01*
X170260253Y-99763144D01*
X170507569Y-99597893D01*
X170717893Y-99387569D01*
X170883144Y-99140253D01*
X170996971Y-98865451D01*
X171055000Y-98573722D01*
X171055000Y-98276278D01*
X171033080Y-98166076D01*
X171996100Y-98166076D01*
X171996100Y-98683924D01*
X172097127Y-99191822D01*
X172295299Y-99670251D01*
X172583000Y-100100826D01*
X172949174Y-100467000D01*
X173379749Y-100754701D01*
X173858178Y-100952873D01*
X174366076Y-101053900D01*
X174883924Y-101053900D01*
X175391822Y-100952873D01*
X175870251Y-100754701D01*
X176300826Y-100467000D01*
X176667000Y-100100826D01*
X176954701Y-99670251D01*
X177152873Y-99191822D01*
X177253900Y-98683924D01*
X177253900Y-98276278D01*
X178195000Y-98276278D01*
X178195000Y-98573722D01*
X178253029Y-98865451D01*
X178366856Y-99140253D01*
X178532107Y-99387569D01*
X178742431Y-99597893D01*
X178989747Y-99763144D01*
X179264549Y-99876971D01*
X179556278Y-99935000D01*
X179853722Y-99935000D01*
X180145451Y-99876971D01*
X180420253Y-99763144D01*
X180667569Y-99597893D01*
X180877893Y-99387569D01*
X181043144Y-99140253D01*
X181156971Y-98865451D01*
X181215000Y-98573722D01*
X181215000Y-98276278D01*
X181156971Y-97984549D01*
X181043144Y-97709747D01*
X180877893Y-97462431D01*
X180667569Y-97252107D01*
X180420253Y-97086856D01*
X180145451Y-96973029D01*
X179853722Y-96915000D01*
X179556278Y-96915000D01*
X179264549Y-96973029D01*
X178989747Y-97086856D01*
X178742431Y-97252107D01*
X178532107Y-97462431D01*
X178366856Y-97709747D01*
X178253029Y-97984549D01*
X178195000Y-98276278D01*
X177253900Y-98276278D01*
X177253900Y-98166076D01*
X177152873Y-97658178D01*
X176954701Y-97179749D01*
X176667000Y-96749174D01*
X176300826Y-96383000D01*
X175870251Y-96095299D01*
X175391822Y-95897127D01*
X174883924Y-95796100D01*
X174366076Y-95796100D01*
X173858178Y-95897127D01*
X173379749Y-96095299D01*
X172949174Y-96383000D01*
X172583000Y-96749174D01*
X172295299Y-97179749D01*
X172097127Y-97658178D01*
X171996100Y-98166076D01*
X171033080Y-98166076D01*
X170996971Y-97984549D01*
X170883144Y-97709747D01*
X170839882Y-97645000D01*
X170988345Y-97645000D01*
X171328373Y-97577364D01*
X171648673Y-97444692D01*
X171936935Y-97252081D01*
X172182081Y-97006935D01*
X172374692Y-96718673D01*
X172507364Y-96398373D01*
X172575000Y-96058345D01*
X172575000Y-95711655D01*
X172507364Y-95371627D01*
X172374692Y-95051327D01*
X172182081Y-94763065D01*
X171936935Y-94517919D01*
X171648673Y-94325308D01*
X171600000Y-94305147D01*
X171600000Y-93171655D01*
X175405000Y-93171655D01*
X175405000Y-93518345D01*
X175472636Y-93858373D01*
X175605308Y-94178673D01*
X175797919Y-94466935D01*
X176043065Y-94712081D01*
X176331327Y-94904692D01*
X176651627Y-95037364D01*
X176991655Y-95105000D01*
X177338345Y-95105000D01*
X177678373Y-95037364D01*
X177998673Y-94904692D01*
X178286935Y-94712081D01*
X178532081Y-94466935D01*
X178724692Y-94178673D01*
X178857364Y-93858373D01*
X178925000Y-93518345D01*
X178925000Y-93171655D01*
X178857364Y-92831627D01*
X178724692Y-92511327D01*
X178532081Y-92223065D01*
X178286935Y-91977919D01*
X177998673Y-91785308D01*
X177678373Y-91652636D01*
X177338345Y-91585000D01*
X176991655Y-91585000D01*
X176651627Y-91652636D01*
X176331327Y-91785308D01*
X176043065Y-91977919D01*
X175797919Y-92223065D01*
X175605308Y-92511327D01*
X175472636Y-92831627D01*
X175405000Y-93171655D01*
X171600000Y-93171655D01*
X171600000Y-79116076D01*
X171996100Y-79116076D01*
X171996100Y-79633924D01*
X172097127Y-80141822D01*
X172295299Y-80620251D01*
X172583000Y-81050826D01*
X172949174Y-81417000D01*
X173379749Y-81704701D01*
X173858178Y-81902873D01*
X174366076Y-82003900D01*
X174883924Y-82003900D01*
X175391822Y-81902873D01*
X175870251Y-81704701D01*
X176300826Y-81417000D01*
X176667000Y-81050826D01*
X176954701Y-80620251D01*
X177152873Y-80141822D01*
X177253900Y-79633924D01*
X177253900Y-79226278D01*
X178195000Y-79226278D01*
X178195000Y-79523722D01*
X178253029Y-79815451D01*
X178366856Y-80090253D01*
X178532107Y-80337569D01*
X178742431Y-80547893D01*
X178989747Y-80713144D01*
X179264549Y-80826971D01*
X179556278Y-80885000D01*
X179853722Y-80885000D01*
X180145451Y-80826971D01*
X180420253Y-80713144D01*
X180667569Y-80547893D01*
X180877893Y-80337569D01*
X181043144Y-80090253D01*
X181156971Y-79815451D01*
X181215000Y-79523722D01*
X181215000Y-79226278D01*
X181156971Y-78934549D01*
X181043144Y-78659747D01*
X180877893Y-78412431D01*
X180667569Y-78202107D01*
X180420253Y-78036856D01*
X180145451Y-77923029D01*
X179853722Y-77865000D01*
X179556278Y-77865000D01*
X179264549Y-77923029D01*
X178989747Y-78036856D01*
X178742431Y-78202107D01*
X178532107Y-78412431D01*
X178366856Y-78659747D01*
X178253029Y-78934549D01*
X178195000Y-79226278D01*
X177253900Y-79226278D01*
X177253900Y-79116076D01*
X177152873Y-78608178D01*
X176954701Y-78129749D01*
X176667000Y-77699174D01*
X176300826Y-77333000D01*
X175870251Y-77045299D01*
X175391822Y-76847127D01*
X174883924Y-76746100D01*
X174366076Y-76746100D01*
X173858178Y-76847127D01*
X173379749Y-77045299D01*
X172949174Y-77333000D01*
X172583000Y-77699174D01*
X172295299Y-78129749D01*
X172097127Y-78608178D01*
X171996100Y-79116076D01*
X171600000Y-79116076D01*
X171600000Y-78414853D01*
X171648673Y-78394692D01*
X171936935Y-78202081D01*
X172182081Y-77956935D01*
X172374692Y-77668673D01*
X172507364Y-77348373D01*
X172575000Y-77008345D01*
X172575000Y-76661655D01*
X172507364Y-76321627D01*
X172374692Y-76001327D01*
X172182081Y-75713065D01*
X171936935Y-75467919D01*
X171648673Y-75275308D01*
X171600000Y-75255147D01*
X171600000Y-74121655D01*
X175405000Y-74121655D01*
X175405000Y-74468345D01*
X175472636Y-74808373D01*
X175605308Y-75128673D01*
X175797919Y-75416935D01*
X176043065Y-75662081D01*
X176331327Y-75854692D01*
X176651627Y-75987364D01*
X176991655Y-76055000D01*
X177338345Y-76055000D01*
X177678373Y-75987364D01*
X177998673Y-75854692D01*
X178286935Y-75662081D01*
X178532081Y-75416935D01*
X178724692Y-75128673D01*
X178857364Y-74808373D01*
X178925000Y-74468345D01*
X178925000Y-74121655D01*
X178857364Y-73781627D01*
X178724692Y-73461327D01*
X178532081Y-73173065D01*
X178286935Y-72927919D01*
X177998673Y-72735308D01*
X177678373Y-72602636D01*
X177338345Y-72535000D01*
X176991655Y-72535000D01*
X176651627Y-72602636D01*
X176331327Y-72735308D01*
X176043065Y-72927919D01*
X175797919Y-73173065D01*
X175605308Y-73461327D01*
X175472636Y-73781627D01*
X175405000Y-74121655D01*
X171600000Y-74121655D01*
X171600000Y-60066076D01*
X171996100Y-60066076D01*
X171996100Y-60583924D01*
X172097127Y-61091822D01*
X172295299Y-61570251D01*
X172583000Y-62000826D01*
X172949174Y-62367000D01*
X173379749Y-62654701D01*
X173858178Y-62852873D01*
X174366076Y-62953900D01*
X174883924Y-62953900D01*
X175391822Y-62852873D01*
X175870251Y-62654701D01*
X176300826Y-62367000D01*
X176667000Y-62000826D01*
X176954701Y-61570251D01*
X177152873Y-61091822D01*
X177253900Y-60583924D01*
X177253900Y-60176278D01*
X178195000Y-60176278D01*
X178195000Y-60473722D01*
X178253029Y-60765451D01*
X178366856Y-61040253D01*
X178532107Y-61287569D01*
X178742431Y-61497893D01*
X178989747Y-61663144D01*
X179264549Y-61776971D01*
X179556278Y-61835000D01*
X179853722Y-61835000D01*
X180145451Y-61776971D01*
X180420253Y-61663144D01*
X180667569Y-61497893D01*
X180877893Y-61287569D01*
X181043144Y-61040253D01*
X181156971Y-60765451D01*
X181215000Y-60473722D01*
X181215000Y-60176278D01*
X181156971Y-59884549D01*
X181043144Y-59609747D01*
X180877893Y-59362431D01*
X180667569Y-59152107D01*
X180420253Y-58986856D01*
X180145451Y-58873029D01*
X179853722Y-58815000D01*
X179556278Y-58815000D01*
X179264549Y-58873029D01*
X178989747Y-58986856D01*
X178742431Y-59152107D01*
X178532107Y-59362431D01*
X178366856Y-59609747D01*
X178253029Y-59884549D01*
X178195000Y-60176278D01*
X177253900Y-60176278D01*
X177253900Y-60066076D01*
X177152873Y-59558178D01*
X176954701Y-59079749D01*
X176667000Y-58649174D01*
X176300826Y-58283000D01*
X175870251Y-57995299D01*
X175391822Y-57797127D01*
X174883924Y-57696100D01*
X174366076Y-57696100D01*
X173858178Y-57797127D01*
X173379749Y-57995299D01*
X172949174Y-58283000D01*
X172583000Y-58649174D01*
X172295299Y-59079749D01*
X172097127Y-59558178D01*
X171996100Y-60066076D01*
X171600000Y-60066076D01*
X171600000Y-59364853D01*
X171648673Y-59344692D01*
X171936935Y-59152081D01*
X172182081Y-58906935D01*
X172374692Y-58618673D01*
X172507364Y-58298373D01*
X172575000Y-57958345D01*
X172575000Y-57611655D01*
X172507364Y-57271627D01*
X172374692Y-56951327D01*
X172182081Y-56663065D01*
X171936935Y-56417919D01*
X171648673Y-56225308D01*
X171600000Y-56205147D01*
X171600000Y-55947424D01*
X172461644Y-55071655D01*
X175405000Y-55071655D01*
X175405000Y-55418345D01*
X175472636Y-55758373D01*
X175605308Y-56078673D01*
X175797919Y-56366935D01*
X176043065Y-56612081D01*
X176331327Y-56804692D01*
X176651627Y-56937364D01*
X176991655Y-57005000D01*
X177338345Y-57005000D01*
X177678373Y-56937364D01*
X177998673Y-56804692D01*
X178286935Y-56612081D01*
X178532081Y-56366935D01*
X178724692Y-56078673D01*
X178857364Y-55758373D01*
X178925000Y-55418345D01*
X178925000Y-55071655D01*
X178857364Y-54731627D01*
X178724692Y-54411327D01*
X178532081Y-54123065D01*
X178286935Y-53877919D01*
X177998673Y-53685308D01*
X177678373Y-53552636D01*
X177338345Y-53485000D01*
X176991655Y-53485000D01*
X176651627Y-53552636D01*
X176331327Y-53685308D01*
X176043065Y-53877919D01*
X175797919Y-54123065D01*
X175605308Y-54411327D01*
X175472636Y-54731627D01*
X175405000Y-55071655D01*
X172461644Y-55071655D01*
X175884512Y-51592676D01*
X177296153Y-52981550D01*
X177318960Y-53009287D01*
X177351115Y-53035626D01*
X177353139Y-53037617D01*
X177381008Y-53060111D01*
X177438584Y-53107273D01*
X177441099Y-53108614D01*
X177443314Y-53110402D01*
X177509302Y-53144987D01*
X177575025Y-53180037D01*
X177577749Y-53180860D01*
X177580274Y-53182184D01*
X177651828Y-53203256D01*
X177723040Y-53224785D01*
X177725870Y-53225061D01*
X177728607Y-53225867D01*
X177802874Y-53232572D01*
X177838377Y-53236035D01*
X177841202Y-53236032D01*
X177882612Y-53239771D01*
X177918330Y-53235960D01*
X186356879Y-53228036D01*
X189080001Y-55951159D01*
X189080001Y-56205147D01*
X189031327Y-56225308D01*
X188743065Y-56417919D01*
X188497919Y-56663065D01*
X188305308Y-56951327D01*
X188172636Y-57271627D01*
X188105000Y-57611655D01*
X188105000Y-57958345D01*
X188172636Y-58298373D01*
X188305308Y-58618673D01*
X188437638Y-58816719D01*
X188154549Y-58873029D01*
X187879747Y-58986856D01*
X187632431Y-59152107D01*
X187422107Y-59362431D01*
X187256856Y-59609747D01*
X187143029Y-59884549D01*
X187085000Y-60176278D01*
X187085000Y-60473722D01*
X187143029Y-60765451D01*
X187256856Y-61040253D01*
X187422107Y-61287569D01*
X187632431Y-61497893D01*
X187879747Y-61663144D01*
X188154549Y-61776971D01*
X188446278Y-61835000D01*
X188743722Y-61835000D01*
X189035451Y-61776971D01*
X189080001Y-61758518D01*
X189080000Y-75255147D01*
X189031327Y-75275308D01*
X188743065Y-75467919D01*
X188497919Y-75713065D01*
X188305308Y-76001327D01*
X188172636Y-76321627D01*
X188105000Y-76661655D01*
X188105000Y-77008345D01*
X188172636Y-77348373D01*
X188305308Y-77668673D01*
X188437638Y-77866719D01*
X188154549Y-77923029D01*
X187879747Y-78036856D01*
X187632431Y-78202107D01*
X187422107Y-78412431D01*
X187256856Y-78659747D01*
X187143029Y-78934549D01*
X187085000Y-79226278D01*
X187085000Y-79523722D01*
X187143029Y-79815451D01*
X187256856Y-80090253D01*
X187422107Y-80337569D01*
X187632431Y-80547893D01*
X187879747Y-80713144D01*
X188154549Y-80826971D01*
X188446278Y-80885000D01*
X188743722Y-80885000D01*
X189035451Y-80826971D01*
X189080001Y-80808518D01*
X189080000Y-94305147D01*
X189031327Y-94325308D01*
X188743065Y-94517919D01*
X188497919Y-94763065D01*
X188305308Y-95051327D01*
X188172636Y-95371627D01*
X188105000Y-95711655D01*
X188105000Y-96058345D01*
X188172636Y-96398373D01*
X188305308Y-96718673D01*
X188437638Y-96916719D01*
X188154549Y-96973029D01*
X187879747Y-97086856D01*
X187632431Y-97252107D01*
X187422107Y-97462431D01*
X187256856Y-97709747D01*
X187143029Y-97984549D01*
X187085000Y-98276278D01*
X187085000Y-98573722D01*
X187143029Y-98865451D01*
X187256856Y-99140253D01*
X187422107Y-99387569D01*
X187632431Y-99597893D01*
X187879747Y-99763144D01*
X188154549Y-99876971D01*
X188446278Y-99935000D01*
X188743722Y-99935000D01*
X189035451Y-99876971D01*
X189310253Y-99763144D01*
X189557569Y-99597893D01*
X189767893Y-99387569D01*
X189933144Y-99140253D01*
X190046971Y-98865451D01*
X190105000Y-98573722D01*
X190105000Y-98276278D01*
X190083080Y-98166076D01*
X191046100Y-98166076D01*
X191046100Y-98683924D01*
X191147127Y-99191822D01*
X191345299Y-99670251D01*
X191633000Y-100100826D01*
X191999174Y-100467000D01*
X192429749Y-100754701D01*
X192908178Y-100952873D01*
X193416076Y-101053900D01*
X193933924Y-101053900D01*
X194441822Y-100952873D01*
X194920251Y-100754701D01*
X195350826Y-100467000D01*
X195717000Y-100100826D01*
X196004701Y-99670251D01*
X196202873Y-99191822D01*
X196303900Y-98683924D01*
X196303900Y-98276278D01*
X197245000Y-98276278D01*
X197245000Y-98573722D01*
X197303029Y-98865451D01*
X197416856Y-99140253D01*
X197582107Y-99387569D01*
X197792431Y-99597893D01*
X198039747Y-99763144D01*
X198314549Y-99876971D01*
X198606278Y-99935000D01*
X198903722Y-99935000D01*
X199195451Y-99876971D01*
X199470253Y-99763144D01*
X199717569Y-99597893D01*
X199927893Y-99387569D01*
X200093144Y-99140253D01*
X200206971Y-98865451D01*
X200265000Y-98573722D01*
X200265000Y-98276278D01*
X200206971Y-97984549D01*
X200093144Y-97709747D01*
X199927893Y-97462431D01*
X199717569Y-97252107D01*
X199470253Y-97086856D01*
X199195451Y-96973029D01*
X198903722Y-96915000D01*
X198606278Y-96915000D01*
X198314549Y-96973029D01*
X198039747Y-97086856D01*
X197792431Y-97252107D01*
X197582107Y-97462431D01*
X197416856Y-97709747D01*
X197303029Y-97984549D01*
X197245000Y-98276278D01*
X196303900Y-98276278D01*
X196303900Y-98166076D01*
X196202873Y-97658178D01*
X196004701Y-97179749D01*
X195717000Y-96749174D01*
X195350826Y-96383000D01*
X194920251Y-96095299D01*
X194441822Y-95897127D01*
X193933924Y-95796100D01*
X193416076Y-95796100D01*
X192908178Y-95897127D01*
X192429749Y-96095299D01*
X191999174Y-96383000D01*
X191633000Y-96749174D01*
X191345299Y-97179749D01*
X191147127Y-97658178D01*
X191046100Y-98166076D01*
X190083080Y-98166076D01*
X190046971Y-97984549D01*
X189933144Y-97709747D01*
X189889882Y-97645000D01*
X190038345Y-97645000D01*
X190378373Y-97577364D01*
X190698673Y-97444692D01*
X190986935Y-97252081D01*
X191232081Y-97006935D01*
X191424692Y-96718673D01*
X191557364Y-96398373D01*
X191625000Y-96058345D01*
X191625000Y-95711655D01*
X191557364Y-95371627D01*
X191424692Y-95051327D01*
X191232081Y-94763065D01*
X190986935Y-94517919D01*
X190698673Y-94325308D01*
X190650000Y-94305147D01*
X190650000Y-93171655D01*
X194455000Y-93171655D01*
X194455000Y-93518345D01*
X194522636Y-93858373D01*
X194655308Y-94178673D01*
X194847919Y-94466935D01*
X195093065Y-94712081D01*
X195381327Y-94904692D01*
X195701627Y-95037364D01*
X196041655Y-95105000D01*
X196388345Y-95105000D01*
X196728373Y-95037364D01*
X197048673Y-94904692D01*
X197336935Y-94712081D01*
X197582081Y-94466935D01*
X197774692Y-94178673D01*
X197907364Y-93858373D01*
X197975000Y-93518345D01*
X197975000Y-93171655D01*
X197907364Y-92831627D01*
X197774692Y-92511327D01*
X197582081Y-92223065D01*
X197336935Y-91977919D01*
X197048673Y-91785308D01*
X196728373Y-91652636D01*
X196388345Y-91585000D01*
X196041655Y-91585000D01*
X195701627Y-91652636D01*
X195381327Y-91785308D01*
X195093065Y-91977919D01*
X194847919Y-92223065D01*
X194655308Y-92511327D01*
X194522636Y-92831627D01*
X194455000Y-93171655D01*
X190650000Y-93171655D01*
X190650000Y-79116076D01*
X191046100Y-79116076D01*
X191046100Y-79633924D01*
X191147127Y-80141822D01*
X191345299Y-80620251D01*
X191633000Y-81050826D01*
X191999174Y-81417000D01*
X192429749Y-81704701D01*
X192908178Y-81902873D01*
X193416076Y-82003900D01*
X193933924Y-82003900D01*
X194441822Y-81902873D01*
X194920251Y-81704701D01*
X195350826Y-81417000D01*
X195717000Y-81050826D01*
X196004701Y-80620251D01*
X196202873Y-80141822D01*
X196303900Y-79633924D01*
X196303900Y-79226278D01*
X197245000Y-79226278D01*
X197245000Y-79523722D01*
X197303029Y-79815451D01*
X197416856Y-80090253D01*
X197582107Y-80337569D01*
X197792431Y-80547893D01*
X198039747Y-80713144D01*
X198314549Y-80826971D01*
X198606278Y-80885000D01*
X198903722Y-80885000D01*
X199195451Y-80826971D01*
X199470253Y-80713144D01*
X199717569Y-80547893D01*
X199927893Y-80337569D01*
X200093144Y-80090253D01*
X200206971Y-79815451D01*
X200265000Y-79523722D01*
X200265000Y-79226278D01*
X200206971Y-78934549D01*
X200093144Y-78659747D01*
X199927893Y-78412431D01*
X199717569Y-78202107D01*
X199470253Y-78036856D01*
X199195451Y-77923029D01*
X198903722Y-77865000D01*
X198606278Y-77865000D01*
X198314549Y-77923029D01*
X198039747Y-78036856D01*
X197792431Y-78202107D01*
X197582107Y-78412431D01*
X197416856Y-78659747D01*
X197303029Y-78934549D01*
X197245000Y-79226278D01*
X196303900Y-79226278D01*
X196303900Y-79116076D01*
X196202873Y-78608178D01*
X196004701Y-78129749D01*
X195717000Y-77699174D01*
X195350826Y-77333000D01*
X194920251Y-77045299D01*
X194441822Y-76847127D01*
X193933924Y-76746100D01*
X193416076Y-76746100D01*
X192908178Y-76847127D01*
X192429749Y-77045299D01*
X191999174Y-77333000D01*
X191633000Y-77699174D01*
X191345299Y-78129749D01*
X191147127Y-78608178D01*
X191046100Y-79116076D01*
X190650000Y-79116076D01*
X190650000Y-78414853D01*
X190698673Y-78394692D01*
X190986935Y-78202081D01*
X191232081Y-77956935D01*
X191424692Y-77668673D01*
X191557364Y-77348373D01*
X191625000Y-77008345D01*
X191625000Y-76661655D01*
X191557364Y-76321627D01*
X191424692Y-76001327D01*
X191232081Y-75713065D01*
X190986935Y-75467919D01*
X190698673Y-75275308D01*
X190650000Y-75255147D01*
X190650000Y-74121655D01*
X194455000Y-74121655D01*
X194455000Y-74468345D01*
X194522636Y-74808373D01*
X194655308Y-75128673D01*
X194847919Y-75416935D01*
X195093065Y-75662081D01*
X195381327Y-75854692D01*
X195701627Y-75987364D01*
X196041655Y-76055000D01*
X196388345Y-76055000D01*
X196728373Y-75987364D01*
X197048673Y-75854692D01*
X197336935Y-75662081D01*
X197582081Y-75416935D01*
X197774692Y-75128673D01*
X197907364Y-74808373D01*
X197975000Y-74468345D01*
X197975000Y-74121655D01*
X197907364Y-73781627D01*
X197774692Y-73461327D01*
X197582081Y-73173065D01*
X197336935Y-72927919D01*
X197048673Y-72735308D01*
X196728373Y-72602636D01*
X196388345Y-72535000D01*
X196041655Y-72535000D01*
X195701627Y-72602636D01*
X195381327Y-72735308D01*
X195093065Y-72927919D01*
X194847919Y-73173065D01*
X194655308Y-73461327D01*
X194522636Y-73781627D01*
X194455000Y-74121655D01*
X190650000Y-74121655D01*
X190650000Y-60066076D01*
X191046100Y-60066076D01*
X191046100Y-60583924D01*
X191147127Y-61091822D01*
X191345299Y-61570251D01*
X191633000Y-62000826D01*
X191999174Y-62367000D01*
X192429749Y-62654701D01*
X192908178Y-62852873D01*
X193416076Y-62953900D01*
X193933924Y-62953900D01*
X194441822Y-62852873D01*
X194920251Y-62654701D01*
X195350826Y-62367000D01*
X195717000Y-62000826D01*
X196004701Y-61570251D01*
X196202873Y-61091822D01*
X196303900Y-60583924D01*
X196303900Y-60176278D01*
X197245000Y-60176278D01*
X197245000Y-60473722D01*
X197303029Y-60765451D01*
X197416856Y-61040253D01*
X197582107Y-61287569D01*
X197792431Y-61497893D01*
X198039747Y-61663144D01*
X198314549Y-61776971D01*
X198606278Y-61835000D01*
X198903722Y-61835000D01*
X199195451Y-61776971D01*
X199470253Y-61663144D01*
X199717569Y-61497893D01*
X199927893Y-61287569D01*
X200093144Y-61040253D01*
X200206971Y-60765451D01*
X200265000Y-60473722D01*
X200265000Y-60176278D01*
X200206971Y-59884549D01*
X200093144Y-59609747D01*
X199927893Y-59362431D01*
X199717569Y-59152107D01*
X199470253Y-58986856D01*
X199195451Y-58873029D01*
X198903722Y-58815000D01*
X198606278Y-58815000D01*
X198314549Y-58873029D01*
X198039747Y-58986856D01*
X197792431Y-59152107D01*
X197582107Y-59362431D01*
X197416856Y-59609747D01*
X197303029Y-59884549D01*
X197245000Y-60176278D01*
X196303900Y-60176278D01*
X196303900Y-60066076D01*
X196202873Y-59558178D01*
X196004701Y-59079749D01*
X195717000Y-58649174D01*
X195350826Y-58283000D01*
X194920251Y-57995299D01*
X194441822Y-57797127D01*
X193933924Y-57696100D01*
X193416076Y-57696100D01*
X192908178Y-57797127D01*
X192429749Y-57995299D01*
X191999174Y-58283000D01*
X191633000Y-58649174D01*
X191345299Y-59079749D01*
X191147127Y-59558178D01*
X191046100Y-60066076D01*
X190650000Y-60066076D01*
X190650000Y-59364853D01*
X190698673Y-59344692D01*
X190986935Y-59152081D01*
X191232081Y-58906935D01*
X191424692Y-58618673D01*
X191557364Y-58298373D01*
X191625000Y-57958345D01*
X191625000Y-57611655D01*
X191557364Y-57271627D01*
X191424692Y-56951327D01*
X191232081Y-56663065D01*
X190986935Y-56417919D01*
X190698673Y-56225308D01*
X190650000Y-56205147D01*
X190650000Y-55664552D01*
X190653797Y-55625999D01*
X190650000Y-55587446D01*
X190650000Y-55587439D01*
X190638641Y-55472113D01*
X190593754Y-55324140D01*
X190520862Y-55187767D01*
X190471450Y-55127559D01*
X190447345Y-55098187D01*
X190447342Y-55098184D01*
X190425570Y-55071655D01*
X194455000Y-55071655D01*
X194455000Y-55418345D01*
X194522636Y-55758373D01*
X194655308Y-56078673D01*
X194847919Y-56366935D01*
X195093065Y-56612081D01*
X195381327Y-56804692D01*
X195701627Y-56937364D01*
X196041655Y-57005000D01*
X196388345Y-57005000D01*
X196728373Y-56937364D01*
X197048673Y-56804692D01*
X197336935Y-56612081D01*
X197582081Y-56366935D01*
X197774692Y-56078673D01*
X197907364Y-55758373D01*
X197975000Y-55418345D01*
X197975000Y-55071655D01*
X197907364Y-54731627D01*
X197774692Y-54411327D01*
X197582081Y-54123065D01*
X197336935Y-53877919D01*
X197048673Y-53685308D01*
X196728373Y-53552636D01*
X196388345Y-53485000D01*
X196041655Y-53485000D01*
X195701627Y-53552636D01*
X195381327Y-53685308D01*
X195093065Y-53877919D01*
X194847919Y-54123065D01*
X194655308Y-54411327D01*
X194522636Y-54731627D01*
X194455000Y-55071655D01*
X190425570Y-55071655D01*
X190422764Y-55068236D01*
X190392816Y-55043658D01*
X188077157Y-52728000D01*
X204883022Y-52728000D01*
X208130001Y-55952739D01*
X208130001Y-56205147D01*
X208081327Y-56225308D01*
X207793065Y-56417919D01*
X207547919Y-56663065D01*
X207355308Y-56951327D01*
X207222636Y-57271627D01*
X207155000Y-57611655D01*
X207155000Y-57958345D01*
X207222636Y-58298373D01*
X207355308Y-58618673D01*
X207487638Y-58816719D01*
X207204549Y-58873029D01*
X206929747Y-58986856D01*
X206682431Y-59152107D01*
X206472107Y-59362431D01*
X206306856Y-59609747D01*
X206193029Y-59884549D01*
X206135000Y-60176278D01*
X206135000Y-60473722D01*
X206193029Y-60765451D01*
X206306856Y-61040253D01*
X206472107Y-61287569D01*
X206682431Y-61497893D01*
X206929747Y-61663144D01*
X207204549Y-61776971D01*
X207496278Y-61835000D01*
X207793722Y-61835000D01*
X208085451Y-61776971D01*
X208130001Y-61758518D01*
X208130000Y-75255147D01*
X208081327Y-75275308D01*
X207793065Y-75467919D01*
X207547919Y-75713065D01*
X207355308Y-76001327D01*
X207222636Y-76321627D01*
X207155000Y-76661655D01*
X207155000Y-77008345D01*
X207222636Y-77348373D01*
X207355308Y-77668673D01*
X207487638Y-77866719D01*
X207204549Y-77923029D01*
X206929747Y-78036856D01*
X206682431Y-78202107D01*
X206472107Y-78412431D01*
X206306856Y-78659747D01*
X206193029Y-78934549D01*
X206135000Y-79226278D01*
X206135000Y-79523722D01*
X206193029Y-79815451D01*
X206306856Y-80090253D01*
X206472107Y-80337569D01*
X206682431Y-80547893D01*
X206929747Y-80713144D01*
X207204549Y-80826971D01*
X207496278Y-80885000D01*
X207793722Y-80885000D01*
X208085451Y-80826971D01*
X208130001Y-80808518D01*
X208130000Y-94305147D01*
X208081327Y-94325308D01*
X207793065Y-94517919D01*
X207547919Y-94763065D01*
X207355308Y-95051327D01*
X207222636Y-95371627D01*
X207155000Y-95711655D01*
X207155000Y-96058345D01*
X207222636Y-96398373D01*
X207355308Y-96718673D01*
X207487638Y-96916719D01*
X207204549Y-96973029D01*
X206929747Y-97086856D01*
X206682431Y-97252107D01*
X206472107Y-97462431D01*
X206306856Y-97709747D01*
X206193029Y-97984549D01*
X206135000Y-98276278D01*
X206135000Y-98573722D01*
X206193029Y-98865451D01*
X206306856Y-99140253D01*
X206472107Y-99387569D01*
X206682431Y-99597893D01*
X206929747Y-99763144D01*
X207204549Y-99876971D01*
X207496278Y-99935000D01*
X207793722Y-99935000D01*
X208085451Y-99876971D01*
X208360253Y-99763144D01*
X208607569Y-99597893D01*
X208817893Y-99387569D01*
X208983144Y-99140253D01*
X209096971Y-98865451D01*
X209155000Y-98573722D01*
X209155000Y-98276278D01*
X209133080Y-98166076D01*
X210096100Y-98166076D01*
X210096100Y-98683924D01*
X210197127Y-99191822D01*
X210395299Y-99670251D01*
X210683000Y-100100826D01*
X211049174Y-100467000D01*
X211479749Y-100754701D01*
X211958178Y-100952873D01*
X212466076Y-101053900D01*
X212983924Y-101053900D01*
X213491822Y-100952873D01*
X213970251Y-100754701D01*
X214400826Y-100467000D01*
X214767000Y-100100826D01*
X215054701Y-99670251D01*
X215252873Y-99191822D01*
X215353900Y-98683924D01*
X215353900Y-98276278D01*
X216295000Y-98276278D01*
X216295000Y-98573722D01*
X216353029Y-98865451D01*
X216466856Y-99140253D01*
X216632107Y-99387569D01*
X216842431Y-99597893D01*
X217089747Y-99763144D01*
X217364549Y-99876971D01*
X217656278Y-99935000D01*
X217953722Y-99935000D01*
X218245451Y-99876971D01*
X218520253Y-99763144D01*
X218767569Y-99597893D01*
X218977893Y-99387569D01*
X219143144Y-99140253D01*
X219256971Y-98865451D01*
X219315000Y-98573722D01*
X219315000Y-98276278D01*
X219256971Y-97984549D01*
X219143144Y-97709747D01*
X218977893Y-97462431D01*
X218767569Y-97252107D01*
X218520253Y-97086856D01*
X218245451Y-96973029D01*
X217953722Y-96915000D01*
X217656278Y-96915000D01*
X217364549Y-96973029D01*
X217089747Y-97086856D01*
X216842431Y-97252107D01*
X216632107Y-97462431D01*
X216466856Y-97709747D01*
X216353029Y-97984549D01*
X216295000Y-98276278D01*
X215353900Y-98276278D01*
X215353900Y-98166076D01*
X215252873Y-97658178D01*
X215054701Y-97179749D01*
X214767000Y-96749174D01*
X214400826Y-96383000D01*
X213970251Y-96095299D01*
X213491822Y-95897127D01*
X212983924Y-95796100D01*
X212466076Y-95796100D01*
X211958178Y-95897127D01*
X211479749Y-96095299D01*
X211049174Y-96383000D01*
X210683000Y-96749174D01*
X210395299Y-97179749D01*
X210197127Y-97658178D01*
X210096100Y-98166076D01*
X209133080Y-98166076D01*
X209096971Y-97984549D01*
X208983144Y-97709747D01*
X208939882Y-97645000D01*
X209088345Y-97645000D01*
X209428373Y-97577364D01*
X209748673Y-97444692D01*
X210036935Y-97252081D01*
X210282081Y-97006935D01*
X210474692Y-96718673D01*
X210607364Y-96398373D01*
X210675000Y-96058345D01*
X210675000Y-95711655D01*
X210607364Y-95371627D01*
X210474692Y-95051327D01*
X210282081Y-94763065D01*
X210036935Y-94517919D01*
X209748673Y-94325308D01*
X209700000Y-94305147D01*
X209700000Y-93171655D01*
X213505000Y-93171655D01*
X213505000Y-93518345D01*
X213572636Y-93858373D01*
X213705308Y-94178673D01*
X213897919Y-94466935D01*
X214143065Y-94712081D01*
X214431327Y-94904692D01*
X214751627Y-95037364D01*
X215091655Y-95105000D01*
X215438345Y-95105000D01*
X215778373Y-95037364D01*
X216098673Y-94904692D01*
X216386935Y-94712081D01*
X216632081Y-94466935D01*
X216824692Y-94178673D01*
X216957364Y-93858373D01*
X217025000Y-93518345D01*
X217025000Y-93171655D01*
X216957364Y-92831627D01*
X216824692Y-92511327D01*
X216632081Y-92223065D01*
X216386935Y-91977919D01*
X216098673Y-91785308D01*
X215778373Y-91652636D01*
X215438345Y-91585000D01*
X215091655Y-91585000D01*
X214751627Y-91652636D01*
X214431327Y-91785308D01*
X214143065Y-91977919D01*
X213897919Y-92223065D01*
X213705308Y-92511327D01*
X213572636Y-92831627D01*
X213505000Y-93171655D01*
X209700000Y-93171655D01*
X209700000Y-79116076D01*
X210096100Y-79116076D01*
X210096100Y-79633924D01*
X210197127Y-80141822D01*
X210395299Y-80620251D01*
X210683000Y-81050826D01*
X211049174Y-81417000D01*
X211479749Y-81704701D01*
X211958178Y-81902873D01*
X212466076Y-82003900D01*
X212983924Y-82003900D01*
X213491822Y-81902873D01*
X213970251Y-81704701D01*
X214400826Y-81417000D01*
X214767000Y-81050826D01*
X215054701Y-80620251D01*
X215252873Y-80141822D01*
X215353900Y-79633924D01*
X215353900Y-79226278D01*
X216295000Y-79226278D01*
X216295000Y-79523722D01*
X216353029Y-79815451D01*
X216466856Y-80090253D01*
X216632107Y-80337569D01*
X216842431Y-80547893D01*
X217089747Y-80713144D01*
X217364549Y-80826971D01*
X217656278Y-80885000D01*
X217953722Y-80885000D01*
X218245451Y-80826971D01*
X218520253Y-80713144D01*
X218767569Y-80547893D01*
X218977893Y-80337569D01*
X219143144Y-80090253D01*
X219256971Y-79815451D01*
X219315000Y-79523722D01*
X219315000Y-79226278D01*
X219256971Y-78934549D01*
X219143144Y-78659747D01*
X218977893Y-78412431D01*
X218767569Y-78202107D01*
X218520253Y-78036856D01*
X218245451Y-77923029D01*
X217953722Y-77865000D01*
X217656278Y-77865000D01*
X217364549Y-77923029D01*
X217089747Y-78036856D01*
X216842431Y-78202107D01*
X216632107Y-78412431D01*
X216466856Y-78659747D01*
X216353029Y-78934549D01*
X216295000Y-79226278D01*
X215353900Y-79226278D01*
X215353900Y-79116076D01*
X215252873Y-78608178D01*
X215054701Y-78129749D01*
X214767000Y-77699174D01*
X214400826Y-77333000D01*
X213970251Y-77045299D01*
X213491822Y-76847127D01*
X212983924Y-76746100D01*
X212466076Y-76746100D01*
X211958178Y-76847127D01*
X211479749Y-77045299D01*
X211049174Y-77333000D01*
X210683000Y-77699174D01*
X210395299Y-78129749D01*
X210197127Y-78608178D01*
X210096100Y-79116076D01*
X209700000Y-79116076D01*
X209700000Y-78414853D01*
X209748673Y-78394692D01*
X210036935Y-78202081D01*
X210282081Y-77956935D01*
X210474692Y-77668673D01*
X210607364Y-77348373D01*
X210675000Y-77008345D01*
X210675000Y-76661655D01*
X210607364Y-76321627D01*
X210474692Y-76001327D01*
X210282081Y-75713065D01*
X210036935Y-75467919D01*
X209748673Y-75275308D01*
X209700000Y-75255147D01*
X209700000Y-74121655D01*
X213505000Y-74121655D01*
X213505000Y-74468345D01*
X213572636Y-74808373D01*
X213705308Y-75128673D01*
X213897919Y-75416935D01*
X214143065Y-75662081D01*
X214431327Y-75854692D01*
X214751627Y-75987364D01*
X215091655Y-76055000D01*
X215438345Y-76055000D01*
X215778373Y-75987364D01*
X216098673Y-75854692D01*
X216386935Y-75662081D01*
X216632081Y-75416935D01*
X216824692Y-75128673D01*
X216957364Y-74808373D01*
X217025000Y-74468345D01*
X217025000Y-74121655D01*
X216957364Y-73781627D01*
X216824692Y-73461327D01*
X216632081Y-73173065D01*
X216386935Y-72927919D01*
X216098673Y-72735308D01*
X215778373Y-72602636D01*
X215438345Y-72535000D01*
X215091655Y-72535000D01*
X214751627Y-72602636D01*
X214431327Y-72735308D01*
X214143065Y-72927919D01*
X213897919Y-73173065D01*
X213705308Y-73461327D01*
X213572636Y-73781627D01*
X213505000Y-74121655D01*
X209700000Y-74121655D01*
X209700000Y-60066076D01*
X210096100Y-60066076D01*
X210096100Y-60583924D01*
X210197127Y-61091822D01*
X210395299Y-61570251D01*
X210683000Y-62000826D01*
X211049174Y-62367000D01*
X211479749Y-62654701D01*
X211958178Y-62852873D01*
X212466076Y-62953900D01*
X212983924Y-62953900D01*
X213491822Y-62852873D01*
X213970251Y-62654701D01*
X214400826Y-62367000D01*
X214767000Y-62000826D01*
X215054701Y-61570251D01*
X215252873Y-61091822D01*
X215353900Y-60583924D01*
X215353900Y-60176278D01*
X216295000Y-60176278D01*
X216295000Y-60473722D01*
X216353029Y-60765451D01*
X216466856Y-61040253D01*
X216632107Y-61287569D01*
X216842431Y-61497893D01*
X217089747Y-61663144D01*
X217364549Y-61776971D01*
X217656278Y-61835000D01*
X217953722Y-61835000D01*
X218245451Y-61776971D01*
X218520253Y-61663144D01*
X218767569Y-61497893D01*
X218977893Y-61287569D01*
X219143144Y-61040253D01*
X219256971Y-60765451D01*
X219315000Y-60473722D01*
X219315000Y-60176278D01*
X219256971Y-59884549D01*
X219143144Y-59609747D01*
X218977893Y-59362431D01*
X218767569Y-59152107D01*
X218520253Y-58986856D01*
X218245451Y-58873029D01*
X217953722Y-58815000D01*
X217656278Y-58815000D01*
X217364549Y-58873029D01*
X217089747Y-58986856D01*
X216842431Y-59152107D01*
X216632107Y-59362431D01*
X216466856Y-59609747D01*
X216353029Y-59884549D01*
X216295000Y-60176278D01*
X215353900Y-60176278D01*
X215353900Y-60066076D01*
X215252873Y-59558178D01*
X215054701Y-59079749D01*
X214767000Y-58649174D01*
X214400826Y-58283000D01*
X213970251Y-57995299D01*
X213491822Y-57797127D01*
X212983924Y-57696100D01*
X212466076Y-57696100D01*
X211958178Y-57797127D01*
X211479749Y-57995299D01*
X211049174Y-58283000D01*
X210683000Y-58649174D01*
X210395299Y-59079749D01*
X210197127Y-59558178D01*
X210096100Y-60066076D01*
X209700000Y-60066076D01*
X209700000Y-59364853D01*
X209748673Y-59344692D01*
X210036935Y-59152081D01*
X210282081Y-58906935D01*
X210474692Y-58618673D01*
X210607364Y-58298373D01*
X210675000Y-57958345D01*
X210675000Y-57611655D01*
X210607364Y-57271627D01*
X210474692Y-56951327D01*
X210282081Y-56663065D01*
X210036935Y-56417919D01*
X209748673Y-56225308D01*
X209700000Y-56205147D01*
X209700000Y-55663200D01*
X209703792Y-55623289D01*
X209696101Y-55547851D01*
X209688641Y-55472113D01*
X209688246Y-55470812D01*
X209688108Y-55469455D01*
X209665795Y-55396800D01*
X209643754Y-55324140D01*
X209643112Y-55322938D01*
X209642712Y-55321637D01*
X209606758Y-55254925D01*
X209570862Y-55187767D01*
X209569994Y-55186710D01*
X209569351Y-55185516D01*
X209520959Y-55126961D01*
X209475570Y-55071655D01*
X213505000Y-55071655D01*
X213505000Y-55418345D01*
X213572636Y-55758373D01*
X213705308Y-56078673D01*
X213897919Y-56366935D01*
X214143065Y-56612081D01*
X214431327Y-56804692D01*
X214751627Y-56937364D01*
X215091655Y-57005000D01*
X215438345Y-57005000D01*
X215778373Y-56937364D01*
X216098673Y-56804692D01*
X216386935Y-56612081D01*
X216632081Y-56366935D01*
X216824692Y-56078673D01*
X216957364Y-55758373D01*
X217025000Y-55418345D01*
X217025000Y-55071655D01*
X216957364Y-54731627D01*
X216824692Y-54411327D01*
X216632081Y-54123065D01*
X216386935Y-53877919D01*
X216098673Y-53685308D01*
X215778373Y-53552636D01*
X215438345Y-53485000D01*
X215091655Y-53485000D01*
X214751627Y-53552636D01*
X214431327Y-53685308D01*
X214143065Y-53877919D01*
X213897919Y-54123065D01*
X213705308Y-54411327D01*
X213572636Y-54731627D01*
X213505000Y-55071655D01*
X209475570Y-55071655D01*
X209472764Y-55068236D01*
X209441772Y-55042801D01*
X205788093Y-51414150D01*
X205764364Y-51385236D01*
X205733359Y-51359790D01*
X205732407Y-51358845D01*
X205703841Y-51335565D01*
X205644833Y-51287138D01*
X205643624Y-51286492D01*
X205642575Y-51285637D01*
X205575732Y-51250203D01*
X205508460Y-51214246D01*
X205507155Y-51213850D01*
X205505953Y-51213213D01*
X205433144Y-51191399D01*
X205360487Y-51169359D01*
X205359135Y-51169226D01*
X205357827Y-51168834D01*
X205282290Y-51161657D01*
X205245161Y-51158000D01*
X205243800Y-51158000D01*
X205203890Y-51154208D01*
X205166697Y-51158000D01*
X182461057Y-51158000D01*
X182483533Y-51151182D01*
X182628592Y-51073646D01*
X182755737Y-50969301D01*
X182781892Y-50937431D01*
X185981427Y-47737897D01*
X186013291Y-47711747D01*
X186117636Y-47584602D01*
X186195172Y-47439543D01*
X186242918Y-47282145D01*
X186253358Y-47176147D01*
X186259040Y-47118457D01*
X186255000Y-47077438D01*
X186255000Y-45666000D01*
X190727282Y-45666000D01*
X190768300Y-45670040D01*
X190809318Y-45666000D01*
X190809319Y-45666000D01*
X190931989Y-45653918D01*
X191089387Y-45606172D01*
X191234446Y-45528636D01*
X191361591Y-45424291D01*
X191387746Y-45392421D01*
X193759297Y-43020872D01*
X194554000Y-43020872D01*
X194727254Y-43003808D01*
X194893850Y-42953272D01*
X195047386Y-42871205D01*
X195181962Y-42760762D01*
X195292405Y-42626186D01*
X195374472Y-42472650D01*
X195425008Y-42306054D01*
X195442072Y-42132800D01*
X195442072Y-41817200D01*
X196019928Y-41817200D01*
X196032188Y-41941682D01*
X196068498Y-42061380D01*
X196127463Y-42171694D01*
X196206815Y-42268385D01*
X196303506Y-42347737D01*
X196413820Y-42406702D01*
X196533518Y-42443012D01*
X196658000Y-42455272D01*
X197072250Y-42452200D01*
X197231000Y-42293450D01*
X197231000Y-41369200D01*
X197485000Y-41369200D01*
X197485000Y-42293450D01*
X197643750Y-42452200D01*
X198058000Y-42455272D01*
X198182482Y-42443012D01*
X198302180Y-42406702D01*
X198412494Y-42347737D01*
X198427508Y-42335415D01*
X198462506Y-42364137D01*
X198572820Y-42423102D01*
X198692518Y-42459412D01*
X198817000Y-42471672D01*
X199231250Y-42468600D01*
X199390000Y-42309850D01*
X199390000Y-41385600D01*
X199644000Y-41385600D01*
X199644000Y-42309850D01*
X199802750Y-42468600D01*
X200217000Y-42471672D01*
X200341482Y-42459412D01*
X200461180Y-42423102D01*
X200571494Y-42364137D01*
X200668185Y-42284785D01*
X200747537Y-42188094D01*
X200806502Y-42077780D01*
X200842812Y-41958082D01*
X200855072Y-41833600D01*
X200852000Y-41544350D01*
X200693250Y-41385600D01*
X199644000Y-41385600D01*
X199390000Y-41385600D01*
X198550650Y-41385600D01*
X198534250Y-41369200D01*
X197485000Y-41369200D01*
X197231000Y-41369200D01*
X196181750Y-41369200D01*
X196023000Y-41527950D01*
X196019928Y-41817200D01*
X195442072Y-41817200D01*
X195442072Y-41207800D01*
X195425008Y-41034546D01*
X195374472Y-40867950D01*
X195292405Y-40714414D01*
X195181962Y-40579838D01*
X195047386Y-40469395D01*
X194893850Y-40387328D01*
X194727254Y-40336792D01*
X194554000Y-40319728D01*
X193304000Y-40319728D01*
X193130746Y-40336792D01*
X192964150Y-40387328D01*
X192810614Y-40469395D01*
X192676038Y-40579838D01*
X192565595Y-40714414D01*
X192483528Y-40867950D01*
X192432992Y-41034546D01*
X192415928Y-41207800D01*
X192415928Y-42002504D01*
X190422433Y-43996000D01*
X187246957Y-43996000D01*
X187673323Y-43569634D01*
X187732026Y-43628337D01*
X187901544Y-43741605D01*
X188089902Y-43819626D01*
X188289861Y-43859400D01*
X188493739Y-43859400D01*
X188693698Y-43819626D01*
X188882056Y-43741605D01*
X189051574Y-43628337D01*
X189070511Y-43609400D01*
X189928047Y-43609400D01*
X189966600Y-43613197D01*
X190005153Y-43609400D01*
X190005161Y-43609400D01*
X190120487Y-43598041D01*
X190268460Y-43553154D01*
X190404833Y-43480262D01*
X190524364Y-43382164D01*
X190548947Y-43352210D01*
X191053211Y-42847946D01*
X191083164Y-42823364D01*
X191181262Y-42703833D01*
X191254154Y-42567460D01*
X191262075Y-42541349D01*
X191299042Y-42419487D01*
X191305500Y-42353907D01*
X191443387Y-42280205D01*
X191577962Y-42169762D01*
X191688405Y-42035187D01*
X191770472Y-41881651D01*
X191821008Y-41715055D01*
X191838072Y-41541801D01*
X191838072Y-40891799D01*
X191821008Y-40718545D01*
X191770472Y-40551949D01*
X191688405Y-40398413D01*
X191577962Y-40263838D01*
X191490184Y-40191800D01*
X191577962Y-40119762D01*
X191688405Y-39985187D01*
X191770472Y-39831651D01*
X191821008Y-39665055D01*
X191838072Y-39491801D01*
X191838072Y-38841799D01*
X191821008Y-38668545D01*
X191770472Y-38501949D01*
X191688405Y-38348413D01*
X191577962Y-38213838D01*
X191443387Y-38103395D01*
X191289851Y-38021328D01*
X191285000Y-38019856D01*
X191285000Y-37298577D01*
X191469209Y-37107000D01*
X193077647Y-37107000D01*
X193116200Y-37110797D01*
X193154753Y-37107000D01*
X193154761Y-37107000D01*
X193217597Y-37100811D01*
X193153828Y-37220114D01*
X193108834Y-37368439D01*
X192964150Y-37412328D01*
X192810614Y-37494395D01*
X192676038Y-37604838D01*
X192565595Y-37739414D01*
X192483528Y-37892950D01*
X192432992Y-38059546D01*
X192415928Y-38232800D01*
X192415928Y-39157800D01*
X192432992Y-39331054D01*
X192483528Y-39497650D01*
X192565595Y-39651186D01*
X192676038Y-39785762D01*
X192810614Y-39896205D01*
X192964150Y-39978272D01*
X193130746Y-40028808D01*
X193304000Y-40045872D01*
X194554000Y-40045872D01*
X194727254Y-40028808D01*
X194893850Y-39978272D01*
X195047386Y-39896205D01*
X195181962Y-39785762D01*
X195292405Y-39651186D01*
X195374472Y-39497650D01*
X195425008Y-39331054D01*
X195442072Y-39157800D01*
X195442072Y-38232800D01*
X195425008Y-38059546D01*
X195392557Y-37952570D01*
X195523088Y-37912974D01*
X195668147Y-37835438D01*
X195795292Y-37731093D01*
X195821447Y-37699223D01*
X196243022Y-37277648D01*
X196274891Y-37251494D01*
X196369610Y-37136079D01*
X196337374Y-37213902D01*
X196297600Y-37413861D01*
X196297600Y-37617739D01*
X196337374Y-37817698D01*
X196415395Y-38006056D01*
X196475618Y-38096187D01*
X196414613Y-38128795D01*
X196280038Y-38239238D01*
X196169595Y-38373813D01*
X196087528Y-38527349D01*
X196036992Y-38693945D01*
X196019928Y-38867199D01*
X196019928Y-39517201D01*
X196036992Y-39690455D01*
X196087528Y-39857051D01*
X196169595Y-40010587D01*
X196280038Y-40145162D01*
X196286594Y-40150542D01*
X196206815Y-40216015D01*
X196127463Y-40312706D01*
X196068498Y-40423020D01*
X196032188Y-40542718D01*
X196019928Y-40667200D01*
X196023000Y-40956450D01*
X196181750Y-41115200D01*
X197231000Y-41115200D01*
X197231000Y-41095200D01*
X197485000Y-41095200D01*
X197485000Y-41115200D01*
X198324350Y-41115200D01*
X198340750Y-41131600D01*
X199390000Y-41131600D01*
X199390000Y-41111600D01*
X199644000Y-41111600D01*
X199644000Y-41131600D01*
X200693250Y-41131600D01*
X200852000Y-40972850D01*
X200855072Y-40683600D01*
X200842812Y-40559118D01*
X200806502Y-40439420D01*
X200747537Y-40329106D01*
X200668185Y-40232415D01*
X200588406Y-40166942D01*
X200594962Y-40161562D01*
X200705405Y-40026987D01*
X200787472Y-39873451D01*
X200838008Y-39706855D01*
X200855072Y-39533601D01*
X200855072Y-38883599D01*
X200838008Y-38710345D01*
X200787472Y-38543749D01*
X200705405Y-38390213D01*
X200594962Y-38255638D01*
X200460387Y-38145195D01*
X200322570Y-38071530D01*
X200434205Y-37904456D01*
X200512226Y-37716098D01*
X200552000Y-37516139D01*
X200552000Y-37312261D01*
X200512226Y-37112302D01*
X200434205Y-36923944D01*
X200320937Y-36754426D01*
X200176774Y-36610263D01*
X200007256Y-36496995D01*
X199818898Y-36418974D01*
X199618939Y-36379200D01*
X199415061Y-36379200D01*
X199215102Y-36418974D01*
X199026744Y-36496995D01*
X198857226Y-36610263D01*
X198713063Y-36754426D01*
X198599795Y-36923944D01*
X198521774Y-37112302D01*
X198482000Y-37312261D01*
X198482000Y-37516139D01*
X198521774Y-37716098D01*
X198599795Y-37904456D01*
X198711430Y-38071530D01*
X198573613Y-38145195D01*
X198445242Y-38250546D01*
X198435962Y-38239238D01*
X198301387Y-38128795D01*
X198202950Y-38076179D01*
X198249805Y-38006056D01*
X198327826Y-37817698D01*
X198367600Y-37617739D01*
X198367600Y-37413861D01*
X198327826Y-37213902D01*
X198249805Y-37025544D01*
X198136537Y-36856026D01*
X197992374Y-36711863D01*
X197822856Y-36598595D01*
X197634498Y-36520574D01*
X197434539Y-36480800D01*
X197230661Y-36480800D01*
X197030702Y-36520574D01*
X196842344Y-36598595D01*
X196672826Y-36711863D01*
X196528663Y-36856026D01*
X196465478Y-36950589D01*
X196504518Y-36821892D01*
X196516600Y-36699222D01*
X196516600Y-36699212D01*
X196520639Y-36658204D01*
X196516600Y-36617196D01*
X196516600Y-35772779D01*
X196612361Y-35773297D01*
X196798028Y-35737408D01*
X196973126Y-35665987D01*
X196982323Y-35661070D01*
X196995931Y-35465336D01*
X196600639Y-35070044D01*
X196633000Y-34907352D01*
X196633000Y-34718248D01*
X196632171Y-34714081D01*
X196716748Y-34798658D01*
X196702605Y-34812800D01*
X196804095Y-34914290D01*
X196823108Y-34959143D01*
X196954940Y-35152969D01*
X197122052Y-35317352D01*
X197318023Y-35445974D01*
X197535321Y-35533893D01*
X197562627Y-35534576D01*
X197746000Y-35409192D01*
X197746000Y-33959800D01*
X198000000Y-33959800D01*
X198000000Y-35409192D01*
X198183373Y-35534576D01*
X198210679Y-35533893D01*
X198427977Y-35445974D01*
X198623948Y-35317352D01*
X198791060Y-35152969D01*
X198922892Y-34959143D01*
X199014377Y-34743322D01*
X199062000Y-34513800D01*
X199062000Y-33959800D01*
X198000000Y-33959800D01*
X197746000Y-33959800D01*
X197726000Y-33959800D01*
X197726000Y-33705800D01*
X197746000Y-33705800D01*
X197746000Y-33685800D01*
X198000000Y-33685800D01*
X198000000Y-33705800D01*
X199062000Y-33705800D01*
X199062000Y-33151800D01*
X199014377Y-32922278D01*
X198922892Y-32706457D01*
X198915650Y-32695810D01*
X208979253Y-32695810D01*
X209247601Y-32964159D01*
X209247600Y-35623047D01*
X209243803Y-35661600D01*
X209247600Y-35700153D01*
X209247600Y-35700160D01*
X209258959Y-35815486D01*
X209303846Y-35963459D01*
X209376738Y-36099832D01*
X209474836Y-36219364D01*
X209504789Y-36243946D01*
X209978657Y-36717815D01*
X210003236Y-36747764D01*
X210033184Y-36772342D01*
X210033187Y-36772345D01*
X210060783Y-36794992D01*
X210122767Y-36845862D01*
X210259140Y-36918754D01*
X210372672Y-36953194D01*
X210407112Y-36963641D01*
X210421490Y-36965057D01*
X210522439Y-36975000D01*
X210522446Y-36975000D01*
X210560999Y-36978797D01*
X210599552Y-36975000D01*
X210824317Y-36975000D01*
X210861463Y-37044494D01*
X210940815Y-37141185D01*
X211037506Y-37220537D01*
X211147820Y-37279502D01*
X211267518Y-37315812D01*
X211392000Y-37328072D01*
X212722515Y-37328072D01*
X213387258Y-37992815D01*
X213411836Y-38022764D01*
X213441784Y-38047342D01*
X213441787Y-38047345D01*
X213456654Y-38059546D01*
X213531367Y-38120862D01*
X213667740Y-38193754D01*
X213781272Y-38228194D01*
X213815712Y-38238641D01*
X213821774Y-38239238D01*
X213931039Y-38250000D01*
X213931046Y-38250000D01*
X213969599Y-38253797D01*
X214008152Y-38250000D01*
X216775847Y-38250000D01*
X216814400Y-38253797D01*
X216852953Y-38250000D01*
X216852961Y-38250000D01*
X216968287Y-38238641D01*
X217116260Y-38193754D01*
X217252633Y-38120862D01*
X217372164Y-38022764D01*
X217396747Y-37992810D01*
X218061486Y-37328072D01*
X219392000Y-37328072D01*
X219516482Y-37315812D01*
X219636180Y-37279502D01*
X219746494Y-37220537D01*
X219843185Y-37141185D01*
X219922537Y-37044494D01*
X219981502Y-36934180D01*
X220017812Y-36814482D01*
X220030072Y-36690000D01*
X220030072Y-35690000D01*
X220017812Y-35565518D01*
X219981502Y-35445820D01*
X219922537Y-35335506D01*
X219843185Y-35238815D01*
X219746494Y-35159463D01*
X219636180Y-35100498D01*
X219516482Y-35064188D01*
X219392000Y-35051928D01*
X217692000Y-35051928D01*
X217567518Y-35064188D01*
X217447820Y-35100498D01*
X217337506Y-35159463D01*
X217240815Y-35238815D01*
X217161463Y-35335506D01*
X217102498Y-35445820D01*
X217066188Y-35565518D01*
X217053928Y-35690000D01*
X217053928Y-36115314D01*
X216489243Y-36680000D01*
X214294758Y-36680000D01*
X213730072Y-36115315D01*
X213730072Y-35690000D01*
X213717812Y-35565518D01*
X213681502Y-35445820D01*
X213622537Y-35335506D01*
X213543185Y-35238815D01*
X213446494Y-35159463D01*
X213336180Y-35100498D01*
X213216482Y-35064188D01*
X213092000Y-35051928D01*
X211392000Y-35051928D01*
X211267518Y-35064188D01*
X211147820Y-35100498D01*
X211037506Y-35159463D01*
X210940815Y-35238815D01*
X210861463Y-35335506D01*
X210845858Y-35364700D01*
X210817600Y-35336443D01*
X210817600Y-33162433D01*
X210861463Y-33244494D01*
X210940815Y-33341185D01*
X211037506Y-33420537D01*
X211147820Y-33479502D01*
X211267518Y-33515812D01*
X211392000Y-33528072D01*
X211956250Y-33525000D01*
X212115000Y-33366250D01*
X212115000Y-32517000D01*
X212369000Y-32517000D01*
X212369000Y-33366250D01*
X212527750Y-33525000D01*
X213092000Y-33528072D01*
X213216482Y-33515812D01*
X213336180Y-33479502D01*
X213446494Y-33420537D01*
X213543185Y-33341185D01*
X213622537Y-33244494D01*
X213681502Y-33134180D01*
X213717812Y-33014482D01*
X213730072Y-32890000D01*
X217053928Y-32890000D01*
X217066188Y-33014482D01*
X217102498Y-33134180D01*
X217161463Y-33244494D01*
X217240815Y-33341185D01*
X217337506Y-33420537D01*
X217447820Y-33479502D01*
X217567518Y-33515812D01*
X217692000Y-33528072D01*
X218256250Y-33525000D01*
X218415000Y-33366250D01*
X218415000Y-32517000D01*
X218669000Y-32517000D01*
X218669000Y-33366250D01*
X218827750Y-33525000D01*
X219392000Y-33528072D01*
X219516482Y-33515812D01*
X219636180Y-33479502D01*
X219746494Y-33420537D01*
X219843185Y-33341185D01*
X219922537Y-33244494D01*
X219981502Y-33134180D01*
X220017812Y-33014482D01*
X220030072Y-32890000D01*
X220027000Y-32675750D01*
X219868250Y-32517000D01*
X218669000Y-32517000D01*
X218415000Y-32517000D01*
X217215750Y-32517000D01*
X217057000Y-32675750D01*
X217053928Y-32890000D01*
X213730072Y-32890000D01*
X213727000Y-32675750D01*
X213568250Y-32517000D01*
X212369000Y-32517000D01*
X212115000Y-32517000D01*
X212095000Y-32517000D01*
X212095000Y-32263000D01*
X212115000Y-32263000D01*
X212115000Y-31413750D01*
X212369000Y-31413750D01*
X212369000Y-32263000D01*
X213568250Y-32263000D01*
X213727000Y-32104250D01*
X213730072Y-31890000D01*
X217053928Y-31890000D01*
X217057000Y-32104250D01*
X217215750Y-32263000D01*
X218415000Y-32263000D01*
X218415000Y-31413750D01*
X218669000Y-31413750D01*
X218669000Y-32263000D01*
X219868250Y-32263000D01*
X220027000Y-32104250D01*
X220030072Y-31890000D01*
X220017812Y-31765518D01*
X219981502Y-31645820D01*
X219922537Y-31535506D01*
X219843185Y-31438815D01*
X219746494Y-31359463D01*
X219636180Y-31300498D01*
X219516482Y-31264188D01*
X219392000Y-31251928D01*
X218827750Y-31255000D01*
X218669000Y-31413750D01*
X218415000Y-31413750D01*
X218256250Y-31255000D01*
X217692000Y-31251928D01*
X217567518Y-31264188D01*
X217447820Y-31300498D01*
X217337506Y-31359463D01*
X217240815Y-31438815D01*
X217161463Y-31535506D01*
X217102498Y-31645820D01*
X217066188Y-31765518D01*
X217053928Y-31890000D01*
X213730072Y-31890000D01*
X213717812Y-31765518D01*
X213681502Y-31645820D01*
X213622537Y-31535506D01*
X213543185Y-31438815D01*
X213446494Y-31359463D01*
X213336180Y-31300498D01*
X213216482Y-31264188D01*
X213092000Y-31251928D01*
X212527750Y-31255000D01*
X212369000Y-31413750D01*
X212115000Y-31413750D01*
X211956250Y-31255000D01*
X211392000Y-31251928D01*
X211267518Y-31264188D01*
X211147820Y-31300498D01*
X211037506Y-31359463D01*
X210940815Y-31438815D01*
X210861463Y-31535506D01*
X210802498Y-31645820D01*
X210766188Y-31765518D01*
X210753928Y-31890000D01*
X210757000Y-32104250D01*
X210915748Y-32262998D01*
X210757000Y-32262998D01*
X210757000Y-32328994D01*
X210725589Y-32270228D01*
X210688462Y-32200767D01*
X210631225Y-32131024D01*
X210614945Y-32111187D01*
X210614942Y-32111184D01*
X210590364Y-32081236D01*
X210560415Y-32056657D01*
X209886757Y-31382999D01*
X209862174Y-31353046D01*
X209742643Y-31254948D01*
X209606270Y-31182056D01*
X209458297Y-31137169D01*
X209342971Y-31125810D01*
X209342963Y-31125810D01*
X209304410Y-31122013D01*
X209265857Y-31125810D01*
X199062000Y-31125810D01*
X199062000Y-30579800D01*
X198000000Y-30579800D01*
X198000000Y-30599800D01*
X197746000Y-30599800D01*
X197746000Y-30579800D01*
X196684000Y-30579800D01*
X196684000Y-31125810D01*
X190412000Y-31125810D01*
X190412000Y-30579800D01*
X189350000Y-30579800D01*
X189350000Y-30599800D01*
X189096000Y-30599800D01*
X189096000Y-30579800D01*
X188034000Y-30579800D01*
X188034000Y-30713843D01*
X187805747Y-30485590D01*
X187781164Y-30455636D01*
X187661633Y-30357538D01*
X187525260Y-30284646D01*
X187377287Y-30239759D01*
X187261961Y-30228400D01*
X187261953Y-30228400D01*
X187223400Y-30224603D01*
X187184847Y-30228400D01*
X184734827Y-30228400D01*
X184703405Y-30169613D01*
X184592962Y-30035038D01*
X184458387Y-29924595D01*
X184304851Y-29842528D01*
X184138255Y-29791992D01*
X183965001Y-29774928D01*
X183064999Y-29774928D01*
X182891745Y-29791992D01*
X182725149Y-29842528D01*
X182571613Y-29924595D01*
X182437038Y-30035038D01*
X182326595Y-30169613D01*
X182244528Y-30323149D01*
X182193992Y-30489745D01*
X182191446Y-30515597D01*
X181767985Y-30939058D01*
X181738037Y-30963636D01*
X181713459Y-30993584D01*
X181713455Y-30993588D01*
X181697196Y-31013400D01*
X181639939Y-31083167D01*
X181611075Y-31137169D01*
X181567046Y-31219541D01*
X181522159Y-31367514D01*
X181507003Y-31521400D01*
X181510801Y-31559958D01*
X181510800Y-33025043D01*
X181253047Y-33282797D01*
X181135250Y-33165000D01*
X180086000Y-33165000D01*
X180086000Y-33185000D01*
X179832000Y-33185000D01*
X179832000Y-33165000D01*
X179812000Y-33165000D01*
X179812000Y-32911000D01*
X179832000Y-32911000D01*
X179832000Y-32891000D01*
X180086000Y-32891000D01*
X180086000Y-32911000D01*
X181135250Y-32911000D01*
X181294000Y-32752250D01*
X181297072Y-32463000D01*
X181284812Y-32338518D01*
X181248502Y-32218820D01*
X181189537Y-32108506D01*
X181110185Y-32011815D01*
X181030406Y-31946342D01*
X181036962Y-31940962D01*
X181147405Y-31806387D01*
X181229472Y-31652851D01*
X181280008Y-31486255D01*
X181297072Y-31313001D01*
X181297072Y-30662999D01*
X181280008Y-30489745D01*
X181229472Y-30323149D01*
X181147405Y-30169613D01*
X181036962Y-30035038D01*
X180902387Y-29924595D01*
X180748851Y-29842528D01*
X180582255Y-29791992D01*
X180409001Y-29774928D01*
X179508999Y-29774928D01*
X179335745Y-29791992D01*
X179169149Y-29842528D01*
X179015613Y-29924595D01*
X178881038Y-30035038D01*
X178779072Y-30159284D01*
X178779072Y-30004000D01*
X178766812Y-29879518D01*
X178730502Y-29759820D01*
X178671537Y-29649506D01*
X178592185Y-29552815D01*
X178495494Y-29473463D01*
X178385180Y-29414498D01*
X178265482Y-29378188D01*
X178141000Y-29365928D01*
X176041000Y-29365928D01*
X175916518Y-29378188D01*
X175796820Y-29414498D01*
X175686506Y-29473463D01*
X175641000Y-29510809D01*
X175595494Y-29473463D01*
X175485180Y-29414498D01*
X175365482Y-29378188D01*
X175241000Y-29365928D01*
X173141000Y-29365928D01*
X173016518Y-29378188D01*
X172896820Y-29414498D01*
X172786506Y-29473463D01*
X172689815Y-29552815D01*
X172610463Y-29649506D01*
X172551498Y-29759820D01*
X172515188Y-29879518D01*
X172502928Y-30004000D01*
X172502928Y-30141284D01*
X172400962Y-30017038D01*
X172266387Y-29906595D01*
X172112851Y-29824528D01*
X171946255Y-29773992D01*
X171773001Y-29756928D01*
X170872999Y-29756928D01*
X170699745Y-29773992D01*
X170533149Y-29824528D01*
X170379613Y-29906595D01*
X170245038Y-30017038D01*
X170134595Y-30151613D01*
X170052528Y-30305149D01*
X170001992Y-30471745D01*
X169984928Y-30644999D01*
X169984928Y-31295001D01*
X170001992Y-31468255D01*
X170052528Y-31634851D01*
X170134595Y-31788387D01*
X170245038Y-31922962D01*
X170251594Y-31928342D01*
X170171815Y-31993815D01*
X170092463Y-32090506D01*
X170033498Y-32200820D01*
X169997188Y-32320518D01*
X169984928Y-32445000D01*
X169988000Y-32734250D01*
X170146750Y-32893000D01*
X171196000Y-32893000D01*
X171196000Y-32873000D01*
X171450000Y-32873000D01*
X171450000Y-32893000D01*
X171470000Y-32893000D01*
X171470000Y-33147000D01*
X171450000Y-33147000D01*
X171450000Y-34071250D01*
X171608750Y-34230000D01*
X171799093Y-34231412D01*
X171825205Y-34317494D01*
X171789000Y-34313928D01*
X171239000Y-34313928D01*
X171114518Y-34326188D01*
X170994820Y-34362498D01*
X170884506Y-34421463D01*
X170787815Y-34500815D01*
X170708463Y-34597506D01*
X170649498Y-34707820D01*
X170613188Y-34827518D01*
X170600928Y-34952000D01*
X170600928Y-36452000D01*
X170604972Y-36493064D01*
X170560787Y-36488936D01*
X170099750Y-36492000D01*
X169941000Y-36650750D01*
X169941000Y-37275000D01*
X171040250Y-37275000D01*
X171199000Y-37116250D01*
X171196448Y-37085881D01*
X171239000Y-37090072D01*
X171789000Y-37090072D01*
X171913482Y-37077812D01*
X171914000Y-37077655D01*
X171914518Y-37077812D01*
X172039000Y-37090072D01*
X172589000Y-37090072D01*
X172713482Y-37077812D01*
X172714000Y-37077655D01*
X172714518Y-37077812D01*
X172839000Y-37090072D01*
X173389000Y-37090072D01*
X173513482Y-37077812D01*
X173514000Y-37077655D01*
X173514518Y-37077812D01*
X173639000Y-37090072D01*
X174189000Y-37090072D01*
X174313482Y-37077812D01*
X174314000Y-37077655D01*
X174314518Y-37077812D01*
X174439000Y-37090072D01*
X174989000Y-37090072D01*
X175113482Y-37077812D01*
X175114000Y-37077655D01*
X175114518Y-37077812D01*
X175239000Y-37090072D01*
X175789000Y-37090072D01*
X175913482Y-37077812D01*
X175914000Y-37077655D01*
X175914518Y-37077812D01*
X176039000Y-37090072D01*
X176589000Y-37090072D01*
X176713482Y-37077812D01*
X176714663Y-37077454D01*
X176828250Y-37087000D01*
X176920333Y-36994917D01*
X176943494Y-36982537D01*
X177040185Y-36903185D01*
X177091525Y-36840627D01*
X177126428Y-36955688D01*
X177203964Y-37100747D01*
X177308309Y-37227893D01*
X177340178Y-37254047D01*
X177499557Y-37413427D01*
X177525708Y-37445292D01*
X177652853Y-37549637D01*
X177797912Y-37627173D01*
X177955310Y-37674919D01*
X178077980Y-37687001D01*
X178077981Y-37687001D01*
X178118999Y-37691041D01*
X178160017Y-37687001D01*
X179051199Y-37687001D01*
X179051200Y-40178173D01*
X179047159Y-40219201D01*
X179063281Y-40382889D01*
X179111027Y-40540287D01*
X179188563Y-40685346D01*
X179188564Y-40685347D01*
X179292909Y-40812492D01*
X179324773Y-40838642D01*
X179662156Y-41176026D01*
X179688307Y-41207891D01*
X179815452Y-41312236D01*
X179825928Y-41317836D01*
X179825928Y-41677000D01*
X179838188Y-41801482D01*
X179838546Y-41802663D01*
X179829000Y-41916250D01*
X179921083Y-42008333D01*
X179933463Y-42031494D01*
X180012815Y-42128185D01*
X180102759Y-42202000D01*
X180012815Y-42275815D01*
X179933463Y-42372506D01*
X179921083Y-42395667D01*
X179829000Y-42487750D01*
X179838546Y-42601337D01*
X179838188Y-42602518D01*
X179825928Y-42727000D01*
X179825928Y-43277000D01*
X179838188Y-43401482D01*
X179838345Y-43402000D01*
X179838188Y-43402518D01*
X179825928Y-43527000D01*
X179825928Y-44077000D01*
X179838188Y-44201482D01*
X179838345Y-44202000D01*
X179838188Y-44202518D01*
X179825928Y-44327000D01*
X179825928Y-44877000D01*
X179838188Y-45001482D01*
X179838345Y-45002000D01*
X179838188Y-45002518D01*
X179825928Y-45127000D01*
X179825928Y-45677000D01*
X179829962Y-45717962D01*
X179789000Y-45713928D01*
X179239000Y-45713928D01*
X179114518Y-45726188D01*
X179113337Y-45726546D01*
X178999750Y-45717000D01*
X178907667Y-45809083D01*
X178884506Y-45821463D01*
X178787815Y-45900815D01*
X178714000Y-45990759D01*
X178640185Y-45900815D01*
X178543494Y-45821463D01*
X178520333Y-45809083D01*
X178428250Y-45717000D01*
X178314663Y-45726546D01*
X178313482Y-45726188D01*
X178189000Y-45713928D01*
X177639000Y-45713928D01*
X177514518Y-45726188D01*
X177514000Y-45726345D01*
X177513482Y-45726188D01*
X177389000Y-45713928D01*
X176839000Y-45713928D01*
X176714518Y-45726188D01*
X176714000Y-45726345D01*
X176713482Y-45726188D01*
X176589000Y-45713928D01*
X176039000Y-45713928D01*
X175914518Y-45726188D01*
X175914000Y-45726345D01*
X175913482Y-45726188D01*
X175789000Y-45713928D01*
X175239000Y-45713928D01*
X175114518Y-45726188D01*
X175114000Y-45726345D01*
X175113482Y-45726188D01*
X174989000Y-45713928D01*
X174439000Y-45713928D01*
X174314518Y-45726188D01*
X174314000Y-45726345D01*
X174313482Y-45726188D01*
X174189000Y-45713928D01*
X173639000Y-45713928D01*
X173514518Y-45726188D01*
X173514000Y-45726345D01*
X173513482Y-45726188D01*
X173389000Y-45713928D01*
X172839000Y-45713928D01*
X172714518Y-45726188D01*
X172713337Y-45726546D01*
X172599750Y-45717000D01*
X172507667Y-45809083D01*
X172484506Y-45821463D01*
X172387815Y-45900815D01*
X172314000Y-45990759D01*
X172240185Y-45900815D01*
X172143494Y-45821463D01*
X172120333Y-45809083D01*
X172028250Y-45717000D01*
X171914663Y-45726546D01*
X171913482Y-45726188D01*
X171789000Y-45713928D01*
X171239000Y-45713928D01*
X171198038Y-45717962D01*
X171202072Y-45677000D01*
X171202072Y-45127000D01*
X171189812Y-45002518D01*
X171189655Y-45002000D01*
X171189812Y-45001482D01*
X171202072Y-44877000D01*
X171202072Y-44327000D01*
X171189812Y-44202518D01*
X171189655Y-44202000D01*
X171189812Y-44201482D01*
X171202072Y-44077000D01*
X171202072Y-43527000D01*
X171189812Y-43402518D01*
X171189655Y-43402000D01*
X171189812Y-43401482D01*
X171202072Y-43277000D01*
X171202072Y-42727000D01*
X171189812Y-42602518D01*
X171189655Y-42602000D01*
X171189812Y-42601482D01*
X171202072Y-42477000D01*
X171202072Y-41927000D01*
X171189812Y-41802518D01*
X171189655Y-41802000D01*
X171189812Y-41801482D01*
X171202072Y-41677000D01*
X171202072Y-41127000D01*
X171189812Y-41002518D01*
X171189655Y-41002000D01*
X171189812Y-41001482D01*
X171202072Y-40877000D01*
X171202072Y-40327000D01*
X171189812Y-40202518D01*
X171189655Y-40202000D01*
X171189812Y-40201482D01*
X171202072Y-40077000D01*
X171202072Y-39527000D01*
X171189812Y-39402518D01*
X171189655Y-39402000D01*
X171189812Y-39401482D01*
X171202072Y-39277000D01*
X171202072Y-38727000D01*
X171189812Y-38602518D01*
X171189655Y-38602000D01*
X171189812Y-38601482D01*
X171202072Y-38477000D01*
X171202072Y-37927000D01*
X171189812Y-37802518D01*
X171189454Y-37801337D01*
X171199000Y-37687750D01*
X171106917Y-37595667D01*
X171094537Y-37572506D01*
X171015185Y-37475815D01*
X170918494Y-37396463D01*
X170808180Y-37337498D01*
X170688482Y-37301188D01*
X170564000Y-37288928D01*
X169667000Y-37288928D01*
X169667000Y-37275000D01*
X169687000Y-37275000D01*
X169687000Y-36650750D01*
X169528250Y-36492000D01*
X169067213Y-36488936D01*
X168977873Y-36497282D01*
X168975000Y-36226750D01*
X168816250Y-36068000D01*
X167767000Y-36068000D01*
X167767000Y-36088000D01*
X167513000Y-36088000D01*
X167513000Y-36068000D01*
X166463750Y-36068000D01*
X166305000Y-36226750D01*
X166301928Y-36516000D01*
X166314188Y-36640482D01*
X166350498Y-36760180D01*
X166409463Y-36870494D01*
X166488815Y-36967185D01*
X166568594Y-37032658D01*
X166562038Y-37038038D01*
X166451595Y-37172613D01*
X166369528Y-37326149D01*
X166318992Y-37492745D01*
X166301928Y-37665999D01*
X166301928Y-38148205D01*
X165978569Y-38471564D01*
X165946699Y-38497719D01*
X165842355Y-38624864D01*
X165842354Y-38624865D01*
X165764818Y-38769924D01*
X165760000Y-38785807D01*
X165760000Y-35366000D01*
X166301928Y-35366000D01*
X166305000Y-35655250D01*
X166463750Y-35814000D01*
X167513000Y-35814000D01*
X167513000Y-34889750D01*
X167767000Y-34889750D01*
X167767000Y-35814000D01*
X168816250Y-35814000D01*
X168975000Y-35655250D01*
X168978072Y-35366000D01*
X168965812Y-35241518D01*
X168929502Y-35121820D01*
X168870537Y-35011506D01*
X168791185Y-34914815D01*
X168694494Y-34835463D01*
X168584180Y-34776498D01*
X168464482Y-34740188D01*
X168340000Y-34727928D01*
X167925750Y-34731000D01*
X167767000Y-34889750D01*
X167513000Y-34889750D01*
X167354250Y-34731000D01*
X166940000Y-34727928D01*
X166815518Y-34740188D01*
X166695820Y-34776498D01*
X166585506Y-34835463D01*
X166488815Y-34914815D01*
X166409463Y-35011506D01*
X166350498Y-35121820D01*
X166314188Y-35241518D01*
X166301928Y-35366000D01*
X165760000Y-35366000D01*
X165760000Y-33595000D01*
X169984928Y-33595000D01*
X169997188Y-33719482D01*
X170033498Y-33839180D01*
X170092463Y-33949494D01*
X170171815Y-34046185D01*
X170268506Y-34125537D01*
X170378820Y-34184502D01*
X170498518Y-34220812D01*
X170623000Y-34233072D01*
X171037250Y-34230000D01*
X171196000Y-34071250D01*
X171196000Y-33147000D01*
X170146750Y-33147000D01*
X169988000Y-33305750D01*
X169984928Y-33595000D01*
X165760000Y-33595000D01*
X165760000Y-31274279D01*
X165798909Y-30877455D01*
X165904780Y-30526792D01*
X166076744Y-30203375D01*
X166308254Y-29919516D01*
X166590486Y-29686035D01*
X166912695Y-29511817D01*
X167262614Y-29403498D01*
X167657443Y-29362000D01*
X188158042Y-29362000D01*
X188081623Y-29542278D01*
G37*
X188081623Y-29542278D02*
X188034000Y-29771800D01*
X188034000Y-30325800D01*
X189096000Y-30325800D01*
X189096000Y-30305800D01*
X189350000Y-30305800D01*
X189350000Y-30325800D01*
X190412000Y-30325800D01*
X190412000Y-29771800D01*
X190364377Y-29542278D01*
X190287958Y-29362000D01*
X196808042Y-29362000D01*
X196731623Y-29542278D01*
X196684000Y-29771800D01*
X196684000Y-30325800D01*
X197746000Y-30325800D01*
X197746000Y-30305800D01*
X198000000Y-30305800D01*
X198000000Y-30325800D01*
X199062000Y-30325800D01*
X199062000Y-29771800D01*
X199014377Y-29542278D01*
X198937958Y-29362000D01*
X219677721Y-29362000D01*
X220074545Y-29400909D01*
X220425208Y-29506780D01*
X220748625Y-29678744D01*
X221032484Y-29910254D01*
X221265965Y-30192486D01*
X221440183Y-30514695D01*
X221548502Y-30864614D01*
X221590000Y-31259443D01*
X221590000Y-31782418D01*
X221590001Y-31782428D01*
X221590000Y-105377721D01*
X221551091Y-105774545D01*
X221445220Y-106125206D01*
X221273257Y-106448623D01*
X221041748Y-106732482D01*
X220759514Y-106965965D01*
X220437304Y-107140184D01*
X220087385Y-107248502D01*
X219692557Y-107290000D01*
X167672279Y-107290000D01*
X167275455Y-107251091D01*
X166924794Y-107145220D01*
X166601377Y-106973257D01*
X166317518Y-106741748D01*
X166084035Y-106459514D01*
X165909816Y-106137304D01*
X165801498Y-105787385D01*
X165760000Y-105392557D01*
X165760000Y-48355649D01*
X165764818Y-48371532D01*
X165839659Y-48511549D01*
X165842355Y-48516592D01*
X165946700Y-48643737D01*
X165978564Y-48669887D01*
X168271513Y-50962837D01*
X168297663Y-50994701D01*
X168393858Y-51073646D01*
X168424808Y-51099046D01*
X168569867Y-51176582D01*
X168727265Y-51224328D01*
X168890953Y-51240450D01*
X168931972Y-51236410D01*
X170669000Y-51236410D01*
X170669000Y-51409939D01*
X170708774Y-51609898D01*
X170786795Y-51798256D01*
X170795510Y-51811299D01*
X170786795Y-51824341D01*
X170708774Y-52012699D01*
X170669000Y-52212658D01*
X170669000Y-52416536D01*
X170708774Y-52616495D01*
X170786795Y-52804853D01*
X170793307Y-52814598D01*
X170786795Y-52824344D01*
X170708774Y-53012702D01*
X170669000Y-53212661D01*
X170669000Y-53416539D01*
X170708774Y-53616498D01*
X170786795Y-53804856D01*
X170900063Y-53974374D01*
X171044226Y-54118537D01*
X171136348Y-54180091D01*
X170284712Y-55045687D01*
X170257237Y-55068236D01*
X170230630Y-55100656D01*
X170228383Y-55102940D01*
X170206160Y-55130473D01*
X170159139Y-55187767D01*
X170157618Y-55190612D01*
X170155598Y-55193115D01*
X170121190Y-55258766D01*
X170086247Y-55324140D01*
X170085313Y-55327218D01*
X170083816Y-55330075D01*
X170062838Y-55401309D01*
X170041360Y-55472113D01*
X170041045Y-55475311D01*
X170040133Y-55478408D01*
X170033459Y-55552327D01*
X170030001Y-55587439D01*
X170030001Y-55590632D01*
X170026229Y-55632412D01*
X170030001Y-55667763D01*
X170030001Y-56205147D01*
X169981327Y-56225308D01*
X169693065Y-56417919D01*
X169447919Y-56663065D01*
X169255308Y-56951327D01*
X169122636Y-57271627D01*
X169055000Y-57611655D01*
X169055000Y-57958345D01*
X169122636Y-58298373D01*
X169255308Y-58618673D01*
X169387638Y-58816719D01*
X169104549Y-58873029D01*
X168829747Y-58986856D01*
X168582431Y-59152107D01*
X168372107Y-59362431D01*
X168206856Y-59609747D01*
X168093029Y-59884549D01*
X168035000Y-60176278D01*
X168035000Y-60473722D01*
X168093029Y-60765451D01*
X168206856Y-61040253D01*
X168372107Y-61287569D01*
X168582431Y-61497893D01*
X168829747Y-61663144D01*
X169104549Y-61776971D01*
X169396278Y-61835000D01*
X169693722Y-61835000D01*
X169985451Y-61776971D01*
X170030001Y-61758518D01*
X170030000Y-75255147D01*
X169981327Y-75275308D01*
X169693065Y-75467919D01*
X169447919Y-75713065D01*
X169255308Y-76001327D01*
X169122636Y-76321627D01*
X169055000Y-76661655D01*
X169055000Y-77008345D01*
X169122636Y-77348373D01*
X169255308Y-77668673D01*
X169387638Y-77866719D01*
X169104549Y-77923029D01*
X168829747Y-78036856D01*
X168582431Y-78202107D01*
X168372107Y-78412431D01*
X168206856Y-78659747D01*
X168093029Y-78934549D01*
X168035000Y-79226278D01*
X168035000Y-79523722D01*
X168093029Y-79815451D01*
X168206856Y-80090253D01*
X168372107Y-80337569D01*
X168582431Y-80547893D01*
X168829747Y-80713144D01*
X169104549Y-80826971D01*
X169396278Y-80885000D01*
X169693722Y-80885000D01*
X169985451Y-80826971D01*
X170030001Y-80808518D01*
X170030000Y-94305147D01*
X169981327Y-94325308D01*
X169693065Y-94517919D01*
X169447919Y-94763065D01*
X169255308Y-95051327D01*
X169122636Y-95371627D01*
X169055000Y-95711655D01*
X169055000Y-96058345D01*
X169122636Y-96398373D01*
X169255308Y-96718673D01*
X169387638Y-96916719D01*
X169104549Y-96973029D01*
X168829747Y-97086856D01*
X168582431Y-97252107D01*
X168372107Y-97462431D01*
X168206856Y-97709747D01*
X168093029Y-97984549D01*
X168035000Y-98276278D01*
X168035000Y-98573722D01*
X168093029Y-98865451D01*
X168206856Y-99140253D01*
X168372107Y-99387569D01*
X168582431Y-99597893D01*
X168829747Y-99763144D01*
X169104549Y-99876971D01*
X169396278Y-99935000D01*
X169693722Y-99935000D01*
X169985451Y-99876971D01*
X170260253Y-99763144D01*
X170507569Y-99597893D01*
X170717893Y-99387569D01*
X170883144Y-99140253D01*
X170996971Y-98865451D01*
X171055000Y-98573722D01*
X171055000Y-98276278D01*
X171033080Y-98166076D01*
X171996100Y-98166076D01*
X171996100Y-98683924D01*
X172097127Y-99191822D01*
X172295299Y-99670251D01*
X172583000Y-100100826D01*
X172949174Y-100467000D01*
X173379749Y-100754701D01*
X173858178Y-100952873D01*
X174366076Y-101053900D01*
X174883924Y-101053900D01*
X175391822Y-100952873D01*
X175870251Y-100754701D01*
X176300826Y-100467000D01*
X176667000Y-100100826D01*
X176954701Y-99670251D01*
X177152873Y-99191822D01*
X177253900Y-98683924D01*
X177253900Y-98276278D01*
X178195000Y-98276278D01*
X178195000Y-98573722D01*
X178253029Y-98865451D01*
X178366856Y-99140253D01*
X178532107Y-99387569D01*
X178742431Y-99597893D01*
X178989747Y-99763144D01*
X179264549Y-99876971D01*
X179556278Y-99935000D01*
X179853722Y-99935000D01*
X180145451Y-99876971D01*
X180420253Y-99763144D01*
X180667569Y-99597893D01*
X180877893Y-99387569D01*
X181043144Y-99140253D01*
X181156971Y-98865451D01*
X181215000Y-98573722D01*
X181215000Y-98276278D01*
X181156971Y-97984549D01*
X181043144Y-97709747D01*
X180877893Y-97462431D01*
X180667569Y-97252107D01*
X180420253Y-97086856D01*
X180145451Y-96973029D01*
X179853722Y-96915000D01*
X179556278Y-96915000D01*
X179264549Y-96973029D01*
X178989747Y-97086856D01*
X178742431Y-97252107D01*
X178532107Y-97462431D01*
X178366856Y-97709747D01*
X178253029Y-97984549D01*
X178195000Y-98276278D01*
X177253900Y-98276278D01*
X177253900Y-98166076D01*
X177152873Y-97658178D01*
X176954701Y-97179749D01*
X176667000Y-96749174D01*
X176300826Y-96383000D01*
X175870251Y-96095299D01*
X175391822Y-95897127D01*
X174883924Y-95796100D01*
X174366076Y-95796100D01*
X173858178Y-95897127D01*
X173379749Y-96095299D01*
X172949174Y-96383000D01*
X172583000Y-96749174D01*
X172295299Y-97179749D01*
X172097127Y-97658178D01*
X171996100Y-98166076D01*
X171033080Y-98166076D01*
X170996971Y-97984549D01*
X170883144Y-97709747D01*
X170839882Y-97645000D01*
X170988345Y-97645000D01*
X171328373Y-97577364D01*
X171648673Y-97444692D01*
X171936935Y-97252081D01*
X172182081Y-97006935D01*
X172374692Y-96718673D01*
X172507364Y-96398373D01*
X172575000Y-96058345D01*
X172575000Y-95711655D01*
X172507364Y-95371627D01*
X172374692Y-95051327D01*
X172182081Y-94763065D01*
X171936935Y-94517919D01*
X171648673Y-94325308D01*
X171600000Y-94305147D01*
X171600000Y-93171655D01*
X175405000Y-93171655D01*
X175405000Y-93518345D01*
X175472636Y-93858373D01*
X175605308Y-94178673D01*
X175797919Y-94466935D01*
X176043065Y-94712081D01*
X176331327Y-94904692D01*
X176651627Y-95037364D01*
X176991655Y-95105000D01*
X177338345Y-95105000D01*
X177678373Y-95037364D01*
X177998673Y-94904692D01*
X178286935Y-94712081D01*
X178532081Y-94466935D01*
X178724692Y-94178673D01*
X178857364Y-93858373D01*
X178925000Y-93518345D01*
X178925000Y-93171655D01*
X178857364Y-92831627D01*
X178724692Y-92511327D01*
X178532081Y-92223065D01*
X178286935Y-91977919D01*
X177998673Y-91785308D01*
X177678373Y-91652636D01*
X177338345Y-91585000D01*
X176991655Y-91585000D01*
X176651627Y-91652636D01*
X176331327Y-91785308D01*
X176043065Y-91977919D01*
X175797919Y-92223065D01*
X175605308Y-92511327D01*
X175472636Y-92831627D01*
X175405000Y-93171655D01*
X171600000Y-93171655D01*
X171600000Y-79116076D01*
X171996100Y-79116076D01*
X171996100Y-79633924D01*
X172097127Y-80141822D01*
X172295299Y-80620251D01*
X172583000Y-81050826D01*
X172949174Y-81417000D01*
X173379749Y-81704701D01*
X173858178Y-81902873D01*
X174366076Y-82003900D01*
X174883924Y-82003900D01*
X175391822Y-81902873D01*
X175870251Y-81704701D01*
X176300826Y-81417000D01*
X176667000Y-81050826D01*
X176954701Y-80620251D01*
X177152873Y-80141822D01*
X177253900Y-79633924D01*
X177253900Y-79226278D01*
X178195000Y-79226278D01*
X178195000Y-79523722D01*
X178253029Y-79815451D01*
X178366856Y-80090253D01*
X178532107Y-80337569D01*
X178742431Y-80547893D01*
X178989747Y-80713144D01*
X179264549Y-80826971D01*
X179556278Y-80885000D01*
X179853722Y-80885000D01*
X180145451Y-80826971D01*
X180420253Y-80713144D01*
X180667569Y-80547893D01*
X180877893Y-80337569D01*
X181043144Y-80090253D01*
X181156971Y-79815451D01*
X181215000Y-79523722D01*
X181215000Y-79226278D01*
X181156971Y-78934549D01*
X181043144Y-78659747D01*
X180877893Y-78412431D01*
X180667569Y-78202107D01*
X180420253Y-78036856D01*
X180145451Y-77923029D01*
X179853722Y-77865000D01*
X179556278Y-77865000D01*
X179264549Y-77923029D01*
X178989747Y-78036856D01*
X178742431Y-78202107D01*
X178532107Y-78412431D01*
X178366856Y-78659747D01*
X178253029Y-78934549D01*
X178195000Y-79226278D01*
X177253900Y-79226278D01*
X177253900Y-79116076D01*
X177152873Y-78608178D01*
X176954701Y-78129749D01*
X176667000Y-77699174D01*
X176300826Y-77333000D01*
X175870251Y-77045299D01*
X175391822Y-76847127D01*
X174883924Y-76746100D01*
X174366076Y-76746100D01*
X173858178Y-76847127D01*
X173379749Y-77045299D01*
X172949174Y-77333000D01*
X172583000Y-77699174D01*
X172295299Y-78129749D01*
X172097127Y-78608178D01*
X171996100Y-79116076D01*
X171600000Y-79116076D01*
X171600000Y-78414853D01*
X171648673Y-78394692D01*
X171936935Y-78202081D01*
X172182081Y-77956935D01*
X172374692Y-77668673D01*
X172507364Y-77348373D01*
X172575000Y-77008345D01*
X172575000Y-76661655D01*
X172507364Y-76321627D01*
X172374692Y-76001327D01*
X172182081Y-75713065D01*
X171936935Y-75467919D01*
X171648673Y-75275308D01*
X171600000Y-75255147D01*
X171600000Y-74121655D01*
X175405000Y-74121655D01*
X175405000Y-74468345D01*
X175472636Y-74808373D01*
X175605308Y-75128673D01*
X175797919Y-75416935D01*
X176043065Y-75662081D01*
X176331327Y-75854692D01*
X176651627Y-75987364D01*
X176991655Y-76055000D01*
X177338345Y-76055000D01*
X177678373Y-75987364D01*
X177998673Y-75854692D01*
X178286935Y-75662081D01*
X178532081Y-75416935D01*
X178724692Y-75128673D01*
X178857364Y-74808373D01*
X178925000Y-74468345D01*
X178925000Y-74121655D01*
X178857364Y-73781627D01*
X178724692Y-73461327D01*
X178532081Y-73173065D01*
X178286935Y-72927919D01*
X177998673Y-72735308D01*
X177678373Y-72602636D01*
X177338345Y-72535000D01*
X176991655Y-72535000D01*
X176651627Y-72602636D01*
X176331327Y-72735308D01*
X176043065Y-72927919D01*
X175797919Y-73173065D01*
X175605308Y-73461327D01*
X175472636Y-73781627D01*
X175405000Y-74121655D01*
X171600000Y-74121655D01*
X171600000Y-60066076D01*
X171996100Y-60066076D01*
X171996100Y-60583924D01*
X172097127Y-61091822D01*
X172295299Y-61570251D01*
X172583000Y-62000826D01*
X172949174Y-62367000D01*
X173379749Y-62654701D01*
X173858178Y-62852873D01*
X174366076Y-62953900D01*
X174883924Y-62953900D01*
X175391822Y-62852873D01*
X175870251Y-62654701D01*
X176300826Y-62367000D01*
X176667000Y-62000826D01*
X176954701Y-61570251D01*
X177152873Y-61091822D01*
X177253900Y-60583924D01*
X177253900Y-60176278D01*
X178195000Y-60176278D01*
X178195000Y-60473722D01*
X178253029Y-60765451D01*
X178366856Y-61040253D01*
X178532107Y-61287569D01*
X178742431Y-61497893D01*
X178989747Y-61663144D01*
X179264549Y-61776971D01*
X179556278Y-61835000D01*
X179853722Y-61835000D01*
X180145451Y-61776971D01*
X180420253Y-61663144D01*
X180667569Y-61497893D01*
X180877893Y-61287569D01*
X181043144Y-61040253D01*
X181156971Y-60765451D01*
X181215000Y-60473722D01*
X181215000Y-60176278D01*
X181156971Y-59884549D01*
X181043144Y-59609747D01*
X180877893Y-59362431D01*
X180667569Y-59152107D01*
X180420253Y-58986856D01*
X180145451Y-58873029D01*
X179853722Y-58815000D01*
X179556278Y-58815000D01*
X179264549Y-58873029D01*
X178989747Y-58986856D01*
X178742431Y-59152107D01*
X178532107Y-59362431D01*
X178366856Y-59609747D01*
X178253029Y-59884549D01*
X178195000Y-60176278D01*
X177253900Y-60176278D01*
X177253900Y-60066076D01*
X177152873Y-59558178D01*
X176954701Y-59079749D01*
X176667000Y-58649174D01*
X176300826Y-58283000D01*
X175870251Y-57995299D01*
X175391822Y-57797127D01*
X174883924Y-57696100D01*
X174366076Y-57696100D01*
X173858178Y-57797127D01*
X173379749Y-57995299D01*
X172949174Y-58283000D01*
X172583000Y-58649174D01*
X172295299Y-59079749D01*
X172097127Y-59558178D01*
X171996100Y-60066076D01*
X171600000Y-60066076D01*
X171600000Y-59364853D01*
X171648673Y-59344692D01*
X171936935Y-59152081D01*
X172182081Y-58906935D01*
X172374692Y-58618673D01*
X172507364Y-58298373D01*
X172575000Y-57958345D01*
X172575000Y-57611655D01*
X172507364Y-57271627D01*
X172374692Y-56951327D01*
X172182081Y-56663065D01*
X171936935Y-56417919D01*
X171648673Y-56225308D01*
X171600000Y-56205147D01*
X171600000Y-55947424D01*
X172461644Y-55071655D01*
X175405000Y-55071655D01*
X175405000Y-55418345D01*
X175472636Y-55758373D01*
X175605308Y-56078673D01*
X175797919Y-56366935D01*
X176043065Y-56612081D01*
X176331327Y-56804692D01*
X176651627Y-56937364D01*
X176991655Y-57005000D01*
X177338345Y-57005000D01*
X177678373Y-56937364D01*
X177998673Y-56804692D01*
X178286935Y-56612081D01*
X178532081Y-56366935D01*
X178724692Y-56078673D01*
X178857364Y-55758373D01*
X178925000Y-55418345D01*
X178925000Y-55071655D01*
X178857364Y-54731627D01*
X178724692Y-54411327D01*
X178532081Y-54123065D01*
X178286935Y-53877919D01*
X177998673Y-53685308D01*
X177678373Y-53552636D01*
X177338345Y-53485000D01*
X176991655Y-53485000D01*
X176651627Y-53552636D01*
X176331327Y-53685308D01*
X176043065Y-53877919D01*
X175797919Y-54123065D01*
X175605308Y-54411327D01*
X175472636Y-54731627D01*
X175405000Y-55071655D01*
X172461644Y-55071655D01*
X175884512Y-51592676D01*
X177296153Y-52981550D01*
X177318960Y-53009287D01*
X177351115Y-53035626D01*
X177353139Y-53037617D01*
X177381008Y-53060111D01*
X177438584Y-53107273D01*
X177441099Y-53108614D01*
X177443314Y-53110402D01*
X177509302Y-53144987D01*
X177575025Y-53180037D01*
X177577749Y-53180860D01*
X177580274Y-53182184D01*
X177651828Y-53203256D01*
X177723040Y-53224785D01*
X177725870Y-53225061D01*
X177728607Y-53225867D01*
X177802874Y-53232572D01*
X177838377Y-53236035D01*
X177841202Y-53236032D01*
X177882612Y-53239771D01*
X177918330Y-53235960D01*
X186356879Y-53228036D01*
X189080001Y-55951159D01*
X189080001Y-56205147D01*
X189031327Y-56225308D01*
X188743065Y-56417919D01*
X188497919Y-56663065D01*
X188305308Y-56951327D01*
X188172636Y-57271627D01*
X188105000Y-57611655D01*
X188105000Y-57958345D01*
X188172636Y-58298373D01*
X188305308Y-58618673D01*
X188437638Y-58816719D01*
X188154549Y-58873029D01*
X187879747Y-58986856D01*
X187632431Y-59152107D01*
X187422107Y-59362431D01*
X187256856Y-59609747D01*
X187143029Y-59884549D01*
X187085000Y-60176278D01*
X187085000Y-60473722D01*
X187143029Y-60765451D01*
X187256856Y-61040253D01*
X187422107Y-61287569D01*
X187632431Y-61497893D01*
X187879747Y-61663144D01*
X188154549Y-61776971D01*
X188446278Y-61835000D01*
X188743722Y-61835000D01*
X189035451Y-61776971D01*
X189080001Y-61758518D01*
X189080000Y-75255147D01*
X189031327Y-75275308D01*
X188743065Y-75467919D01*
X188497919Y-75713065D01*
X188305308Y-76001327D01*
X188172636Y-76321627D01*
X188105000Y-76661655D01*
X188105000Y-77008345D01*
X188172636Y-77348373D01*
X188305308Y-77668673D01*
X188437638Y-77866719D01*
X188154549Y-77923029D01*
X187879747Y-78036856D01*
X187632431Y-78202107D01*
X187422107Y-78412431D01*
X187256856Y-78659747D01*
X187143029Y-78934549D01*
X187085000Y-79226278D01*
X187085000Y-79523722D01*
X187143029Y-79815451D01*
X187256856Y-80090253D01*
X187422107Y-80337569D01*
X187632431Y-80547893D01*
X187879747Y-80713144D01*
X188154549Y-80826971D01*
X188446278Y-80885000D01*
X188743722Y-80885000D01*
X189035451Y-80826971D01*
X189080001Y-80808518D01*
X189080000Y-94305147D01*
X189031327Y-94325308D01*
X188743065Y-94517919D01*
X188497919Y-94763065D01*
X188305308Y-95051327D01*
X188172636Y-95371627D01*
X188105000Y-95711655D01*
X188105000Y-96058345D01*
X188172636Y-96398373D01*
X188305308Y-96718673D01*
X188437638Y-96916719D01*
X188154549Y-96973029D01*
X187879747Y-97086856D01*
X187632431Y-97252107D01*
X187422107Y-97462431D01*
X187256856Y-97709747D01*
X187143029Y-97984549D01*
X187085000Y-98276278D01*
X187085000Y-98573722D01*
X187143029Y-98865451D01*
X187256856Y-99140253D01*
X187422107Y-99387569D01*
X187632431Y-99597893D01*
X187879747Y-99763144D01*
X188154549Y-99876971D01*
X188446278Y-99935000D01*
X188743722Y-99935000D01*
X189035451Y-99876971D01*
X189310253Y-99763144D01*
X189557569Y-99597893D01*
X189767893Y-99387569D01*
X189933144Y-99140253D01*
X190046971Y-98865451D01*
X190105000Y-98573722D01*
X190105000Y-98276278D01*
X190083080Y-98166076D01*
X191046100Y-98166076D01*
X191046100Y-98683924D01*
X191147127Y-99191822D01*
X191345299Y-99670251D01*
X191633000Y-100100826D01*
X191999174Y-100467000D01*
X192429749Y-100754701D01*
X192908178Y-100952873D01*
X193416076Y-101053900D01*
X193933924Y-101053900D01*
X194441822Y-100952873D01*
X194920251Y-100754701D01*
X195350826Y-100467000D01*
X195717000Y-100100826D01*
X196004701Y-99670251D01*
X196202873Y-99191822D01*
X196303900Y-98683924D01*
X196303900Y-98276278D01*
X197245000Y-98276278D01*
X197245000Y-98573722D01*
X197303029Y-98865451D01*
X197416856Y-99140253D01*
X197582107Y-99387569D01*
X197792431Y-99597893D01*
X198039747Y-99763144D01*
X198314549Y-99876971D01*
X198606278Y-99935000D01*
X198903722Y-99935000D01*
X199195451Y-99876971D01*
X199470253Y-99763144D01*
X199717569Y-99597893D01*
X199927893Y-99387569D01*
X200093144Y-99140253D01*
X200206971Y-98865451D01*
X200265000Y-98573722D01*
X200265000Y-98276278D01*
X200206971Y-97984549D01*
X200093144Y-97709747D01*
X199927893Y-97462431D01*
X199717569Y-97252107D01*
X199470253Y-97086856D01*
X199195451Y-96973029D01*
X198903722Y-96915000D01*
X198606278Y-96915000D01*
X198314549Y-96973029D01*
X198039747Y-97086856D01*
X197792431Y-97252107D01*
X197582107Y-97462431D01*
X197416856Y-97709747D01*
X197303029Y-97984549D01*
X197245000Y-98276278D01*
X196303900Y-98276278D01*
X196303900Y-98166076D01*
X196202873Y-97658178D01*
X196004701Y-97179749D01*
X195717000Y-96749174D01*
X195350826Y-96383000D01*
X194920251Y-96095299D01*
X194441822Y-95897127D01*
X193933924Y-95796100D01*
X193416076Y-95796100D01*
X192908178Y-95897127D01*
X192429749Y-96095299D01*
X191999174Y-96383000D01*
X191633000Y-96749174D01*
X191345299Y-97179749D01*
X191147127Y-97658178D01*
X191046100Y-98166076D01*
X190083080Y-98166076D01*
X190046971Y-97984549D01*
X189933144Y-97709747D01*
X189889882Y-97645000D01*
X190038345Y-97645000D01*
X190378373Y-97577364D01*
X190698673Y-97444692D01*
X190986935Y-97252081D01*
X191232081Y-97006935D01*
X191424692Y-96718673D01*
X191557364Y-96398373D01*
X191625000Y-96058345D01*
X191625000Y-95711655D01*
X191557364Y-95371627D01*
X191424692Y-95051327D01*
X191232081Y-94763065D01*
X190986935Y-94517919D01*
X190698673Y-94325308D01*
X190650000Y-94305147D01*
X190650000Y-93171655D01*
X194455000Y-93171655D01*
X194455000Y-93518345D01*
X194522636Y-93858373D01*
X194655308Y-94178673D01*
X194847919Y-94466935D01*
X195093065Y-94712081D01*
X195381327Y-94904692D01*
X195701627Y-95037364D01*
X196041655Y-95105000D01*
X196388345Y-95105000D01*
X196728373Y-95037364D01*
X197048673Y-94904692D01*
X197336935Y-94712081D01*
X197582081Y-94466935D01*
X197774692Y-94178673D01*
X197907364Y-93858373D01*
X197975000Y-93518345D01*
X197975000Y-93171655D01*
X197907364Y-92831627D01*
X197774692Y-92511327D01*
X197582081Y-92223065D01*
X197336935Y-91977919D01*
X197048673Y-91785308D01*
X196728373Y-91652636D01*
X196388345Y-91585000D01*
X196041655Y-91585000D01*
X195701627Y-91652636D01*
X195381327Y-91785308D01*
X195093065Y-91977919D01*
X194847919Y-92223065D01*
X194655308Y-92511327D01*
X194522636Y-92831627D01*
X194455000Y-93171655D01*
X190650000Y-93171655D01*
X190650000Y-79116076D01*
X191046100Y-79116076D01*
X191046100Y-79633924D01*
X191147127Y-80141822D01*
X191345299Y-80620251D01*
X191633000Y-81050826D01*
X191999174Y-81417000D01*
X192429749Y-81704701D01*
X192908178Y-81902873D01*
X193416076Y-82003900D01*
X193933924Y-82003900D01*
X194441822Y-81902873D01*
X194920251Y-81704701D01*
X195350826Y-81417000D01*
X195717000Y-81050826D01*
X196004701Y-80620251D01*
X196202873Y-80141822D01*
X196303900Y-79633924D01*
X196303900Y-79226278D01*
X197245000Y-79226278D01*
X197245000Y-79523722D01*
X197303029Y-79815451D01*
X197416856Y-80090253D01*
X197582107Y-80337569D01*
X197792431Y-80547893D01*
X198039747Y-80713144D01*
X198314549Y-80826971D01*
X198606278Y-80885000D01*
X198903722Y-80885000D01*
X199195451Y-80826971D01*
X199470253Y-80713144D01*
X199717569Y-80547893D01*
X199927893Y-80337569D01*
X200093144Y-80090253D01*
X200206971Y-79815451D01*
X200265000Y-79523722D01*
X200265000Y-79226278D01*
X200206971Y-78934549D01*
X200093144Y-78659747D01*
X199927893Y-78412431D01*
X199717569Y-78202107D01*
X199470253Y-78036856D01*
X199195451Y-77923029D01*
X198903722Y-77865000D01*
X198606278Y-77865000D01*
X198314549Y-77923029D01*
X198039747Y-78036856D01*
X197792431Y-78202107D01*
X197582107Y-78412431D01*
X197416856Y-78659747D01*
X197303029Y-78934549D01*
X197245000Y-79226278D01*
X196303900Y-79226278D01*
X196303900Y-79116076D01*
X196202873Y-78608178D01*
X196004701Y-78129749D01*
X195717000Y-77699174D01*
X195350826Y-77333000D01*
X194920251Y-77045299D01*
X194441822Y-76847127D01*
X193933924Y-76746100D01*
X193416076Y-76746100D01*
X192908178Y-76847127D01*
X192429749Y-77045299D01*
X191999174Y-77333000D01*
X191633000Y-77699174D01*
X191345299Y-78129749D01*
X191147127Y-78608178D01*
X191046100Y-79116076D01*
X190650000Y-79116076D01*
X190650000Y-78414853D01*
X190698673Y-78394692D01*
X190986935Y-78202081D01*
X191232081Y-77956935D01*
X191424692Y-77668673D01*
X191557364Y-77348373D01*
X191625000Y-77008345D01*
X191625000Y-76661655D01*
X191557364Y-76321627D01*
X191424692Y-76001327D01*
X191232081Y-75713065D01*
X190986935Y-75467919D01*
X190698673Y-75275308D01*
X190650000Y-75255147D01*
X190650000Y-74121655D01*
X194455000Y-74121655D01*
X194455000Y-74468345D01*
X194522636Y-74808373D01*
X194655308Y-75128673D01*
X194847919Y-75416935D01*
X195093065Y-75662081D01*
X195381327Y-75854692D01*
X195701627Y-75987364D01*
X196041655Y-76055000D01*
X196388345Y-76055000D01*
X196728373Y-75987364D01*
X197048673Y-75854692D01*
X197336935Y-75662081D01*
X197582081Y-75416935D01*
X197774692Y-75128673D01*
X197907364Y-74808373D01*
X197975000Y-74468345D01*
X197975000Y-74121655D01*
X197907364Y-73781627D01*
X197774692Y-73461327D01*
X197582081Y-73173065D01*
X197336935Y-72927919D01*
X197048673Y-72735308D01*
X196728373Y-72602636D01*
X196388345Y-72535000D01*
X196041655Y-72535000D01*
X195701627Y-72602636D01*
X195381327Y-72735308D01*
X195093065Y-72927919D01*
X194847919Y-73173065D01*
X194655308Y-73461327D01*
X194522636Y-73781627D01*
X194455000Y-74121655D01*
X190650000Y-74121655D01*
X190650000Y-60066076D01*
X191046100Y-60066076D01*
X191046100Y-60583924D01*
X191147127Y-61091822D01*
X191345299Y-61570251D01*
X191633000Y-62000826D01*
X191999174Y-62367000D01*
X192429749Y-62654701D01*
X192908178Y-62852873D01*
X193416076Y-62953900D01*
X193933924Y-62953900D01*
X194441822Y-62852873D01*
X194920251Y-62654701D01*
X195350826Y-62367000D01*
X195717000Y-62000826D01*
X196004701Y-61570251D01*
X196202873Y-61091822D01*
X196303900Y-60583924D01*
X196303900Y-60176278D01*
X197245000Y-60176278D01*
X197245000Y-60473722D01*
X197303029Y-60765451D01*
X197416856Y-61040253D01*
X197582107Y-61287569D01*
X197792431Y-61497893D01*
X198039747Y-61663144D01*
X198314549Y-61776971D01*
X198606278Y-61835000D01*
X198903722Y-61835000D01*
X199195451Y-61776971D01*
X199470253Y-61663144D01*
X199717569Y-61497893D01*
X199927893Y-61287569D01*
X200093144Y-61040253D01*
X200206971Y-60765451D01*
X200265000Y-60473722D01*
X200265000Y-60176278D01*
X200206971Y-59884549D01*
X200093144Y-59609747D01*
X199927893Y-59362431D01*
X199717569Y-59152107D01*
X199470253Y-58986856D01*
X199195451Y-58873029D01*
X198903722Y-58815000D01*
X198606278Y-58815000D01*
X198314549Y-58873029D01*
X198039747Y-58986856D01*
X197792431Y-59152107D01*
X197582107Y-59362431D01*
X197416856Y-59609747D01*
X197303029Y-59884549D01*
X197245000Y-60176278D01*
X196303900Y-60176278D01*
X196303900Y-60066076D01*
X196202873Y-59558178D01*
X196004701Y-59079749D01*
X195717000Y-58649174D01*
X195350826Y-58283000D01*
X194920251Y-57995299D01*
X194441822Y-57797127D01*
X193933924Y-57696100D01*
X193416076Y-57696100D01*
X192908178Y-57797127D01*
X192429749Y-57995299D01*
X191999174Y-58283000D01*
X191633000Y-58649174D01*
X191345299Y-59079749D01*
X191147127Y-59558178D01*
X191046100Y-60066076D01*
X190650000Y-60066076D01*
X190650000Y-59364853D01*
X190698673Y-59344692D01*
X190986935Y-59152081D01*
X191232081Y-58906935D01*
X191424692Y-58618673D01*
X191557364Y-58298373D01*
X191625000Y-57958345D01*
X191625000Y-57611655D01*
X191557364Y-57271627D01*
X191424692Y-56951327D01*
X191232081Y-56663065D01*
X190986935Y-56417919D01*
X190698673Y-56225308D01*
X190650000Y-56205147D01*
X190650000Y-55664552D01*
X190653797Y-55625999D01*
X190650000Y-55587446D01*
X190650000Y-55587439D01*
X190638641Y-55472113D01*
X190593754Y-55324140D01*
X190520862Y-55187767D01*
X190471450Y-55127559D01*
X190447345Y-55098187D01*
X190447342Y-55098184D01*
X190425570Y-55071655D01*
X194455000Y-55071655D01*
X194455000Y-55418345D01*
X194522636Y-55758373D01*
X194655308Y-56078673D01*
X194847919Y-56366935D01*
X195093065Y-56612081D01*
X195381327Y-56804692D01*
X195701627Y-56937364D01*
X196041655Y-57005000D01*
X196388345Y-57005000D01*
X196728373Y-56937364D01*
X197048673Y-56804692D01*
X197336935Y-56612081D01*
X197582081Y-56366935D01*
X197774692Y-56078673D01*
X197907364Y-55758373D01*
X197975000Y-55418345D01*
X197975000Y-55071655D01*
X197907364Y-54731627D01*
X197774692Y-54411327D01*
X197582081Y-54123065D01*
X197336935Y-53877919D01*
X197048673Y-53685308D01*
X196728373Y-53552636D01*
X196388345Y-53485000D01*
X196041655Y-53485000D01*
X195701627Y-53552636D01*
X195381327Y-53685308D01*
X195093065Y-53877919D01*
X194847919Y-54123065D01*
X194655308Y-54411327D01*
X194522636Y-54731627D01*
X194455000Y-55071655D01*
X190425570Y-55071655D01*
X190422764Y-55068236D01*
X190392816Y-55043658D01*
X188077157Y-52728000D01*
X204883022Y-52728000D01*
X208130001Y-55952739D01*
X208130001Y-56205147D01*
X208081327Y-56225308D01*
X207793065Y-56417919D01*
X207547919Y-56663065D01*
X207355308Y-56951327D01*
X207222636Y-57271627D01*
X207155000Y-57611655D01*
X207155000Y-57958345D01*
X207222636Y-58298373D01*
X207355308Y-58618673D01*
X207487638Y-58816719D01*
X207204549Y-58873029D01*
X206929747Y-58986856D01*
X206682431Y-59152107D01*
X206472107Y-59362431D01*
X206306856Y-59609747D01*
X206193029Y-59884549D01*
X206135000Y-60176278D01*
X206135000Y-60473722D01*
X206193029Y-60765451D01*
X206306856Y-61040253D01*
X206472107Y-61287569D01*
X206682431Y-61497893D01*
X206929747Y-61663144D01*
X207204549Y-61776971D01*
X207496278Y-61835000D01*
X207793722Y-61835000D01*
X208085451Y-61776971D01*
X208130001Y-61758518D01*
X208130000Y-75255147D01*
X208081327Y-75275308D01*
X207793065Y-75467919D01*
X207547919Y-75713065D01*
X207355308Y-76001327D01*
X207222636Y-76321627D01*
X207155000Y-76661655D01*
X207155000Y-77008345D01*
X207222636Y-77348373D01*
X207355308Y-77668673D01*
X207487638Y-77866719D01*
X207204549Y-77923029D01*
X206929747Y-78036856D01*
X206682431Y-78202107D01*
X206472107Y-78412431D01*
X206306856Y-78659747D01*
X206193029Y-78934549D01*
X206135000Y-79226278D01*
X206135000Y-79523722D01*
X206193029Y-79815451D01*
X206306856Y-80090253D01*
X206472107Y-80337569D01*
X206682431Y-80547893D01*
X206929747Y-80713144D01*
X207204549Y-80826971D01*
X207496278Y-80885000D01*
X207793722Y-80885000D01*
X208085451Y-80826971D01*
X208130001Y-80808518D01*
X208130000Y-94305147D01*
X208081327Y-94325308D01*
X207793065Y-94517919D01*
X207547919Y-94763065D01*
X207355308Y-95051327D01*
X207222636Y-95371627D01*
X207155000Y-95711655D01*
X207155000Y-96058345D01*
X207222636Y-96398373D01*
X207355308Y-96718673D01*
X207487638Y-96916719D01*
X207204549Y-96973029D01*
X206929747Y-97086856D01*
X206682431Y-97252107D01*
X206472107Y-97462431D01*
X206306856Y-97709747D01*
X206193029Y-97984549D01*
X206135000Y-98276278D01*
X206135000Y-98573722D01*
X206193029Y-98865451D01*
X206306856Y-99140253D01*
X206472107Y-99387569D01*
X206682431Y-99597893D01*
X206929747Y-99763144D01*
X207204549Y-99876971D01*
X207496278Y-99935000D01*
X207793722Y-99935000D01*
X208085451Y-99876971D01*
X208360253Y-99763144D01*
X208607569Y-99597893D01*
X208817893Y-99387569D01*
X208983144Y-99140253D01*
X209096971Y-98865451D01*
X209155000Y-98573722D01*
X209155000Y-98276278D01*
X209133080Y-98166076D01*
X210096100Y-98166076D01*
X210096100Y-98683924D01*
X210197127Y-99191822D01*
X210395299Y-99670251D01*
X210683000Y-100100826D01*
X211049174Y-100467000D01*
X211479749Y-100754701D01*
X211958178Y-100952873D01*
X212466076Y-101053900D01*
X212983924Y-101053900D01*
X213491822Y-100952873D01*
X213970251Y-100754701D01*
X214400826Y-100467000D01*
X214767000Y-100100826D01*
X215054701Y-99670251D01*
X215252873Y-99191822D01*
X215353900Y-98683924D01*
X215353900Y-98276278D01*
X216295000Y-98276278D01*
X216295000Y-98573722D01*
X216353029Y-98865451D01*
X216466856Y-99140253D01*
X216632107Y-99387569D01*
X216842431Y-99597893D01*
X217089747Y-99763144D01*
X217364549Y-99876971D01*
X217656278Y-99935000D01*
X217953722Y-99935000D01*
X218245451Y-99876971D01*
X218520253Y-99763144D01*
X218767569Y-99597893D01*
X218977893Y-99387569D01*
X219143144Y-99140253D01*
X219256971Y-98865451D01*
X219315000Y-98573722D01*
X219315000Y-98276278D01*
X219256971Y-97984549D01*
X219143144Y-97709747D01*
X218977893Y-97462431D01*
X218767569Y-97252107D01*
X218520253Y-97086856D01*
X218245451Y-96973029D01*
X217953722Y-96915000D01*
X217656278Y-96915000D01*
X217364549Y-96973029D01*
X217089747Y-97086856D01*
X216842431Y-97252107D01*
X216632107Y-97462431D01*
X216466856Y-97709747D01*
X216353029Y-97984549D01*
X216295000Y-98276278D01*
X215353900Y-98276278D01*
X215353900Y-98166076D01*
X215252873Y-97658178D01*
X215054701Y-97179749D01*
X214767000Y-96749174D01*
X214400826Y-96383000D01*
X213970251Y-96095299D01*
X213491822Y-95897127D01*
X212983924Y-95796100D01*
X212466076Y-95796100D01*
X211958178Y-95897127D01*
X211479749Y-96095299D01*
X211049174Y-96383000D01*
X210683000Y-96749174D01*
X210395299Y-97179749D01*
X210197127Y-97658178D01*
X210096100Y-98166076D01*
X209133080Y-98166076D01*
X209096971Y-97984549D01*
X208983144Y-97709747D01*
X208939882Y-97645000D01*
X209088345Y-97645000D01*
X209428373Y-97577364D01*
X209748673Y-97444692D01*
X210036935Y-97252081D01*
X210282081Y-97006935D01*
X210474692Y-96718673D01*
X210607364Y-96398373D01*
X210675000Y-96058345D01*
X210675000Y-95711655D01*
X210607364Y-95371627D01*
X210474692Y-95051327D01*
X210282081Y-94763065D01*
X210036935Y-94517919D01*
X209748673Y-94325308D01*
X209700000Y-94305147D01*
X209700000Y-93171655D01*
X213505000Y-93171655D01*
X213505000Y-93518345D01*
X213572636Y-93858373D01*
X213705308Y-94178673D01*
X213897919Y-94466935D01*
X214143065Y-94712081D01*
X214431327Y-94904692D01*
X214751627Y-95037364D01*
X215091655Y-95105000D01*
X215438345Y-95105000D01*
X215778373Y-95037364D01*
X216098673Y-94904692D01*
X216386935Y-94712081D01*
X216632081Y-94466935D01*
X216824692Y-94178673D01*
X216957364Y-93858373D01*
X217025000Y-93518345D01*
X217025000Y-93171655D01*
X216957364Y-92831627D01*
X216824692Y-92511327D01*
X216632081Y-92223065D01*
X216386935Y-91977919D01*
X216098673Y-91785308D01*
X215778373Y-91652636D01*
X215438345Y-91585000D01*
X215091655Y-91585000D01*
X214751627Y-91652636D01*
X214431327Y-91785308D01*
X214143065Y-91977919D01*
X213897919Y-92223065D01*
X213705308Y-92511327D01*
X213572636Y-92831627D01*
X213505000Y-93171655D01*
X209700000Y-93171655D01*
X209700000Y-79116076D01*
X210096100Y-79116076D01*
X210096100Y-79633924D01*
X210197127Y-80141822D01*
X210395299Y-80620251D01*
X210683000Y-81050826D01*
X211049174Y-81417000D01*
X211479749Y-81704701D01*
X211958178Y-81902873D01*
X212466076Y-82003900D01*
X212983924Y-82003900D01*
X213491822Y-81902873D01*
X213970251Y-81704701D01*
X214400826Y-81417000D01*
X214767000Y-81050826D01*
X215054701Y-80620251D01*
X215252873Y-80141822D01*
X215353900Y-79633924D01*
X215353900Y-79226278D01*
X216295000Y-79226278D01*
X216295000Y-79523722D01*
X216353029Y-79815451D01*
X216466856Y-80090253D01*
X216632107Y-80337569D01*
X216842431Y-80547893D01*
X217089747Y-80713144D01*
X217364549Y-80826971D01*
X217656278Y-80885000D01*
X217953722Y-80885000D01*
X218245451Y-80826971D01*
X218520253Y-80713144D01*
X218767569Y-80547893D01*
X218977893Y-80337569D01*
X219143144Y-80090253D01*
X219256971Y-79815451D01*
X219315000Y-79523722D01*
X219315000Y-79226278D01*
X219256971Y-78934549D01*
X219143144Y-78659747D01*
X218977893Y-78412431D01*
X218767569Y-78202107D01*
X218520253Y-78036856D01*
X218245451Y-77923029D01*
X217953722Y-77865000D01*
X217656278Y-77865000D01*
X217364549Y-77923029D01*
X217089747Y-78036856D01*
X216842431Y-78202107D01*
X216632107Y-78412431D01*
X216466856Y-78659747D01*
X216353029Y-78934549D01*
X216295000Y-79226278D01*
X215353900Y-79226278D01*
X215353900Y-79116076D01*
X215252873Y-78608178D01*
X215054701Y-78129749D01*
X214767000Y-77699174D01*
X214400826Y-77333000D01*
X213970251Y-77045299D01*
X213491822Y-76847127D01*
X212983924Y-76746100D01*
X212466076Y-76746100D01*
X211958178Y-76847127D01*
X211479749Y-77045299D01*
X211049174Y-77333000D01*
X210683000Y-77699174D01*
X210395299Y-78129749D01*
X210197127Y-78608178D01*
X210096100Y-79116076D01*
X209700000Y-79116076D01*
X209700000Y-78414853D01*
X209748673Y-78394692D01*
X210036935Y-78202081D01*
X210282081Y-77956935D01*
X210474692Y-77668673D01*
X210607364Y-77348373D01*
X210675000Y-77008345D01*
X210675000Y-76661655D01*
X210607364Y-76321627D01*
X210474692Y-76001327D01*
X210282081Y-75713065D01*
X210036935Y-75467919D01*
X209748673Y-75275308D01*
X209700000Y-75255147D01*
X209700000Y-74121655D01*
X213505000Y-74121655D01*
X213505000Y-74468345D01*
X213572636Y-74808373D01*
X213705308Y-75128673D01*
X213897919Y-75416935D01*
X214143065Y-75662081D01*
X214431327Y-75854692D01*
X214751627Y-75987364D01*
X215091655Y-76055000D01*
X215438345Y-76055000D01*
X215778373Y-75987364D01*
X216098673Y-75854692D01*
X216386935Y-75662081D01*
X216632081Y-75416935D01*
X216824692Y-75128673D01*
X216957364Y-74808373D01*
X217025000Y-74468345D01*
X217025000Y-74121655D01*
X216957364Y-73781627D01*
X216824692Y-73461327D01*
X216632081Y-73173065D01*
X216386935Y-72927919D01*
X216098673Y-72735308D01*
X215778373Y-72602636D01*
X215438345Y-72535000D01*
X215091655Y-72535000D01*
X214751627Y-72602636D01*
X214431327Y-72735308D01*
X214143065Y-72927919D01*
X213897919Y-73173065D01*
X213705308Y-73461327D01*
X213572636Y-73781627D01*
X213505000Y-74121655D01*
X209700000Y-74121655D01*
X209700000Y-60066076D01*
X210096100Y-60066076D01*
X210096100Y-60583924D01*
X210197127Y-61091822D01*
X210395299Y-61570251D01*
X210683000Y-62000826D01*
X211049174Y-62367000D01*
X211479749Y-62654701D01*
X211958178Y-62852873D01*
X212466076Y-62953900D01*
X212983924Y-62953900D01*
X213491822Y-62852873D01*
X213970251Y-62654701D01*
X214400826Y-62367000D01*
X214767000Y-62000826D01*
X215054701Y-61570251D01*
X215252873Y-61091822D01*
X215353900Y-60583924D01*
X215353900Y-60176278D01*
X216295000Y-60176278D01*
X216295000Y-60473722D01*
X216353029Y-60765451D01*
X216466856Y-61040253D01*
X216632107Y-61287569D01*
X216842431Y-61497893D01*
X217089747Y-61663144D01*
X217364549Y-61776971D01*
X217656278Y-61835000D01*
X217953722Y-61835000D01*
X218245451Y-61776971D01*
X218520253Y-61663144D01*
X218767569Y-61497893D01*
X218977893Y-61287569D01*
X219143144Y-61040253D01*
X219256971Y-60765451D01*
X219315000Y-60473722D01*
X219315000Y-60176278D01*
X219256971Y-59884549D01*
X219143144Y-59609747D01*
X218977893Y-59362431D01*
X218767569Y-59152107D01*
X218520253Y-58986856D01*
X218245451Y-58873029D01*
X217953722Y-58815000D01*
X217656278Y-58815000D01*
X217364549Y-58873029D01*
X217089747Y-58986856D01*
X216842431Y-59152107D01*
X216632107Y-59362431D01*
X216466856Y-59609747D01*
X216353029Y-59884549D01*
X216295000Y-60176278D01*
X215353900Y-60176278D01*
X215353900Y-60066076D01*
X215252873Y-59558178D01*
X215054701Y-59079749D01*
X214767000Y-58649174D01*
X214400826Y-58283000D01*
X213970251Y-57995299D01*
X213491822Y-57797127D01*
X212983924Y-57696100D01*
X212466076Y-57696100D01*
X211958178Y-57797127D01*
X211479749Y-57995299D01*
X211049174Y-58283000D01*
X210683000Y-58649174D01*
X210395299Y-59079749D01*
X210197127Y-59558178D01*
X210096100Y-60066076D01*
X209700000Y-60066076D01*
X209700000Y-59364853D01*
X209748673Y-59344692D01*
X210036935Y-59152081D01*
X210282081Y-58906935D01*
X210474692Y-58618673D01*
X210607364Y-58298373D01*
X210675000Y-57958345D01*
X210675000Y-57611655D01*
X210607364Y-57271627D01*
X210474692Y-56951327D01*
X210282081Y-56663065D01*
X210036935Y-56417919D01*
X209748673Y-56225308D01*
X209700000Y-56205147D01*
X209700000Y-55663200D01*
X209703792Y-55623289D01*
X209696101Y-55547851D01*
X209688641Y-55472113D01*
X209688246Y-55470812D01*
X209688108Y-55469455D01*
X209665795Y-55396800D01*
X209643754Y-55324140D01*
X209643112Y-55322938D01*
X209642712Y-55321637D01*
X209606758Y-55254925D01*
X209570862Y-55187767D01*
X209569994Y-55186710D01*
X209569351Y-55185516D01*
X209520959Y-55126961D01*
X209475570Y-55071655D01*
X213505000Y-55071655D01*
X213505000Y-55418345D01*
X213572636Y-55758373D01*
X213705308Y-56078673D01*
X213897919Y-56366935D01*
X214143065Y-56612081D01*
X214431327Y-56804692D01*
X214751627Y-56937364D01*
X215091655Y-57005000D01*
X215438345Y-57005000D01*
X215778373Y-56937364D01*
X216098673Y-56804692D01*
X216386935Y-56612081D01*
X216632081Y-56366935D01*
X216824692Y-56078673D01*
X216957364Y-55758373D01*
X217025000Y-55418345D01*
X217025000Y-55071655D01*
X216957364Y-54731627D01*
X216824692Y-54411327D01*
X216632081Y-54123065D01*
X216386935Y-53877919D01*
X216098673Y-53685308D01*
X215778373Y-53552636D01*
X215438345Y-53485000D01*
X215091655Y-53485000D01*
X214751627Y-53552636D01*
X214431327Y-53685308D01*
X214143065Y-53877919D01*
X213897919Y-54123065D01*
X213705308Y-54411327D01*
X213572636Y-54731627D01*
X213505000Y-55071655D01*
X209475570Y-55071655D01*
X209472764Y-55068236D01*
X209441772Y-55042801D01*
X205788093Y-51414150D01*
X205764364Y-51385236D01*
X205733359Y-51359790D01*
X205732407Y-51358845D01*
X205703841Y-51335565D01*
X205644833Y-51287138D01*
X205643624Y-51286492D01*
X205642575Y-51285637D01*
X205575732Y-51250203D01*
X205508460Y-51214246D01*
X205507155Y-51213850D01*
X205505953Y-51213213D01*
X205433144Y-51191399D01*
X205360487Y-51169359D01*
X205359135Y-51169226D01*
X205357827Y-51168834D01*
X205282290Y-51161657D01*
X205245161Y-51158000D01*
X205243800Y-51158000D01*
X205203890Y-51154208D01*
X205166697Y-51158000D01*
X182461057Y-51158000D01*
X182483533Y-51151182D01*
X182628592Y-51073646D01*
X182755737Y-50969301D01*
X182781892Y-50937431D01*
X185981427Y-47737897D01*
X186013291Y-47711747D01*
X186117636Y-47584602D01*
X186195172Y-47439543D01*
X186242918Y-47282145D01*
X186253358Y-47176147D01*
X186259040Y-47118457D01*
X186255000Y-47077438D01*
X186255000Y-45666000D01*
X190727282Y-45666000D01*
X190768300Y-45670040D01*
X190809318Y-45666000D01*
X190809319Y-45666000D01*
X190931989Y-45653918D01*
X191089387Y-45606172D01*
X191234446Y-45528636D01*
X191361591Y-45424291D01*
X191387746Y-45392421D01*
X193759297Y-43020872D01*
X194554000Y-43020872D01*
X194727254Y-43003808D01*
X194893850Y-42953272D01*
X195047386Y-42871205D01*
X195181962Y-42760762D01*
X195292405Y-42626186D01*
X195374472Y-42472650D01*
X195425008Y-42306054D01*
X195442072Y-42132800D01*
X195442072Y-41817200D01*
X196019928Y-41817200D01*
X196032188Y-41941682D01*
X196068498Y-42061380D01*
X196127463Y-42171694D01*
X196206815Y-42268385D01*
X196303506Y-42347737D01*
X196413820Y-42406702D01*
X196533518Y-42443012D01*
X196658000Y-42455272D01*
X197072250Y-42452200D01*
X197231000Y-42293450D01*
X197231000Y-41369200D01*
X197485000Y-41369200D01*
X197485000Y-42293450D01*
X197643750Y-42452200D01*
X198058000Y-42455272D01*
X198182482Y-42443012D01*
X198302180Y-42406702D01*
X198412494Y-42347737D01*
X198427508Y-42335415D01*
X198462506Y-42364137D01*
X198572820Y-42423102D01*
X198692518Y-42459412D01*
X198817000Y-42471672D01*
X199231250Y-42468600D01*
X199390000Y-42309850D01*
X199390000Y-41385600D01*
X199644000Y-41385600D01*
X199644000Y-42309850D01*
X199802750Y-42468600D01*
X200217000Y-42471672D01*
X200341482Y-42459412D01*
X200461180Y-42423102D01*
X200571494Y-42364137D01*
X200668185Y-42284785D01*
X200747537Y-42188094D01*
X200806502Y-42077780D01*
X200842812Y-41958082D01*
X200855072Y-41833600D01*
X200852000Y-41544350D01*
X200693250Y-41385600D01*
X199644000Y-41385600D01*
X199390000Y-41385600D01*
X198550650Y-41385600D01*
X198534250Y-41369200D01*
X197485000Y-41369200D01*
X197231000Y-41369200D01*
X196181750Y-41369200D01*
X196023000Y-41527950D01*
X196019928Y-41817200D01*
X195442072Y-41817200D01*
X195442072Y-41207800D01*
X195425008Y-41034546D01*
X195374472Y-40867950D01*
X195292405Y-40714414D01*
X195181962Y-40579838D01*
X195047386Y-40469395D01*
X194893850Y-40387328D01*
X194727254Y-40336792D01*
X194554000Y-40319728D01*
X193304000Y-40319728D01*
X193130746Y-40336792D01*
X192964150Y-40387328D01*
X192810614Y-40469395D01*
X192676038Y-40579838D01*
X192565595Y-40714414D01*
X192483528Y-40867950D01*
X192432992Y-41034546D01*
X192415928Y-41207800D01*
X192415928Y-42002504D01*
X190422433Y-43996000D01*
X187246957Y-43996000D01*
X187673323Y-43569634D01*
X187732026Y-43628337D01*
X187901544Y-43741605D01*
X188089902Y-43819626D01*
X188289861Y-43859400D01*
X188493739Y-43859400D01*
X188693698Y-43819626D01*
X188882056Y-43741605D01*
X189051574Y-43628337D01*
X189070511Y-43609400D01*
X189928047Y-43609400D01*
X189966600Y-43613197D01*
X190005153Y-43609400D01*
X190005161Y-43609400D01*
X190120487Y-43598041D01*
X190268460Y-43553154D01*
X190404833Y-43480262D01*
X190524364Y-43382164D01*
X190548947Y-43352210D01*
X191053211Y-42847946D01*
X191083164Y-42823364D01*
X191181262Y-42703833D01*
X191254154Y-42567460D01*
X191262075Y-42541349D01*
X191299042Y-42419487D01*
X191305500Y-42353907D01*
X191443387Y-42280205D01*
X191577962Y-42169762D01*
X191688405Y-42035187D01*
X191770472Y-41881651D01*
X191821008Y-41715055D01*
X191838072Y-41541801D01*
X191838072Y-40891799D01*
X191821008Y-40718545D01*
X191770472Y-40551949D01*
X191688405Y-40398413D01*
X191577962Y-40263838D01*
X191490184Y-40191800D01*
X191577962Y-40119762D01*
X191688405Y-39985187D01*
X191770472Y-39831651D01*
X191821008Y-39665055D01*
X191838072Y-39491801D01*
X191838072Y-38841799D01*
X191821008Y-38668545D01*
X191770472Y-38501949D01*
X191688405Y-38348413D01*
X191577962Y-38213838D01*
X191443387Y-38103395D01*
X191289851Y-38021328D01*
X191285000Y-38019856D01*
X191285000Y-37298577D01*
X191469209Y-37107000D01*
X193077647Y-37107000D01*
X193116200Y-37110797D01*
X193154753Y-37107000D01*
X193154761Y-37107000D01*
X193217597Y-37100811D01*
X193153828Y-37220114D01*
X193108834Y-37368439D01*
X192964150Y-37412328D01*
X192810614Y-37494395D01*
X192676038Y-37604838D01*
X192565595Y-37739414D01*
X192483528Y-37892950D01*
X192432992Y-38059546D01*
X192415928Y-38232800D01*
X192415928Y-39157800D01*
X192432992Y-39331054D01*
X192483528Y-39497650D01*
X192565595Y-39651186D01*
X192676038Y-39785762D01*
X192810614Y-39896205D01*
X192964150Y-39978272D01*
X193130746Y-40028808D01*
X193304000Y-40045872D01*
X194554000Y-40045872D01*
X194727254Y-40028808D01*
X194893850Y-39978272D01*
X195047386Y-39896205D01*
X195181962Y-39785762D01*
X195292405Y-39651186D01*
X195374472Y-39497650D01*
X195425008Y-39331054D01*
X195442072Y-39157800D01*
X195442072Y-38232800D01*
X195425008Y-38059546D01*
X195392557Y-37952570D01*
X195523088Y-37912974D01*
X195668147Y-37835438D01*
X195795292Y-37731093D01*
X195821447Y-37699223D01*
X196243022Y-37277648D01*
X196274891Y-37251494D01*
X196369610Y-37136079D01*
X196337374Y-37213902D01*
X196297600Y-37413861D01*
X196297600Y-37617739D01*
X196337374Y-37817698D01*
X196415395Y-38006056D01*
X196475618Y-38096187D01*
X196414613Y-38128795D01*
X196280038Y-38239238D01*
X196169595Y-38373813D01*
X196087528Y-38527349D01*
X196036992Y-38693945D01*
X196019928Y-38867199D01*
X196019928Y-39517201D01*
X196036992Y-39690455D01*
X196087528Y-39857051D01*
X196169595Y-40010587D01*
X196280038Y-40145162D01*
X196286594Y-40150542D01*
X196206815Y-40216015D01*
X196127463Y-40312706D01*
X196068498Y-40423020D01*
X196032188Y-40542718D01*
X196019928Y-40667200D01*
X196023000Y-40956450D01*
X196181750Y-41115200D01*
X197231000Y-41115200D01*
X197231000Y-41095200D01*
X197485000Y-41095200D01*
X197485000Y-41115200D01*
X198324350Y-41115200D01*
X198340750Y-41131600D01*
X199390000Y-41131600D01*
X199390000Y-41111600D01*
X199644000Y-41111600D01*
X199644000Y-41131600D01*
X200693250Y-41131600D01*
X200852000Y-40972850D01*
X200855072Y-40683600D01*
X200842812Y-40559118D01*
X200806502Y-40439420D01*
X200747537Y-40329106D01*
X200668185Y-40232415D01*
X200588406Y-40166942D01*
X200594962Y-40161562D01*
X200705405Y-40026987D01*
X200787472Y-39873451D01*
X200838008Y-39706855D01*
X200855072Y-39533601D01*
X200855072Y-38883599D01*
X200838008Y-38710345D01*
X200787472Y-38543749D01*
X200705405Y-38390213D01*
X200594962Y-38255638D01*
X200460387Y-38145195D01*
X200322570Y-38071530D01*
X200434205Y-37904456D01*
X200512226Y-37716098D01*
X200552000Y-37516139D01*
X200552000Y-37312261D01*
X200512226Y-37112302D01*
X200434205Y-36923944D01*
X200320937Y-36754426D01*
X200176774Y-36610263D01*
X200007256Y-36496995D01*
X199818898Y-36418974D01*
X199618939Y-36379200D01*
X199415061Y-36379200D01*
X199215102Y-36418974D01*
X199026744Y-36496995D01*
X198857226Y-36610263D01*
X198713063Y-36754426D01*
X198599795Y-36923944D01*
X198521774Y-37112302D01*
X198482000Y-37312261D01*
X198482000Y-37516139D01*
X198521774Y-37716098D01*
X198599795Y-37904456D01*
X198711430Y-38071530D01*
X198573613Y-38145195D01*
X198445242Y-38250546D01*
X198435962Y-38239238D01*
X198301387Y-38128795D01*
X198202950Y-38076179D01*
X198249805Y-38006056D01*
X198327826Y-37817698D01*
X198367600Y-37617739D01*
X198367600Y-37413861D01*
X198327826Y-37213902D01*
X198249805Y-37025544D01*
X198136537Y-36856026D01*
X197992374Y-36711863D01*
X197822856Y-36598595D01*
X197634498Y-36520574D01*
X197434539Y-36480800D01*
X197230661Y-36480800D01*
X197030702Y-36520574D01*
X196842344Y-36598595D01*
X196672826Y-36711863D01*
X196528663Y-36856026D01*
X196465478Y-36950589D01*
X196504518Y-36821892D01*
X196516600Y-36699222D01*
X196516600Y-36699212D01*
X196520639Y-36658204D01*
X196516600Y-36617196D01*
X196516600Y-35772779D01*
X196612361Y-35773297D01*
X196798028Y-35737408D01*
X196973126Y-35665987D01*
X196982323Y-35661070D01*
X196995931Y-35465336D01*
X196600639Y-35070044D01*
X196633000Y-34907352D01*
X196633000Y-34718248D01*
X196632171Y-34714081D01*
X196716748Y-34798658D01*
X196702605Y-34812800D01*
X196804095Y-34914290D01*
X196823108Y-34959143D01*
X196954940Y-35152969D01*
X197122052Y-35317352D01*
X197318023Y-35445974D01*
X197535321Y-35533893D01*
X197562627Y-35534576D01*
X197746000Y-35409192D01*
X197746000Y-33959800D01*
X198000000Y-33959800D01*
X198000000Y-35409192D01*
X198183373Y-35534576D01*
X198210679Y-35533893D01*
X198427977Y-35445974D01*
X198623948Y-35317352D01*
X198791060Y-35152969D01*
X198922892Y-34959143D01*
X199014377Y-34743322D01*
X199062000Y-34513800D01*
X199062000Y-33959800D01*
X198000000Y-33959800D01*
X197746000Y-33959800D01*
X197726000Y-33959800D01*
X197726000Y-33705800D01*
X197746000Y-33705800D01*
X197746000Y-33685800D01*
X198000000Y-33685800D01*
X198000000Y-33705800D01*
X199062000Y-33705800D01*
X199062000Y-33151800D01*
X199014377Y-32922278D01*
X198922892Y-32706457D01*
X198915650Y-32695810D01*
X208979253Y-32695810D01*
X209247601Y-32964159D01*
X209247600Y-35623047D01*
X209243803Y-35661600D01*
X209247600Y-35700153D01*
X209247600Y-35700160D01*
X209258959Y-35815486D01*
X209303846Y-35963459D01*
X209376738Y-36099832D01*
X209474836Y-36219364D01*
X209504789Y-36243946D01*
X209978657Y-36717815D01*
X210003236Y-36747764D01*
X210033184Y-36772342D01*
X210033187Y-36772345D01*
X210060783Y-36794992D01*
X210122767Y-36845862D01*
X210259140Y-36918754D01*
X210372672Y-36953194D01*
X210407112Y-36963641D01*
X210421490Y-36965057D01*
X210522439Y-36975000D01*
X210522446Y-36975000D01*
X210560999Y-36978797D01*
X210599552Y-36975000D01*
X210824317Y-36975000D01*
X210861463Y-37044494D01*
X210940815Y-37141185D01*
X211037506Y-37220537D01*
X211147820Y-37279502D01*
X211267518Y-37315812D01*
X211392000Y-37328072D01*
X212722515Y-37328072D01*
X213387258Y-37992815D01*
X213411836Y-38022764D01*
X213441784Y-38047342D01*
X213441787Y-38047345D01*
X213456654Y-38059546D01*
X213531367Y-38120862D01*
X213667740Y-38193754D01*
X213781272Y-38228194D01*
X213815712Y-38238641D01*
X213821774Y-38239238D01*
X213931039Y-38250000D01*
X213931046Y-38250000D01*
X213969599Y-38253797D01*
X214008152Y-38250000D01*
X216775847Y-38250000D01*
X216814400Y-38253797D01*
X216852953Y-38250000D01*
X216852961Y-38250000D01*
X216968287Y-38238641D01*
X217116260Y-38193754D01*
X217252633Y-38120862D01*
X217372164Y-38022764D01*
X217396747Y-37992810D01*
X218061486Y-37328072D01*
X219392000Y-37328072D01*
X219516482Y-37315812D01*
X219636180Y-37279502D01*
X219746494Y-37220537D01*
X219843185Y-37141185D01*
X219922537Y-37044494D01*
X219981502Y-36934180D01*
X220017812Y-36814482D01*
X220030072Y-36690000D01*
X220030072Y-35690000D01*
X220017812Y-35565518D01*
X219981502Y-35445820D01*
X219922537Y-35335506D01*
X219843185Y-35238815D01*
X219746494Y-35159463D01*
X219636180Y-35100498D01*
X219516482Y-35064188D01*
X219392000Y-35051928D01*
X217692000Y-35051928D01*
X217567518Y-35064188D01*
X217447820Y-35100498D01*
X217337506Y-35159463D01*
X217240815Y-35238815D01*
X217161463Y-35335506D01*
X217102498Y-35445820D01*
X217066188Y-35565518D01*
X217053928Y-35690000D01*
X217053928Y-36115314D01*
X216489243Y-36680000D01*
X214294758Y-36680000D01*
X213730072Y-36115315D01*
X213730072Y-35690000D01*
X213717812Y-35565518D01*
X213681502Y-35445820D01*
X213622537Y-35335506D01*
X213543185Y-35238815D01*
X213446494Y-35159463D01*
X213336180Y-35100498D01*
X213216482Y-35064188D01*
X213092000Y-35051928D01*
X211392000Y-35051928D01*
X211267518Y-35064188D01*
X211147820Y-35100498D01*
X211037506Y-35159463D01*
X210940815Y-35238815D01*
X210861463Y-35335506D01*
X210845858Y-35364700D01*
X210817600Y-35336443D01*
X210817600Y-33162433D01*
X210861463Y-33244494D01*
X210940815Y-33341185D01*
X211037506Y-33420537D01*
X211147820Y-33479502D01*
X211267518Y-33515812D01*
X211392000Y-33528072D01*
X211956250Y-33525000D01*
X212115000Y-33366250D01*
X212115000Y-32517000D01*
X212369000Y-32517000D01*
X212369000Y-33366250D01*
X212527750Y-33525000D01*
X213092000Y-33528072D01*
X213216482Y-33515812D01*
X213336180Y-33479502D01*
X213446494Y-33420537D01*
X213543185Y-33341185D01*
X213622537Y-33244494D01*
X213681502Y-33134180D01*
X213717812Y-33014482D01*
X213730072Y-32890000D01*
X217053928Y-32890000D01*
X217066188Y-33014482D01*
X217102498Y-33134180D01*
X217161463Y-33244494D01*
X217240815Y-33341185D01*
X217337506Y-33420537D01*
X217447820Y-33479502D01*
X217567518Y-33515812D01*
X217692000Y-33528072D01*
X218256250Y-33525000D01*
X218415000Y-33366250D01*
X218415000Y-32517000D01*
X218669000Y-32517000D01*
X218669000Y-33366250D01*
X218827750Y-33525000D01*
X219392000Y-33528072D01*
X219516482Y-33515812D01*
X219636180Y-33479502D01*
X219746494Y-33420537D01*
X219843185Y-33341185D01*
X219922537Y-33244494D01*
X219981502Y-33134180D01*
X220017812Y-33014482D01*
X220030072Y-32890000D01*
X220027000Y-32675750D01*
X219868250Y-32517000D01*
X218669000Y-32517000D01*
X218415000Y-32517000D01*
X217215750Y-32517000D01*
X217057000Y-32675750D01*
X217053928Y-32890000D01*
X213730072Y-32890000D01*
X213727000Y-32675750D01*
X213568250Y-32517000D01*
X212369000Y-32517000D01*
X212115000Y-32517000D01*
X212095000Y-32517000D01*
X212095000Y-32263000D01*
X212115000Y-32263000D01*
X212115000Y-31413750D01*
X212369000Y-31413750D01*
X212369000Y-32263000D01*
X213568250Y-32263000D01*
X213727000Y-32104250D01*
X213730072Y-31890000D01*
X217053928Y-31890000D01*
X217057000Y-32104250D01*
X217215750Y-32263000D01*
X218415000Y-32263000D01*
X218415000Y-31413750D01*
X218669000Y-31413750D01*
X218669000Y-32263000D01*
X219868250Y-32263000D01*
X220027000Y-32104250D01*
X220030072Y-31890000D01*
X220017812Y-31765518D01*
X219981502Y-31645820D01*
X219922537Y-31535506D01*
X219843185Y-31438815D01*
X219746494Y-31359463D01*
X219636180Y-31300498D01*
X219516482Y-31264188D01*
X219392000Y-31251928D01*
X218827750Y-31255000D01*
X218669000Y-31413750D01*
X218415000Y-31413750D01*
X218256250Y-31255000D01*
X217692000Y-31251928D01*
X217567518Y-31264188D01*
X217447820Y-31300498D01*
X217337506Y-31359463D01*
X217240815Y-31438815D01*
X217161463Y-31535506D01*
X217102498Y-31645820D01*
X217066188Y-31765518D01*
X217053928Y-31890000D01*
X213730072Y-31890000D01*
X213717812Y-31765518D01*
X213681502Y-31645820D01*
X213622537Y-31535506D01*
X213543185Y-31438815D01*
X213446494Y-31359463D01*
X213336180Y-31300498D01*
X213216482Y-31264188D01*
X213092000Y-31251928D01*
X212527750Y-31255000D01*
X212369000Y-31413750D01*
X212115000Y-31413750D01*
X211956250Y-31255000D01*
X211392000Y-31251928D01*
X211267518Y-31264188D01*
X211147820Y-31300498D01*
X211037506Y-31359463D01*
X210940815Y-31438815D01*
X210861463Y-31535506D01*
X210802498Y-31645820D01*
X210766188Y-31765518D01*
X210753928Y-31890000D01*
X210757000Y-32104250D01*
X210915748Y-32262998D01*
X210757000Y-32262998D01*
X210757000Y-32328994D01*
X210725589Y-32270228D01*
X210688462Y-32200767D01*
X210631225Y-32131024D01*
X210614945Y-32111187D01*
X210614942Y-32111184D01*
X210590364Y-32081236D01*
X210560415Y-32056657D01*
X209886757Y-31382999D01*
X209862174Y-31353046D01*
X209742643Y-31254948D01*
X209606270Y-31182056D01*
X209458297Y-31137169D01*
X209342971Y-31125810D01*
X209342963Y-31125810D01*
X209304410Y-31122013D01*
X209265857Y-31125810D01*
X199062000Y-31125810D01*
X199062000Y-30579800D01*
X198000000Y-30579800D01*
X198000000Y-30599800D01*
X197746000Y-30599800D01*
X197746000Y-30579800D01*
X196684000Y-30579800D01*
X196684000Y-31125810D01*
X190412000Y-31125810D01*
X190412000Y-30579800D01*
X189350000Y-30579800D01*
X189350000Y-30599800D01*
X189096000Y-30599800D01*
X189096000Y-30579800D01*
X188034000Y-30579800D01*
X188034000Y-30713843D01*
X187805747Y-30485590D01*
X187781164Y-30455636D01*
X187661633Y-30357538D01*
X187525260Y-30284646D01*
X187377287Y-30239759D01*
X187261961Y-30228400D01*
X187261953Y-30228400D01*
X187223400Y-30224603D01*
X187184847Y-30228400D01*
X184734827Y-30228400D01*
X184703405Y-30169613D01*
X184592962Y-30035038D01*
X184458387Y-29924595D01*
X184304851Y-29842528D01*
X184138255Y-29791992D01*
X183965001Y-29774928D01*
X183064999Y-29774928D01*
X182891745Y-29791992D01*
X182725149Y-29842528D01*
X182571613Y-29924595D01*
X182437038Y-30035038D01*
X182326595Y-30169613D01*
X182244528Y-30323149D01*
X182193992Y-30489745D01*
X182191446Y-30515597D01*
X181767985Y-30939058D01*
X181738037Y-30963636D01*
X181713459Y-30993584D01*
X181713455Y-30993588D01*
X181697196Y-31013400D01*
X181639939Y-31083167D01*
X181611075Y-31137169D01*
X181567046Y-31219541D01*
X181522159Y-31367514D01*
X181507003Y-31521400D01*
X181510801Y-31559958D01*
X181510800Y-33025043D01*
X181253047Y-33282797D01*
X181135250Y-33165000D01*
X180086000Y-33165000D01*
X180086000Y-33185000D01*
X179832000Y-33185000D01*
X179832000Y-33165000D01*
X179812000Y-33165000D01*
X179812000Y-32911000D01*
X179832000Y-32911000D01*
X179832000Y-32891000D01*
X180086000Y-32891000D01*
X180086000Y-32911000D01*
X181135250Y-32911000D01*
X181294000Y-32752250D01*
X181297072Y-32463000D01*
X181284812Y-32338518D01*
X181248502Y-32218820D01*
X181189537Y-32108506D01*
X181110185Y-32011815D01*
X181030406Y-31946342D01*
X181036962Y-31940962D01*
X181147405Y-31806387D01*
X181229472Y-31652851D01*
X181280008Y-31486255D01*
X181297072Y-31313001D01*
X181297072Y-30662999D01*
X181280008Y-30489745D01*
X181229472Y-30323149D01*
X181147405Y-30169613D01*
X181036962Y-30035038D01*
X180902387Y-29924595D01*
X180748851Y-29842528D01*
X180582255Y-29791992D01*
X180409001Y-29774928D01*
X179508999Y-29774928D01*
X179335745Y-29791992D01*
X179169149Y-29842528D01*
X179015613Y-29924595D01*
X178881038Y-30035038D01*
X178779072Y-30159284D01*
X178779072Y-30004000D01*
X178766812Y-29879518D01*
X178730502Y-29759820D01*
X178671537Y-29649506D01*
X178592185Y-29552815D01*
X178495494Y-29473463D01*
X178385180Y-29414498D01*
X178265482Y-29378188D01*
X178141000Y-29365928D01*
X176041000Y-29365928D01*
X175916518Y-29378188D01*
X175796820Y-29414498D01*
X175686506Y-29473463D01*
X175641000Y-29510809D01*
X175595494Y-29473463D01*
X175485180Y-29414498D01*
X175365482Y-29378188D01*
X175241000Y-29365928D01*
X173141000Y-29365928D01*
X173016518Y-29378188D01*
X172896820Y-29414498D01*
X172786506Y-29473463D01*
X172689815Y-29552815D01*
X172610463Y-29649506D01*
X172551498Y-29759820D01*
X172515188Y-29879518D01*
X172502928Y-30004000D01*
X172502928Y-30141284D01*
X172400962Y-30017038D01*
X172266387Y-29906595D01*
X172112851Y-29824528D01*
X171946255Y-29773992D01*
X171773001Y-29756928D01*
X170872999Y-29756928D01*
X170699745Y-29773992D01*
X170533149Y-29824528D01*
X170379613Y-29906595D01*
X170245038Y-30017038D01*
X170134595Y-30151613D01*
X170052528Y-30305149D01*
X170001992Y-30471745D01*
X169984928Y-30644999D01*
X169984928Y-31295001D01*
X170001992Y-31468255D01*
X170052528Y-31634851D01*
X170134595Y-31788387D01*
X170245038Y-31922962D01*
X170251594Y-31928342D01*
X170171815Y-31993815D01*
X170092463Y-32090506D01*
X170033498Y-32200820D01*
X169997188Y-32320518D01*
X169984928Y-32445000D01*
X169988000Y-32734250D01*
X170146750Y-32893000D01*
X171196000Y-32893000D01*
X171196000Y-32873000D01*
X171450000Y-32873000D01*
X171450000Y-32893000D01*
X171470000Y-32893000D01*
X171470000Y-33147000D01*
X171450000Y-33147000D01*
X171450000Y-34071250D01*
X171608750Y-34230000D01*
X171799093Y-34231412D01*
X171825205Y-34317494D01*
X171789000Y-34313928D01*
X171239000Y-34313928D01*
X171114518Y-34326188D01*
X170994820Y-34362498D01*
X170884506Y-34421463D01*
X170787815Y-34500815D01*
X170708463Y-34597506D01*
X170649498Y-34707820D01*
X170613188Y-34827518D01*
X170600928Y-34952000D01*
X170600928Y-36452000D01*
X170604972Y-36493064D01*
X170560787Y-36488936D01*
X170099750Y-36492000D01*
X169941000Y-36650750D01*
X169941000Y-37275000D01*
X171040250Y-37275000D01*
X171199000Y-37116250D01*
X171196448Y-37085881D01*
X171239000Y-37090072D01*
X171789000Y-37090072D01*
X171913482Y-37077812D01*
X171914000Y-37077655D01*
X171914518Y-37077812D01*
X172039000Y-37090072D01*
X172589000Y-37090072D01*
X172713482Y-37077812D01*
X172714000Y-37077655D01*
X172714518Y-37077812D01*
X172839000Y-37090072D01*
X173389000Y-37090072D01*
X173513482Y-37077812D01*
X173514000Y-37077655D01*
X173514518Y-37077812D01*
X173639000Y-37090072D01*
X174189000Y-37090072D01*
X174313482Y-37077812D01*
X174314000Y-37077655D01*
X174314518Y-37077812D01*
X174439000Y-37090072D01*
X174989000Y-37090072D01*
X175113482Y-37077812D01*
X175114000Y-37077655D01*
X175114518Y-37077812D01*
X175239000Y-37090072D01*
X175789000Y-37090072D01*
X175913482Y-37077812D01*
X175914000Y-37077655D01*
X175914518Y-37077812D01*
X176039000Y-37090072D01*
X176589000Y-37090072D01*
X176713482Y-37077812D01*
X176714663Y-37077454D01*
X176828250Y-37087000D01*
X176920333Y-36994917D01*
X176943494Y-36982537D01*
X177040185Y-36903185D01*
X177091525Y-36840627D01*
X177126428Y-36955688D01*
X177203964Y-37100747D01*
X177308309Y-37227893D01*
X177340178Y-37254047D01*
X177499557Y-37413427D01*
X177525708Y-37445292D01*
X177652853Y-37549637D01*
X177797912Y-37627173D01*
X177955310Y-37674919D01*
X178077980Y-37687001D01*
X178077981Y-37687001D01*
X178118999Y-37691041D01*
X178160017Y-37687001D01*
X179051199Y-37687001D01*
X179051200Y-40178173D01*
X179047159Y-40219201D01*
X179063281Y-40382889D01*
X179111027Y-40540287D01*
X179188563Y-40685346D01*
X179188564Y-40685347D01*
X179292909Y-40812492D01*
X179324773Y-40838642D01*
X179662156Y-41176026D01*
X179688307Y-41207891D01*
X179815452Y-41312236D01*
X179825928Y-41317836D01*
X179825928Y-41677000D01*
X179838188Y-41801482D01*
X179838546Y-41802663D01*
X179829000Y-41916250D01*
X179921083Y-42008333D01*
X179933463Y-42031494D01*
X180012815Y-42128185D01*
X180102759Y-42202000D01*
X180012815Y-42275815D01*
X179933463Y-42372506D01*
X179921083Y-42395667D01*
X179829000Y-42487750D01*
X179838546Y-42601337D01*
X179838188Y-42602518D01*
X179825928Y-42727000D01*
X179825928Y-43277000D01*
X179838188Y-43401482D01*
X179838345Y-43402000D01*
X179838188Y-43402518D01*
X179825928Y-43527000D01*
X179825928Y-44077000D01*
X179838188Y-44201482D01*
X179838345Y-44202000D01*
X179838188Y-44202518D01*
X179825928Y-44327000D01*
X179825928Y-44877000D01*
X179838188Y-45001482D01*
X179838345Y-45002000D01*
X179838188Y-45002518D01*
X179825928Y-45127000D01*
X179825928Y-45677000D01*
X179829962Y-45717962D01*
X179789000Y-45713928D01*
X179239000Y-45713928D01*
X179114518Y-45726188D01*
X179113337Y-45726546D01*
X178999750Y-45717000D01*
X178907667Y-45809083D01*
X178884506Y-45821463D01*
X178787815Y-45900815D01*
X178714000Y-45990759D01*
X178640185Y-45900815D01*
X178543494Y-45821463D01*
X178520333Y-45809083D01*
X178428250Y-45717000D01*
X178314663Y-45726546D01*
X178313482Y-45726188D01*
X178189000Y-45713928D01*
X177639000Y-45713928D01*
X177514518Y-45726188D01*
X177514000Y-45726345D01*
X177513482Y-45726188D01*
X177389000Y-45713928D01*
X176839000Y-45713928D01*
X176714518Y-45726188D01*
X176714000Y-45726345D01*
X176713482Y-45726188D01*
X176589000Y-45713928D01*
X176039000Y-45713928D01*
X175914518Y-45726188D01*
X175914000Y-45726345D01*
X175913482Y-45726188D01*
X175789000Y-45713928D01*
X175239000Y-45713928D01*
X175114518Y-45726188D01*
X175114000Y-45726345D01*
X175113482Y-45726188D01*
X174989000Y-45713928D01*
X174439000Y-45713928D01*
X174314518Y-45726188D01*
X174314000Y-45726345D01*
X174313482Y-45726188D01*
X174189000Y-45713928D01*
X173639000Y-45713928D01*
X173514518Y-45726188D01*
X173514000Y-45726345D01*
X173513482Y-45726188D01*
X173389000Y-45713928D01*
X172839000Y-45713928D01*
X172714518Y-45726188D01*
X172713337Y-45726546D01*
X172599750Y-45717000D01*
X172507667Y-45809083D01*
X172484506Y-45821463D01*
X172387815Y-45900815D01*
X172314000Y-45990759D01*
X172240185Y-45900815D01*
X172143494Y-45821463D01*
X172120333Y-45809083D01*
X172028250Y-45717000D01*
X171914663Y-45726546D01*
X171913482Y-45726188D01*
X171789000Y-45713928D01*
X171239000Y-45713928D01*
X171198038Y-45717962D01*
X171202072Y-45677000D01*
X171202072Y-45127000D01*
X171189812Y-45002518D01*
X171189655Y-45002000D01*
X171189812Y-45001482D01*
X171202072Y-44877000D01*
X171202072Y-44327000D01*
X171189812Y-44202518D01*
X171189655Y-44202000D01*
X171189812Y-44201482D01*
X171202072Y-44077000D01*
X171202072Y-43527000D01*
X171189812Y-43402518D01*
X171189655Y-43402000D01*
X171189812Y-43401482D01*
X171202072Y-43277000D01*
X171202072Y-42727000D01*
X171189812Y-42602518D01*
X171189655Y-42602000D01*
X171189812Y-42601482D01*
X171202072Y-42477000D01*
X171202072Y-41927000D01*
X171189812Y-41802518D01*
X171189655Y-41802000D01*
X171189812Y-41801482D01*
X171202072Y-41677000D01*
X171202072Y-41127000D01*
X171189812Y-41002518D01*
X171189655Y-41002000D01*
X171189812Y-41001482D01*
X171202072Y-40877000D01*
X171202072Y-40327000D01*
X171189812Y-40202518D01*
X171189655Y-40202000D01*
X171189812Y-40201482D01*
X171202072Y-40077000D01*
X171202072Y-39527000D01*
X171189812Y-39402518D01*
X171189655Y-39402000D01*
X171189812Y-39401482D01*
X171202072Y-39277000D01*
X171202072Y-38727000D01*
X171189812Y-38602518D01*
X171189655Y-38602000D01*
X171189812Y-38601482D01*
X171202072Y-38477000D01*
X171202072Y-37927000D01*
X171189812Y-37802518D01*
X171189454Y-37801337D01*
X171199000Y-37687750D01*
X171106917Y-37595667D01*
X171094537Y-37572506D01*
X171015185Y-37475815D01*
X170918494Y-37396463D01*
X170808180Y-37337498D01*
X170688482Y-37301188D01*
X170564000Y-37288928D01*
X169667000Y-37288928D01*
X169667000Y-37275000D01*
X169687000Y-37275000D01*
X169687000Y-36650750D01*
X169528250Y-36492000D01*
X169067213Y-36488936D01*
X168977873Y-36497282D01*
X168975000Y-36226750D01*
X168816250Y-36068000D01*
X167767000Y-36068000D01*
X167767000Y-36088000D01*
X167513000Y-36088000D01*
X167513000Y-36068000D01*
X166463750Y-36068000D01*
X166305000Y-36226750D01*
X166301928Y-36516000D01*
X166314188Y-36640482D01*
X166350498Y-36760180D01*
X166409463Y-36870494D01*
X166488815Y-36967185D01*
X166568594Y-37032658D01*
X166562038Y-37038038D01*
X166451595Y-37172613D01*
X166369528Y-37326149D01*
X166318992Y-37492745D01*
X166301928Y-37665999D01*
X166301928Y-38148205D01*
X165978569Y-38471564D01*
X165946699Y-38497719D01*
X165842355Y-38624864D01*
X165842354Y-38624865D01*
X165764818Y-38769924D01*
X165760000Y-38785807D01*
X165760000Y-35366000D01*
X166301928Y-35366000D01*
X166305000Y-35655250D01*
X166463750Y-35814000D01*
X167513000Y-35814000D01*
X167513000Y-34889750D01*
X167767000Y-34889750D01*
X167767000Y-35814000D01*
X168816250Y-35814000D01*
X168975000Y-35655250D01*
X168978072Y-35366000D01*
X168965812Y-35241518D01*
X168929502Y-35121820D01*
X168870537Y-35011506D01*
X168791185Y-34914815D01*
X168694494Y-34835463D01*
X168584180Y-34776498D01*
X168464482Y-34740188D01*
X168340000Y-34727928D01*
X167925750Y-34731000D01*
X167767000Y-34889750D01*
X167513000Y-34889750D01*
X167354250Y-34731000D01*
X166940000Y-34727928D01*
X166815518Y-34740188D01*
X166695820Y-34776498D01*
X166585506Y-34835463D01*
X166488815Y-34914815D01*
X166409463Y-35011506D01*
X166350498Y-35121820D01*
X166314188Y-35241518D01*
X166301928Y-35366000D01*
X165760000Y-35366000D01*
X165760000Y-33595000D01*
X169984928Y-33595000D01*
X169997188Y-33719482D01*
X170033498Y-33839180D01*
X170092463Y-33949494D01*
X170171815Y-34046185D01*
X170268506Y-34125537D01*
X170378820Y-34184502D01*
X170498518Y-34220812D01*
X170623000Y-34233072D01*
X171037250Y-34230000D01*
X171196000Y-34071250D01*
X171196000Y-33147000D01*
X170146750Y-33147000D01*
X169988000Y-33305750D01*
X169984928Y-33595000D01*
X165760000Y-33595000D01*
X165760000Y-31274279D01*
X165798909Y-30877455D01*
X165904780Y-30526792D01*
X166076744Y-30203375D01*
X166308254Y-29919516D01*
X166590486Y-29686035D01*
X166912695Y-29511817D01*
X167262614Y-29403498D01*
X167657443Y-29362000D01*
X188158042Y-29362000D01*
X188081623Y-29542278D01*
G36*
X168819820Y-46266502D02*
G01*
X168939518Y-46302812D01*
X169064000Y-46315072D01*
X170564000Y-46315072D01*
X170604962Y-46311038D01*
X170600928Y-46352000D01*
X170600928Y-47852000D01*
X170613188Y-47976482D01*
X170649498Y-48096180D01*
X170676271Y-48146267D01*
X170582238Y-48223438D01*
X170576858Y-48229994D01*
X170511385Y-48150215D01*
X170414694Y-48070863D01*
X170304380Y-48011898D01*
X170184682Y-47975588D01*
X170060200Y-47963328D01*
X169770950Y-47966400D01*
X169612200Y-48125150D01*
X169612200Y-49174400D01*
X169632200Y-49174400D01*
X169632200Y-49428400D01*
X169612200Y-49428400D01*
X169612200Y-49448400D01*
X169358200Y-49448400D01*
X169358200Y-49428400D01*
X169338200Y-49428400D01*
X169338200Y-49174400D01*
X169358200Y-49174400D01*
X169358200Y-48125150D01*
X169199450Y-47966400D01*
X168977533Y-47964043D01*
X168975000Y-47725550D01*
X168816250Y-47566800D01*
X167767000Y-47566800D01*
X167767000Y-47586800D01*
X167513000Y-47586800D01*
X167513000Y-47566800D01*
X167493000Y-47566800D01*
X167493000Y-47312800D01*
X167513000Y-47312800D01*
X167513000Y-47292800D01*
X167767000Y-47292800D01*
X167767000Y-47312800D01*
X168816250Y-47312800D01*
X168975000Y-47154050D01*
X168978072Y-46864800D01*
X168965812Y-46740318D01*
X168929502Y-46620620D01*
X168870537Y-46510306D01*
X168791185Y-46413615D01*
X168711406Y-46348142D01*
X168717962Y-46342762D01*
X168792522Y-46251911D01*
X168819820Y-46266502D01*
G37*
X168819820Y-46266502D02*
X168939518Y-46302812D01*
X169064000Y-46315072D01*
X170564000Y-46315072D01*
X170604962Y-46311038D01*
X170600928Y-46352000D01*
X170600928Y-47852000D01*
X170613188Y-47976482D01*
X170649498Y-48096180D01*
X170676271Y-48146267D01*
X170582238Y-48223438D01*
X170576858Y-48229994D01*
X170511385Y-48150215D01*
X170414694Y-48070863D01*
X170304380Y-48011898D01*
X170184682Y-47975588D01*
X170060200Y-47963328D01*
X169770950Y-47966400D01*
X169612200Y-48125150D01*
X169612200Y-49174400D01*
X169632200Y-49174400D01*
X169632200Y-49428400D01*
X169612200Y-49428400D01*
X169612200Y-49448400D01*
X169358200Y-49448400D01*
X169358200Y-49428400D01*
X169338200Y-49428400D01*
X169338200Y-49174400D01*
X169358200Y-49174400D01*
X169358200Y-48125150D01*
X169199450Y-47966400D01*
X168977533Y-47964043D01*
X168975000Y-47725550D01*
X168816250Y-47566800D01*
X167767000Y-47566800D01*
X167767000Y-47586800D01*
X167513000Y-47586800D01*
X167513000Y-47566800D01*
X167493000Y-47566800D01*
X167493000Y-47312800D01*
X167513000Y-47312800D01*
X167513000Y-47292800D01*
X167767000Y-47292800D01*
X167767000Y-47312800D01*
X168816250Y-47312800D01*
X168975000Y-47154050D01*
X168978072Y-46864800D01*
X168965812Y-46740318D01*
X168929502Y-46620620D01*
X168870537Y-46510306D01*
X168791185Y-46413615D01*
X168711406Y-46348142D01*
X168717962Y-46342762D01*
X168792522Y-46251911D01*
X168819820Y-46266502D01*
G36*
X182176928Y-46306000D02*
G01*
X182180000Y-46595250D01*
X182338750Y-46754000D01*
X183388000Y-46754000D01*
X183388000Y-46734000D01*
X183642000Y-46734000D01*
X183642000Y-46754000D01*
X183662000Y-46754000D01*
X183662000Y-47008000D01*
X183642000Y-47008000D01*
X183642000Y-47028000D01*
X183388000Y-47028000D01*
X183388000Y-47008000D01*
X182338750Y-47008000D01*
X182180000Y-47166750D01*
X182176928Y-47456000D01*
X182189188Y-47580482D01*
X182225498Y-47700180D01*
X182284463Y-47810494D01*
X182363815Y-47907185D01*
X182460506Y-47986537D01*
X182570820Y-48045502D01*
X182690518Y-48081812D01*
X182815000Y-48094072D01*
X183229250Y-48091000D01*
X183387998Y-47932252D01*
X183387998Y-47969590D01*
X182781270Y-48576319D01*
X182781272Y-48576000D01*
X182769012Y-48451518D01*
X182732702Y-48331820D01*
X182673737Y-48221506D01*
X182594385Y-48124815D01*
X182497694Y-48045463D01*
X182387380Y-47986498D01*
X182267682Y-47950188D01*
X182143200Y-47937928D01*
X181853950Y-47941000D01*
X181695200Y-48099750D01*
X181695200Y-49149000D01*
X181715200Y-49149000D01*
X181715200Y-49403000D01*
X181695200Y-49403000D01*
X181695200Y-49423000D01*
X181441200Y-49423000D01*
X181441200Y-49403000D01*
X181421200Y-49403000D01*
X181421200Y-49149000D01*
X181441200Y-49149000D01*
X181441200Y-48099750D01*
X181282450Y-47941000D01*
X180993200Y-47937928D01*
X180868718Y-47950188D01*
X180749020Y-47986498D01*
X180638706Y-48045463D01*
X180542015Y-48124815D01*
X180476542Y-48204594D01*
X180471162Y-48198038D01*
X180368911Y-48114123D01*
X180378502Y-48096180D01*
X180414812Y-47976482D01*
X180427072Y-47852000D01*
X180427072Y-46352000D01*
X180423038Y-46311038D01*
X180464000Y-46315072D01*
X181964000Y-46315072D01*
X182088482Y-46302812D01*
X182179975Y-46275058D01*
X182176928Y-46306000D01*
G37*
X182176928Y-46306000D02*
X182180000Y-46595250D01*
X182338750Y-46754000D01*
X183388000Y-46754000D01*
X183388000Y-46734000D01*
X183642000Y-46734000D01*
X183642000Y-46754000D01*
X183662000Y-46754000D01*
X183662000Y-47008000D01*
X183642000Y-47008000D01*
X183642000Y-47028000D01*
X183388000Y-47028000D01*
X183388000Y-47008000D01*
X182338750Y-47008000D01*
X182180000Y-47166750D01*
X182176928Y-47456000D01*
X182189188Y-47580482D01*
X182225498Y-47700180D01*
X182284463Y-47810494D01*
X182363815Y-47907185D01*
X182460506Y-47986537D01*
X182570820Y-48045502D01*
X182690518Y-48081812D01*
X182815000Y-48094072D01*
X183229250Y-48091000D01*
X183387998Y-47932252D01*
X183387998Y-47969590D01*
X182781270Y-48576319D01*
X182781272Y-48576000D01*
X182769012Y-48451518D01*
X182732702Y-48331820D01*
X182673737Y-48221506D01*
X182594385Y-48124815D01*
X182497694Y-48045463D01*
X182387380Y-47986498D01*
X182267682Y-47950188D01*
X182143200Y-47937928D01*
X181853950Y-47941000D01*
X181695200Y-48099750D01*
X181695200Y-49149000D01*
X181715200Y-49149000D01*
X181715200Y-49403000D01*
X181695200Y-49403000D01*
X181695200Y-49423000D01*
X181441200Y-49423000D01*
X181441200Y-49403000D01*
X181421200Y-49403000D01*
X181421200Y-49149000D01*
X181441200Y-49149000D01*
X181441200Y-48099750D01*
X181282450Y-47941000D01*
X180993200Y-47937928D01*
X180868718Y-47950188D01*
X180749020Y-47986498D01*
X180638706Y-48045463D01*
X180542015Y-48124815D01*
X180476542Y-48204594D01*
X180471162Y-48198038D01*
X180368911Y-48114123D01*
X180378502Y-48096180D01*
X180414812Y-47976482D01*
X180427072Y-47852000D01*
X180427072Y-46352000D01*
X180423038Y-46311038D01*
X180464000Y-46315072D01*
X181964000Y-46315072D01*
X182088482Y-46302812D01*
X182179975Y-46275058D01*
X182176928Y-46306000D01*
G36*
X183642000Y-42080400D02*
G01*
X183662000Y-42080400D01*
X183662000Y-42334400D01*
X183642000Y-42334400D01*
X183642000Y-42354400D01*
X183388000Y-42354400D01*
X183388000Y-42334400D01*
X183368000Y-42334400D01*
X183368000Y-42080400D01*
X183388000Y-42080400D01*
X183388000Y-42060400D01*
X183642000Y-42060400D01*
X183642000Y-42080400D01*
G37*
X183642000Y-42080400D02*
X183662000Y-42080400D01*
X183662000Y-42334400D01*
X183642000Y-42334400D01*
X183642000Y-42354400D01*
X183388000Y-42354400D01*
X183388000Y-42334400D01*
X183368000Y-42334400D01*
X183368000Y-42080400D01*
X183388000Y-42080400D01*
X183388000Y-42060400D01*
X183642000Y-42060400D01*
X183642000Y-42080400D01*
G36*
X187538467Y-32438625D02*
G01*
X187563046Y-32468574D01*
X187592994Y-32493152D01*
X187592997Y-32493155D01*
X187616729Y-32512631D01*
X187682577Y-32566672D01*
X187818950Y-32639564D01*
X187922851Y-32671082D01*
X187966922Y-32684451D01*
X187981300Y-32685867D01*
X188082249Y-32695810D01*
X188082256Y-32695810D01*
X188120809Y-32699607D01*
X188159362Y-32695810D01*
X188180350Y-32695810D01*
X188173108Y-32706457D01*
X188081623Y-32922278D01*
X188034000Y-33151800D01*
X188034000Y-33705800D01*
X189096000Y-33705800D01*
X189096000Y-33685800D01*
X189350000Y-33685800D01*
X189350000Y-33705800D01*
X189370000Y-33705800D01*
X189370000Y-33959800D01*
X189350000Y-33959800D01*
X189350000Y-35409192D01*
X189533373Y-35534576D01*
X189560679Y-35533893D01*
X189740125Y-35461289D01*
X187814986Y-37363780D01*
X187783237Y-37389836D01*
X187735652Y-37447817D01*
X187687744Y-37505495D01*
X187686629Y-37507551D01*
X187685139Y-37509367D01*
X187649766Y-37575546D01*
X187614045Y-37641434D01*
X187613351Y-37643675D01*
X187612247Y-37645740D01*
X187590511Y-37717394D01*
X187568283Y-37789139D01*
X187568039Y-37791475D01*
X187567360Y-37793713D01*
X187560015Y-37868286D01*
X187552217Y-37942933D01*
X187556001Y-37983836D01*
X187556001Y-38019856D01*
X187551149Y-38021328D01*
X187397613Y-38103395D01*
X187263038Y-38213838D01*
X187152595Y-38348413D01*
X187070528Y-38501949D01*
X187019992Y-38668545D01*
X187002928Y-38841799D01*
X187002928Y-39491801D01*
X187019992Y-39665055D01*
X187070528Y-39831651D01*
X187152595Y-39985187D01*
X187263038Y-40119762D01*
X187350816Y-40191800D01*
X187263038Y-40263838D01*
X187152595Y-40398413D01*
X187070528Y-40551949D01*
X187019992Y-40718545D01*
X187002928Y-40891799D01*
X187002928Y-41541801D01*
X187019992Y-41715055D01*
X187070528Y-41881651D01*
X187095073Y-41927570D01*
X186972777Y-42049866D01*
X186925443Y-42002532D01*
X186755925Y-41889264D01*
X186567567Y-41811243D01*
X186439365Y-41785742D01*
X186455000Y-41707139D01*
X186455000Y-41503261D01*
X186415226Y-41303302D01*
X186337205Y-41114944D01*
X186255000Y-40991915D01*
X186255000Y-37074218D01*
X186259040Y-37033200D01*
X186255000Y-36992181D01*
X186255000Y-33959800D01*
X188034000Y-33959800D01*
X188034000Y-34513800D01*
X188081623Y-34743322D01*
X188173108Y-34959143D01*
X188304940Y-35152969D01*
X188472052Y-35317352D01*
X188668023Y-35445974D01*
X188885321Y-35533893D01*
X188912627Y-35534576D01*
X189096000Y-35409192D01*
X189096000Y-33959800D01*
X188034000Y-33959800D01*
X186255000Y-33959800D01*
X186255000Y-33797618D01*
X186259040Y-33756600D01*
X186250901Y-33673967D01*
X186242918Y-33592911D01*
X186195172Y-33435513D01*
X186117636Y-33290454D01*
X186102331Y-33271805D01*
X186039439Y-33195170D01*
X186039437Y-33195168D01*
X186013291Y-33163309D01*
X185981431Y-33137163D01*
X185328245Y-32483978D01*
X185302091Y-32452109D01*
X185174946Y-32347764D01*
X185029887Y-32270228D01*
X184872489Y-32222482D01*
X184749819Y-32210400D01*
X184749818Y-32210400D01*
X184708800Y-32206360D01*
X184693745Y-32207843D01*
X184592962Y-32085038D01*
X184505184Y-32013000D01*
X184592962Y-31940962D01*
X184703405Y-31806387D01*
X184707674Y-31798400D01*
X186898243Y-31798400D01*
X187538467Y-32438625D01*
G37*
X187538467Y-32438625D02*
X187563046Y-32468574D01*
X187592994Y-32493152D01*
X187592997Y-32493155D01*
X187616729Y-32512631D01*
X187682577Y-32566672D01*
X187818950Y-32639564D01*
X187922851Y-32671082D01*
X187966922Y-32684451D01*
X187981300Y-32685867D01*
X188082249Y-32695810D01*
X188082256Y-32695810D01*
X188120809Y-32699607D01*
X188159362Y-32695810D01*
X188180350Y-32695810D01*
X188173108Y-32706457D01*
X188081623Y-32922278D01*
X188034000Y-33151800D01*
X188034000Y-33705800D01*
X189096000Y-33705800D01*
X189096000Y-33685800D01*
X189350000Y-33685800D01*
X189350000Y-33705800D01*
X189370000Y-33705800D01*
X189370000Y-33959800D01*
X189350000Y-33959800D01*
X189350000Y-35409192D01*
X189533373Y-35534576D01*
X189560679Y-35533893D01*
X189740125Y-35461289D01*
X187814986Y-37363780D01*
X187783237Y-37389836D01*
X187735652Y-37447817D01*
X187687744Y-37505495D01*
X187686629Y-37507551D01*
X187685139Y-37509367D01*
X187649766Y-37575546D01*
X187614045Y-37641434D01*
X187613351Y-37643675D01*
X187612247Y-37645740D01*
X187590511Y-37717394D01*
X187568283Y-37789139D01*
X187568039Y-37791475D01*
X187567360Y-37793713D01*
X187560015Y-37868286D01*
X187552217Y-37942933D01*
X187556001Y-37983836D01*
X187556001Y-38019856D01*
X187551149Y-38021328D01*
X187397613Y-38103395D01*
X187263038Y-38213838D01*
X187152595Y-38348413D01*
X187070528Y-38501949D01*
X187019992Y-38668545D01*
X187002928Y-38841799D01*
X187002928Y-39491801D01*
X187019992Y-39665055D01*
X187070528Y-39831651D01*
X187152595Y-39985187D01*
X187263038Y-40119762D01*
X187350816Y-40191800D01*
X187263038Y-40263838D01*
X187152595Y-40398413D01*
X187070528Y-40551949D01*
X187019992Y-40718545D01*
X187002928Y-40891799D01*
X187002928Y-41541801D01*
X187019992Y-41715055D01*
X187070528Y-41881651D01*
X187095073Y-41927570D01*
X186972777Y-42049866D01*
X186925443Y-42002532D01*
X186755925Y-41889264D01*
X186567567Y-41811243D01*
X186439365Y-41785742D01*
X186455000Y-41707139D01*
X186455000Y-41503261D01*
X186415226Y-41303302D01*
X186337205Y-41114944D01*
X186255000Y-40991915D01*
X186255000Y-37074218D01*
X186259040Y-37033200D01*
X186255000Y-36992181D01*
X186255000Y-33959800D01*
X188034000Y-33959800D01*
X188034000Y-34513800D01*
X188081623Y-34743322D01*
X188173108Y-34959143D01*
X188304940Y-35152969D01*
X188472052Y-35317352D01*
X188668023Y-35445974D01*
X188885321Y-35533893D01*
X188912627Y-35534576D01*
X189096000Y-35409192D01*
X189096000Y-33959800D01*
X188034000Y-33959800D01*
X186255000Y-33959800D01*
X186255000Y-33797618D01*
X186259040Y-33756600D01*
X186250901Y-33673967D01*
X186242918Y-33592911D01*
X186195172Y-33435513D01*
X186117636Y-33290454D01*
X186102331Y-33271805D01*
X186039439Y-33195170D01*
X186039437Y-33195168D01*
X186013291Y-33163309D01*
X185981431Y-33137163D01*
X185328245Y-32483978D01*
X185302091Y-32452109D01*
X185174946Y-32347764D01*
X185029887Y-32270228D01*
X184872489Y-32222482D01*
X184749819Y-32210400D01*
X184749818Y-32210400D01*
X184708800Y-32206360D01*
X184693745Y-32207843D01*
X184592962Y-32085038D01*
X184505184Y-32013000D01*
X184592962Y-31940962D01*
X184703405Y-31806387D01*
X184707674Y-31798400D01*
X186898243Y-31798400D01*
X187538467Y-32438625D01*
G36*
X183642000Y-38270400D02*
G01*
X183662000Y-38270400D01*
X183662000Y-38524400D01*
X183642000Y-38524400D01*
X183642000Y-38544400D01*
X183388000Y-38544400D01*
X183388000Y-38524400D01*
X183368000Y-38524400D01*
X183368000Y-38270400D01*
X183388000Y-38270400D01*
X183388000Y-38250400D01*
X183642000Y-38250400D01*
X183642000Y-38270400D01*
G37*
X183642000Y-38270400D02*
X183662000Y-38270400D01*
X183662000Y-38524400D01*
X183642000Y-38524400D01*
X183642000Y-38544400D01*
X183388000Y-38544400D01*
X183388000Y-38524400D01*
X183368000Y-38524400D01*
X183368000Y-38270400D01*
X183388000Y-38270400D01*
X183388000Y-38250400D01*
X183642000Y-38250400D01*
X183642000Y-38270400D01*
G36*
X190463000Y-34718248D02*
G01*
X190463000Y-34907352D01*
X190463829Y-34911519D01*
X190379253Y-34826943D01*
X190393395Y-34812800D01*
X190379253Y-34798658D01*
X190463829Y-34714081D01*
X190463000Y-34718248D01*
G37*
X190463000Y-34718248D02*
X190463000Y-34907352D01*
X190463829Y-34911519D01*
X190379253Y-34826943D01*
X190393395Y-34812800D01*
X190379253Y-34798658D01*
X190463829Y-34714081D01*
X190463000Y-34718248D01*
G36*
X190463000Y-33368248D02*
G01*
X190463000Y-33557352D01*
X190463829Y-33561519D01*
X190412000Y-33509690D01*
X190412000Y-33415910D01*
X190463829Y-33364081D01*
X190463000Y-33368248D01*
G37*
X190463000Y-33368248D02*
X190463000Y-33557352D01*
X190463829Y-33561519D01*
X190412000Y-33509690D01*
X190412000Y-33415910D01*
X190463829Y-33364081D01*
X190463000Y-33368248D01*
G36*
X196684000Y-33415910D02*
G01*
X196684000Y-33509690D01*
X196632171Y-33561519D01*
X196633000Y-33557352D01*
X196633000Y-33368248D01*
X196632171Y-33364081D01*
X196684000Y-33415910D01*
G37*
X196684000Y-33415910D02*
X196684000Y-33509690D01*
X196632171Y-33561519D01*
X196633000Y-33557352D01*
X196633000Y-33368248D01*
X196632171Y-33364081D01*
X196684000Y-33415910D01*
G36*
X174318000Y-32977000D02*
G01*
X174338000Y-32977000D01*
X174338000Y-33231000D01*
X174318000Y-33231000D01*
X174318000Y-33251000D01*
X174064000Y-33251000D01*
X174064000Y-33231000D01*
X174044000Y-33231000D01*
X174044000Y-32977000D01*
X174064000Y-32977000D01*
X174064000Y-32957000D01*
X174318000Y-32957000D01*
X174318000Y-32977000D01*
G37*
X174318000Y-32977000D02*
X174338000Y-32977000D01*
X174338000Y-33231000D01*
X174318000Y-33231000D01*
X174318000Y-33251000D01*
X174064000Y-33251000D01*
X174064000Y-33231000D01*
X174044000Y-33231000D01*
X174044000Y-32977000D01*
X174064000Y-32977000D01*
X174064000Y-32957000D01*
X174318000Y-32957000D01*
X174318000Y-32977000D01*
%TD*%
M02*
